<?xml version="1.0" encoding="UTF-8" standalone="no"?>
<!DOCTYPE svg PUBLIC "-//W3C//DTD SVG 1.1//EN"
 "http://www.w3.org/Graphics/SVG/1.1/DTD/svg11.dtd">
<!-- Generated by graphviz version 12.1.2 (20240928.0832)
 -->
<!-- Title: calendars Pages: 1 -->
<svg width="874pt" height="976pt"
 viewBox="0.00 0.00 874.32 975.60" xmlns="http://www.w3.org/2000/svg" xmlns:xlink="http://www.w3.org/1999/xlink">
<g id="graph0" class="graph" transform="scale(1 1) rotate(0) translate(4 971.6)">
<title>calendars</title>
<polygon fill="white" stroke="none" points="-4,4 -4,-971.6 870.32,-971.6 870.32,4 -4,4"/>
<!-- calendars -->
<g id="node1" class="node">
<title>calendars</title>
<polygon fill="#efefef" stroke="none" points="343.18,-543 343.18,-578.6 549.63,-578.6 549.63,-543 343.18,-543"/>
<polygon fill="none" stroke="black" points="343.18,-543 343.18,-578.6 549.63,-578.6 549.63,-543 343.18,-543"/>
<text text-anchor="start" x="350.18" y="-556.4" font-family="Arial Bold" font-size="18.00">calendars</text>
<text text-anchor="start" x="418.14" y="-556.4" font-family="Arial" font-size="14.00">    </text>
<text text-anchor="start" x="449.26" y="-556.4" font-family="Arial" font-size="14.00" fill="#666666">[BASE TABLE]</text>
<polygon fill="none" stroke="black" points="343.18,-512.2 343.18,-543 549.63,-543 549.63,-512.2 343.18,-512.2"/>
<text text-anchor="start" x="350.18" y="-524.4" font-family="Arial" font-size="14.00">calendar_id </text>
<text text-anchor="start" x="426.46" y="-524.4" font-family="Arial" font-size="14.00" fill="#666666">[bigint(20)]</text>
<polygon fill="none" stroke="black" points="343.18,-481.4 343.18,-512.2 549.63,-512.2 549.63,-481.4 343.18,-481.4"/>
<text text-anchor="start" x="350.18" y="-493.6" font-family="Arial" font-size="14.00">owner_user_id </text>
<text text-anchor="start" x="445.91" y="-493.6" font-family="Arial" font-size="14.00" fill="#666666">[bigint(20)]</text>
<polygon fill="none" stroke="black" points="343.18,-450.6 343.18,-481.4 549.63,-481.4 549.63,-450.6 343.18,-450.6"/>
<text text-anchor="start" x="350.18" y="-462.8" font-family="Arial" font-size="14.00">name </text>
<text text-anchor="start" x="389.09" y="-462.8" font-family="Arial" font-size="14.00" fill="#666666">[varchar(255)]</text>
<polygon fill="none" stroke="black" points="343.18,-419.8 343.18,-450.6 549.63,-450.6 549.63,-419.8 343.18,-419.8"/>
<text text-anchor="start" x="350.18" y="-432" font-family="Arial" font-size="14.00">color </text>
<text text-anchor="start" x="384.42" y="-432" font-family="Arial" font-size="14.00" fill="#666666">[varchar(6)]</text>
<polygon fill="none" stroke="black" points="343.18,-389 343.18,-419.8 549.63,-419.8 549.63,-389 343.18,-389"/>
<text text-anchor="start" x="350.18" y="-401.2" font-family="Arial" font-size="14.00">description </text>
<text text-anchor="start" x="421.78" y="-401.2" font-family="Arial" font-size="14.00" fill="#666666">[text]</text>
<polygon fill="none" stroke="black" stroke-width="3" points="341.68,-387.5 341.68,-580.1 551.13,-580.1 551.13,-387.5 341.68,-387.5"/>
</g>
<!-- users -->
<g id="node4" class="node">
<title>users</title>
<polygon fill="#efefef" stroke="none" points="339.41,-228 339.41,-263.6 553.4,-263.6 553.4,-228 339.41,-228"/>
<polygon fill="none" stroke="black" points="339.41,-228 339.41,-263.6 553.4,-263.6 553.4,-228 339.41,-228"/>
<text text-anchor="start" x="365.66" y="-241.4" font-family="Arial Bold" font-size="18.00">users</text>
<text text-anchor="start" x="402.66" y="-241.4" font-family="Arial" font-size="14.00">    </text>
<text text-anchor="start" x="433.78" y="-241.4" font-family="Arial" font-size="14.00" fill="#666666">[BASE TABLE]</text>
<polygon fill="none" stroke="black" points="339.41,-197.2 339.41,-228 553.4,-228 553.4,-197.2 339.41,-197.2"/>
<text text-anchor="start" x="346.41" y="-209.4" font-family="Arial" font-size="14.00">user_id </text>
<text text-anchor="start" x="396.22" y="-209.4" font-family="Arial" font-size="14.00" fill="#666666">[bigint(20)]</text>
<polygon fill="none" stroke="black" points="339.41,-166.4 339.41,-197.2 553.4,-197.2 553.4,-166.4 339.41,-166.4"/>
<text text-anchor="start" x="346.41" y="-178.6" font-family="Arial" font-size="14.00">email </text>
<text text-anchor="start" x="383.75" y="-178.6" font-family="Arial" font-size="14.00" fill="#666666">[varchar(320)]</text>
<polygon fill="none" stroke="black" points="339.41,-135.6 339.41,-166.4 553.4,-166.4 553.4,-135.6 339.41,-135.6"/>
<text text-anchor="start" x="346.41" y="-147.8" font-family="Arial" font-size="14.00">first_name </text>
<text text-anchor="start" x="415.66" y="-147.8" font-family="Arial" font-size="14.00" fill="#666666">[varchar(255)]</text>
<polygon fill="none" stroke="black" points="339.41,-104.8 339.41,-135.6 553.4,-135.6 553.4,-104.8 339.41,-104.8"/>
<text text-anchor="start" x="346.41" y="-117" font-family="Arial" font-size="14.00">last_name </text>
<text text-anchor="start" x="414.89" y="-117" font-family="Arial" font-size="14.00" fill="#666666">[varchar(255)]</text>
<polygon fill="none" stroke="black" points="339.41,-74 339.41,-104.8 553.4,-104.8 553.4,-74 339.41,-74"/>
<text text-anchor="start" x="346.41" y="-86.2" font-family="Arial" font-size="14.00">password_hash </text>
<text text-anchor="start" x="448.36" y="-86.2" font-family="Arial" font-size="14.00" fill="#666666">[varbinary(255)]</text>
<polygon fill="none" stroke="black" points="339.41,-43.2 339.41,-74 553.4,-74 553.4,-43.2 339.41,-43.2"/>
<text text-anchor="start" x="346.41" y="-55.4" font-family="Arial" font-size="14.00">middle_name </text>
<text text-anchor="start" x="434.35" y="-55.4" font-family="Arial" font-size="14.00" fill="#666666">[varchar(255)]</text>
</g>
<!-- calendars&#45;&gt;users -->
<g id="edge3" class="edge">
<title>calendars:owner_user_id&#45;&gt;users:user_id</title>
<path fill="none" stroke="black" d="M560.72,-496.17C677.06,-481.47 677.27,-212.6 554.4,-212.6"/>
<polygon fill="black" stroke="black" points="560.94,-496.16 550.68,-492.29 555.62,-496.49 551.3,-496.76 551.3,-496.76 551.3,-496.76 555.62,-496.49 551.24,-501.27 560.94,-496.16"/>
<text text-anchor="start" x="557.63" y="-506.8" font-family="Arial" font-size="10.00">FOREIGN KEY (owner_user_id) REFERENCES users (user_id)</text>
</g>
<!-- organization_calendars_history -->
<g id="node2" class="node">
<title>organization_calendars_history</title>
<polygon fill="#efefef" stroke="none" points="43.2,-888.8 43.2,-924.4 407.61,-924.4 407.61,-888.8 43.2,-888.8"/>
<polygon fill="none" stroke="black" points="43.2,-888.8 43.2,-924.4 407.61,-924.4 407.61,-888.8 43.2,-888.8"/>
<text text-anchor="start" x="50.2" y="-902.2" font-family="Arial Bold" font-size="18.00">organization_calendars_history</text>
<text text-anchor="start" x="276.12" y="-902.2" font-family="Arial" font-size="14.00">    </text>
<text text-anchor="start" x="307.24" y="-902.2" font-family="Arial" font-size="14.00" fill="#666666">[BASE TABLE]</text>
<polygon fill="none" stroke="black" points="43.2,-858 43.2,-888.8 407.61,-888.8 407.61,-858 43.2,-858"/>
<text text-anchor="start" x="50.2" y="-870.2" font-family="Arial" font-size="14.00">organization_calendar_event_id </text>
<text text-anchor="start" x="252.57" y="-870.2" font-family="Arial" font-size="14.00" fill="#666666">[bigint(20)]</text>
<polygon fill="none" stroke="black" points="43.2,-827.2 43.2,-858 407.61,-858 407.61,-827.2 43.2,-827.2"/>
<text text-anchor="start" x="50.2" y="-839.4" font-family="Arial" font-size="14.00">organization_id </text>
<text text-anchor="start" x="149.05" y="-839.4" font-family="Arial" font-size="14.00" fill="#666666">[bigint(20)]</text>
<polygon fill="none" stroke="black" points="43.2,-796.4 43.2,-827.2 407.61,-827.2 407.61,-796.4 43.2,-796.4"/>
<text text-anchor="start" x="50.2" y="-808.6" font-family="Arial" font-size="14.00">calendar_id </text>
<text text-anchor="start" x="126.48" y="-808.6" font-family="Arial" font-size="14.00" fill="#666666">[bigint(20)]</text>
<polygon fill="none" stroke="black" points="43.2,-765.6 43.2,-796.4 407.61,-796.4 407.61,-765.6 43.2,-765.6"/>
<text text-anchor="start" x="50.2" y="-777.8" font-family="Arial" font-size="14.00">admin_user_id </text>
<text text-anchor="start" x="145.92" y="-777.8" font-family="Arial" font-size="14.00" fill="#666666">[bigint(20)]</text>
<polygon fill="none" stroke="black" points="43.2,-734.8 43.2,-765.6 407.61,-765.6 407.61,-734.8 43.2,-734.8"/>
<text text-anchor="start" x="50.2" y="-747" font-family="Arial" font-size="14.00">added </text>
<text text-anchor="start" x="93.02" y="-747" font-family="Arial" font-size="14.00" fill="#666666">[tinyint(1)]</text>
<polygon fill="none" stroke="black" points="43.2,-704 43.2,-734.8 407.61,-734.8 407.61,-704 43.2,-704"/>
<text text-anchor="start" x="50.2" y="-716.2" font-family="Arial" font-size="14.00">created_at </text>
<text text-anchor="start" x="120.25" y="-716.2" font-family="Arial" font-size="14.00" fill="#666666">[datetime(6)]</text>
</g>
<!-- organization_calendars_history&#45;&gt;calendars -->
<g id="edge1" class="edge">
<title>organization_calendars_history:calendar_id&#45;&gt;calendars:calendar_id</title>
<path fill="none" stroke="black" d="M418.73,-810.98C472.01,-801.71 439.9,-715.41 407.61,-660.8 390.92,-632.56 359.93,-653.01 343.18,-624.8 321.13,-587.65 298.98,-527.6 342.18,-527.6"/>
<polygon fill="black" stroke="black" points="418.91,-810.97 408.58,-807.29 413.6,-811.4 409.28,-811.75 409.28,-811.75 409.28,-811.75 413.6,-811.4 409.31,-816.26 418.91,-810.97"/>
<text text-anchor="start" x="415.61" y="-821.8" font-family="Arial" font-size="10.00">FOREIGN KEY (calendar_id) REFERENCES calendars (calendar_id)</text>
</g>
<!-- calendar_writes_history -->
<g id="node3" class="node">
<title>calendar_writes_history</title>
<polygon fill="#efefef" stroke="none" points="511.69,-873.4 511.69,-909 823.12,-909 823.12,-873.4 511.69,-873.4"/>
<polygon fill="none" stroke="black" points="511.69,-873.4 511.69,-909 823.12,-909 823.12,-873.4 511.69,-873.4"/>
<text text-anchor="start" x="518.69" y="-886.8" font-family="Arial Bold" font-size="18.00">calendar_writes_history</text>
<text text-anchor="start" x="691.63" y="-886.8" font-family="Arial" font-size="14.00">    </text>
<text text-anchor="start" x="722.75" y="-886.8" font-family="Arial" font-size="14.00" fill="#666666">[BASE TABLE]</text>
<polygon fill="none" stroke="black" points="511.69,-842.6 511.69,-873.4 823.12,-873.4 823.12,-842.6 511.69,-842.6"/>
<text text-anchor="start" x="518.69" y="-854.8" font-family="Arial" font-size="14.00">calendar_write_event_id </text>
<text text-anchor="start" x="674.34" y="-854.8" font-family="Arial" font-size="14.00" fill="#666666">[bigint(20)]</text>
<polygon fill="none" stroke="black" points="511.69,-811.8 511.69,-842.6 823.12,-842.6 823.12,-811.8 511.69,-811.8"/>
<text text-anchor="start" x="518.69" y="-824" font-family="Arial" font-size="14.00">calendar_id </text>
<text text-anchor="start" x="594.97" y="-824" font-family="Arial" font-size="14.00" fill="#666666">[bigint(20)]</text>
<polygon fill="none" stroke="black" points="511.69,-781 511.69,-811.8 823.12,-811.8 823.12,-781 511.69,-781"/>
<text text-anchor="start" x="518.69" y="-793.2" font-family="Arial" font-size="14.00">writer_user_id </text>
<text text-anchor="start" x="610.5" y="-793.2" font-family="Arial" font-size="14.00" fill="#666666">[bigint(20)]</text>
<polygon fill="none" stroke="black" points="511.69,-750.2 511.69,-781 823.12,-781 823.12,-750.2 511.69,-750.2"/>
<text text-anchor="start" x="518.69" y="-762.4" font-family="Arial" font-size="14.00">ical_encrypted </text>
<text text-anchor="start" x="612.86" y="-762.4" font-family="Arial" font-size="14.00" fill="#666666">[longblob]</text>
<polygon fill="none" stroke="black" points="511.69,-719.4 511.69,-750.2 823.12,-750.2 823.12,-719.4 511.69,-719.4"/>
<text text-anchor="start" x="518.69" y="-731.6" font-family="Arial" font-size="14.00">created_at </text>
<text text-anchor="start" x="588.74" y="-731.6" font-family="Arial" font-size="14.00" fill="#666666">[datetime(6)]</text>
</g>
<!-- calendar_writes_history&#45;&gt;calendars -->
<g id="edge2" class="edge">
<title>calendar_writes_history:calendar_id&#45;&gt;calendars:calendar_id</title>
<path fill="none" stroke="black" d="M500.36,-826.38C448.81,-817.38 491.7,-736.27 511.69,-676.2 520.66,-649.26 540.61,-651.72 549.63,-624.8 563.34,-583.83 593.83,-527.6 550.63,-527.6"/>
<polygon fill="black" stroke="black" points="500.39,-826.38 510,-831.66 505.71,-826.8 510.02,-827.15 510.02,-827.15 510.02,-827.15 505.71,-826.8 510.71,-822.69 500.39,-826.38"/>
<text text-anchor="start" x="517.69" y="-837.2" font-family="Arial" font-size="10.00">FOREIGN KEY (calendar_id) REFERENCES calendars (calendar_id)</text>
</g>
</g>
</svg>
