<?xml version="1.0" encoding="UTF-8" standalone="no"?>
<!DOCTYPE svg PUBLIC "-//W3C//DTD SVG 1.1//EN"
 "http://www.w3.org/Graphics/SVG/1.1/DTD/svg11.dtd">
<!-- Generated by graphviz version 12.1.2 (20240928.0832)
 -->
<!-- Title: calendars Pages: 1 -->
<svg width="1161pt" height="976pt"
 viewBox="0.00 0.00 1160.84 975.60" xmlns="http://www.w3.org/2000/svg" xmlns:xlink="http://www.w3.org/1999/xlink">
<g id="graph0" class="graph" transform="scale(1 1) rotate(0) translate(4 971.6)">
<title>calendars</title>
<polygon fill="white" stroke="none" points="-4,4 -4,-971.6 1156.84,-971.6 1156.84,4 -4,4"/>
<!-- calendars -->
<g id="node1" class="node">
<title>calendars</title>
<polygon fill="#efefef" stroke="none" points="452.2,-604.6 452.2,-640.2 658.64,-640.2 658.64,-604.6 452.2,-604.6"/>
<polygon fill="none" stroke="black" points="452.2,-604.6 452.2,-640.2 658.64,-640.2 658.64,-604.6 452.2,-604.6"/>
<text text-anchor="start" x="459.2" y="-618" font-family="Arial Bold" font-size="18.00">calendars</text>
<text text-anchor="start" x="527.15" y="-618" font-family="Arial" font-size="14.00">    </text>
<text text-anchor="start" x="558.27" y="-618" font-family="Arial" font-size="14.00" fill="#666666">[BASE TABLE]</text>
<polygon fill="none" stroke="black" points="452.2,-573.8 452.2,-604.6 658.64,-604.6 658.64,-573.8 452.2,-573.8"/>
<text text-anchor="start" x="459.2" y="-586" font-family="Arial" font-size="14.00">id </text>
<text text-anchor="start" x="473.98" y="-586" font-family="Arial" font-size="14.00" fill="#666666">[int(11)]</text>
<polygon fill="none" stroke="black" points="452.2,-543 452.2,-573.8 658.64,-573.8 658.64,-543 452.2,-543"/>
<text text-anchor="start" x="459.2" y="-555.2" font-family="Arial" font-size="14.00">owner_id </text>
<text text-anchor="start" x="519.9" y="-555.2" font-family="Arial" font-size="14.00" fill="#666666">[int(11)]</text>
<polygon fill="none" stroke="black" points="452.2,-512.2 452.2,-543 658.64,-543 658.64,-512.2 452.2,-512.2"/>
<text text-anchor="start" x="459.2" y="-524.4" font-family="Arial" font-size="14.00">name </text>
<text text-anchor="start" x="498.11" y="-524.4" font-family="Arial" font-size="14.00" fill="#666666">[varchar(255)]</text>
<polygon fill="none" stroke="black" points="452.2,-481.4 452.2,-512.2 658.64,-512.2 658.64,-481.4 452.2,-481.4"/>
<text text-anchor="start" x="459.2" y="-493.6" font-family="Arial" font-size="14.00">description </text>
<text text-anchor="start" x="530.79" y="-493.6" font-family="Arial" font-size="14.00" fill="#666666">[text]</text>
<polygon fill="none" stroke="black" points="452.2,-450.6 452.2,-481.4 658.64,-481.4 658.64,-450.6 452.2,-450.6"/>
<text text-anchor="start" x="459.2" y="-462.8" font-family="Arial" font-size="14.00">ical </text>
<text text-anchor="start" x="484.09" y="-462.8" font-family="Arial" font-size="14.00" fill="#666666">[longblob]</text>
<polygon fill="none" stroke="black" points="452.2,-419.8 452.2,-450.6 658.64,-450.6 658.64,-419.8 452.2,-419.8"/>
<text text-anchor="start" x="459.2" y="-432" font-family="Arial" font-size="14.00">members_only </text>
<text text-anchor="start" x="554.9" y="-432" font-family="Arial" font-size="14.00" fill="#666666">[tinyint(1)]</text>
<polygon fill="none" stroke="black" points="452.2,-389 452.2,-419.8 658.64,-419.8 658.64,-389 452.2,-389"/>
<text text-anchor="start" x="459.2" y="-401.2" font-family="Arial" font-size="14.00">color </text>
<text text-anchor="start" x="493.43" y="-401.2" font-family="Arial" font-size="14.00" fill="#666666">[varchar(6)]</text>
<polygon fill="none" stroke="black" stroke-width="3" points="450.7,-387.5 450.7,-641.7 660.14,-641.7 660.14,-387.5 450.7,-387.5"/>
</g>
<!-- users -->
<g id="node5" class="node">
<title>users</title>
<polygon fill="#efefef" stroke="none" points="448.42,-228 448.42,-263.6 662.42,-263.6 662.42,-228 448.42,-228"/>
<polygon fill="none" stroke="black" points="448.42,-228 448.42,-263.6 662.42,-263.6 662.42,-228 448.42,-228"/>
<text text-anchor="start" x="474.68" y="-241.4" font-family="Arial Bold" font-size="18.00">users</text>
<text text-anchor="start" x="511.67" y="-241.4" font-family="Arial" font-size="14.00">    </text>
<text text-anchor="start" x="542.79" y="-241.4" font-family="Arial" font-size="14.00" fill="#666666">[BASE TABLE]</text>
<polygon fill="none" stroke="black" points="448.42,-197.2 448.42,-228 662.42,-228 662.42,-197.2 448.42,-197.2"/>
<text text-anchor="start" x="455.42" y="-209.4" font-family="Arial" font-size="14.00">id </text>
<text text-anchor="start" x="470.21" y="-209.4" font-family="Arial" font-size="14.00" fill="#666666">[int(11)]</text>
<polygon fill="none" stroke="black" points="448.42,-166.4 448.42,-197.2 662.42,-197.2 662.42,-166.4 448.42,-166.4"/>
<text text-anchor="start" x="455.42" y="-178.6" font-family="Arial" font-size="14.00">email </text>
<text text-anchor="start" x="492.77" y="-178.6" font-family="Arial" font-size="14.00" fill="#666666">[varchar(320)]</text>
<polygon fill="none" stroke="black" points="448.42,-135.6 448.42,-166.4 662.42,-166.4 662.42,-135.6 448.42,-135.6"/>
<text text-anchor="start" x="455.42" y="-147.8" font-family="Arial" font-size="14.00">first_name </text>
<text text-anchor="start" x="524.67" y="-147.8" font-family="Arial" font-size="14.00" fill="#666666">[varchar(255)]</text>
<polygon fill="none" stroke="black" points="448.42,-104.8 448.42,-135.6 662.42,-135.6 662.42,-104.8 448.42,-104.8"/>
<text text-anchor="start" x="455.42" y="-117" font-family="Arial" font-size="14.00">last_name </text>
<text text-anchor="start" x="523.91" y="-117" font-family="Arial" font-size="14.00" fill="#666666">[varchar(255)]</text>
<polygon fill="none" stroke="black" points="448.42,-74 448.42,-104.8 662.42,-104.8 662.42,-74 448.42,-74"/>
<text text-anchor="start" x="455.42" y="-86.2" font-family="Arial" font-size="14.00">password_hash </text>
<text text-anchor="start" x="557.37" y="-86.2" font-family="Arial" font-size="14.00" fill="#666666">[varbinary(255)]</text>
<polygon fill="none" stroke="black" points="448.42,-43.2 448.42,-74 662.42,-74 662.42,-43.2 448.42,-43.2"/>
<text text-anchor="start" x="455.42" y="-55.4" font-family="Arial" font-size="14.00">middle_name </text>
<text text-anchor="start" x="543.36" y="-55.4" font-family="Arial" font-size="14.00" fill="#666666">[varchar(255)]</text>
</g>
<!-- calendars&#45;&gt;users -->
<g id="edge4" class="edge">
<title>calendars:owner_id&#45;&gt;users:id</title>
<path fill="none" stroke="black" d="M669.77,-557.88C813.43,-543.04 813.66,-212.6 663.42,-212.6"/>
<polygon fill="black" stroke="black" points="669.96,-557.87 659.75,-553.89 664.64,-558.15 660.31,-558.37 660.31,-558.37 660.31,-558.37 664.64,-558.15 660.21,-562.88 669.96,-557.87"/>
<text text-anchor="start" x="666.64" y="-568.4" font-family="Arial" font-size="10.00">FOREIGN KEY (owner_id) REFERENCES users (id)</text>
</g>
<!-- users_calendars -->
<g id="node2" class="node">
<title>users_calendars</title>
<polygon fill="#efefef" stroke="none" points="43.2,-873.4 43.2,-909 295.64,-909 295.64,-873.4 43.2,-873.4"/>
<polygon fill="none" stroke="black" points="43.2,-873.4 43.2,-909 295.64,-909 295.64,-873.4 43.2,-873.4"/>
<text text-anchor="start" x="50.2" y="-886.8" font-family="Arial Bold" font-size="18.00">users_calendars</text>
<text text-anchor="start" x="164.15" y="-886.8" font-family="Arial" font-size="14.00">    </text>
<text text-anchor="start" x="195.27" y="-886.8" font-family="Arial" font-size="14.00" fill="#666666">[BASE TABLE]</text>
<polygon fill="none" stroke="black" points="43.2,-842.6 43.2,-873.4 295.64,-873.4 295.64,-842.6 43.2,-842.6"/>
<text text-anchor="start" x="50.2" y="-854.8" font-family="Arial" font-size="14.00">user_id </text>
<text text-anchor="start" x="100.01" y="-854.8" font-family="Arial" font-size="14.00" fill="#666666">[int(11)]</text>
<polygon fill="none" stroke="black" points="43.2,-811.8 43.2,-842.6 295.64,-842.6 295.64,-811.8 43.2,-811.8"/>
<text text-anchor="start" x="50.2" y="-824" font-family="Arial" font-size="14.00">calendar_id </text>
<text text-anchor="start" x="126.48" y="-824" font-family="Arial" font-size="14.00" fill="#666666">[int(11)]</text>
<polygon fill="none" stroke="black" points="43.2,-781 43.2,-811.8 295.64,-811.8 295.64,-781 43.2,-781"/>
<text text-anchor="start" x="50.2" y="-793.2" font-family="Arial" font-size="14.00">color </text>
<text text-anchor="start" x="84.43" y="-793.2" font-family="Arial" font-size="14.00" fill="#666666">[varchar(6)]</text>
</g>
<!-- users_calendars&#45;&gt;calendars -->
<g id="edge1" class="edge">
<title>users_calendars:calendar_id&#45;&gt;calendars:id</title>
<path fill="none" stroke="black" d="M306.9,-826.23C344.5,-818.26 322.11,-763.09 347.42,-722.4 387.06,-658.68 376.15,-589.2 451.2,-589.2"/>
<polygon fill="black" stroke="black" points="306.93,-826.22 296.55,-822.69 301.62,-826.73 297.31,-827.14 297.31,-827.14 297.31,-827.14 301.62,-826.73 297.4,-831.65 306.93,-826.22"/>
<text text-anchor="start" x="303.64" y="-837.2" font-family="Arial" font-size="10.00">FOREIGN KEY (calendar_id) REFERENCES calendars (id)</text>
</g>
<!-- calendars_access_codes -->
<g id="node3" class="node">
<title>calendars_access_codes</title>
<polygon fill="#efefef" stroke="none" points="399.72,-888.8 399.72,-924.4 711.12,-924.4 711.12,-888.8 399.72,-888.8"/>
<polygon fill="none" stroke="black" points="399.72,-888.8 399.72,-924.4 711.12,-924.4 711.12,-888.8 399.72,-888.8"/>
<text text-anchor="start" x="406.72" y="-902.2" font-family="Arial Bold" font-size="18.00">calendars_access_codes</text>
<text text-anchor="start" x="579.63" y="-902.2" font-family="Arial" font-size="14.00">    </text>
<text text-anchor="start" x="610.75" y="-902.2" font-family="Arial" font-size="14.00" fill="#666666">[BASE TABLE]</text>
<polygon fill="none" stroke="black" points="399.72,-858 399.72,-888.8 711.12,-888.8 711.12,-858 399.72,-858"/>
<text text-anchor="start" x="406.72" y="-870.2" font-family="Arial" font-size="14.00">id </text>
<text text-anchor="start" x="421.51" y="-870.2" font-family="Arial" font-size="14.00" fill="#666666">[int(11)]</text>
<polygon fill="none" stroke="black" points="399.72,-827.2 399.72,-858 711.12,-858 711.12,-827.2 399.72,-827.2"/>
<text text-anchor="start" x="406.72" y="-839.4" font-family="Arial" font-size="14.00">calendar_id </text>
<text text-anchor="start" x="483" y="-839.4" font-family="Arial" font-size="14.00" fill="#666666">[int(11)]</text>
<polygon fill="none" stroke="black" points="399.72,-796.4 399.72,-827.2 711.12,-827.2 711.12,-796.4 399.72,-796.4"/>
<text text-anchor="start" x="406.72" y="-808.6" font-family="Arial" font-size="14.00">code </text>
<text text-anchor="start" x="440.97" y="-808.6" font-family="Arial" font-size="14.00" fill="#666666">[varchar(64)]</text>
<polygon fill="none" stroke="black" points="399.72,-765.6 399.72,-796.4 711.12,-796.4 711.12,-765.6 399.72,-765.6"/>
<text text-anchor="start" x="406.72" y="-777.8" font-family="Arial" font-size="14.00">expires_at </text>
<text text-anchor="start" x="475.2" y="-777.8" font-family="Arial" font-size="14.00" fill="#666666">[datetime(6)]</text>
</g>
<!-- calendars_access_codes&#45;&gt;calendars -->
<g id="edge2" class="edge">
<title>calendars_access_codes:calendar_id&#45;&gt;calendars:id</title>
<path fill="none" stroke="black" d="M721.89,-839.58C762.84,-810.99 713.44,-589.2 659.64,-589.2"/>
<polygon fill="black" stroke="black" points="721.99,-839.55 711.11,-838.2 716.89,-841.12 712.76,-842.4 712.76,-842.4 712.76,-842.4 716.89,-841.12 713.77,-846.8 721.99,-839.55"/>
<text text-anchor="start" x="649.63" y="-826.6" font-family="Arial" font-size="10.00">FOREIGN KEY (calendar_id) REFERENCES calendars (id)</text>
</g>
<!-- users_calendars_bans -->
<g id="node4" class="node">
<title>users_calendars_bans</title>
<polygon fill="#efefef" stroke="none" points="815.2,-888.8 815.2,-924.4 1109.64,-924.4 1109.64,-888.8 815.2,-888.8"/>
<polygon fill="none" stroke="black" points="815.2,-888.8 815.2,-924.4 1109.64,-924.4 1109.64,-888.8 815.2,-888.8"/>
<text text-anchor="start" x="822.2" y="-902.2" font-family="Arial Bold" font-size="18.00">users_calendars_bans</text>
<text text-anchor="start" x="978.15" y="-902.2" font-family="Arial" font-size="14.00">    </text>
<text text-anchor="start" x="1009.26" y="-902.2" font-family="Arial" font-size="14.00" fill="#666666">[BASE TABLE]</text>
<polygon fill="none" stroke="black" points="815.2,-858 815.2,-888.8 1109.64,-888.8 1109.64,-858 815.2,-858"/>
<text text-anchor="start" x="822.2" y="-870.2" font-family="Arial" font-size="14.00">user_id </text>
<text text-anchor="start" x="872.01" y="-870.2" font-family="Arial" font-size="14.00" fill="#666666">[int(11)]</text>
<polygon fill="none" stroke="black" points="815.2,-827.2 815.2,-858 1109.64,-858 1109.64,-827.2 815.2,-827.2"/>
<text text-anchor="start" x="822.2" y="-839.4" font-family="Arial" font-size="14.00">calendar_id </text>
<text text-anchor="start" x="898.48" y="-839.4" font-family="Arial" font-size="14.00" fill="#666666">[int(11)]</text>
<polygon fill="none" stroke="black" points="815.2,-796.4 815.2,-827.2 1109.64,-827.2 1109.64,-796.4 815.2,-796.4"/>
<text text-anchor="start" x="822.2" y="-808.6" font-family="Arial" font-size="14.00">reason </text>
<text text-anchor="start" x="868.9" y="-808.6" font-family="Arial" font-size="14.00" fill="#666666">[varchar(255)]</text>
<polygon fill="none" stroke="black" points="815.2,-765.6 815.2,-796.4 1109.64,-796.4 1109.64,-765.6 815.2,-765.6"/>
<text text-anchor="start" x="822.2" y="-777.8" font-family="Arial" font-size="14.00">expires_at </text>
<text text-anchor="start" x="890.69" y="-777.8" font-family="Arial" font-size="14.00" fill="#666666">[datetime(6)]</text>
</g>
<!-- users_calendars_bans&#45;&gt;calendars -->
<g id="edge3" class="edge">
<title>users_calendars_bans:calendar_id&#45;&gt;calendars:id</title>
<path fill="none" stroke="black" d="M803.85,-841.7C760.77,-833.37 790.83,-769.09 763.42,-722.4 725.43,-657.68 734.69,-589.2 659.64,-589.2"/>
<polygon fill="black" stroke="black" points="803.91,-841.7 813.48,-847.05 809.22,-842.17 813.54,-842.54 813.54,-842.54 813.54,-842.54 809.22,-842.17 814.26,-838.09 803.91,-841.7"/>
<text text-anchor="start" x="543.23" y="-852.6" font-family="Arial" font-size="10.00">FOREIGN KEY (calendar_id) REFERENCES calendars (id)</text>
</g>
</g>
</svg>
