<?xml version="1.0" encoding="UTF-8" standalone="no"?>
<!DOCTYPE svg PUBLIC "-//W3C//DTD SVG 1.1//EN"
 "http://www.w3.org/Graphics/SVG/1.1/DTD/svg11.dtd">
<!-- Generated by graphviz version 12.1.2 (20240928.0832)
 -->
<!-- Title: calendars Pages: 1 -->
<svg width="1282pt" height="945pt"
 viewBox="0.00 0.00 1281.83 944.80" xmlns="http://www.w3.org/2000/svg" xmlns:xlink="http://www.w3.org/1999/xlink">
<g id="graph0" class="graph" transform="scale(1 1) rotate(0) translate(4 940.8)">
<title>calendars</title>
<polygon fill="white" stroke="none" points="-4,4 -4,-940.8 1277.83,-940.8 1277.83,4 -4,4"/>
<!-- calendars -->
<g id="node1" class="node">
<title>calendars</title>
<polygon fill="#efefef" stroke="none" points="529.69,-512.2 529.69,-547.8 736.14,-547.8 736.14,-512.2 529.69,-512.2"/>
<polygon fill="none" stroke="black" points="529.69,-512.2 529.69,-547.8 736.14,-547.8 736.14,-512.2 529.69,-512.2"/>
<text text-anchor="start" x="536.69" y="-525.6" font-family="Arial Bold" font-size="18.00">calendars</text>
<text text-anchor="start" x="604.65" y="-525.6" font-family="Arial" font-size="14.00">    </text>
<text text-anchor="start" x="635.76" y="-525.6" font-family="Arial" font-size="14.00" fill="#666666">[BASE TABLE]</text>
<polygon fill="none" stroke="black" points="529.69,-481.4 529.69,-512.2 736.14,-512.2 736.14,-481.4 529.69,-481.4"/>
<text text-anchor="start" x="536.69" y="-493.6" font-family="Arial" font-size="14.00">calendar_id </text>
<text text-anchor="start" x="612.96" y="-493.6" font-family="Arial" font-size="14.00" fill="#666666">[bigint(20)]</text>
<polygon fill="none" stroke="black" points="529.69,-450.6 529.69,-481.4 736.14,-481.4 736.14,-450.6 529.69,-450.6"/>
<text text-anchor="start" x="536.69" y="-462.8" font-family="Arial" font-size="14.00">owner_user_id </text>
<text text-anchor="start" x="632.41" y="-462.8" font-family="Arial" font-size="14.00" fill="#666666">[bigint(20)]</text>
<polygon fill="none" stroke="black" points="529.69,-419.8 529.69,-450.6 736.14,-450.6 736.14,-419.8 529.69,-419.8"/>
<text text-anchor="start" x="536.69" y="-432" font-family="Arial" font-size="14.00">name </text>
<text text-anchor="start" x="575.6" y="-432" font-family="Arial" font-size="14.00" fill="#666666">[varchar(255)]</text>
<polygon fill="none" stroke="black" points="529.69,-389 529.69,-419.8 736.14,-419.8 736.14,-389 529.69,-389"/>
<text text-anchor="start" x="536.69" y="-401.2" font-family="Arial" font-size="14.00">description </text>
<text text-anchor="start" x="608.28" y="-401.2" font-family="Arial" font-size="14.00" fill="#666666">[text]</text>
<polygon fill="none" stroke="black" stroke-width="3" points="528.19,-387.5 528.19,-549.3 737.64,-549.3 737.64,-387.5 528.19,-387.5"/>
</g>
<!-- users -->
<g id="node5" class="node">
<title>users</title>
<polygon fill="#efefef" stroke="none" points="525.92,-228 525.92,-263.6 739.91,-263.6 739.91,-228 525.92,-228"/>
<polygon fill="none" stroke="black" points="525.92,-228 525.92,-263.6 739.91,-263.6 739.91,-228 525.92,-228"/>
<text text-anchor="start" x="552.17" y="-241.4" font-family="Arial Bold" font-size="18.00">users</text>
<text text-anchor="start" x="589.16" y="-241.4" font-family="Arial" font-size="14.00">    </text>
<text text-anchor="start" x="620.28" y="-241.4" font-family="Arial" font-size="14.00" fill="#666666">[BASE TABLE]</text>
<polygon fill="none" stroke="black" points="525.92,-197.2 525.92,-228 739.91,-228 739.91,-197.2 525.92,-197.2"/>
<text text-anchor="start" x="532.92" y="-209.4" font-family="Arial" font-size="14.00">user_id </text>
<text text-anchor="start" x="582.72" y="-209.4" font-family="Arial" font-size="14.00" fill="#666666">[bigint(20)]</text>
<polygon fill="none" stroke="black" points="525.92,-166.4 525.92,-197.2 739.91,-197.2 739.91,-166.4 525.92,-166.4"/>
<text text-anchor="start" x="532.92" y="-178.6" font-family="Arial" font-size="14.00">email </text>
<text text-anchor="start" x="570.26" y="-178.6" font-family="Arial" font-size="14.00" fill="#666666">[varchar(320)]</text>
<polygon fill="none" stroke="black" points="525.92,-135.6 525.92,-166.4 739.91,-166.4 739.91,-135.6 525.92,-135.6"/>
<text text-anchor="start" x="532.92" y="-147.8" font-family="Arial" font-size="14.00">first_name </text>
<text text-anchor="start" x="602.16" y="-147.8" font-family="Arial" font-size="14.00" fill="#666666">[varchar(255)]</text>
<polygon fill="none" stroke="black" points="525.92,-104.8 525.92,-135.6 739.91,-135.6 739.91,-104.8 525.92,-104.8"/>
<text text-anchor="start" x="532.92" y="-117" font-family="Arial" font-size="14.00">last_name </text>
<text text-anchor="start" x="601.4" y="-117" font-family="Arial" font-size="14.00" fill="#666666">[varchar(255)]</text>
<polygon fill="none" stroke="black" points="525.92,-74 525.92,-104.8 739.91,-104.8 739.91,-74 525.92,-74"/>
<text text-anchor="start" x="532.92" y="-86.2" font-family="Arial" font-size="14.00">password_hash </text>
<text text-anchor="start" x="634.87" y="-86.2" font-family="Arial" font-size="14.00" fill="#666666">[varbinary(255)]</text>
<polygon fill="none" stroke="black" points="525.92,-43.2 525.92,-74 739.91,-74 739.91,-43.2 525.92,-43.2"/>
<text text-anchor="start" x="532.92" y="-55.4" font-family="Arial" font-size="14.00">middle_name </text>
<text text-anchor="start" x="620.85" y="-55.4" font-family="Arial" font-size="14.00" fill="#666666">[varchar(255)]</text>
</g>
<!-- calendars&#45;&gt;users -->
<g id="edge4" class="edge">
<title>calendars:owner_user_id&#45;&gt;users:user_id</title>
<path fill="none" stroke="black" d="M747.38,-465.27C849.89,-450.41 850.02,-212.6 740.91,-212.6"/>
<polygon fill="black" stroke="black" points="747.44,-465.27 737.15,-461.49 742.12,-465.65 737.8,-465.95 737.8,-465.95 737.8,-465.95 742.12,-465.65 737.79,-470.47 747.44,-465.27"/>
<text text-anchor="start" x="744.14" y="-476" font-family="Arial" font-size="10.00">FOREIGN KEY (owner_user_id) REFERENCES users (user_id)</text>
</g>
<!-- calendars_users_labels -->
<g id="node2" class="node">
<title>calendars_users_labels</title>
<polygon fill="#efefef" stroke="none" points="43.2,-796.4 43.2,-832 346.62,-832 346.62,-796.4 43.2,-796.4"/>
<polygon fill="none" stroke="black" points="43.2,-796.4 43.2,-832 346.62,-832 346.62,-796.4 43.2,-796.4"/>
<text text-anchor="start" x="50.2" y="-809.8" font-family="Arial Bold" font-size="18.00">calendars_users_labels</text>
<text text-anchor="start" x="215.14" y="-809.8" font-family="Arial" font-size="14.00">    </text>
<text text-anchor="start" x="246.25" y="-809.8" font-family="Arial" font-size="14.00" fill="#666666">[BASE TABLE]</text>
<polygon fill="none" stroke="black" points="43.2,-765.6 43.2,-796.4 346.62,-796.4 346.62,-765.6 43.2,-765.6"/>
<text text-anchor="start" x="50.2" y="-777.8" font-family="Arial" font-size="14.00">calendar_id </text>
<text text-anchor="start" x="126.48" y="-777.8" font-family="Arial" font-size="14.00" fill="#666666">[bigint(20)]</text>
<polygon fill="none" stroke="black" points="43.2,-734.8 43.2,-765.6 346.62,-765.6 346.62,-734.8 43.2,-734.8"/>
<text text-anchor="start" x="50.2" y="-747" font-family="Arial" font-size="14.00">user_label_id </text>
<text text-anchor="start" x="137.37" y="-747" font-family="Arial" font-size="14.00" fill="#666666">[bigint(20)]</text>
</g>
<!-- calendars_users_labels&#45;&gt;calendars -->
<g id="edge1" class="edge">
<title>calendars_users_labels:calendar_id&#45;&gt;calendars:calendar_id</title>
<path fill="none" stroke="black" d="M357.81,-780.26C412.79,-771.53 363.83,-687.24 398.91,-630 442.11,-559.53 446.04,-496.8 528.69,-496.8"/>
<polygon fill="black" stroke="black" points="357.93,-780.25 347.63,-776.49 352.61,-780.64 348.29,-780.95 348.29,-780.95 348.29,-780.95 352.61,-780.64 348.28,-785.46 357.93,-780.25"/>
<text text-anchor="start" x="354.62" y="-791" font-family="Arial" font-size="10.00">FOREIGN KEY (calendar_id) REFERENCES calendars (calendar_id)</text>
</g>
<!-- organization_calendars_history -->
<g id="node3" class="node">
<title>organization_calendars_history</title>
<polygon fill="#efefef" stroke="none" points="450.71,-858 450.71,-893.6 815.12,-893.6 815.12,-858 450.71,-858"/>
<polygon fill="none" stroke="black" points="450.71,-858 450.71,-893.6 815.12,-893.6 815.12,-858 450.71,-858"/>
<text text-anchor="start" x="457.71" y="-871.4" font-family="Arial Bold" font-size="18.00">organization_calendars_history</text>
<text text-anchor="start" x="683.63" y="-871.4" font-family="Arial" font-size="14.00">    </text>
<text text-anchor="start" x="714.75" y="-871.4" font-family="Arial" font-size="14.00" fill="#666666">[BASE TABLE]</text>
<polygon fill="none" stroke="black" points="450.71,-827.2 450.71,-858 815.12,-858 815.12,-827.2 450.71,-827.2"/>
<text text-anchor="start" x="457.71" y="-839.4" font-family="Arial" font-size="14.00">organization_calendar_event_id </text>
<text text-anchor="start" x="660.08" y="-839.4" font-family="Arial" font-size="14.00" fill="#666666">[bigint(20)]</text>
<polygon fill="none" stroke="black" points="450.71,-796.4 450.71,-827.2 815.12,-827.2 815.12,-796.4 450.71,-796.4"/>
<text text-anchor="start" x="457.71" y="-808.6" font-family="Arial" font-size="14.00">organization_id </text>
<text text-anchor="start" x="556.55" y="-808.6" font-family="Arial" font-size="14.00" fill="#666666">[bigint(20)]</text>
<polygon fill="none" stroke="black" points="450.71,-765.6 450.71,-796.4 815.12,-796.4 815.12,-765.6 450.71,-765.6"/>
<text text-anchor="start" x="457.71" y="-777.8" font-family="Arial" font-size="14.00">calendar_id </text>
<text text-anchor="start" x="533.98" y="-777.8" font-family="Arial" font-size="14.00" fill="#666666">[bigint(20)]</text>
<polygon fill="none" stroke="black" points="450.71,-734.8 450.71,-765.6 815.12,-765.6 815.12,-734.8 450.71,-734.8"/>
<text text-anchor="start" x="457.71" y="-747" font-family="Arial" font-size="14.00">admin_user_id </text>
<text text-anchor="start" x="553.43" y="-747" font-family="Arial" font-size="14.00" fill="#666666">[bigint(20)]</text>
<polygon fill="none" stroke="black" points="450.71,-704 450.71,-734.8 815.12,-734.8 815.12,-704 450.71,-704"/>
<text text-anchor="start" x="457.71" y="-716.2" font-family="Arial" font-size="14.00">added </text>
<text text-anchor="start" x="500.53" y="-716.2" font-family="Arial" font-size="14.00" fill="#666666">[tinyint(1)]</text>
<polygon fill="none" stroke="black" points="450.71,-673.2 450.71,-704 815.12,-704 815.12,-673.2 450.71,-673.2"/>
<text text-anchor="start" x="457.71" y="-685.4" font-family="Arial" font-size="14.00">created_at </text>
<text text-anchor="start" x="527.75" y="-685.4" font-family="Arial" font-size="14.00" fill="#666666">[datetime(6)]</text>
</g>
<!-- organization_calendars_history&#45;&gt;calendars -->
<g id="edge2" class="edge">
<title>organization_calendars_history:calendar_id&#45;&gt;calendars:calendar_id</title>
<path fill="none" stroke="black" d="M825.89,-778.37C872.76,-749.72 798.97,-496.8 737.14,-496.8"/>
<polygon fill="black" stroke="black" points="826.1,-778.31 815.27,-776.57 820.95,-779.7 816.76,-780.83 816.76,-780.83 816.76,-780.83 820.95,-779.7 817.61,-785.26 826.1,-778.31"/>
<text text-anchor="start" x="662.17" y="-765" font-family="Arial" font-size="10.00">FOREIGN KEY (calendar_id) REFERENCES calendars (calendar_id)</text>
</g>
<!-- calendar_writes_history -->
<g id="node4" class="node">
<title>calendar_writes_history</title>
<polygon fill="#efefef" stroke="none" points="919.2,-842.6 919.2,-878.2 1230.63,-878.2 1230.63,-842.6 919.2,-842.6"/>
<polygon fill="none" stroke="black" points="919.2,-842.6 919.2,-878.2 1230.63,-878.2 1230.63,-842.6 919.2,-842.6"/>
<text text-anchor="start" x="926.2" y="-856" font-family="Arial Bold" font-size="18.00">calendar_writes_history</text>
<text text-anchor="start" x="1099.14" y="-856" font-family="Arial" font-size="14.00">    </text>
<text text-anchor="start" x="1130.26" y="-856" font-family="Arial" font-size="14.00" fill="#666666">[BASE TABLE]</text>
<polygon fill="none" stroke="black" points="919.2,-811.8 919.2,-842.6 1230.63,-842.6 1230.63,-811.8 919.2,-811.8"/>
<text text-anchor="start" x="926.2" y="-824" font-family="Arial" font-size="14.00">calendar_write_event_id </text>
<text text-anchor="start" x="1081.85" y="-824" font-family="Arial" font-size="14.00" fill="#666666">[bigint(20)]</text>
<polygon fill="none" stroke="black" points="919.2,-781 919.2,-811.8 1230.63,-811.8 1230.63,-781 919.2,-781"/>
<text text-anchor="start" x="926.2" y="-793.2" font-family="Arial" font-size="14.00">calendar_id </text>
<text text-anchor="start" x="1002.47" y="-793.2" font-family="Arial" font-size="14.00" fill="#666666">[bigint(20)]</text>
<polygon fill="none" stroke="black" points="919.2,-750.2 919.2,-781 1230.63,-781 1230.63,-750.2 919.2,-750.2"/>
<text text-anchor="start" x="926.2" y="-762.4" font-family="Arial" font-size="14.00">writer_user_id </text>
<text text-anchor="start" x="1018.01" y="-762.4" font-family="Arial" font-size="14.00" fill="#666666">[bigint(20)]</text>
<polygon fill="none" stroke="black" points="919.2,-719.4 919.2,-750.2 1230.63,-750.2 1230.63,-719.4 919.2,-719.4"/>
<text text-anchor="start" x="926.2" y="-731.6" font-family="Arial" font-size="14.00">ical_encrypted </text>
<text text-anchor="start" x="1020.36" y="-731.6" font-family="Arial" font-size="14.00" fill="#666666">[longblob]</text>
<polygon fill="none" stroke="black" points="919.2,-688.6 919.2,-719.4 1230.63,-719.4 1230.63,-688.6 919.2,-688.6"/>
<text text-anchor="start" x="926.2" y="-700.8" font-family="Arial" font-size="14.00">created_at </text>
<text text-anchor="start" x="996.24" y="-700.8" font-family="Arial" font-size="14.00" fill="#666666">[datetime(6)]</text>
</g>
<!-- calendar_writes_history&#45;&gt;calendars -->
<g id="edge3" class="edge">
<title>calendar_writes_history:calendar_id&#45;&gt;calendars:calendar_id</title>
<path fill="none" stroke="black" d="M907.85,-795.7C846.96,-786.73 904.48,-693.3 866.91,-630 824.72,-558.92 819.79,-496.8 737.14,-496.8"/>
<polygon fill="black" stroke="black" points="907.89,-795.7 917.56,-800.87 913.21,-796.06 917.53,-796.35 917.53,-796.35 917.53,-796.35 913.21,-796.06 918.17,-791.89 907.89,-795.7"/>
<text text-anchor="start" x="925.2" y="-806.4" font-family="Arial" font-size="10.00">FOREIGN KEY (calendar_id) REFERENCES calendars (calendar_id)</text>
</g>
</g>
</svg>
