<?xml version="1.0" encoding="UTF-8" standalone="no"?>
<!DOCTYPE svg PUBLIC "-//W3C//DTD SVG 1.1//EN"
 "http://www.w3.org/Graphics/SVG/1.1/DTD/svg11.dtd">
<!-- Generated by graphviz version 12.1.2 (20240928.0832)
 -->
<!-- Title: calendars_access_codes Pages: 1 -->
<svg width="645pt" height="571pt"
 viewBox="0.00 0.00 644.57 571.20" xmlns="http://www.w3.org/2000/svg" xmlns:xlink="http://www.w3.org/1999/xlink">
<g id="graph0" class="graph" transform="scale(1 1) rotate(0) translate(4 567.2)">
<title>calendars_access_codes</title>
<polygon fill="white" stroke="none" points="-4,4 -4,-567.2 640.57,-567.2 640.57,4 -4,4"/>
<!-- calendars_access_codes -->
<g id="node1" class="node">
<title>calendars_access_codes</title>
<polygon fill="#efefef" stroke="none" points="46.2,-481.4 46.2,-517 357.6,-517 357.6,-481.4 46.2,-481.4"/>
<polygon fill="none" stroke="black" points="46.2,-481.4 46.2,-517 357.6,-517 357.6,-481.4 46.2,-481.4"/>
<text text-anchor="start" x="53.2" y="-494.8" font-family="Arial Bold" font-size="18.00">calendars_access_codes</text>
<text text-anchor="start" x="226.11" y="-494.8" font-family="Arial" font-size="14.00">    </text>
<text text-anchor="start" x="257.22" y="-494.8" font-family="Arial" font-size="14.00" fill="#666666">[BASE TABLE]</text>
<polygon fill="none" stroke="black" points="46.2,-450.6 46.2,-481.4 357.6,-481.4 357.6,-450.6 46.2,-450.6"/>
<text text-anchor="start" x="53.2" y="-462.8" font-family="Arial" font-size="14.00">id </text>
<text text-anchor="start" x="67.99" y="-462.8" font-family="Arial" font-size="14.00" fill="#666666">[int(11)]</text>
<polygon fill="none" stroke="black" points="46.2,-419.8 46.2,-450.6 357.6,-450.6 357.6,-419.8 46.2,-419.8"/>
<text text-anchor="start" x="53.2" y="-432" font-family="Arial" font-size="14.00">calendar_id </text>
<text text-anchor="start" x="129.48" y="-432" font-family="Arial" font-size="14.00" fill="#666666">[int(11)]</text>
<polygon fill="none" stroke="black" points="46.2,-389 46.2,-419.8 357.6,-419.8 357.6,-389 46.2,-389"/>
<text text-anchor="start" x="53.2" y="-401.2" font-family="Arial" font-size="14.00">code </text>
<text text-anchor="start" x="87.45" y="-401.2" font-family="Arial" font-size="14.00" fill="#666666">[varchar(64)]</text>
<polygon fill="none" stroke="black" points="46.2,-358.2 46.2,-389 357.6,-389 357.6,-358.2 46.2,-358.2"/>
<text text-anchor="start" x="53.2" y="-370.4" font-family="Arial" font-size="14.00">expires_at </text>
<text text-anchor="start" x="121.68" y="-370.4" font-family="Arial" font-size="14.00" fill="#666666">[datetime(6)]</text>
<polygon fill="none" stroke="black" stroke-width="3" points="44.7,-356.7 44.7,-518.5 359.1,-518.5 359.1,-356.7 44.7,-356.7"/>
</g>
<!-- calendars -->
<g id="node2" class="node">
<title>calendars</title>
<polygon fill="#efefef" stroke="none" points="98.68,-197.2 98.68,-232.8 305.12,-232.8 305.12,-197.2 98.68,-197.2"/>
<polygon fill="none" stroke="black" points="98.68,-197.2 98.68,-232.8 305.12,-232.8 305.12,-197.2 98.68,-197.2"/>
<text text-anchor="start" x="105.68" y="-210.6" font-family="Arial Bold" font-size="18.00">calendars</text>
<text text-anchor="start" x="173.63" y="-210.6" font-family="Arial" font-size="14.00">    </text>
<text text-anchor="start" x="204.75" y="-210.6" font-family="Arial" font-size="14.00" fill="#666666">[BASE TABLE]</text>
<polygon fill="none" stroke="black" points="98.68,-166.4 98.68,-197.2 305.12,-197.2 305.12,-166.4 98.68,-166.4"/>
<text text-anchor="start" x="105.68" y="-178.6" font-family="Arial" font-size="14.00">id </text>
<text text-anchor="start" x="120.46" y="-178.6" font-family="Arial" font-size="14.00" fill="#666666">[int(11)]</text>
<polygon fill="none" stroke="black" points="98.68,-135.6 98.68,-166.4 305.12,-166.4 305.12,-135.6 98.68,-135.6"/>
<text text-anchor="start" x="105.68" y="-147.8" font-family="Arial" font-size="14.00">owner_id </text>
<text text-anchor="start" x="166.38" y="-147.8" font-family="Arial" font-size="14.00" fill="#666666">[int(11)]</text>
<polygon fill="none" stroke="black" points="98.68,-104.8 98.68,-135.6 305.12,-135.6 305.12,-104.8 98.68,-104.8"/>
<text text-anchor="start" x="105.68" y="-117" font-family="Arial" font-size="14.00">name </text>
<text text-anchor="start" x="144.59" y="-117" font-family="Arial" font-size="14.00" fill="#666666">[varchar(255)]</text>
<polygon fill="none" stroke="black" points="98.68,-74 98.68,-104.8 305.12,-104.8 305.12,-74 98.68,-74"/>
<text text-anchor="start" x="105.68" y="-86.2" font-family="Arial" font-size="14.00">ical_data </text>
<text text-anchor="start" x="165.61" y="-86.2" font-family="Arial" font-size="14.00" fill="#666666">[longblob]</text>
<polygon fill="none" stroke="black" points="98.68,-43.2 98.68,-74 305.12,-74 305.12,-43.2 98.68,-43.2"/>
<text text-anchor="start" x="105.68" y="-55.4" font-family="Arial" font-size="14.00">description </text>
<text text-anchor="start" x="177.27" y="-55.4" font-family="Arial" font-size="14.00" fill="#666666">[text]</text>
</g>
<!-- calendars_access_codes&#45;&gt;calendars -->
<g id="edge1" class="edge">
<title>calendars_access_codes:calendar_id&#45;&gt;calendars:id</title>
<path fill="none" stroke="black" d="M368.89,-434.47C470.27,-419.61 417.54,-181.8 306.12,-181.8"/>
<polygon fill="black" stroke="black" points="368.91,-434.47 358.61,-430.69 363.58,-434.85 359.26,-435.15 359.26,-435.15 359.26,-435.15 363.58,-434.85 359.25,-439.67 368.91,-434.47"/>
<text text-anchor="start" x="365.6" y="-445.2" font-family="Arial" font-size="10.00">FOREIGN KEY (calendar_id) REFERENCES calendars (id)</text>
</g>
</g>
</svg>
