<?xml version="1.0" encoding="UTF-8" standalone="no"?>
<!DOCTYPE svg PUBLIC "-//W3C//DTD SVG 1.1//EN"
 "http://www.w3.org/Graphics/SVG/1.1/DTD/svg11.dtd">
<!-- Generated by graphviz version 12.1.2 (20240928.0832)
 -->
<!-- Title: calendar_writes_history Pages: 1 -->
<svg width="938pt" height="633pt"
 viewBox="0.00 0.00 938.50 632.80" xmlns="http://www.w3.org/2000/svg" xmlns:xlink="http://www.w3.org/1999/xlink">
<g id="graph0" class="graph" transform="scale(1 1) rotate(0) translate(4 628.8)">
<title>calendar_writes_history</title>
<polygon fill="white" stroke="none" points="-4,4 -4,-628.8 934.5,-628.8 934.5,4 -4,4"/>
<!-- calendar_writes_history -->
<g id="node1" class="node">
<title>calendar_writes_history</title>
<polygon fill="#efefef" stroke="none" points="322.89,-543 322.89,-578.6 634.32,-578.6 634.32,-543 322.89,-543"/>
<polygon fill="none" stroke="black" points="322.89,-543 322.89,-578.6 634.32,-578.6 634.32,-543 322.89,-543"/>
<text text-anchor="start" x="329.89" y="-556.4" font-family="Arial Bold" font-size="18.00">calendar_writes_history</text>
<text text-anchor="start" x="502.83" y="-556.4" font-family="Arial" font-size="14.00">    </text>
<text text-anchor="start" x="533.95" y="-556.4" font-family="Arial" font-size="14.00" fill="#666666">[BASE TABLE]</text>
<polygon fill="none" stroke="black" points="322.89,-512.2 322.89,-543 634.32,-543 634.32,-512.2 322.89,-512.2"/>
<text text-anchor="start" x="329.89" y="-524.4" font-family="Arial" font-size="14.00">calendar_write_event_id </text>
<text text-anchor="start" x="485.54" y="-524.4" font-family="Arial" font-size="14.00" fill="#666666">[bigint(20)]</text>
<polygon fill="none" stroke="black" points="322.89,-481.4 322.89,-512.2 634.32,-512.2 634.32,-481.4 322.89,-481.4"/>
<text text-anchor="start" x="329.89" y="-493.6" font-family="Arial" font-size="14.00">calendar_id </text>
<text text-anchor="start" x="406.17" y="-493.6" font-family="Arial" font-size="14.00" fill="#666666">[bigint(20)]</text>
<polygon fill="none" stroke="black" points="322.89,-450.6 322.89,-481.4 634.32,-481.4 634.32,-450.6 322.89,-450.6"/>
<text text-anchor="start" x="329.89" y="-462.8" font-family="Arial" font-size="14.00">writer_user_id </text>
<text text-anchor="start" x="421.7" y="-462.8" font-family="Arial" font-size="14.00" fill="#666666">[bigint(20)]</text>
<polygon fill="none" stroke="black" points="322.89,-419.8 322.89,-450.6 634.32,-450.6 634.32,-419.8 322.89,-419.8"/>
<text text-anchor="start" x="329.89" y="-432" font-family="Arial" font-size="14.00">ical_encrypted </text>
<text text-anchor="start" x="424.06" y="-432" font-family="Arial" font-size="14.00" fill="#666666">[longblob]</text>
<polygon fill="none" stroke="black" points="322.89,-389 322.89,-419.8 634.32,-419.8 634.32,-389 322.89,-389"/>
<text text-anchor="start" x="329.89" y="-401.2" font-family="Arial" font-size="14.00">created_at </text>
<text text-anchor="start" x="399.94" y="-401.2" font-family="Arial" font-size="14.00" fill="#666666">[datetime(6)]</text>
<polygon fill="none" stroke="black" stroke-width="3" points="321.39,-387.5 321.39,-580.1 635.82,-580.1 635.82,-387.5 321.39,-387.5"/>
</g>
<!-- calendars -->
<g id="node2" class="node">
<title>calendars</title>
<polygon fill="#efefef" stroke="none" points="218.38,-212.6 218.38,-248.2 424.83,-248.2 424.83,-212.6 218.38,-212.6"/>
<polygon fill="none" stroke="black" points="218.38,-212.6 218.38,-248.2 424.83,-248.2 424.83,-212.6 218.38,-212.6"/>
<text text-anchor="start" x="225.38" y="-226" font-family="Arial Bold" font-size="18.00">calendars</text>
<text text-anchor="start" x="293.34" y="-226" font-family="Arial" font-size="14.00">    </text>
<text text-anchor="start" x="324.46" y="-226" font-family="Arial" font-size="14.00" fill="#666666">[BASE TABLE]</text>
<polygon fill="none" stroke="black" points="218.38,-181.8 218.38,-212.6 424.83,-212.6 424.83,-181.8 218.38,-181.8"/>
<text text-anchor="start" x="225.38" y="-194" font-family="Arial" font-size="14.00">calendar_id </text>
<text text-anchor="start" x="301.66" y="-194" font-family="Arial" font-size="14.00" fill="#666666">[bigint(20)]</text>
<polygon fill="none" stroke="black" points="218.38,-151 218.38,-181.8 424.83,-181.8 424.83,-151 218.38,-151"/>
<text text-anchor="start" x="225.38" y="-163.2" font-family="Arial" font-size="14.00">owner_user_id </text>
<text text-anchor="start" x="321.11" y="-163.2" font-family="Arial" font-size="14.00" fill="#666666">[bigint(20)]</text>
<polygon fill="none" stroke="black" points="218.38,-120.2 218.38,-151 424.83,-151 424.83,-120.2 218.38,-120.2"/>
<text text-anchor="start" x="225.38" y="-132.4" font-family="Arial" font-size="14.00">name </text>
<text text-anchor="start" x="264.29" y="-132.4" font-family="Arial" font-size="14.00" fill="#666666">[varchar(255)]</text>
<polygon fill="none" stroke="black" points="218.38,-89.4 218.38,-120.2 424.83,-120.2 424.83,-89.4 218.38,-89.4"/>
<text text-anchor="start" x="225.38" y="-101.6" font-family="Arial" font-size="14.00">color </text>
<text text-anchor="start" x="259.62" y="-101.6" font-family="Arial" font-size="14.00" fill="#666666">[varchar(6)]</text>
<polygon fill="none" stroke="black" points="218.38,-58.6 218.38,-89.4 424.83,-89.4 424.83,-58.6 218.38,-58.6"/>
<text text-anchor="start" x="225.38" y="-70.8" font-family="Arial" font-size="14.00">description </text>
<text text-anchor="start" x="296.98" y="-70.8" font-family="Arial" font-size="14.00" fill="#666666">[text]</text>
</g>
<!-- calendar_writes_history&#45;&gt;calendars -->
<g id="edge1" class="edge">
<title>calendar_writes_history:calendar_id&#45;&gt;calendars:calendar_id</title>
<path fill="none" stroke="black" d="M311.56,-495.96C257.1,-486.43 288.79,-397.79 322.89,-342.8 349.63,-299.68 398,-334.46 424.83,-291.4 446.97,-255.86 467.7,-197.2 425.83,-197.2"/>
<polygon fill="black" stroke="black" points="311.59,-495.96 321.19,-501.26 316.91,-496.4 321.22,-496.75 321.22,-496.75 321.22,-496.75 316.91,-496.4 321.92,-492.29 311.59,-495.96"/>
<text text-anchor="start" x="7" y="-506.8" font-family="Arial" font-size="10.00">FOREIGN KEY (calendar_id) REFERENCES calendars (calendar_id)</text>
</g>
<!-- users -->
<g id="node3" class="node">
<title>users</title>
<polygon fill="#efefef" stroke="none" points="529.61,-228 529.61,-263.6 743.6,-263.6 743.6,-228 529.61,-228"/>
<polygon fill="none" stroke="black" points="529.61,-228 529.61,-263.6 743.6,-263.6 743.6,-228 529.61,-228"/>
<text text-anchor="start" x="555.87" y="-241.4" font-family="Arial Bold" font-size="18.00">users</text>
<text text-anchor="start" x="592.86" y="-241.4" font-family="Arial" font-size="14.00">    </text>
<text text-anchor="start" x="623.98" y="-241.4" font-family="Arial" font-size="14.00" fill="#666666">[BASE TABLE]</text>
<polygon fill="none" stroke="black" points="529.61,-197.2 529.61,-228 743.6,-228 743.6,-197.2 529.61,-197.2"/>
<text text-anchor="start" x="536.61" y="-209.4" font-family="Arial" font-size="14.00">user_id </text>
<text text-anchor="start" x="586.42" y="-209.4" font-family="Arial" font-size="14.00" fill="#666666">[bigint(20)]</text>
<polygon fill="none" stroke="black" points="529.61,-166.4 529.61,-197.2 743.6,-197.2 743.6,-166.4 529.61,-166.4"/>
<text text-anchor="start" x="536.61" y="-178.6" font-family="Arial" font-size="14.00">email </text>
<text text-anchor="start" x="573.96" y="-178.6" font-family="Arial" font-size="14.00" fill="#666666">[varchar(320)]</text>
<polygon fill="none" stroke="black" points="529.61,-135.6 529.61,-166.4 743.6,-166.4 743.6,-135.6 529.61,-135.6"/>
<text text-anchor="start" x="536.61" y="-147.8" font-family="Arial" font-size="14.00">first_name </text>
<text text-anchor="start" x="605.86" y="-147.8" font-family="Arial" font-size="14.00" fill="#666666">[varchar(255)]</text>
<polygon fill="none" stroke="black" points="529.61,-104.8 529.61,-135.6 743.6,-135.6 743.6,-104.8 529.61,-104.8"/>
<text text-anchor="start" x="536.61" y="-117" font-family="Arial" font-size="14.00">last_name </text>
<text text-anchor="start" x="605.09" y="-117" font-family="Arial" font-size="14.00" fill="#666666">[varchar(255)]</text>
<polygon fill="none" stroke="black" points="529.61,-74 529.61,-104.8 743.6,-104.8 743.6,-74 529.61,-74"/>
<text text-anchor="start" x="536.61" y="-86.2" font-family="Arial" font-size="14.00">password_hash </text>
<text text-anchor="start" x="638.56" y="-86.2" font-family="Arial" font-size="14.00" fill="#666666">[varbinary(255)]</text>
<polygon fill="none" stroke="black" points="529.61,-43.2 529.61,-74 743.6,-74 743.6,-43.2 529.61,-43.2"/>
<text text-anchor="start" x="536.61" y="-55.4" font-family="Arial" font-size="14.00">middle_name </text>
<text text-anchor="start" x="624.55" y="-55.4" font-family="Arial" font-size="14.00" fill="#666666">[varchar(255)]</text>
</g>
<!-- calendar_writes_history&#45;&gt;users -->
<g id="edge2" class="edge">
<title>calendar_writes_history:writer_user_id&#45;&gt;users:user_id</title>
<path fill="none" stroke="black" d="M645.47,-464.93C686.79,-455.39 664.12,-384.2 634.32,-342.8 605.57,-302.86 558.41,-346.71 529.61,-306.8 505.11,-272.85 486.74,-212.6 528.61,-212.6"/>
<polygon fill="black" stroke="black" points="645.6,-464.92 635.18,-461.49 640.29,-465.48 635.99,-465.93 635.99,-465.93 635.99,-465.93 640.29,-465.48 636.13,-470.44 645.6,-464.92"/>
<text text-anchor="start" x="642.32" y="-476" font-family="Arial" font-size="10.00">FOREIGN KEY (writer_user_id) REFERENCES users (user_id)</text>
</g>
</g>
</svg>
