<?xml version="1.0" encoding="UTF-8" standalone="no"?>
<!DOCTYPE svg PUBLIC "-//W3C//DTD SVG 1.1//EN"
 "http://www.w3.org/Graphics/SVG/1.1/DTD/svg11.dtd">
<!-- Generated by graphviz version 12.1.2 (20240928.0832)
 -->
<!-- Title: calendars Pages: 1 -->
<svg width="762pt" height="945pt"
 viewBox="0.00 0.00 762.32 944.80" xmlns="http://www.w3.org/2000/svg" xmlns:xlink="http://www.w3.org/1999/xlink">
<g id="graph0" class="graph" transform="scale(1 1) rotate(0) translate(4 940.8)">
<title>calendars</title>
<polygon fill="white" stroke="none" points="-4,4 -4,-940.8 758.32,-940.8 758.32,4 -4,4"/>
<!-- calendars -->
<g id="node1" class="node">
<title>calendars</title>
<polygon fill="#efefef" stroke="none" points="259.2,-573.8 259.2,-609.4 465.64,-609.4 465.64,-573.8 259.2,-573.8"/>
<polygon fill="none" stroke="black" points="259.2,-573.8 259.2,-609.4 465.64,-609.4 465.64,-573.8 259.2,-573.8"/>
<text text-anchor="start" x="266.2" y="-587.2" font-family="Arial Bold" font-size="18.00">calendars</text>
<text text-anchor="start" x="334.15" y="-587.2" font-family="Arial" font-size="14.00">    </text>
<text text-anchor="start" x="365.27" y="-587.2" font-family="Arial" font-size="14.00" fill="#666666">[BASE TABLE]</text>
<polygon fill="none" stroke="black" points="259.2,-543 259.2,-573.8 465.64,-573.8 465.64,-543 259.2,-543"/>
<text text-anchor="start" x="266.2" y="-555.2" font-family="Arial" font-size="14.00">id </text>
<text text-anchor="start" x="280.98" y="-555.2" font-family="Arial" font-size="14.00" fill="#666666">[int(11)]</text>
<polygon fill="none" stroke="black" points="259.2,-512.2 259.2,-543 465.64,-543 465.64,-512.2 259.2,-512.2"/>
<text text-anchor="start" x="266.2" y="-524.4" font-family="Arial" font-size="14.00">owner_id </text>
<text text-anchor="start" x="326.9" y="-524.4" font-family="Arial" font-size="14.00" fill="#666666">[int(11)]</text>
<polygon fill="none" stroke="black" points="259.2,-481.4 259.2,-512.2 465.64,-512.2 465.64,-481.4 259.2,-481.4"/>
<text text-anchor="start" x="266.2" y="-493.6" font-family="Arial" font-size="14.00">name </text>
<text text-anchor="start" x="305.11" y="-493.6" font-family="Arial" font-size="14.00" fill="#666666">[varchar(255)]</text>
<polygon fill="none" stroke="black" points="259.2,-450.6 259.2,-481.4 465.64,-481.4 465.64,-450.6 259.2,-450.6"/>
<text text-anchor="start" x="266.2" y="-462.8" font-family="Arial" font-size="14.00">description </text>
<text text-anchor="start" x="337.79" y="-462.8" font-family="Arial" font-size="14.00" fill="#666666">[text]</text>
<polygon fill="none" stroke="black" points="259.2,-419.8 259.2,-450.6 465.64,-450.6 465.64,-419.8 259.2,-419.8"/>
<text text-anchor="start" x="266.2" y="-432" font-family="Arial" font-size="14.00">ical </text>
<text text-anchor="start" x="291.09" y="-432" font-family="Arial" font-size="14.00" fill="#666666">[longblob]</text>
<polygon fill="none" stroke="black" points="259.2,-389 259.2,-419.8 465.64,-419.8 465.64,-389 259.2,-389"/>
<text text-anchor="start" x="266.2" y="-401.2" font-family="Arial" font-size="14.00">members_only </text>
<text text-anchor="start" x="361.9" y="-401.2" font-family="Arial" font-size="14.00" fill="#666666">[tinyint(1)]</text>
<polygon fill="none" stroke="black" stroke-width="3" points="257.7,-387.5 257.7,-610.9 467.14,-610.9 467.14,-387.5 257.7,-387.5"/>
</g>
<!-- users -->
<g id="node4" class="node">
<title>users</title>
<polygon fill="#efefef" stroke="none" points="255.42,-228 255.42,-263.6 469.42,-263.6 469.42,-228 255.42,-228"/>
<polygon fill="none" stroke="black" points="255.42,-228 255.42,-263.6 469.42,-263.6 469.42,-228 255.42,-228"/>
<text text-anchor="start" x="281.68" y="-241.4" font-family="Arial Bold" font-size="18.00">users</text>
<text text-anchor="start" x="318.67" y="-241.4" font-family="Arial" font-size="14.00">    </text>
<text text-anchor="start" x="349.79" y="-241.4" font-family="Arial" font-size="14.00" fill="#666666">[BASE TABLE]</text>
<polygon fill="none" stroke="black" points="255.42,-197.2 255.42,-228 469.42,-228 469.42,-197.2 255.42,-197.2"/>
<text text-anchor="start" x="262.42" y="-209.4" font-family="Arial" font-size="14.00">id </text>
<text text-anchor="start" x="277.21" y="-209.4" font-family="Arial" font-size="14.00" fill="#666666">[int(11)]</text>
<polygon fill="none" stroke="black" points="255.42,-166.4 255.42,-197.2 469.42,-197.2 469.42,-166.4 255.42,-166.4"/>
<text text-anchor="start" x="262.42" y="-178.6" font-family="Arial" font-size="14.00">email </text>
<text text-anchor="start" x="299.77" y="-178.6" font-family="Arial" font-size="14.00" fill="#666666">[varchar(320)]</text>
<polygon fill="none" stroke="black" points="255.42,-135.6 255.42,-166.4 469.42,-166.4 469.42,-135.6 255.42,-135.6"/>
<text text-anchor="start" x="262.42" y="-147.8" font-family="Arial" font-size="14.00">first_name </text>
<text text-anchor="start" x="331.67" y="-147.8" font-family="Arial" font-size="14.00" fill="#666666">[varchar(255)]</text>
<polygon fill="none" stroke="black" points="255.42,-104.8 255.42,-135.6 469.42,-135.6 469.42,-104.8 255.42,-104.8"/>
<text text-anchor="start" x="262.42" y="-117" font-family="Arial" font-size="14.00">last_name </text>
<text text-anchor="start" x="330.91" y="-117" font-family="Arial" font-size="14.00" fill="#666666">[varchar(255)]</text>
<polygon fill="none" stroke="black" points="255.42,-74 255.42,-104.8 469.42,-104.8 469.42,-74 255.42,-74"/>
<text text-anchor="start" x="262.42" y="-86.2" font-family="Arial" font-size="14.00">password_hash </text>
<text text-anchor="start" x="364.37" y="-86.2" font-family="Arial" font-size="14.00" fill="#666666">[varbinary(255)]</text>
<polygon fill="none" stroke="black" points="255.42,-43.2 255.42,-74 469.42,-74 469.42,-43.2 255.42,-43.2"/>
<text text-anchor="start" x="262.42" y="-55.4" font-family="Arial" font-size="14.00">middle_name </text>
<text text-anchor="start" x="350.36" y="-55.4" font-family="Arial" font-size="14.00" fill="#666666">[varchar(255)]</text>
</g>
<!-- calendars&#45;&gt;users -->
<g id="edge3" class="edge">
<title>calendars:owner_id&#45;&gt;users:id</title>
<path fill="none" stroke="black" d="M477.04,-527C606.75,-511.81 606.87,-212.6 470.42,-212.6"/>
<polygon fill="black" stroke="black" points="476.96,-527.01 466.72,-523.09 471.63,-527.31 467.31,-527.56 467.31,-527.56 467.31,-527.56 471.63,-527.31 467.24,-532.07 476.96,-527.01"/>
<text text-anchor="start" x="473.64" y="-537.6" font-family="Arial" font-size="10.00">FOREIGN KEY (owner_id) REFERENCES users (id)</text>
</g>
<!-- users_calendars -->
<g id="node2" class="node">
<title>users_calendars</title>
<polygon fill="#efefef" stroke="none" points="43.2,-827.2 43.2,-862.8 295.64,-862.8 295.64,-827.2 43.2,-827.2"/>
<polygon fill="none" stroke="black" points="43.2,-827.2 43.2,-862.8 295.64,-862.8 295.64,-827.2 43.2,-827.2"/>
<text text-anchor="start" x="50.2" y="-840.6" font-family="Arial Bold" font-size="18.00">users_calendars</text>
<text text-anchor="start" x="164.15" y="-840.6" font-family="Arial" font-size="14.00">    </text>
<text text-anchor="start" x="195.27" y="-840.6" font-family="Arial" font-size="14.00" fill="#666666">[BASE TABLE]</text>
<polygon fill="none" stroke="black" points="43.2,-796.4 43.2,-827.2 295.64,-827.2 295.64,-796.4 43.2,-796.4"/>
<text text-anchor="start" x="50.2" y="-808.6" font-family="Arial" font-size="14.00">user_id </text>
<text text-anchor="start" x="100.01" y="-808.6" font-family="Arial" font-size="14.00" fill="#666666">[int(11)]</text>
<polygon fill="none" stroke="black" points="43.2,-765.6 43.2,-796.4 295.64,-796.4 295.64,-765.6 43.2,-765.6"/>
<text text-anchor="start" x="50.2" y="-777.8" font-family="Arial" font-size="14.00">calendar_id </text>
<text text-anchor="start" x="126.48" y="-777.8" font-family="Arial" font-size="14.00" fill="#666666">[int(11)]</text>
</g>
<!-- users_calendars&#45;&gt;calendars -->
<g id="edge1" class="edge">
<title>users_calendars:calendar_id&#45;&gt;calendars:id</title>
<path fill="none" stroke="black" d="M306.53,-778C315.8,-769.26 301.1,-743.06 295.64,-722.4 287,-689.7 267.72,-688.33 259.2,-655.6 248.31,-613.79 214.99,-558.4 258.2,-558.4"/>
<polygon fill="black" stroke="black" points="306.53,-778.01 295.66,-776.6 301.42,-779.55 297.28,-780.81 297.28,-780.81 297.28,-780.81 301.42,-779.55 298.26,-785.21 306.53,-778.01"/>
<text text-anchor="start" x="303.64" y="-791" font-family="Arial" font-size="10.00">FOREIGN KEY (calendar_id) REFERENCES calendars (id)</text>
</g>
<!-- calendars_access_codes -->
<g id="node3" class="node">
<title>calendars_access_codes</title>
<polygon fill="#efefef" stroke="none" points="399.72,-858 399.72,-893.6 711.12,-893.6 711.12,-858 399.72,-858"/>
<polygon fill="none" stroke="black" points="399.72,-858 399.72,-893.6 711.12,-893.6 711.12,-858 399.72,-858"/>
<text text-anchor="start" x="406.72" y="-871.4" font-family="Arial Bold" font-size="18.00">calendars_access_codes</text>
<text text-anchor="start" x="579.63" y="-871.4" font-family="Arial" font-size="14.00">    </text>
<text text-anchor="start" x="610.75" y="-871.4" font-family="Arial" font-size="14.00" fill="#666666">[BASE TABLE]</text>
<polygon fill="none" stroke="black" points="399.72,-827.2 399.72,-858 711.12,-858 711.12,-827.2 399.72,-827.2"/>
<text text-anchor="start" x="406.72" y="-839.4" font-family="Arial" font-size="14.00">id </text>
<text text-anchor="start" x="421.51" y="-839.4" font-family="Arial" font-size="14.00" fill="#666666">[int(11)]</text>
<polygon fill="none" stroke="black" points="399.72,-796.4 399.72,-827.2 711.12,-827.2 711.12,-796.4 399.72,-796.4"/>
<text text-anchor="start" x="406.72" y="-808.6" font-family="Arial" font-size="14.00">calendar_id </text>
<text text-anchor="start" x="483" y="-808.6" font-family="Arial" font-size="14.00" fill="#666666">[int(11)]</text>
<polygon fill="none" stroke="black" points="399.72,-765.6 399.72,-796.4 711.12,-796.4 711.12,-765.6 399.72,-765.6"/>
<text text-anchor="start" x="406.72" y="-777.8" font-family="Arial" font-size="14.00">code </text>
<text text-anchor="start" x="440.97" y="-777.8" font-family="Arial" font-size="14.00" fill="#666666">[varchar(64)]</text>
<polygon fill="none" stroke="black" points="399.72,-734.8 399.72,-765.6 711.12,-765.6 711.12,-734.8 399.72,-734.8"/>
<text text-anchor="start" x="406.72" y="-747" font-family="Arial" font-size="14.00">expires_at </text>
<text text-anchor="start" x="475.2" y="-747" font-family="Arial" font-size="14.00" fill="#666666">[datetime(6)]</text>
</g>
<!-- calendars_access_codes&#45;&gt;calendars -->
<g id="edge2" class="edge">
<title>calendars_access_codes:calendar_id&#45;&gt;calendars:id</title>
<path fill="none" stroke="black" d="M388.62,-810.73C349.09,-801.48 374.2,-734.21 399.72,-691.6 416.87,-662.96 448.46,-684.22 465.64,-655.6 487.88,-618.56 509.85,-558.4 466.64,-558.4"/>
<polygon fill="black" stroke="black" points="388.44,-810.71 397.92,-816.24 393.75,-811.27 398.06,-811.73 398.06,-811.73 398.06,-811.73 393.75,-811.27 398.86,-807.29 388.44,-810.71"/>
<text text-anchor="start" x="405.72" y="-821.8" font-family="Arial" font-size="10.00">FOREIGN KEY (calendar_id) REFERENCES calendars (id)</text>
</g>
</g>
</svg>
