<?xml version="1.0" encoding="UTF-8" standalone="no"?>
<!DOCTYPE svg PUBLIC "-//W3C//DTD SVG 1.1//EN"
 "http://www.w3.org/Graphics/SVG/1.1/DTD/svg11.dtd">
<!-- Generated by graphviz version 12.1.2 (20240928.0832)
 -->
<!-- Title: calendars_access_codes Pages: 1 -->
<svg width="645pt" height="633pt"
 viewBox="0.00 0.00 644.57 632.80" xmlns="http://www.w3.org/2000/svg" xmlns:xlink="http://www.w3.org/1999/xlink">
<g id="graph0" class="graph" transform="scale(1 1) rotate(0) translate(4 628.8)">
<title>calendars_access_codes</title>
<polygon fill="white" stroke="none" points="-4,4 -4,-628.8 640.57,-628.8 640.57,4 -4,4"/>
<!-- calendars_access_codes -->
<g id="node1" class="node">
<title>calendars_access_codes</title>
<polygon fill="#efefef" stroke="none" points="46.2,-543 46.2,-578.6 357.6,-578.6 357.6,-543 46.2,-543"/>
<polygon fill="none" stroke="black" points="46.2,-543 46.2,-578.6 357.6,-578.6 357.6,-543 46.2,-543"/>
<text text-anchor="start" x="53.2" y="-556.4" font-family="Arial Bold" font-size="18.00">calendars_access_codes</text>
<text text-anchor="start" x="226.11" y="-556.4" font-family="Arial" font-size="14.00">    </text>
<text text-anchor="start" x="257.22" y="-556.4" font-family="Arial" font-size="14.00" fill="#666666">[BASE TABLE]</text>
<polygon fill="none" stroke="black" points="46.2,-512.2 46.2,-543 357.6,-543 357.6,-512.2 46.2,-512.2"/>
<text text-anchor="start" x="53.2" y="-524.4" font-family="Arial" font-size="14.00">id </text>
<text text-anchor="start" x="67.99" y="-524.4" font-family="Arial" font-size="14.00" fill="#666666">[int(11)]</text>
<polygon fill="none" stroke="black" points="46.2,-481.4 46.2,-512.2 357.6,-512.2 357.6,-481.4 46.2,-481.4"/>
<text text-anchor="start" x="53.2" y="-493.6" font-family="Arial" font-size="14.00">calendar_id </text>
<text text-anchor="start" x="129.48" y="-493.6" font-family="Arial" font-size="14.00" fill="#666666">[int(11)]</text>
<polygon fill="none" stroke="black" points="46.2,-450.6 46.2,-481.4 357.6,-481.4 357.6,-450.6 46.2,-450.6"/>
<text text-anchor="start" x="53.2" y="-462.8" font-family="Arial" font-size="14.00">code </text>
<text text-anchor="start" x="87.45" y="-462.8" font-family="Arial" font-size="14.00" fill="#666666">[varchar(64)]</text>
<polygon fill="none" stroke="black" points="46.2,-419.8 46.2,-450.6 357.6,-450.6 357.6,-419.8 46.2,-419.8"/>
<text text-anchor="start" x="53.2" y="-432" font-family="Arial" font-size="14.00">expires_at </text>
<text text-anchor="start" x="121.68" y="-432" font-family="Arial" font-size="14.00" fill="#666666">[datetime(6)]</text>
<polygon fill="none" stroke="black" stroke-width="3" points="44.7,-418.3 44.7,-580.1 359.1,-580.1 359.1,-418.3 44.7,-418.3"/>
</g>
<!-- calendars -->
<g id="node2" class="node">
<title>calendars</title>
<polygon fill="#efefef" stroke="none" points="98.68,-258.8 98.68,-294.4 305.12,-294.4 305.12,-258.8 98.68,-258.8"/>
<polygon fill="none" stroke="black" points="98.68,-258.8 98.68,-294.4 305.12,-294.4 305.12,-258.8 98.68,-258.8"/>
<text text-anchor="start" x="105.68" y="-272.2" font-family="Arial Bold" font-size="18.00">calendars</text>
<text text-anchor="start" x="173.63" y="-272.2" font-family="Arial" font-size="14.00">    </text>
<text text-anchor="start" x="204.75" y="-272.2" font-family="Arial" font-size="14.00" fill="#666666">[BASE TABLE]</text>
<polygon fill="none" stroke="black" points="98.68,-228 98.68,-258.8 305.12,-258.8 305.12,-228 98.68,-228"/>
<text text-anchor="start" x="105.68" y="-240.2" font-family="Arial" font-size="14.00">id </text>
<text text-anchor="start" x="120.46" y="-240.2" font-family="Arial" font-size="14.00" fill="#666666">[int(11)]</text>
<polygon fill="none" stroke="black" points="98.68,-197.2 98.68,-228 305.12,-228 305.12,-197.2 98.68,-197.2"/>
<text text-anchor="start" x="105.68" y="-209.4" font-family="Arial" font-size="14.00">owner_id </text>
<text text-anchor="start" x="166.38" y="-209.4" font-family="Arial" font-size="14.00" fill="#666666">[int(11)]</text>
<polygon fill="none" stroke="black" points="98.68,-166.4 98.68,-197.2 305.12,-197.2 305.12,-166.4 98.68,-166.4"/>
<text text-anchor="start" x="105.68" y="-178.6" font-family="Arial" font-size="14.00">name </text>
<text text-anchor="start" x="144.59" y="-178.6" font-family="Arial" font-size="14.00" fill="#666666">[varchar(255)]</text>
<polygon fill="none" stroke="black" points="98.68,-135.6 98.68,-166.4 305.12,-166.4 305.12,-135.6 98.68,-135.6"/>
<text text-anchor="start" x="105.68" y="-147.8" font-family="Arial" font-size="14.00">description </text>
<text text-anchor="start" x="177.27" y="-147.8" font-family="Arial" font-size="14.00" fill="#666666">[text]</text>
<polygon fill="none" stroke="black" points="98.68,-104.8 98.68,-135.6 305.12,-135.6 305.12,-104.8 98.68,-104.8"/>
<text text-anchor="start" x="105.68" y="-117" font-family="Arial" font-size="14.00">ical </text>
<text text-anchor="start" x="130.57" y="-117" font-family="Arial" font-size="14.00" fill="#666666">[longblob]</text>
<polygon fill="none" stroke="black" points="98.68,-74 98.68,-104.8 305.12,-104.8 305.12,-74 98.68,-74"/>
<text text-anchor="start" x="105.68" y="-86.2" font-family="Arial" font-size="14.00">members_only </text>
<text text-anchor="start" x="201.38" y="-86.2" font-family="Arial" font-size="14.00" fill="#666666">[tinyint(1)]</text>
<polygon fill="none" stroke="black" points="98.68,-43.2 98.68,-74 305.12,-74 305.12,-43.2 98.68,-43.2"/>
<text text-anchor="start" x="105.68" y="-55.4" font-family="Arial" font-size="14.00">color </text>
<text text-anchor="start" x="139.91" y="-55.4" font-family="Arial" font-size="14.00" fill="#666666">[varchar(6)]</text>
</g>
<!-- calendars_access_codes&#45;&gt;calendars -->
<g id="edge1" class="edge">
<title>calendars_access_codes:calendar_id&#45;&gt;calendars:id</title>
<path fill="none" stroke="black" d="M368.89,-496.07C470.27,-481.21 417.54,-243.4 306.12,-243.4"/>
<polygon fill="black" stroke="black" points="368.91,-496.07 358.61,-492.29 363.58,-496.45 359.26,-496.75 359.26,-496.75 359.26,-496.75 363.58,-496.45 359.25,-501.27 368.91,-496.07"/>
<text text-anchor="start" x="365.6" y="-506.8" font-family="Arial" font-size="10.00">FOREIGN KEY (calendar_id) REFERENCES calendars (id)</text>
</g>
</g>
</svg>
