<?xml version="1.0" encoding="UTF-8" standalone="no"?>
<!DOCTYPE svg PUBLIC "-//W3C//DTD SVG 1.1//EN"
 "http://www.w3.org/Graphics/SVG/1.1/DTD/svg11.dtd">
<!-- Generated by graphviz version 12.1.2 (20240928.0832)
 -->
<!-- Title: calendars Pages: 1 -->
<svg width="830pt" height="914pt"
 viewBox="0.00 0.00 829.80 914.00" xmlns="http://www.w3.org/2000/svg" xmlns:xlink="http://www.w3.org/1999/xlink">
<g id="graph0" class="graph" transform="scale(1 1) rotate(0) translate(4 910)">
<title>calendars</title>
<polygon fill="white" stroke="none" points="-4,4 -4,-910 825.8,-910 825.8,4 -4,4"/>
<!-- calendars -->
<g id="node1" class="node">
<title>calendars</title>
<polygon fill="#efefef" stroke="none" points="305.68,-543 305.68,-578.6 512.12,-578.6 512.12,-543 305.68,-543"/>
<polygon fill="none" stroke="black" points="305.68,-543 305.68,-578.6 512.12,-578.6 512.12,-543 305.68,-543"/>
<text text-anchor="start" x="312.68" y="-556.4" font-family="Arial Bold" font-size="18.00">calendars</text>
<text text-anchor="start" x="380.63" y="-556.4" font-family="Arial" font-size="14.00">    </text>
<text text-anchor="start" x="411.75" y="-556.4" font-family="Arial" font-size="14.00" fill="#666666">[BASE TABLE]</text>
<polygon fill="none" stroke="black" points="305.68,-512.2 305.68,-543 512.12,-543 512.12,-512.2 305.68,-512.2"/>
<text text-anchor="start" x="312.68" y="-524.4" font-family="Arial" font-size="14.00">id </text>
<text text-anchor="start" x="327.46" y="-524.4" font-family="Arial" font-size="14.00" fill="#666666">[int(11)]</text>
<polygon fill="none" stroke="black" points="305.68,-481.4 305.68,-512.2 512.12,-512.2 512.12,-481.4 305.68,-481.4"/>
<text text-anchor="start" x="312.68" y="-493.6" font-family="Arial" font-size="14.00">owner_id </text>
<text text-anchor="start" x="373.38" y="-493.6" font-family="Arial" font-size="14.00" fill="#666666">[int(11)]</text>
<polygon fill="none" stroke="black" points="305.68,-450.6 305.68,-481.4 512.12,-481.4 512.12,-450.6 305.68,-450.6"/>
<text text-anchor="start" x="312.68" y="-462.8" font-family="Arial" font-size="14.00">name </text>
<text text-anchor="start" x="351.59" y="-462.8" font-family="Arial" font-size="14.00" fill="#666666">[varchar(255)]</text>
<polygon fill="none" stroke="black" points="305.68,-419.8 305.68,-450.6 512.12,-450.6 512.12,-419.8 305.68,-419.8"/>
<text text-anchor="start" x="312.68" y="-432" font-family="Arial" font-size="14.00">ical_data </text>
<text text-anchor="start" x="372.61" y="-432" font-family="Arial" font-size="14.00" fill="#666666">[longblob]</text>
<polygon fill="none" stroke="black" points="305.68,-389 305.68,-419.8 512.12,-419.8 512.12,-389 305.68,-389"/>
<text text-anchor="start" x="312.68" y="-401.2" font-family="Arial" font-size="14.00">description </text>
<text text-anchor="start" x="384.27" y="-401.2" font-family="Arial" font-size="14.00" fill="#666666">[text]</text>
<polygon fill="none" stroke="black" stroke-width="3" points="304.18,-387.5 304.18,-580.1 513.62,-580.1 513.62,-387.5 304.18,-387.5"/>
</g>
<!-- users -->
<g id="node4" class="node">
<title>users</title>
<polygon fill="#efefef" stroke="none" points="301.9,-228 301.9,-263.6 515.89,-263.6 515.89,-228 301.9,-228"/>
<polygon fill="none" stroke="black" points="301.9,-228 301.9,-263.6 515.89,-263.6 515.89,-228 301.9,-228"/>
<text text-anchor="start" x="328.16" y="-241.4" font-family="Arial Bold" font-size="18.00">users</text>
<text text-anchor="start" x="365.15" y="-241.4" font-family="Arial" font-size="14.00">    </text>
<text text-anchor="start" x="396.27" y="-241.4" font-family="Arial" font-size="14.00" fill="#666666">[BASE TABLE]</text>
<polygon fill="none" stroke="black" points="301.9,-197.2 301.9,-228 515.89,-228 515.89,-197.2 301.9,-197.2"/>
<text text-anchor="start" x="308.9" y="-209.4" font-family="Arial" font-size="14.00">id </text>
<text text-anchor="start" x="323.69" y="-209.4" font-family="Arial" font-size="14.00" fill="#666666">[int(11)]</text>
<polygon fill="none" stroke="black" points="301.9,-166.4 301.9,-197.2 515.89,-197.2 515.89,-166.4 301.9,-166.4"/>
<text text-anchor="start" x="308.9" y="-178.6" font-family="Arial" font-size="14.00">email </text>
<text text-anchor="start" x="346.25" y="-178.6" font-family="Arial" font-size="14.00" fill="#666666">[varchar(320)]</text>
<polygon fill="none" stroke="black" points="301.9,-135.6 301.9,-166.4 515.89,-166.4 515.89,-135.6 301.9,-135.6"/>
<text text-anchor="start" x="308.9" y="-147.8" font-family="Arial" font-size="14.00">first_name </text>
<text text-anchor="start" x="378.15" y="-147.8" font-family="Arial" font-size="14.00" fill="#666666">[varchar(255)]</text>
<polygon fill="none" stroke="black" points="301.9,-104.8 301.9,-135.6 515.89,-135.6 515.89,-104.8 301.9,-104.8"/>
<text text-anchor="start" x="308.9" y="-117" font-family="Arial" font-size="14.00">last_name </text>
<text text-anchor="start" x="377.38" y="-117" font-family="Arial" font-size="14.00" fill="#666666">[varchar(255)]</text>
<polygon fill="none" stroke="black" points="301.9,-74 301.9,-104.8 515.89,-104.8 515.89,-74 301.9,-74"/>
<text text-anchor="start" x="308.9" y="-86.2" font-family="Arial" font-size="14.00">password_hash </text>
<text text-anchor="start" x="410.85" y="-86.2" font-family="Arial" font-size="14.00" fill="#666666">[varbinary(255)]</text>
<polygon fill="none" stroke="black" points="301.9,-43.2 301.9,-74 515.89,-74 515.89,-43.2 301.9,-43.2"/>
<text text-anchor="start" x="308.9" y="-55.4" font-family="Arial" font-size="14.00">middle_name </text>
<text text-anchor="start" x="396.84" y="-55.4" font-family="Arial" font-size="14.00" fill="#666666">[varchar(255)]</text>
</g>
<!-- calendars&#45;&gt;users -->
<g id="edge3" class="edge">
<title>calendars:owner_id&#45;&gt;users:id</title>
<path fill="none" stroke="black" d="M523.21,-496.17C639.55,-481.47 639.76,-212.6 516.89,-212.6"/>
<polygon fill="black" stroke="black" points="523.44,-496.16 513.18,-492.29 518.11,-496.49 513.79,-496.76 513.79,-496.76 513.79,-496.76 518.11,-496.49 513.73,-501.27 523.44,-496.16"/>
<text text-anchor="start" x="520.12" y="-506.8" font-family="Arial" font-size="10.00">FOREIGN KEY (owner_id) REFERENCES users (id)</text>
</g>
<!-- calendars_access_codes -->
<g id="node2" class="node">
<title>calendars_access_codes</title>
<polygon fill="#efefef" stroke="none" points="43.2,-827.2 43.2,-862.8 354.6,-862.8 354.6,-827.2 43.2,-827.2"/>
<polygon fill="none" stroke="black" points="43.2,-827.2 43.2,-862.8 354.6,-862.8 354.6,-827.2 43.2,-827.2"/>
<text text-anchor="start" x="50.2" y="-840.6" font-family="Arial Bold" font-size="18.00">calendars_access_codes</text>
<text text-anchor="start" x="223.11" y="-840.6" font-family="Arial" font-size="14.00">    </text>
<text text-anchor="start" x="254.22" y="-840.6" font-family="Arial" font-size="14.00" fill="#666666">[BASE TABLE]</text>
<polygon fill="none" stroke="black" points="43.2,-796.4 43.2,-827.2 354.6,-827.2 354.6,-796.4 43.2,-796.4"/>
<text text-anchor="start" x="50.2" y="-808.6" font-family="Arial" font-size="14.00">id </text>
<text text-anchor="start" x="64.99" y="-808.6" font-family="Arial" font-size="14.00" fill="#666666">[int(11)]</text>
<polygon fill="none" stroke="black" points="43.2,-765.6 43.2,-796.4 354.6,-796.4 354.6,-765.6 43.2,-765.6"/>
<text text-anchor="start" x="50.2" y="-777.8" font-family="Arial" font-size="14.00">calendar_id </text>
<text text-anchor="start" x="126.48" y="-777.8" font-family="Arial" font-size="14.00" fill="#666666">[int(11)]</text>
<polygon fill="none" stroke="black" points="43.2,-734.8 43.2,-765.6 354.6,-765.6 354.6,-734.8 43.2,-734.8"/>
<text text-anchor="start" x="50.2" y="-747" font-family="Arial" font-size="14.00">code </text>
<text text-anchor="start" x="84.45" y="-747" font-family="Arial" font-size="14.00" fill="#666666">[varchar(64)]</text>
<polygon fill="none" stroke="black" points="43.2,-704 43.2,-734.8 354.6,-734.8 354.6,-704 43.2,-704"/>
<text text-anchor="start" x="50.2" y="-716.2" font-family="Arial" font-size="14.00">expires_at </text>
<text text-anchor="start" x="118.68" y="-716.2" font-family="Arial" font-size="14.00" fill="#666666">[datetime(6)]</text>
</g>
<!-- calendars_access_codes&#45;&gt;calendars -->
<g id="edge1" class="edge">
<title>calendars_access_codes:calendar_id&#45;&gt;calendars:id</title>
<path fill="none" stroke="black" d="M365.66,-779.96C404.81,-770.91 377.19,-705.03 354.6,-660.8 342.31,-636.76 317.98,-648.83 305.68,-624.8 285.98,-586.35 261.47,-527.6 304.68,-527.6"/>
<polygon fill="black" stroke="black" points="365.88,-779.93 355.47,-776.49 360.57,-780.48 356.26,-780.93 356.26,-780.93 356.26,-780.93 360.57,-780.48 356.39,-785.44 365.88,-779.93"/>
<text text-anchor="start" x="362.6" y="-791" font-family="Arial" font-size="10.00">FOREIGN KEY (calendar_id) REFERENCES calendars (id)</text>
</g>
<!-- users_external_calendars -->
<g id="node3" class="node">
<title>users_external_calendars</title>
<polygon fill="#efefef" stroke="none" points="459.2,-796.4 459.2,-832 778.6,-832 778.6,-796.4 459.2,-796.4"/>
<polygon fill="none" stroke="black" points="459.2,-796.4 459.2,-832 778.6,-832 778.6,-796.4 459.2,-796.4"/>
<text text-anchor="start" x="466.2" y="-809.8" font-family="Arial Bold" font-size="18.00">users_external_calendars</text>
<text text-anchor="start" x="647.11" y="-809.8" font-family="Arial" font-size="14.00">    </text>
<text text-anchor="start" x="678.23" y="-809.8" font-family="Arial" font-size="14.00" fill="#666666">[BASE TABLE]</text>
<polygon fill="none" stroke="black" points="459.2,-765.6 459.2,-796.4 778.6,-796.4 778.6,-765.6 459.2,-765.6"/>
<text text-anchor="start" x="466.2" y="-777.8" font-family="Arial" font-size="14.00">user_id </text>
<text text-anchor="start" x="516" y="-777.8" font-family="Arial" font-size="14.00" fill="#666666">[int(11)]</text>
<polygon fill="none" stroke="black" points="459.2,-734.8 459.2,-765.6 778.6,-765.6 778.6,-734.8 459.2,-734.8"/>
<text text-anchor="start" x="466.2" y="-747" font-family="Arial" font-size="14.00">calendar_id </text>
<text text-anchor="start" x="542.47" y="-747" font-family="Arial" font-size="14.00" fill="#666666">[int(11)]</text>
</g>
<!-- users_external_calendars&#45;&gt;calendars -->
<g id="edge2" class="edge">
<title>users_external_calendars:calendar_id&#45;&gt;calendars:id</title>
<path fill="none" stroke="black" d="M448.42,-747.4C438.15,-738.77 451.93,-711.91 459.2,-691.6 471.95,-655.94 499.48,-660.51 512.12,-624.8 526.54,-584.07 556.32,-527.6 513.12,-527.6"/>
<polygon fill="black" stroke="black" points="448.26,-747.36 456.64,-754.43 453.39,-748.82 457.55,-750.02 457.55,-750.02 457.55,-750.02 453.39,-748.82 459.11,-745.78 448.26,-747.36"/>
<text text-anchor="start" x="465.2" y="-760.2" font-family="Arial" font-size="10.00">FOREIGN KEY (calendar_id) REFERENCES calendars (id)</text>
</g>
</g>
</svg>
