<?xml version="1.0" encoding="UTF-8" standalone="no"?>
<!DOCTYPE svg PUBLIC "-//W3C//DTD SVG 1.1//EN"
 "http://www.w3.org/Graphics/SVG/1.1/DTD/svg11.dtd">
<!-- Generated by graphviz version 12.1.2 (20240928.0832)
 -->
<!-- Title: calendars Pages: 1 -->
<svg width="1161pt" height="945pt"
 viewBox="0.00 0.00 1160.84 944.80" xmlns="http://www.w3.org/2000/svg" xmlns:xlink="http://www.w3.org/1999/xlink">
<g id="graph0" class="graph" transform="scale(1 1) rotate(0) translate(4 940.8)">
<title>calendars</title>
<polygon fill="white" stroke="none" points="-4,4 -4,-940.8 1156.84,-940.8 1156.84,4 -4,4"/>
<!-- calendars -->
<g id="node1" class="node">
<title>calendars</title>
<polygon fill="#efefef" stroke="none" points="452.2,-573.8 452.2,-609.4 658.64,-609.4 658.64,-573.8 452.2,-573.8"/>
<polygon fill="none" stroke="black" points="452.2,-573.8 452.2,-609.4 658.64,-609.4 658.64,-573.8 452.2,-573.8"/>
<text text-anchor="start" x="459.2" y="-587.2" font-family="Arial Bold" font-size="18.00">calendars</text>
<text text-anchor="start" x="527.15" y="-587.2" font-family="Arial" font-size="14.00">    </text>
<text text-anchor="start" x="558.27" y="-587.2" font-family="Arial" font-size="14.00" fill="#666666">[BASE TABLE]</text>
<polygon fill="none" stroke="black" points="452.2,-543 452.2,-573.8 658.64,-573.8 658.64,-543 452.2,-543"/>
<text text-anchor="start" x="459.2" y="-555.2" font-family="Arial" font-size="14.00">id </text>
<text text-anchor="start" x="473.98" y="-555.2" font-family="Arial" font-size="14.00" fill="#666666">[int(11)]</text>
<polygon fill="none" stroke="black" points="452.2,-512.2 452.2,-543 658.64,-543 658.64,-512.2 452.2,-512.2"/>
<text text-anchor="start" x="459.2" y="-524.4" font-family="Arial" font-size="14.00">owner_id </text>
<text text-anchor="start" x="519.9" y="-524.4" font-family="Arial" font-size="14.00" fill="#666666">[int(11)]</text>
<polygon fill="none" stroke="black" points="452.2,-481.4 452.2,-512.2 658.64,-512.2 658.64,-481.4 452.2,-481.4"/>
<text text-anchor="start" x="459.2" y="-493.6" font-family="Arial" font-size="14.00">name </text>
<text text-anchor="start" x="498.11" y="-493.6" font-family="Arial" font-size="14.00" fill="#666666">[varchar(255)]</text>
<polygon fill="none" stroke="black" points="452.2,-450.6 452.2,-481.4 658.64,-481.4 658.64,-450.6 452.2,-450.6"/>
<text text-anchor="start" x="459.2" y="-462.8" font-family="Arial" font-size="14.00">description </text>
<text text-anchor="start" x="530.79" y="-462.8" font-family="Arial" font-size="14.00" fill="#666666">[text]</text>
<polygon fill="none" stroke="black" points="452.2,-419.8 452.2,-450.6 658.64,-450.6 658.64,-419.8 452.2,-419.8"/>
<text text-anchor="start" x="459.2" y="-432" font-family="Arial" font-size="14.00">ical </text>
<text text-anchor="start" x="484.09" y="-432" font-family="Arial" font-size="14.00" fill="#666666">[longblob]</text>
<polygon fill="none" stroke="black" points="452.2,-389 452.2,-419.8 658.64,-419.8 658.64,-389 452.2,-389"/>
<text text-anchor="start" x="459.2" y="-401.2" font-family="Arial" font-size="14.00">members_only </text>
<text text-anchor="start" x="554.9" y="-401.2" font-family="Arial" font-size="14.00" fill="#666666">[tinyint(1)]</text>
<polygon fill="none" stroke="black" stroke-width="3" points="450.7,-387.5 450.7,-610.9 660.14,-610.9 660.14,-387.5 450.7,-387.5"/>
</g>
<!-- users -->
<g id="node5" class="node">
<title>users</title>
<polygon fill="#efefef" stroke="none" points="448.42,-228 448.42,-263.6 662.42,-263.6 662.42,-228 448.42,-228"/>
<polygon fill="none" stroke="black" points="448.42,-228 448.42,-263.6 662.42,-263.6 662.42,-228 448.42,-228"/>
<text text-anchor="start" x="474.68" y="-241.4" font-family="Arial Bold" font-size="18.00">users</text>
<text text-anchor="start" x="511.67" y="-241.4" font-family="Arial" font-size="14.00">    </text>
<text text-anchor="start" x="542.79" y="-241.4" font-family="Arial" font-size="14.00" fill="#666666">[BASE TABLE]</text>
<polygon fill="none" stroke="black" points="448.42,-197.2 448.42,-228 662.42,-228 662.42,-197.2 448.42,-197.2"/>
<text text-anchor="start" x="455.42" y="-209.4" font-family="Arial" font-size="14.00">id </text>
<text text-anchor="start" x="470.21" y="-209.4" font-family="Arial" font-size="14.00" fill="#666666">[int(11)]</text>
<polygon fill="none" stroke="black" points="448.42,-166.4 448.42,-197.2 662.42,-197.2 662.42,-166.4 448.42,-166.4"/>
<text text-anchor="start" x="455.42" y="-178.6" font-family="Arial" font-size="14.00">email </text>
<text text-anchor="start" x="492.77" y="-178.6" font-family="Arial" font-size="14.00" fill="#666666">[varchar(320)]</text>
<polygon fill="none" stroke="black" points="448.42,-135.6 448.42,-166.4 662.42,-166.4 662.42,-135.6 448.42,-135.6"/>
<text text-anchor="start" x="455.42" y="-147.8" font-family="Arial" font-size="14.00">first_name </text>
<text text-anchor="start" x="524.67" y="-147.8" font-family="Arial" font-size="14.00" fill="#666666">[varchar(255)]</text>
<polygon fill="none" stroke="black" points="448.42,-104.8 448.42,-135.6 662.42,-135.6 662.42,-104.8 448.42,-104.8"/>
<text text-anchor="start" x="455.42" y="-117" font-family="Arial" font-size="14.00">last_name </text>
<text text-anchor="start" x="523.91" y="-117" font-family="Arial" font-size="14.00" fill="#666666">[varchar(255)]</text>
<polygon fill="none" stroke="black" points="448.42,-74 448.42,-104.8 662.42,-104.8 662.42,-74 448.42,-74"/>
<text text-anchor="start" x="455.42" y="-86.2" font-family="Arial" font-size="14.00">password_hash </text>
<text text-anchor="start" x="557.37" y="-86.2" font-family="Arial" font-size="14.00" fill="#666666">[varbinary(255)]</text>
<polygon fill="none" stroke="black" points="448.42,-43.2 448.42,-74 662.42,-74 662.42,-43.2 448.42,-43.2"/>
<text text-anchor="start" x="455.42" y="-55.4" font-family="Arial" font-size="14.00">middle_name </text>
<text text-anchor="start" x="543.36" y="-55.4" font-family="Arial" font-size="14.00" fill="#666666">[varchar(255)]</text>
</g>
<!-- calendars&#45;&gt;users -->
<g id="edge4" class="edge">
<title>calendars:owner_id&#45;&gt;users:id</title>
<path fill="none" stroke="black" d="M670.04,-527C799.75,-511.81 799.87,-212.6 663.42,-212.6"/>
<polygon fill="black" stroke="black" points="669.96,-527.01 659.72,-523.09 664.63,-527.31 660.31,-527.56 660.31,-527.56 660.31,-527.56 664.63,-527.31 660.24,-532.07 669.96,-527.01"/>
<text text-anchor="start" x="666.64" y="-537.6" font-family="Arial" font-size="10.00">FOREIGN KEY (owner_id) REFERENCES users (id)</text>
</g>
<!-- users_calendars -->
<g id="node2" class="node">
<title>users_calendars</title>
<polygon fill="#efefef" stroke="none" points="43.2,-827.2 43.2,-862.8 295.64,-862.8 295.64,-827.2 43.2,-827.2"/>
<polygon fill="none" stroke="black" points="43.2,-827.2 43.2,-862.8 295.64,-862.8 295.64,-827.2 43.2,-827.2"/>
<text text-anchor="start" x="50.2" y="-840.6" font-family="Arial Bold" font-size="18.00">users_calendars</text>
<text text-anchor="start" x="164.15" y="-840.6" font-family="Arial" font-size="14.00">    </text>
<text text-anchor="start" x="195.27" y="-840.6" font-family="Arial" font-size="14.00" fill="#666666">[BASE TABLE]</text>
<polygon fill="none" stroke="black" points="43.2,-796.4 43.2,-827.2 295.64,-827.2 295.64,-796.4 43.2,-796.4"/>
<text text-anchor="start" x="50.2" y="-808.6" font-family="Arial" font-size="14.00">user_id </text>
<text text-anchor="start" x="100.01" y="-808.6" font-family="Arial" font-size="14.00" fill="#666666">[int(11)]</text>
<polygon fill="none" stroke="black" points="43.2,-765.6 43.2,-796.4 295.64,-796.4 295.64,-765.6 43.2,-765.6"/>
<text text-anchor="start" x="50.2" y="-777.8" font-family="Arial" font-size="14.00">calendar_id </text>
<text text-anchor="start" x="126.48" y="-777.8" font-family="Arial" font-size="14.00" fill="#666666">[int(11)]</text>
</g>
<!-- users_calendars&#45;&gt;calendars -->
<g id="edge1" class="edge">
<title>users_calendars:calendar_id&#45;&gt;calendars:id</title>
<path fill="none" stroke="black" d="M306.61,-780C339.31,-772.66 324.11,-726.47 347.42,-691.6 389.12,-629.21 376.15,-558.4 451.2,-558.4"/>
<polygon fill="black" stroke="black" points="306.92,-779.97 296.52,-776.49 301.61,-780.5 297.31,-780.93 297.31,-780.93 297.31,-780.93 301.61,-780.5 297.42,-785.44 306.92,-779.97"/>
<text text-anchor="start" x="303.64" y="-791" font-family="Arial" font-size="10.00">FOREIGN KEY (calendar_id) REFERENCES calendars (id)</text>
</g>
<!-- calendars_access_codes -->
<g id="node3" class="node">
<title>calendars_access_codes</title>
<polygon fill="#efefef" stroke="none" points="399.72,-858 399.72,-893.6 711.12,-893.6 711.12,-858 399.72,-858"/>
<polygon fill="none" stroke="black" points="399.72,-858 399.72,-893.6 711.12,-893.6 711.12,-858 399.72,-858"/>
<text text-anchor="start" x="406.72" y="-871.4" font-family="Arial Bold" font-size="18.00">calendars_access_codes</text>
<text text-anchor="start" x="579.63" y="-871.4" font-family="Arial" font-size="14.00">    </text>
<text text-anchor="start" x="610.75" y="-871.4" font-family="Arial" font-size="14.00" fill="#666666">[BASE TABLE]</text>
<polygon fill="none" stroke="black" points="399.72,-827.2 399.72,-858 711.12,-858 711.12,-827.2 399.72,-827.2"/>
<text text-anchor="start" x="406.72" y="-839.4" font-family="Arial" font-size="14.00">id </text>
<text text-anchor="start" x="421.51" y="-839.4" font-family="Arial" font-size="14.00" fill="#666666">[int(11)]</text>
<polygon fill="none" stroke="black" points="399.72,-796.4 399.72,-827.2 711.12,-827.2 711.12,-796.4 399.72,-796.4"/>
<text text-anchor="start" x="406.72" y="-808.6" font-family="Arial" font-size="14.00">calendar_id </text>
<text text-anchor="start" x="483" y="-808.6" font-family="Arial" font-size="14.00" fill="#666666">[int(11)]</text>
<polygon fill="none" stroke="black" points="399.72,-765.6 399.72,-796.4 711.12,-796.4 711.12,-765.6 399.72,-765.6"/>
<text text-anchor="start" x="406.72" y="-777.8" font-family="Arial" font-size="14.00">code </text>
<text text-anchor="start" x="440.97" y="-777.8" font-family="Arial" font-size="14.00" fill="#666666">[varchar(64)]</text>
<polygon fill="none" stroke="black" points="399.72,-734.8 399.72,-765.6 711.12,-765.6 711.12,-734.8 399.72,-734.8"/>
<text text-anchor="start" x="406.72" y="-747" font-family="Arial" font-size="14.00">expires_at </text>
<text text-anchor="start" x="475.2" y="-747" font-family="Arial" font-size="14.00" fill="#666666">[datetime(6)]</text>
</g>
<!-- calendars_access_codes&#45;&gt;calendars -->
<g id="edge2" class="edge">
<title>calendars_access_codes:calendar_id&#45;&gt;calendars:id</title>
<path fill="none" stroke="black" d="M721.89,-808.78C762.84,-780.19 713.44,-558.4 659.64,-558.4"/>
<polygon fill="black" stroke="black" points="721.99,-808.75 711.11,-807.4 716.89,-810.32 712.76,-811.6 712.76,-811.6 712.76,-811.6 716.89,-810.32 713.77,-816 721.99,-808.75"/>
<text text-anchor="start" x="441.15" y="-821.8" font-family="Arial" font-size="10.00">FOREIGN KEY (calendar_id) REFERENCES calendars (id)</text>
</g>
<!-- users_calendars_bans -->
<g id="node4" class="node">
<title>users_calendars_bans</title>
<polygon fill="#efefef" stroke="none" points="815.2,-858 815.2,-893.6 1109.64,-893.6 1109.64,-858 815.2,-858"/>
<polygon fill="none" stroke="black" points="815.2,-858 815.2,-893.6 1109.64,-893.6 1109.64,-858 815.2,-858"/>
<text text-anchor="start" x="822.2" y="-871.4" font-family="Arial Bold" font-size="18.00">users_calendars_bans</text>
<text text-anchor="start" x="978.15" y="-871.4" font-family="Arial" font-size="14.00">    </text>
<text text-anchor="start" x="1009.26" y="-871.4" font-family="Arial" font-size="14.00" fill="#666666">[BASE TABLE]</text>
<polygon fill="none" stroke="black" points="815.2,-827.2 815.2,-858 1109.64,-858 1109.64,-827.2 815.2,-827.2"/>
<text text-anchor="start" x="822.2" y="-839.4" font-family="Arial" font-size="14.00">user_id </text>
<text text-anchor="start" x="872.01" y="-839.4" font-family="Arial" font-size="14.00" fill="#666666">[int(11)]</text>
<polygon fill="none" stroke="black" points="815.2,-796.4 815.2,-827.2 1109.64,-827.2 1109.64,-796.4 815.2,-796.4"/>
<text text-anchor="start" x="822.2" y="-808.6" font-family="Arial" font-size="14.00">calendar_id </text>
<text text-anchor="start" x="898.48" y="-808.6" font-family="Arial" font-size="14.00" fill="#666666">[int(11)]</text>
<polygon fill="none" stroke="black" points="815.2,-765.6 815.2,-796.4 1109.64,-796.4 1109.64,-765.6 815.2,-765.6"/>
<text text-anchor="start" x="822.2" y="-777.8" font-family="Arial" font-size="14.00">reason </text>
<text text-anchor="start" x="868.9" y="-777.8" font-family="Arial" font-size="14.00" fill="#666666">[varchar(255)]</text>
<polygon fill="none" stroke="black" points="815.2,-734.8 815.2,-765.6 1109.64,-765.6 1109.64,-734.8 815.2,-734.8"/>
<text text-anchor="start" x="822.2" y="-747" font-family="Arial" font-size="14.00">expires_at </text>
<text text-anchor="start" x="890.69" y="-747" font-family="Arial" font-size="14.00" fill="#666666">[datetime(6)]</text>
</g>
<!-- users_calendars_bans&#45;&gt;calendars -->
<g id="edge3" class="edge">
<title>users_calendars_bans:calendar_id&#45;&gt;calendars:id</title>
<path fill="none" stroke="black" d="M803.85,-810.9C760.77,-802.57 790.83,-738.29 763.42,-691.6 725.43,-626.88 734.69,-558.4 659.64,-558.4"/>
<polygon fill="black" stroke="black" points="803.91,-810.9 813.48,-816.25 809.22,-811.37 813.54,-811.74 813.54,-811.74 813.54,-811.74 809.22,-811.37 814.26,-807.29 803.91,-810.9"/>
<text text-anchor="start" x="612.73" y="-795.8" font-family="Arial" font-size="10.00">FOREIGN KEY (calendar_id) REFERENCES calendars (id)</text>
</g>
</g>
</svg>
