<?xml version="1.0" encoding="UTF-8" standalone="no"?>
<!DOCTYPE svg PUBLIC "-//W3C//DTD SVG 1.1//EN"
 "http://www.w3.org/Graphics/SVG/1.1/DTD/svg11.dtd">
<!-- Generated by graphviz version 12.1.2 (20240928.0832)
 -->
<!-- Title: calendars_users_labels Pages: 1 -->
<svg width="986pt" height="479pt"
 viewBox="0.00 0.00 985.56 478.80" xmlns="http://www.w3.org/2000/svg" xmlns:xlink="http://www.w3.org/1999/xlink">
<g id="graph0" class="graph" transform="scale(1 1) rotate(0) translate(4 474.8)">
<title>calendars_users_labels</title>
<polygon fill="white" stroke="none" points="-4,4 -4,-474.8 981.56,-474.8 981.56,4 -4,4"/>
<!-- calendars_users_labels -->
<g id="node1" class="node">
<title>calendars_users_labels</title>
<polygon fill="#efefef" stroke="none" points="322.89,-389 322.89,-424.6 626.32,-424.6 626.32,-389 322.89,-389"/>
<polygon fill="none" stroke="black" points="322.89,-389 322.89,-424.6 626.32,-424.6 626.32,-389 322.89,-389"/>
<text text-anchor="start" x="329.89" y="-402.4" font-family="Arial Bold" font-size="18.00">calendars_users_labels</text>
<text text-anchor="start" x="494.83" y="-402.4" font-family="Arial" font-size="14.00">    </text>
<text text-anchor="start" x="525.94" y="-402.4" font-family="Arial" font-size="14.00" fill="#666666">[BASE TABLE]</text>
<polygon fill="none" stroke="black" points="322.89,-358.2 322.89,-389 626.32,-389 626.32,-358.2 322.89,-358.2"/>
<text text-anchor="start" x="329.89" y="-370.4" font-family="Arial" font-size="14.00">calendar_id </text>
<text text-anchor="start" x="406.17" y="-370.4" font-family="Arial" font-size="14.00" fill="#666666">[bigint(20)]</text>
<polygon fill="none" stroke="black" points="322.89,-327.4 322.89,-358.2 626.32,-358.2 626.32,-327.4 322.89,-327.4"/>
<text text-anchor="start" x="329.89" y="-339.6" font-family="Arial" font-size="14.00">user_label_id </text>
<text text-anchor="start" x="417.06" y="-339.6" font-family="Arial" font-size="14.00" fill="#666666">[bigint(20)]</text>
<polygon fill="none" stroke="black" stroke-width="3" points="321.39,-325.9 321.39,-426.1 627.82,-426.1 627.82,-325.9 321.39,-325.9"/>
</g>
<!-- calendars -->
<g id="node2" class="node">
<title>calendars</title>
<polygon fill="#efefef" stroke="none" points="211.38,-166.4 211.38,-202 417.83,-202 417.83,-166.4 211.38,-166.4"/>
<polygon fill="none" stroke="black" points="211.38,-166.4 211.38,-202 417.83,-202 417.83,-166.4 211.38,-166.4"/>
<text text-anchor="start" x="218.38" y="-179.8" font-family="Arial Bold" font-size="18.00">calendars</text>
<text text-anchor="start" x="286.34" y="-179.8" font-family="Arial" font-size="14.00">    </text>
<text text-anchor="start" x="317.45" y="-179.8" font-family="Arial" font-size="14.00" fill="#666666">[BASE TABLE]</text>
<polygon fill="none" stroke="black" points="211.38,-135.6 211.38,-166.4 417.83,-166.4 417.83,-135.6 211.38,-135.6"/>
<text text-anchor="start" x="218.38" y="-147.8" font-family="Arial" font-size="14.00">calendar_id </text>
<text text-anchor="start" x="294.66" y="-147.8" font-family="Arial" font-size="14.00" fill="#666666">[bigint(20)]</text>
<polygon fill="none" stroke="black" points="211.38,-104.8 211.38,-135.6 417.83,-135.6 417.83,-104.8 211.38,-104.8"/>
<text text-anchor="start" x="218.38" y="-117" font-family="Arial" font-size="14.00">owner_user_id </text>
<text text-anchor="start" x="314.1" y="-117" font-family="Arial" font-size="14.00" fill="#666666">[bigint(20)]</text>
<polygon fill="none" stroke="black" points="211.38,-74 211.38,-104.8 417.83,-104.8 417.83,-74 211.38,-74"/>
<text text-anchor="start" x="218.38" y="-86.2" font-family="Arial" font-size="14.00">name </text>
<text text-anchor="start" x="257.29" y="-86.2" font-family="Arial" font-size="14.00" fill="#666666">[varchar(255)]</text>
<polygon fill="none" stroke="black" points="211.38,-43.2 211.38,-74 417.83,-74 417.83,-43.2 211.38,-43.2"/>
<text text-anchor="start" x="218.38" y="-55.4" font-family="Arial" font-size="14.00">description </text>
<text text-anchor="start" x="289.97" y="-55.4" font-family="Arial" font-size="14.00" fill="#666666">[text]</text>
</g>
<!-- calendars_users_labels&#45;&gt;calendars -->
<g id="edge1" class="edge">
<title>calendars_users_labels:calendar_id&#45;&gt;calendars:calendar_id</title>
<path fill="none" stroke="black" d="M311.87,-372.12C284.34,-362.81 301.58,-311.72 322.89,-281.2 348.73,-244.2 391.99,-282.2 417.83,-245.2 441.79,-210.87 460.7,-151 418.83,-151"/>
<polygon fill="black" stroke="black" points="311.67,-372.09 320.9,-378 316.94,-372.87 321.23,-373.5 321.23,-373.5 321.23,-373.5 316.94,-372.87 322.22,-369.1 311.67,-372.09"/>
<text text-anchor="start" x="7" y="-383.6" font-family="Arial" font-size="10.00">FOREIGN KEY (calendar_id) REFERENCES calendars (calendar_id)</text>
</g>
<!-- users_labels -->
<g id="node3" class="node">
<title>users_labels</title>
<polygon fill="#efefef" stroke="none" points="522.37,-166.4 522.37,-202 748.84,-202 748.84,-166.4 522.37,-166.4"/>
<polygon fill="none" stroke="black" points="522.37,-166.4 522.37,-202 748.84,-202 748.84,-166.4 522.37,-166.4"/>
<text text-anchor="start" x="529.37" y="-179.8" font-family="Arial Bold" font-size="18.00">users_labels</text>
<text text-anchor="start" x="617.35" y="-179.8" font-family="Arial" font-size="14.00">    </text>
<text text-anchor="start" x="648.46" y="-179.8" font-family="Arial" font-size="14.00" fill="#666666">[BASE TABLE]</text>
<polygon fill="none" stroke="black" points="522.37,-135.6 522.37,-166.4 748.84,-166.4 748.84,-135.6 522.37,-135.6"/>
<text text-anchor="start" x="529.37" y="-147.8" font-family="Arial" font-size="14.00">user_label_id </text>
<text text-anchor="start" x="616.54" y="-147.8" font-family="Arial" font-size="14.00" fill="#666666">[bigint(20)]</text>
<polygon fill="none" stroke="black" points="522.37,-104.8 522.37,-135.6 748.84,-135.6 748.84,-104.8 522.37,-104.8"/>
<text text-anchor="start" x="529.37" y="-117" font-family="Arial" font-size="14.00">user_id </text>
<text text-anchor="start" x="579.18" y="-117" font-family="Arial" font-size="14.00" fill="#666666">[bigint(20)]</text>
<polygon fill="none" stroke="black" points="522.37,-74 522.37,-104.8 748.84,-104.8 748.84,-74 522.37,-74"/>
<text text-anchor="start" x="529.37" y="-86.2" font-family="Arial" font-size="14.00">name </text>
<text text-anchor="start" x="568.28" y="-86.2" font-family="Arial" font-size="14.00" fill="#666666">[varchar(255)]</text>
<polygon fill="none" stroke="black" points="522.37,-43.2 522.37,-74 748.84,-74 748.84,-43.2 522.37,-43.2"/>
<text text-anchor="start" x="529.37" y="-55.4" font-family="Arial" font-size="14.00">color </text>
<text text-anchor="start" x="563.6" y="-55.4" font-family="Arial" font-size="14.00" fill="#666666">[char(6)]</text>
</g>
<!-- calendars_users_labels&#45;&gt;users_labels -->
<g id="edge2" class="edge">
<title>calendars_users_labels:user_label_id&#45;&gt;users_labels:user_label_id</title>
<path fill="none" stroke="black" d="M637.38,-340.13C650.76,-330.9 639.87,-299.91 626.32,-281.2 597.64,-241.6 550.94,-284.88 522.37,-245.2 497.91,-211.22 479.5,-151 521.37,-151"/>
<polygon fill="black" stroke="black" points="637.3,-340.15 626.48,-338.36 632.15,-341.52 627.96,-342.63 627.96,-342.63 627.96,-342.63 632.15,-341.52 628.79,-347.06 637.3,-340.15"/>
<text text-anchor="start" x="634.32" y="-352.8" font-family="Arial" font-size="10.00">FOREIGN KEY (user_label_id) REFERENCES users_labels (user_label_id)</text>
</g>
</g>
</svg>
