<?xml version="1.0" encoding="UTF-8" standalone="no"?>
<!DOCTYPE svg PUBLIC "-//W3C//DTD SVG 1.1//EN"
 "http://www.w3.org/Graphics/SVG/1.1/DTD/svg11.dtd">
<!-- Generated by graphviz version 12.1.2 (20240928.0832)
 -->
<!-- Title: current_organization_calendars Pages: 1 -->
<svg width="416pt" height="198pt"
 viewBox="0.00 0.00 415.97 197.60" xmlns="http://www.w3.org/2000/svg" xmlns:xlink="http://www.w3.org/1999/xlink">
<g id="graph0" class="graph" transform="scale(1 1) rotate(0) translate(4 193.6)">
<title>current_organization_calendars</title>
<polygon fill="white" stroke="none" points="-4,4 -4,-193.6 411.97,-193.6 411.97,4 -4,4"/>
<!-- current_organization_calendars -->
<g id="node1" class="node">
<title>current_organization_calendars</title>
<polygon fill="#efefef" stroke="none" points="46.2,-107.8 46.2,-143.4 361.77,-143.4 361.77,-107.8 46.2,-107.8"/>
<polygon fill="none" stroke="black" points="46.2,-107.8 46.2,-143.4 361.77,-143.4 361.77,-107.8 46.2,-107.8"/>
<text text-anchor="start" x="53.2" y="-121.2" font-family="Arial Bold" font-size="18.00">current_organization_calendars</text>
<text text-anchor="start" x="280.09" y="-121.2" font-family="Arial" font-size="14.00">    </text>
<text text-anchor="start" x="311.21" y="-121.2" font-family="Arial" font-size="14.00" fill="#666666">[VIEW]</text>
<polygon fill="none" stroke="black" points="46.2,-77 46.2,-107.8 361.77,-107.8 361.77,-77 46.2,-77"/>
<text text-anchor="start" x="53.2" y="-89.2" font-family="Arial" font-size="14.00">organization_id </text>
<text text-anchor="start" x="152.05" y="-89.2" font-family="Arial" font-size="14.00" fill="#666666">[bigint(20)]</text>
<polygon fill="none" stroke="black" points="46.2,-46.2 46.2,-77 361.77,-77 361.77,-46.2 46.2,-46.2"/>
<text text-anchor="start" x="53.2" y="-58.4" font-family="Arial" font-size="14.00">calendar_id </text>
<text text-anchor="start" x="129.48" y="-58.4" font-family="Arial" font-size="14.00" fill="#666666">[bigint(20)]</text>
<polygon fill="none" stroke="black" stroke-width="3" points="44.7,-44.7 44.7,-144.9 363.27,-144.9 363.27,-44.7 44.7,-44.7"/>
</g>
</g>
</svg>
