<?xml version="1.0" encoding="UTF-8" standalone="no"?>
<!DOCTYPE svg PUBLIC "-//W3C//DTD SVG 1.1//EN"
 "http://www.w3.org/Graphics/SVG/1.1/DTD/svg11.dtd">
<!-- Generated by graphviz version 12.1.2 (20240928.0832)
 -->
<!-- Title: current_member_roles Pages: 1 -->
<svg width="352pt" height="228pt"
 viewBox="0.00 0.00 352.01 228.40" xmlns="http://www.w3.org/2000/svg" xmlns:xlink="http://www.w3.org/1999/xlink">
<g id="graph0" class="graph" transform="scale(1 1) rotate(0) translate(4 224.4)">
<title>current_member_roles</title>
<polygon fill="white" stroke="none" points="-4,4 -4,-224.4 348.01,-224.4 348.01,4 -4,4"/>
<!-- current_member_roles -->
<g id="node1" class="node">
<title>current_member_roles</title>
<polygon fill="#efefef" stroke="none" points="46.2,-138.6 46.2,-174.2 297.81,-174.2 297.81,-138.6 46.2,-138.6"/>
<polygon fill="none" stroke="black" points="46.2,-138.6 46.2,-174.2 297.81,-174.2 297.81,-138.6 46.2,-138.6"/>
<text text-anchor="start" x="53.2" y="-152" font-family="Arial Bold" font-size="18.00">current_member_roles</text>
<text text-anchor="start" x="216.13" y="-152" font-family="Arial" font-size="14.00">    </text>
<text text-anchor="start" x="247.25" y="-152" font-family="Arial" font-size="14.00" fill="#666666">[VIEW]</text>
<polygon fill="none" stroke="black" points="46.2,-107.8 46.2,-138.6 297.81,-138.6 297.81,-107.8 46.2,-107.8"/>
<text text-anchor="start" x="53.2" y="-120" font-family="Arial" font-size="14.00">organization_id </text>
<text text-anchor="start" x="152.05" y="-120" font-family="Arial" font-size="14.00" fill="#666666">[bigint(20)]</text>
<polygon fill="none" stroke="black" points="46.2,-77 46.2,-107.8 297.81,-107.8 297.81,-77 46.2,-77"/>
<text text-anchor="start" x="53.2" y="-89.2" font-family="Arial" font-size="14.00">member_user_id </text>
<text text-anchor="start" x="162.14" y="-89.2" font-family="Arial" font-size="14.00" fill="#666666">[bigint(20)]</text>
<polygon fill="none" stroke="black" points="46.2,-46.2 46.2,-77 297.81,-77 297.81,-46.2 46.2,-46.2"/>
<text text-anchor="start" x="53.2" y="-58.4" font-family="Arial" font-size="14.00">role </text>
<text text-anchor="start" x="80.43" y="-58.4" font-family="Arial" font-size="14.00" fill="#666666">[enum(&#39;owner&#39;,&#39;admin&#39;,&#39;user&#39;)]</text>
<polygon fill="none" stroke="black" stroke-width="3" points="44.7,-44.7 44.7,-175.7 299.31,-175.7 299.31,-44.7 44.7,-44.7"/>
</g>
</g>
</svg>
