<?xml version="1.0" encoding="UTF-8" standalone="no"?>
<!DOCTYPE svg PUBLIC "-//W3C//DTD SVG 1.1//EN"
 "http://www.w3.org/Graphics/SVG/1.1/DTD/svg11.dtd">
<!-- Generated by graphviz version 12.1.2 (20240928.0832)
 -->
<!-- Title: current_memberships Pages: 1 -->
<svg width="345pt" height="198pt"
 viewBox="0.00 0.00 345.03 197.60" xmlns="http://www.w3.org/2000/svg" xmlns:xlink="http://www.w3.org/1999/xlink">
<g id="graph0" class="graph" transform="scale(1 1) rotate(0) translate(4 193.6)">
<title>current_memberships</title>
<polygon fill="white" stroke="none" points="-4,4 -4,-193.6 341.03,-193.6 341.03,4 -4,4"/>
<!-- current_memberships -->
<g id="node1" class="node">
<title>current_memberships</title>
<polygon fill="#efefef" stroke="none" points="46.2,-107.8 46.2,-143.4 290.83,-143.4 290.83,-107.8 46.2,-107.8"/>
<polygon fill="none" stroke="black" points="46.2,-107.8 46.2,-143.4 290.83,-143.4 290.83,-107.8 46.2,-107.8"/>
<text text-anchor="start" x="53.2" y="-121.2" font-family="Arial Bold" font-size="18.00">current_memberships</text>
<text text-anchor="start" x="209.15" y="-121.2" font-family="Arial" font-size="14.00">    </text>
<text text-anchor="start" x="240.27" y="-121.2" font-family="Arial" font-size="14.00" fill="#666666">[VIEW]</text>
<polygon fill="none" stroke="black" points="46.2,-77 46.2,-107.8 290.83,-107.8 290.83,-77 46.2,-77"/>
<text text-anchor="start" x="53.2" y="-89.2" font-family="Arial" font-size="14.00">organization_id </text>
<text text-anchor="start" x="152.05" y="-89.2" font-family="Arial" font-size="14.00" fill="#666666">[bigint(20)]</text>
<polygon fill="none" stroke="black" points="46.2,-46.2 46.2,-77 290.83,-77 290.83,-46.2 46.2,-46.2"/>
<text text-anchor="start" x="53.2" y="-58.4" font-family="Arial" font-size="14.00">member_user_id </text>
<text text-anchor="start" x="162.14" y="-58.4" font-family="Arial" font-size="14.00" fill="#666666">[bigint(20)]</text>
<polygon fill="none" stroke="black" stroke-width="3" points="44.7,-44.7 44.7,-144.9 292.33,-144.9 292.33,-44.7 44.7,-44.7"/>
</g>
</g>
</svg>
