<?xml version="1.0" encoding="UTF-8" standalone="no"?>
<!DOCTYPE svg PUBLIC "-//W3C//DTD SVG 1.1//EN"
 "http://www.w3.org/Graphics/SVG/1.1/DTD/svg11.dtd">
<!-- Generated by graphviz version 12.1.2 (20240928.0832)
 -->
<!-- Title: join_requests_history Pages: 1 -->
<svg width="1122pt" height="633pt"
 viewBox="0.00 0.00 1122.31 632.80" xmlns="http://www.w3.org/2000/svg" xmlns:xlink="http://www.w3.org/1999/xlink">
<g id="graph0" class="graph" transform="scale(1 1) rotate(0) translate(4 628.8)">
<title>join_requests_history</title>
<polygon fill="white" stroke="none" points="-4,4 -4,-628.8 1118.31,-628.8 1118.31,4 -4,4"/>
<!-- join_requests_history -->
<g id="node1" class="node">
<title>join_requests_history</title>
<polygon fill="#efefef" stroke="none" points="489.67,-543 489.67,-578.6 815.34,-578.6 815.34,-543 489.67,-543"/>
<polygon fill="none" stroke="black" points="489.67,-543 489.67,-578.6 815.34,-578.6 815.34,-543 489.67,-543"/>
<text text-anchor="start" x="512.77" y="-556.4" font-family="Arial Bold" font-size="18.00">join_requests_history</text>
<text text-anchor="start" x="667.76" y="-556.4" font-family="Arial" font-size="14.00">    </text>
<text text-anchor="start" x="698.87" y="-556.4" font-family="Arial" font-size="14.00" fill="#666666">[BASE TABLE]</text>
<polygon fill="none" stroke="black" points="489.67,-512.2 489.67,-543 815.34,-543 815.34,-512.2 489.67,-512.2"/>
<text text-anchor="start" x="496.67" y="-524.4" font-family="Arial" font-size="14.00">join_request_event_id </text>
<text text-anchor="start" x="637.55" y="-524.4" font-family="Arial" font-size="14.00" fill="#666666">[bigint(20)]</text>
<polygon fill="none" stroke="black" points="489.67,-481.4 489.67,-512.2 815.34,-512.2 815.34,-481.4 489.67,-481.4"/>
<text text-anchor="start" x="496.67" y="-493.6" font-family="Arial" font-size="14.00">join_response_event_id </text>
<text text-anchor="start" x="648.45" y="-493.6" font-family="Arial" font-size="14.00" fill="#666666">[bigint(20)]</text>
<polygon fill="none" stroke="black" points="489.67,-450.6 489.67,-481.4 815.34,-481.4 815.34,-450.6 489.67,-450.6"/>
<text text-anchor="start" x="496.67" y="-462.8" font-family="Arial" font-size="14.00">admin_user_id </text>
<text text-anchor="start" x="592.4" y="-462.8" font-family="Arial" font-size="14.00" fill="#666666">[bigint(20)]</text>
<polygon fill="none" stroke="black" points="489.67,-419.8 489.67,-450.6 815.34,-450.6 815.34,-419.8 489.67,-419.8"/>
<text text-anchor="start" x="496.67" y="-432" font-family="Arial" font-size="14.00">created_at </text>
<text text-anchor="start" x="566.72" y="-432" font-family="Arial" font-size="14.00" fill="#666666">[datetime(6)]</text>
<polygon fill="none" stroke="black" points="489.67,-389 489.67,-419.8 815.34,-419.8 815.34,-389 489.67,-389"/>
<text text-anchor="start" x="496.67" y="-401.2" font-family="Arial" font-size="14.00">status </text>
<text text-anchor="start" x="537.91" y="-401.2" font-family="Arial" font-size="14.00" fill="#666666">[enum(&#39;open&#39;,&#39;retracted&#39;,&#39;denied&#39;,&#39;accepted&#39;)]</text>
<polygon fill="none" stroke="black" stroke-width="3" points="488.17,-387.5 488.17,-580.1 816.84,-580.1 816.84,-387.5 488.17,-387.5"/>
</g>
<!-- join_responses_history -->
<g id="node2" class="node">
<title>join_responses_history</title>
<polygon fill="#efefef" stroke="none" points="318.27,-212.6 318.27,-248.2 622.75,-248.2 622.75,-212.6 318.27,-212.6"/>
<polygon fill="none" stroke="black" points="318.27,-212.6 318.27,-248.2 622.75,-248.2 622.75,-212.6 318.27,-212.6"/>
<text text-anchor="start" x="325.27" y="-226" font-family="Arial Bold" font-size="18.00">join_responses_history</text>
<text text-anchor="start" x="491.26" y="-226" font-family="Arial" font-size="14.00">    </text>
<text text-anchor="start" x="522.38" y="-226" font-family="Arial" font-size="14.00" fill="#666666">[BASE TABLE]</text>
<polygon fill="none" stroke="black" points="318.27,-181.8 318.27,-212.6 622.75,-212.6 622.75,-181.8 318.27,-181.8"/>
<text text-anchor="start" x="325.27" y="-194" font-family="Arial" font-size="14.00">join_response_event_id </text>
<text text-anchor="start" x="477.05" y="-194" font-family="Arial" font-size="14.00" fill="#666666">[bigint(20)]</text>
<polygon fill="none" stroke="black" points="318.27,-151 318.27,-181.8 622.75,-181.8 622.75,-151 318.27,-151"/>
<text text-anchor="start" x="325.27" y="-163.2" font-family="Arial" font-size="14.00">join_prompt_event_id </text>
<text text-anchor="start" x="463.03" y="-163.2" font-family="Arial" font-size="14.00" fill="#666666">[bigint(20)]</text>
<polygon fill="none" stroke="black" points="318.27,-120.2 318.27,-151 622.75,-151 622.75,-120.2 318.27,-120.2"/>
<text text-anchor="start" x="325.27" y="-132.4" font-family="Arial" font-size="14.00">user_id </text>
<text text-anchor="start" x="375.08" y="-132.4" font-family="Arial" font-size="14.00" fill="#666666">[bigint(20)]</text>
<polygon fill="none" stroke="black" points="318.27,-89.4 318.27,-120.2 622.75,-120.2 622.75,-89.4 318.27,-89.4"/>
<text text-anchor="start" x="325.27" y="-101.6" font-family="Arial" font-size="14.00">response </text>
<text text-anchor="start" x="386.75" y="-101.6" font-family="Arial" font-size="14.00" fill="#666666">[text]</text>
<polygon fill="none" stroke="black" points="318.27,-58.6 318.27,-89.4 622.75,-89.4 622.75,-58.6 318.27,-58.6"/>
<text text-anchor="start" x="325.27" y="-70.8" font-family="Arial" font-size="14.00">created_at </text>
<text text-anchor="start" x="395.32" y="-70.8" font-family="Arial" font-size="14.00" fill="#666666">[datetime(6)]</text>
</g>
<!-- join_requests_history&#45;&gt;join_responses_history -->
<g id="edge1" class="edge">
<title>join_requests_history:join_response_event_id&#45;&gt;join_responses_history:join_response_event_id</title>
<path fill="none" stroke="black" d="M478.32,-495.95C423.59,-486.24 452.91,-396.04 489.67,-342.8 525.7,-290.63 586.61,-343.5 622.75,-291.4 646.61,-257 665.62,-197.2 623.75,-197.2"/>
<polygon fill="black" stroke="black" points="478.37,-495.95 487.97,-501.26 483.69,-496.39 488.01,-496.75 488.01,-496.75 488.01,-496.75 483.69,-496.39 488.71,-492.29 478.37,-495.95"/>
<text text-anchor="start" x="7" y="-506.8" font-family="Arial" font-size="10.00">FOREIGN KEY (join_response_event_id) REFERENCES join_responses_history (join_response_event_id)</text>
</g>
<!-- users -->
<g id="node3" class="node">
<title>users</title>
<polygon fill="#efefef" stroke="none" points="727.51,-228 727.51,-263.6 941.5,-263.6 941.5,-228 727.51,-228"/>
<polygon fill="none" stroke="black" points="727.51,-228 727.51,-263.6 941.5,-263.6 941.5,-228 727.51,-228"/>
<text text-anchor="start" x="753.77" y="-241.4" font-family="Arial Bold" font-size="18.00">users</text>
<text text-anchor="start" x="790.76" y="-241.4" font-family="Arial" font-size="14.00">    </text>
<text text-anchor="start" x="821.88" y="-241.4" font-family="Arial" font-size="14.00" fill="#666666">[BASE TABLE]</text>
<polygon fill="none" stroke="black" points="727.51,-197.2 727.51,-228 941.5,-228 941.5,-197.2 727.51,-197.2"/>
<text text-anchor="start" x="734.51" y="-209.4" font-family="Arial" font-size="14.00">user_id </text>
<text text-anchor="start" x="784.32" y="-209.4" font-family="Arial" font-size="14.00" fill="#666666">[bigint(20)]</text>
<polygon fill="none" stroke="black" points="727.51,-166.4 727.51,-197.2 941.5,-197.2 941.5,-166.4 727.51,-166.4"/>
<text text-anchor="start" x="734.51" y="-178.6" font-family="Arial" font-size="14.00">email </text>
<text text-anchor="start" x="771.86" y="-178.6" font-family="Arial" font-size="14.00" fill="#666666">[varchar(320)]</text>
<polygon fill="none" stroke="black" points="727.51,-135.6 727.51,-166.4 941.5,-166.4 941.5,-135.6 727.51,-135.6"/>
<text text-anchor="start" x="734.51" y="-147.8" font-family="Arial" font-size="14.00">first_name </text>
<text text-anchor="start" x="803.76" y="-147.8" font-family="Arial" font-size="14.00" fill="#666666">[varchar(255)]</text>
<polygon fill="none" stroke="black" points="727.51,-104.8 727.51,-135.6 941.5,-135.6 941.5,-104.8 727.51,-104.8"/>
<text text-anchor="start" x="734.51" y="-117" font-family="Arial" font-size="14.00">last_name </text>
<text text-anchor="start" x="802.99" y="-117" font-family="Arial" font-size="14.00" fill="#666666">[varchar(255)]</text>
<polygon fill="none" stroke="black" points="727.51,-74 727.51,-104.8 941.5,-104.8 941.5,-74 727.51,-74"/>
<text text-anchor="start" x="734.51" y="-86.2" font-family="Arial" font-size="14.00">password_hash </text>
<text text-anchor="start" x="836.46" y="-86.2" font-family="Arial" font-size="14.00" fill="#666666">[varbinary(255)]</text>
<polygon fill="none" stroke="black" points="727.51,-43.2 727.51,-74 941.5,-74 941.5,-43.2 727.51,-43.2"/>
<text text-anchor="start" x="734.51" y="-55.4" font-family="Arial" font-size="14.00">middle_name </text>
<text text-anchor="start" x="822.45" y="-55.4" font-family="Arial" font-size="14.00" fill="#666666">[varchar(255)]</text>
</g>
<!-- join_requests_history&#45;&gt;users -->
<g id="edge2" class="edge">
<title>join_requests_history:admin_user_id&#45;&gt;users:user_id</title>
<path fill="none" stroke="black" d="M826.48,-464.94C867.65,-455.51 843.94,-385.05 815.34,-342.8 791.7,-307.86 751.2,-341.71 727.51,-306.8 704,-272.15 684.64,-212.6 726.51,-212.6"/>
<polygon fill="black" stroke="black" points="826.62,-464.93 816.21,-461.49 821.32,-465.48 817.01,-465.93 817.01,-465.93 817.01,-465.93 821.32,-465.48 817.14,-470.44 826.62,-464.93"/>
<text text-anchor="start" x="823.34" y="-476" font-family="Arial" font-size="10.00">FOREIGN KEY (admin_user_id) REFERENCES users (user_id)</text>
</g>
</g>
</svg>
