<?xml version="1.0" encoding="UTF-8" standalone="no"?>
<!DOCTYPE svg PUBLIC "-//W3C//DTD SVG 1.1//EN"
 "http://www.w3.org/Graphics/SVG/1.1/DTD/svg11.dtd">
<!-- Generated by graphviz version 12.1.2 (20240928.0832)
 -->
<!-- Title: join_responses_history Pages: 1 -->
<svg width="1256pt" height="945pt"
 viewBox="0.00 0.00 1256.28 944.80" xmlns="http://www.w3.org/2000/svg" xmlns:xlink="http://www.w3.org/1999/xlink">
<g id="graph0" class="graph" transform="scale(1 1) rotate(0) translate(4 940.8)">
<title>join_responses_history</title>
<polygon fill="white" stroke="none" points="-4,4 -4,-940.8 1252.28,-940.8 1252.28,4 -4,4"/>
<!-- join_responses_history -->
<g id="node1" class="node">
<title>join_responses_history</title>
<polygon fill="#efefef" stroke="none" points="459.63,-543 459.63,-578.6 764.11,-578.6 764.11,-543 459.63,-543"/>
<polygon fill="none" stroke="black" points="459.63,-543 459.63,-578.6 764.11,-578.6 764.11,-543 459.63,-543"/>
<text text-anchor="start" x="466.63" y="-556.4" font-family="Arial Bold" font-size="18.00">join_responses_history</text>
<text text-anchor="start" x="632.62" y="-556.4" font-family="Arial" font-size="14.00">    </text>
<text text-anchor="start" x="663.74" y="-556.4" font-family="Arial" font-size="14.00" fill="#666666">[BASE TABLE]</text>
<polygon fill="none" stroke="black" points="459.63,-512.2 459.63,-543 764.11,-543 764.11,-512.2 459.63,-512.2"/>
<text text-anchor="start" x="466.63" y="-524.4" font-family="Arial" font-size="14.00">join_response_event_id </text>
<text text-anchor="start" x="618.41" y="-524.4" font-family="Arial" font-size="14.00" fill="#666666">[bigint(20)]</text>
<polygon fill="none" stroke="black" points="459.63,-481.4 459.63,-512.2 764.11,-512.2 764.11,-481.4 459.63,-481.4"/>
<text text-anchor="start" x="466.63" y="-493.6" font-family="Arial" font-size="14.00">join_prompt_event_id </text>
<text text-anchor="start" x="604.39" y="-493.6" font-family="Arial" font-size="14.00" fill="#666666">[bigint(20)]</text>
<polygon fill="none" stroke="black" points="459.63,-450.6 459.63,-481.4 764.11,-481.4 764.11,-450.6 459.63,-450.6"/>
<text text-anchor="start" x="466.63" y="-462.8" font-family="Arial" font-size="14.00">user_id </text>
<text text-anchor="start" x="516.44" y="-462.8" font-family="Arial" font-size="14.00" fill="#666666">[bigint(20)]</text>
<polygon fill="none" stroke="black" points="459.63,-419.8 459.63,-450.6 764.11,-450.6 764.11,-419.8 459.63,-419.8"/>
<text text-anchor="start" x="466.63" y="-432" font-family="Arial" font-size="14.00">response </text>
<text text-anchor="start" x="528.11" y="-432" font-family="Arial" font-size="14.00" fill="#666666">[text]</text>
<polygon fill="none" stroke="black" points="459.63,-389 459.63,-419.8 764.11,-419.8 764.11,-389 459.63,-389"/>
<text text-anchor="start" x="466.63" y="-401.2" font-family="Arial" font-size="14.00">created_at </text>
<text text-anchor="start" x="536.68" y="-401.2" font-family="Arial" font-size="14.00" fill="#666666">[datetime(6)]</text>
<polygon fill="none" stroke="black" stroke-width="3" points="458.13,-387.5 458.13,-580.1 765.61,-580.1 765.61,-387.5 458.13,-387.5"/>
</g>
<!-- join_prompts_history -->
<g id="node3" class="node">
<title>join_prompts_history</title>
<polygon fill="#efefef" stroke="none" points="286.12,-212.6 286.12,-248.2 579.62,-248.2 579.62,-212.6 286.12,-212.6"/>
<polygon fill="none" stroke="black" points="286.12,-212.6 286.12,-248.2 579.62,-248.2 579.62,-212.6 286.12,-212.6"/>
<text text-anchor="start" x="293.12" y="-226" font-family="Arial Bold" font-size="18.00">join_prompts_history</text>
<text text-anchor="start" x="448.13" y="-226" font-family="Arial" font-size="14.00">    </text>
<text text-anchor="start" x="479.24" y="-226" font-family="Arial" font-size="14.00" fill="#666666">[BASE TABLE]</text>
<polygon fill="none" stroke="black" points="286.12,-181.8 286.12,-212.6 579.62,-212.6 579.62,-181.8 286.12,-181.8"/>
<text text-anchor="start" x="293.12" y="-194" font-family="Arial" font-size="14.00">join_prompt_event_id </text>
<text text-anchor="start" x="430.88" y="-194" font-family="Arial" font-size="14.00" fill="#666666">[bigint(20)]</text>
<polygon fill="none" stroke="black" points="286.12,-151 286.12,-181.8 579.62,-181.8 579.62,-151 286.12,-151"/>
<text text-anchor="start" x="293.12" y="-163.2" font-family="Arial" font-size="14.00">organization_id </text>
<text text-anchor="start" x="391.97" y="-163.2" font-family="Arial" font-size="14.00" fill="#666666">[bigint(20)]</text>
<polygon fill="none" stroke="black" points="286.12,-120.2 286.12,-151 579.62,-151 579.62,-120.2 286.12,-120.2"/>
<text text-anchor="start" x="293.12" y="-132.4" font-family="Arial" font-size="14.00">owner_user_id </text>
<text text-anchor="start" x="388.85" y="-132.4" font-family="Arial" font-size="14.00" fill="#666666">[bigint(20)]</text>
<polygon fill="none" stroke="black" points="286.12,-89.4 286.12,-120.2 579.62,-120.2 579.62,-89.4 286.12,-89.4"/>
<text text-anchor="start" x="293.12" y="-101.6" font-family="Arial" font-size="14.00">prompt </text>
<text text-anchor="start" x="340.58" y="-101.6" font-family="Arial" font-size="14.00" fill="#666666">[text]</text>
<polygon fill="none" stroke="black" points="286.12,-58.6 286.12,-89.4 579.62,-89.4 579.62,-58.6 286.12,-58.6"/>
<text text-anchor="start" x="293.12" y="-70.8" font-family="Arial" font-size="14.00">created_at </text>
<text text-anchor="start" x="363.17" y="-70.8" font-family="Arial" font-size="14.00" fill="#666666">[datetime(6)]</text>
</g>
<!-- join_responses_history&#45;&gt;join_prompts_history -->
<g id="edge2" class="edge">
<title>join_responses_history:join_prompt_event_id&#45;&gt;join_prompts_history:join_prompt_event_id</title>
<path fill="none" stroke="black" d="M448.28,-495.95C393.66,-486.31 423.83,-396.7 459.63,-342.8 491.73,-294.47 547.42,-339.66 579.62,-291.4 602.85,-256.57 622.48,-197.2 580.62,-197.2"/>
<polygon fill="black" stroke="black" points="448.33,-495.96 457.93,-501.26 453.65,-496.39 457.96,-496.75 457.96,-496.75 457.96,-496.75 453.65,-496.39 458.66,-492.29 448.33,-495.96"/>
<text text-anchor="start" x="7" y="-506.8" font-family="Arial" font-size="10.00">FOREIGN KEY (join_prompt_event_id) REFERENCES join_prompts_history (join_prompt_event_id)</text>
</g>
<!-- users -->
<g id="node4" class="node">
<title>users</title>
<polygon fill="#efefef" stroke="none" points="683.87,-228 683.87,-263.6 897.86,-263.6 897.86,-228 683.87,-228"/>
<polygon fill="none" stroke="black" points="683.87,-228 683.87,-263.6 897.86,-263.6 897.86,-228 683.87,-228"/>
<text text-anchor="start" x="710.13" y="-241.4" font-family="Arial Bold" font-size="18.00">users</text>
<text text-anchor="start" x="747.12" y="-241.4" font-family="Arial" font-size="14.00">    </text>
<text text-anchor="start" x="778.24" y="-241.4" font-family="Arial" font-size="14.00" fill="#666666">[BASE TABLE]</text>
<polygon fill="none" stroke="black" points="683.87,-197.2 683.87,-228 897.86,-228 897.86,-197.2 683.87,-197.2"/>
<text text-anchor="start" x="690.87" y="-209.4" font-family="Arial" font-size="14.00">user_id </text>
<text text-anchor="start" x="740.68" y="-209.4" font-family="Arial" font-size="14.00" fill="#666666">[bigint(20)]</text>
<polygon fill="none" stroke="black" points="683.87,-166.4 683.87,-197.2 897.86,-197.2 897.86,-166.4 683.87,-166.4"/>
<text text-anchor="start" x="690.87" y="-178.6" font-family="Arial" font-size="14.00">email </text>
<text text-anchor="start" x="728.22" y="-178.6" font-family="Arial" font-size="14.00" fill="#666666">[varchar(320)]</text>
<polygon fill="none" stroke="black" points="683.87,-135.6 683.87,-166.4 897.86,-166.4 897.86,-135.6 683.87,-135.6"/>
<text text-anchor="start" x="690.87" y="-147.8" font-family="Arial" font-size="14.00">first_name </text>
<text text-anchor="start" x="760.12" y="-147.8" font-family="Arial" font-size="14.00" fill="#666666">[varchar(255)]</text>
<polygon fill="none" stroke="black" points="683.87,-104.8 683.87,-135.6 897.86,-135.6 897.86,-104.8 683.87,-104.8"/>
<text text-anchor="start" x="690.87" y="-117" font-family="Arial" font-size="14.00">last_name </text>
<text text-anchor="start" x="759.35" y="-117" font-family="Arial" font-size="14.00" fill="#666666">[varchar(255)]</text>
<polygon fill="none" stroke="black" points="683.87,-74 683.87,-104.8 897.86,-104.8 897.86,-74 683.87,-74"/>
<text text-anchor="start" x="690.87" y="-86.2" font-family="Arial" font-size="14.00">password_hash </text>
<text text-anchor="start" x="792.82" y="-86.2" font-family="Arial" font-size="14.00" fill="#666666">[varbinary(255)]</text>
<polygon fill="none" stroke="black" points="683.87,-43.2 683.87,-74 897.86,-74 897.86,-43.2 683.87,-43.2"/>
<text text-anchor="start" x="690.87" y="-55.4" font-family="Arial" font-size="14.00">middle_name </text>
<text text-anchor="start" x="778.81" y="-55.4" font-family="Arial" font-size="14.00" fill="#666666">[varchar(255)]</text>
</g>
<!-- join_responses_history&#45;&gt;users -->
<g id="edge3" class="edge">
<title>join_responses_history:user_id&#45;&gt;users:user_id</title>
<path fill="none" stroke="black" d="M775.49,-464.89C816.22,-455.28 791.95,-385.42 764.11,-342.8 742.74,-310.08 705.29,-339.5 683.87,-306.8 660.93,-271.77 641,-212.6 682.87,-212.6"/>
<polygon fill="black" stroke="black" points="775.38,-464.9 764.96,-461.49 770.08,-465.47 765.77,-465.93 765.77,-465.93 765.77,-465.93 770.08,-465.47 765.92,-470.44 775.38,-464.9"/>
<text text-anchor="start" x="772.11" y="-476" font-family="Arial" font-size="10.00">FOREIGN KEY (user_id) REFERENCES users (user_id)</text>
</g>
<!-- join_requests_history -->
<g id="node2" class="node">
<title>join_requests_history</title>
<polygon fill="#efefef" stroke="none" points="465.13,-858 465.13,-893.6 758.61,-893.6 758.61,-858 465.13,-858"/>
<polygon fill="none" stroke="black" points="465.13,-858 465.13,-893.6 758.61,-893.6 758.61,-858 465.13,-858"/>
<text text-anchor="start" x="472.13" y="-871.4" font-family="Arial Bold" font-size="18.00">join_requests_history</text>
<text text-anchor="start" x="627.12" y="-871.4" font-family="Arial" font-size="14.00">    </text>
<text text-anchor="start" x="658.23" y="-871.4" font-family="Arial" font-size="14.00" fill="#666666">[BASE TABLE]</text>
<polygon fill="none" stroke="black" points="465.13,-827.2 465.13,-858 758.61,-858 758.61,-827.2 465.13,-827.2"/>
<text text-anchor="start" x="472.13" y="-839.4" font-family="Arial" font-size="14.00">join_request_event_id </text>
<text text-anchor="start" x="613.01" y="-839.4" font-family="Arial" font-size="14.00" fill="#666666">[bigint(20)]</text>
<polygon fill="none" stroke="black" points="465.13,-796.4 465.13,-827.2 758.61,-827.2 758.61,-796.4 465.13,-796.4"/>
<text text-anchor="start" x="472.13" y="-808.6" font-family="Arial" font-size="14.00">join_response_event_id </text>
<text text-anchor="start" x="623.91" y="-808.6" font-family="Arial" font-size="14.00" fill="#666666">[bigint(20)]</text>
<polygon fill="none" stroke="black" points="465.13,-765.6 465.13,-796.4 758.61,-796.4 758.61,-765.6 465.13,-765.6"/>
<text text-anchor="start" x="472.13" y="-777.8" font-family="Arial" font-size="14.00">admin_user_id </text>
<text text-anchor="start" x="567.85" y="-777.8" font-family="Arial" font-size="14.00" fill="#666666">[bigint(20)]</text>
<polygon fill="none" stroke="black" points="465.13,-734.8 465.13,-765.6 758.61,-765.6 758.61,-734.8 465.13,-734.8"/>
<text text-anchor="start" x="472.13" y="-747" font-family="Arial" font-size="14.00">created_at </text>
<text text-anchor="start" x="542.18" y="-747" font-family="Arial" font-size="14.00" fill="#666666">[datetime(6)]</text>
<polygon fill="none" stroke="black" points="465.13,-704 465.13,-734.8 758.61,-734.8 758.61,-704 465.13,-704"/>
<text text-anchor="start" x="472.13" y="-716.2" font-family="Arial" font-size="14.00">status </text>
<text text-anchor="start" x="513.37" y="-716.2" font-family="Arial" font-size="14.00" fill="#666666">[enum(&#39;open&#39;,&#39;accepted&#39;,&#39;denied&#39;)]</text>
</g>
<!-- join_requests_history&#45;&gt;join_responses_history -->
<g id="edge1" class="edge">
<title>join_requests_history:join_response_event_id&#45;&gt;join_responses_history:join_response_event_id</title>
<path fill="none" stroke="black" d="M769.7,-811.17C886.14,-796.47 887.99,-527.6 765.11,-527.6"/>
<polygon fill="black" stroke="black" points="769.92,-811.16 759.66,-807.29 764.6,-811.49 760.27,-811.76 760.27,-811.76 760.27,-811.76 764.6,-811.49 760.22,-816.27 769.92,-811.16"/>
<text text-anchor="start" x="766.61" y="-821.8" font-family="Arial" font-size="10.00">FOREIGN KEY (join_response_event_id) REFERENCES join_responses_history (join_response_event_id)</text>
</g>
</g>
</svg>
