<?xml version="1.0" encoding="UTF-8" standalone="no"?>
<!DOCTYPE svg PUBLIC "-//W3C//DTD SVG 1.1//EN"
 "http://www.w3.org/Graphics/SVG/1.1/DTD/svg11.dtd">
<!-- Generated by graphviz version 12.1.2 (20240928.0832)
 -->
<!-- Title: join_prompts_history Pages: 1 -->
<svg width="1138pt" height="945pt"
 viewBox="0.00 0.00 1137.88 944.80" xmlns="http://www.w3.org/2000/svg" xmlns:xlink="http://www.w3.org/1999/xlink">
<g id="graph0" class="graph" transform="scale(1 1) rotate(0) translate(4 940.8)">
<title>join_prompts_history</title>
<polygon fill="white" stroke="none" points="-4,4 -4,-940.8 1133.88,-940.8 1133.88,4 -4,4"/>
<!-- join_prompts_history -->
<g id="node1" class="node">
<title>join_prompts_history</title>
<polygon fill="#efefef" stroke="none" points="371.26,-543 371.26,-578.6 664.75,-578.6 664.75,-543 371.26,-543"/>
<polygon fill="none" stroke="black" points="371.26,-543 371.26,-578.6 664.75,-578.6 664.75,-543 371.26,-543"/>
<text text-anchor="start" x="378.26" y="-556.4" font-family="Arial Bold" font-size="18.00">join_prompts_history</text>
<text text-anchor="start" x="533.26" y="-556.4" font-family="Arial" font-size="14.00">    </text>
<text text-anchor="start" x="564.38" y="-556.4" font-family="Arial" font-size="14.00" fill="#666666">[BASE TABLE]</text>
<polygon fill="none" stroke="black" points="371.26,-512.2 371.26,-543 664.75,-543 664.75,-512.2 371.26,-512.2"/>
<text text-anchor="start" x="378.26" y="-524.4" font-family="Arial" font-size="14.00">join_prompt_event_id </text>
<text text-anchor="start" x="516.02" y="-524.4" font-family="Arial" font-size="14.00" fill="#666666">[bigint(20)]</text>
<polygon fill="none" stroke="black" points="371.26,-481.4 371.26,-512.2 664.75,-512.2 664.75,-481.4 371.26,-481.4"/>
<text text-anchor="start" x="378.26" y="-493.6" font-family="Arial" font-size="14.00">organization_id </text>
<text text-anchor="start" x="477.11" y="-493.6" font-family="Arial" font-size="14.00" fill="#666666">[bigint(20)]</text>
<polygon fill="none" stroke="black" points="371.26,-450.6 371.26,-481.4 664.75,-481.4 664.75,-450.6 371.26,-450.6"/>
<text text-anchor="start" x="378.26" y="-462.8" font-family="Arial" font-size="14.00">owner_user_id </text>
<text text-anchor="start" x="473.98" y="-462.8" font-family="Arial" font-size="14.00" fill="#666666">[bigint(20)]</text>
<polygon fill="none" stroke="black" points="371.26,-419.8 371.26,-450.6 664.75,-450.6 664.75,-419.8 371.26,-419.8"/>
<text text-anchor="start" x="378.26" y="-432" font-family="Arial" font-size="14.00">prompt </text>
<text text-anchor="start" x="425.72" y="-432" font-family="Arial" font-size="14.00" fill="#666666">[text]</text>
<polygon fill="none" stroke="black" points="371.26,-389 371.26,-419.8 664.75,-419.8 664.75,-389 371.26,-389"/>
<text text-anchor="start" x="378.26" y="-401.2" font-family="Arial" font-size="14.00">created_at </text>
<text text-anchor="start" x="448.31" y="-401.2" font-family="Arial" font-size="14.00" fill="#666666">[datetime(6)]</text>
<polygon fill="none" stroke="black" stroke-width="3" points="369.76,-387.5 369.76,-580.1 666.25,-580.1 666.25,-387.5 369.76,-387.5"/>
</g>
<!-- organizations -->
<g id="node3" class="node">
<title>organizations</title>
<polygon fill="#efefef" stroke="none" points="236.28,-212.6 236.28,-248.2 471.74,-248.2 471.74,-212.6 236.28,-212.6"/>
<polygon fill="none" stroke="black" points="236.28,-212.6 236.28,-248.2 471.74,-248.2 471.74,-212.6 236.28,-212.6"/>
<text text-anchor="start" x="243.28" y="-226" font-family="Arial Bold" font-size="18.00">organizations</text>
<text text-anchor="start" x="340.25" y="-226" font-family="Arial" font-size="14.00">    </text>
<text text-anchor="start" x="371.36" y="-226" font-family="Arial" font-size="14.00" fill="#666666">[BASE TABLE]</text>
<polygon fill="none" stroke="black" points="236.28,-181.8 236.28,-212.6 471.74,-212.6 471.74,-181.8 236.28,-181.8"/>
<text text-anchor="start" x="243.28" y="-194" font-family="Arial" font-size="14.00">organization_id </text>
<text text-anchor="start" x="342.12" y="-194" font-family="Arial" font-size="14.00" fill="#666666">[bigint(20)]</text>
<polygon fill="none" stroke="black" points="236.28,-151 236.28,-181.8 471.74,-181.8 471.74,-151 236.28,-151"/>
<text text-anchor="start" x="243.28" y="-163.2" font-family="Arial" font-size="14.00">name </text>
<text text-anchor="start" x="282.19" y="-163.2" font-family="Arial" font-size="14.00" fill="#666666">[varchar(255)]</text>
<polygon fill="none" stroke="black" points="236.28,-120.2 236.28,-151 471.74,-151 471.74,-120.2 236.28,-120.2"/>
<text text-anchor="start" x="243.28" y="-132.4" font-family="Arial" font-size="14.00">requires_join_request </text>
<text text-anchor="start" x="381.81" y="-132.4" font-family="Arial" font-size="14.00" fill="#666666">[tinyint(1)]</text>
<polygon fill="none" stroke="black" points="236.28,-89.4 236.28,-120.2 471.74,-120.2 471.74,-89.4 236.28,-89.4"/>
<text text-anchor="start" x="243.28" y="-101.6" font-family="Arial" font-size="14.00">created_at </text>
<text text-anchor="start" x="313.32" y="-101.6" font-family="Arial" font-size="14.00" fill="#666666">[datetime(6)]</text>
<polygon fill="none" stroke="black" points="236.28,-58.6 236.28,-89.4 471.74,-89.4 471.74,-58.6 236.28,-58.6"/>
<text text-anchor="start" x="243.28" y="-70.8" font-family="Arial" font-size="14.00">description </text>
<text text-anchor="start" x="314.87" y="-70.8" font-family="Arial" font-size="14.00" fill="#666666">[text]</text>
</g>
<!-- join_prompts_history&#45;&gt;organizations -->
<g id="edge2" class="edge">
<title>join_prompts_history:organization_id&#45;&gt;organizations:organization_id</title>
<path fill="none" stroke="black" d="M359.93,-495.96C305.49,-486.44 337.32,-397.89 371.26,-342.8 397.57,-300.1 445.34,-334.05 471.74,-291.4 493.77,-255.8 514.6,-197.2 472.74,-197.2"/>
<polygon fill="black" stroke="black" points="359.96,-495.97 369.56,-501.26 365.28,-496.4 369.59,-496.75 369.59,-496.75 369.59,-496.75 365.28,-496.4 370.29,-492.29 359.96,-495.97"/>
<text text-anchor="start" x="7" y="-506.8" font-family="Arial" font-size="10.00">FOREIGN KEY (organization_id) REFERENCES organizations (organization_id)</text>
</g>
<!-- users -->
<g id="node4" class="node">
<title>users</title>
<polygon fill="#efefef" stroke="none" points="576.01,-228 576.01,-263.6 790,-263.6 790,-228 576.01,-228"/>
<polygon fill="none" stroke="black" points="576.01,-228 576.01,-263.6 790,-263.6 790,-228 576.01,-228"/>
<text text-anchor="start" x="602.27" y="-241.4" font-family="Arial Bold" font-size="18.00">users</text>
<text text-anchor="start" x="639.26" y="-241.4" font-family="Arial" font-size="14.00">    </text>
<text text-anchor="start" x="670.38" y="-241.4" font-family="Arial" font-size="14.00" fill="#666666">[BASE TABLE]</text>
<polygon fill="none" stroke="black" points="576.01,-197.2 576.01,-228 790,-228 790,-197.2 576.01,-197.2"/>
<text text-anchor="start" x="583.01" y="-209.4" font-family="Arial" font-size="14.00">user_id </text>
<text text-anchor="start" x="632.82" y="-209.4" font-family="Arial" font-size="14.00" fill="#666666">[bigint(20)]</text>
<polygon fill="none" stroke="black" points="576.01,-166.4 576.01,-197.2 790,-197.2 790,-166.4 576.01,-166.4"/>
<text text-anchor="start" x="583.01" y="-178.6" font-family="Arial" font-size="14.00">email </text>
<text text-anchor="start" x="620.35" y="-178.6" font-family="Arial" font-size="14.00" fill="#666666">[varchar(320)]</text>
<polygon fill="none" stroke="black" points="576.01,-135.6 576.01,-166.4 790,-166.4 790,-135.6 576.01,-135.6"/>
<text text-anchor="start" x="583.01" y="-147.8" font-family="Arial" font-size="14.00">first_name </text>
<text text-anchor="start" x="652.26" y="-147.8" font-family="Arial" font-size="14.00" fill="#666666">[varchar(255)]</text>
<polygon fill="none" stroke="black" points="576.01,-104.8 576.01,-135.6 790,-135.6 790,-104.8 576.01,-104.8"/>
<text text-anchor="start" x="583.01" y="-117" font-family="Arial" font-size="14.00">last_name </text>
<text text-anchor="start" x="651.49" y="-117" font-family="Arial" font-size="14.00" fill="#666666">[varchar(255)]</text>
<polygon fill="none" stroke="black" points="576.01,-74 576.01,-104.8 790,-104.8 790,-74 576.01,-74"/>
<text text-anchor="start" x="583.01" y="-86.2" font-family="Arial" font-size="14.00">password_hash </text>
<text text-anchor="start" x="684.96" y="-86.2" font-family="Arial" font-size="14.00" fill="#666666">[varbinary(255)]</text>
<polygon fill="none" stroke="black" points="576.01,-43.2 576.01,-74 790,-74 790,-43.2 576.01,-43.2"/>
<text text-anchor="start" x="583.01" y="-55.4" font-family="Arial" font-size="14.00">middle_name </text>
<text text-anchor="start" x="670.95" y="-55.4" font-family="Arial" font-size="14.00" fill="#666666">[varchar(255)]</text>
</g>
<!-- join_prompts_history&#45;&gt;users -->
<g id="edge3" class="edge">
<title>join_prompts_history:owner_user_id&#45;&gt;users:user_id</title>
<path fill="none" stroke="black" d="M675.89,-464.94C717.07,-455.5 693.42,-385 664.75,-342.8 640.83,-307.59 599.97,-341.98 576.01,-306.8 552.44,-272.2 533.14,-212.6 575.01,-212.6"/>
<polygon fill="black" stroke="black" points="676.03,-464.93 665.62,-461.49 670.73,-465.48 666.42,-465.93 666.42,-465.93 666.42,-465.93 670.73,-465.48 666.55,-470.44 676.03,-464.93"/>
<text text-anchor="start" x="672.75" y="-476" font-family="Arial" font-size="10.00">FOREIGN KEY (owner_user_id) REFERENCES users (user_id)</text>
</g>
<!-- join_responses_history -->
<g id="node2" class="node">
<title>join_responses_history</title>
<polygon fill="#efefef" stroke="none" points="365.77,-858 365.77,-893.6 670.25,-893.6 670.25,-858 365.77,-858"/>
<polygon fill="none" stroke="black" points="365.77,-858 365.77,-893.6 670.25,-893.6 670.25,-858 365.77,-858"/>
<text text-anchor="start" x="372.77" y="-871.4" font-family="Arial Bold" font-size="18.00">join_responses_history</text>
<text text-anchor="start" x="538.76" y="-871.4" font-family="Arial" font-size="14.00">    </text>
<text text-anchor="start" x="569.87" y="-871.4" font-family="Arial" font-size="14.00" fill="#666666">[BASE TABLE]</text>
<polygon fill="none" stroke="black" points="365.77,-827.2 365.77,-858 670.25,-858 670.25,-827.2 365.77,-827.2"/>
<text text-anchor="start" x="372.77" y="-839.4" font-family="Arial" font-size="14.00">join_response_event_id </text>
<text text-anchor="start" x="524.54" y="-839.4" font-family="Arial" font-size="14.00" fill="#666666">[bigint(20)]</text>
<polygon fill="none" stroke="black" points="365.77,-796.4 365.77,-827.2 670.25,-827.2 670.25,-796.4 365.77,-796.4"/>
<text text-anchor="start" x="372.77" y="-808.6" font-family="Arial" font-size="14.00">join_prompt_event_id </text>
<text text-anchor="start" x="510.52" y="-808.6" font-family="Arial" font-size="14.00" fill="#666666">[bigint(20)]</text>
<polygon fill="none" stroke="black" points="365.77,-765.6 365.77,-796.4 670.25,-796.4 670.25,-765.6 365.77,-765.6"/>
<text text-anchor="start" x="372.77" y="-777.8" font-family="Arial" font-size="14.00">user_id </text>
<text text-anchor="start" x="422.57" y="-777.8" font-family="Arial" font-size="14.00" fill="#666666">[bigint(20)]</text>
<polygon fill="none" stroke="black" points="365.77,-734.8 365.77,-765.6 670.25,-765.6 670.25,-734.8 365.77,-734.8"/>
<text text-anchor="start" x="372.77" y="-747" font-family="Arial" font-size="14.00">response </text>
<text text-anchor="start" x="434.25" y="-747" font-family="Arial" font-size="14.00" fill="#666666">[text]</text>
<polygon fill="none" stroke="black" points="365.77,-704 365.77,-734.8 670.25,-734.8 670.25,-704 365.77,-704"/>
<text text-anchor="start" x="372.77" y="-716.2" font-family="Arial" font-size="14.00">created_at </text>
<text text-anchor="start" x="442.81" y="-716.2" font-family="Arial" font-size="14.00" fill="#666666">[datetime(6)]</text>
</g>
<!-- join_responses_history&#45;&gt;join_prompts_history -->
<g id="edge1" class="edge">
<title>join_responses_history:join_prompt_event_id&#45;&gt;join_prompts_history:join_prompt_event_id</title>
<path fill="none" stroke="black" d="M681.66,-811.13C797.17,-795.93 788.51,-527.6 665.75,-527.6"/>
<polygon fill="black" stroke="black" points="681.56,-811.14 671.29,-807.29 676.24,-811.48 671.91,-811.76 671.91,-811.76 671.91,-811.76 676.24,-811.48 671.87,-816.27 681.56,-811.14"/>
<text text-anchor="start" x="678.25" y="-821.8" font-family="Arial" font-size="10.00">FOREIGN KEY (join_prompt_event_id) REFERENCES join_prompts_history (join_prompt_event_id)</text>
</g>
</g>
</svg>
