<?xml version="1.0" encoding="UTF-8" standalone="no"?>
<!DOCTYPE svg PUBLIC "-//W3C//DTD SVG 1.1//EN"
 "http://www.w3.org/Graphics/SVG/1.1/DTD/svg11.dtd">
<!-- Generated by graphviz version 12.1.2 (20240928.0832)
 -->
<!-- Title: join_requests_history Pages: 1 -->
<svg width="1090pt" height="633pt"
 viewBox="0.00 0.00 1090.12 632.80" xmlns="http://www.w3.org/2000/svg" xmlns:xlink="http://www.w3.org/1999/xlink">
<g id="graph0" class="graph" transform="scale(1 1) rotate(0) translate(4 628.8)">
<title>join_requests_history</title>
<polygon fill="white" stroke="none" points="-4,4 -4,-628.8 1086.12,-628.8 1086.12,4 -4,4"/>
<!-- join_requests_history -->
<g id="node1" class="node">
<title>join_requests_history</title>
<polygon fill="#efefef" stroke="none" points="489.67,-543 489.67,-578.6 783.15,-578.6 783.15,-543 489.67,-543"/>
<polygon fill="none" stroke="black" points="489.67,-543 489.67,-578.6 783.15,-578.6 783.15,-543 489.67,-543"/>
<text text-anchor="start" x="496.67" y="-556.4" font-family="Arial Bold" font-size="18.00">join_requests_history</text>
<text text-anchor="start" x="651.66" y="-556.4" font-family="Arial" font-size="14.00">    </text>
<text text-anchor="start" x="682.78" y="-556.4" font-family="Arial" font-size="14.00" fill="#666666">[BASE TABLE]</text>
<polygon fill="none" stroke="black" points="489.67,-512.2 489.67,-543 783.15,-543 783.15,-512.2 489.67,-512.2"/>
<text text-anchor="start" x="496.67" y="-524.4" font-family="Arial" font-size="14.00">join_request_event_id </text>
<text text-anchor="start" x="637.55" y="-524.4" font-family="Arial" font-size="14.00" fill="#666666">[bigint(20)]</text>
<polygon fill="none" stroke="black" points="489.67,-481.4 489.67,-512.2 783.15,-512.2 783.15,-481.4 489.67,-481.4"/>
<text text-anchor="start" x="496.67" y="-493.6" font-family="Arial" font-size="14.00">join_response_event_id </text>
<text text-anchor="start" x="648.45" y="-493.6" font-family="Arial" font-size="14.00" fill="#666666">[bigint(20)]</text>
<polygon fill="none" stroke="black" points="489.67,-450.6 489.67,-481.4 783.15,-481.4 783.15,-450.6 489.67,-450.6"/>
<text text-anchor="start" x="496.67" y="-462.8" font-family="Arial" font-size="14.00">admin_user_id </text>
<text text-anchor="start" x="592.4" y="-462.8" font-family="Arial" font-size="14.00" fill="#666666">[bigint(20)]</text>
<polygon fill="none" stroke="black" points="489.67,-419.8 489.67,-450.6 783.15,-450.6 783.15,-419.8 489.67,-419.8"/>
<text text-anchor="start" x="496.67" y="-432" font-family="Arial" font-size="14.00">created_at </text>
<text text-anchor="start" x="566.72" y="-432" font-family="Arial" font-size="14.00" fill="#666666">[datetime(6)]</text>
<polygon fill="none" stroke="black" points="489.67,-389 489.67,-419.8 783.15,-419.8 783.15,-389 489.67,-389"/>
<text text-anchor="start" x="496.67" y="-401.2" font-family="Arial" font-size="14.00">status </text>
<text text-anchor="start" x="537.91" y="-401.2" font-family="Arial" font-size="14.00" fill="#666666">[enum(&#39;open&#39;,&#39;accepted&#39;,&#39;denied&#39;)]</text>
<polygon fill="none" stroke="black" stroke-width="3" points="488.17,-387.5 488.17,-580.1 784.65,-580.1 784.65,-387.5 488.17,-387.5"/>
</g>
<!-- join_responses_history -->
<g id="node2" class="node">
<title>join_responses_history</title>
<polygon fill="#efefef" stroke="none" points="302.17,-212.6 302.17,-248.2 606.65,-248.2 606.65,-212.6 302.17,-212.6"/>
<polygon fill="none" stroke="black" points="302.17,-212.6 302.17,-248.2 606.65,-248.2 606.65,-212.6 302.17,-212.6"/>
<text text-anchor="start" x="309.17" y="-226" font-family="Arial Bold" font-size="18.00">join_responses_history</text>
<text text-anchor="start" x="475.16" y="-226" font-family="Arial" font-size="14.00">    </text>
<text text-anchor="start" x="506.28" y="-226" font-family="Arial" font-size="14.00" fill="#666666">[BASE TABLE]</text>
<polygon fill="none" stroke="black" points="302.17,-181.8 302.17,-212.6 606.65,-212.6 606.65,-181.8 302.17,-181.8"/>
<text text-anchor="start" x="309.17" y="-194" font-family="Arial" font-size="14.00">join_response_event_id </text>
<text text-anchor="start" x="460.95" y="-194" font-family="Arial" font-size="14.00" fill="#666666">[bigint(20)]</text>
<polygon fill="none" stroke="black" points="302.17,-151 302.17,-181.8 606.65,-181.8 606.65,-151 302.17,-151"/>
<text text-anchor="start" x="309.17" y="-163.2" font-family="Arial" font-size="14.00">join_prompt_event_id </text>
<text text-anchor="start" x="446.93" y="-163.2" font-family="Arial" font-size="14.00" fill="#666666">[bigint(20)]</text>
<polygon fill="none" stroke="black" points="302.17,-120.2 302.17,-151 606.65,-151 606.65,-120.2 302.17,-120.2"/>
<text text-anchor="start" x="309.17" y="-132.4" font-family="Arial" font-size="14.00">user_id </text>
<text text-anchor="start" x="358.98" y="-132.4" font-family="Arial" font-size="14.00" fill="#666666">[bigint(20)]</text>
<polygon fill="none" stroke="black" points="302.17,-89.4 302.17,-120.2 606.65,-120.2 606.65,-89.4 302.17,-89.4"/>
<text text-anchor="start" x="309.17" y="-101.6" font-family="Arial" font-size="14.00">response </text>
<text text-anchor="start" x="370.65" y="-101.6" font-family="Arial" font-size="14.00" fill="#666666">[text]</text>
<polygon fill="none" stroke="black" points="302.17,-58.6 302.17,-89.4 606.65,-89.4 606.65,-58.6 302.17,-58.6"/>
<text text-anchor="start" x="309.17" y="-70.8" font-family="Arial" font-size="14.00">created_at </text>
<text text-anchor="start" x="379.22" y="-70.8" font-family="Arial" font-size="14.00" fill="#666666">[datetime(6)]</text>
</g>
<!-- join_requests_history&#45;&gt;join_responses_history -->
<g id="edge1" class="edge">
<title>join_requests_history:join_response_event_id&#45;&gt;join_responses_history:join_response_event_id</title>
<path fill="none" stroke="black" d="M478.33,-495.95C423.73,-486.33 454.13,-396.86 489.67,-342.8 520.87,-295.35 575.35,-338.79 606.65,-291.4 629.73,-256.46 649.52,-197.2 607.65,-197.2"/>
<polygon fill="black" stroke="black" points="478.37,-495.96 487.97,-501.26 483.69,-496.39 488.01,-496.75 488.01,-496.75 488.01,-496.75 483.69,-496.39 488.71,-492.29 478.37,-495.96"/>
<text text-anchor="start" x="7" y="-506.8" font-family="Arial" font-size="10.00">FOREIGN KEY (join_response_event_id) REFERENCES join_responses_history (join_response_event_id)</text>
</g>
<!-- users -->
<g id="node3" class="node">
<title>users</title>
<polygon fill="#efefef" stroke="none" points="711.41,-228 711.41,-263.6 925.41,-263.6 925.41,-228 711.41,-228"/>
<polygon fill="none" stroke="black" points="711.41,-228 711.41,-263.6 925.41,-263.6 925.41,-228 711.41,-228"/>
<text text-anchor="start" x="737.67" y="-241.4" font-family="Arial Bold" font-size="18.00">users</text>
<text text-anchor="start" x="774.66" y="-241.4" font-family="Arial" font-size="14.00">    </text>
<text text-anchor="start" x="805.78" y="-241.4" font-family="Arial" font-size="14.00" fill="#666666">[BASE TABLE]</text>
<polygon fill="none" stroke="black" points="711.41,-197.2 711.41,-228 925.41,-228 925.41,-197.2 711.41,-197.2"/>
<text text-anchor="start" x="718.41" y="-209.4" font-family="Arial" font-size="14.00">user_id </text>
<text text-anchor="start" x="768.22" y="-209.4" font-family="Arial" font-size="14.00" fill="#666666">[bigint(20)]</text>
<polygon fill="none" stroke="black" points="711.41,-166.4 711.41,-197.2 925.41,-197.2 925.41,-166.4 711.41,-166.4"/>
<text text-anchor="start" x="718.41" y="-178.6" font-family="Arial" font-size="14.00">email </text>
<text text-anchor="start" x="755.76" y="-178.6" font-family="Arial" font-size="14.00" fill="#666666">[varchar(320)]</text>
<polygon fill="none" stroke="black" points="711.41,-135.6 711.41,-166.4 925.41,-166.4 925.41,-135.6 711.41,-135.6"/>
<text text-anchor="start" x="718.41" y="-147.8" font-family="Arial" font-size="14.00">first_name </text>
<text text-anchor="start" x="787.66" y="-147.8" font-family="Arial" font-size="14.00" fill="#666666">[varchar(255)]</text>
<polygon fill="none" stroke="black" points="711.41,-104.8 711.41,-135.6 925.41,-135.6 925.41,-104.8 711.41,-104.8"/>
<text text-anchor="start" x="718.41" y="-117" font-family="Arial" font-size="14.00">last_name </text>
<text text-anchor="start" x="786.9" y="-117" font-family="Arial" font-size="14.00" fill="#666666">[varchar(255)]</text>
<polygon fill="none" stroke="black" points="711.41,-74 711.41,-104.8 925.41,-104.8 925.41,-74 711.41,-74"/>
<text text-anchor="start" x="718.41" y="-86.2" font-family="Arial" font-size="14.00">password_hash </text>
<text text-anchor="start" x="820.37" y="-86.2" font-family="Arial" font-size="14.00" fill="#666666">[varbinary(255)]</text>
<polygon fill="none" stroke="black" points="711.41,-43.2 711.41,-74 925.41,-74 925.41,-43.2 711.41,-43.2"/>
<text text-anchor="start" x="718.41" y="-55.4" font-family="Arial" font-size="14.00">middle_name </text>
<text text-anchor="start" x="806.35" y="-55.4" font-family="Arial" font-size="14.00" fill="#666666">[varchar(255)]</text>
</g>
<!-- join_requests_history&#45;&gt;users -->
<g id="edge2" class="edge">
<title>join_requests_history:admin_user_id&#45;&gt;users:user_id</title>
<path fill="none" stroke="black" d="M794.52,-464.9C835.12,-455.36 810.06,-386.02 783.15,-342.8 764.29,-312.52 730.31,-337.06 711.41,-306.8 689.24,-271.28 668.55,-212.6 710.41,-212.6"/>
<polygon fill="black" stroke="black" points="794.43,-464.91 784.01,-461.49 789.12,-465.47 784.81,-465.93 784.81,-465.93 784.81,-465.93 789.12,-465.47 784.96,-470.44 794.43,-464.91"/>
<text text-anchor="start" x="791.15" y="-476" font-family="Arial" font-size="10.00">FOREIGN KEY (admin_user_id) REFERENCES users (user_id)</text>
</g>
</g>
</svg>
