<?xml version="1.0" encoding="UTF-8" standalone="no"?>
<!DOCTYPE svg PUBLIC "-//W3C//DTD SVG 1.1//EN"
 "http://www.w3.org/Graphics/SVG/1.1/DTD/svg11.dtd">
<!-- Generated by graphviz version 12.1.2 (20240928.0832)
 -->
<!-- Title: member_moderations_history Pages: 1 -->
<svg width="1042pt" height="725pt"
 viewBox="0.00 0.00 1042.11 725.20" xmlns="http://www.w3.org/2000/svg" xmlns:xlink="http://www.w3.org/1999/xlink">
<g id="graph0" class="graph" transform="scale(1 1) rotate(0) translate(4 721.2)">
<title>member_moderations_history</title>
<polygon fill="white" stroke="none" points="-4,4 -4,-721.2 1038.11,-721.2 1038.11,4 -4,4"/>
<!-- member_moderations_history -->
<g id="node1" class="node">
<title>member_moderations_history</title>
<polygon fill="#efefef" stroke="none" points="371.26,-635.4 371.26,-671 725.71,-671 725.71,-635.4 371.26,-635.4"/>
<polygon fill="none" stroke="black" points="371.26,-635.4 371.26,-671 725.71,-671 725.71,-635.4 371.26,-635.4"/>
<text text-anchor="start" x="378.26" y="-648.8" font-family="Arial Bold" font-size="18.00">member_moderations_history</text>
<text text-anchor="start" x="594.22" y="-648.8" font-family="Arial" font-size="14.00">    </text>
<text text-anchor="start" x="625.33" y="-648.8" font-family="Arial" font-size="14.00" fill="#666666">[BASE TABLE]</text>
<polygon fill="none" stroke="black" points="371.26,-604.6 371.26,-635.4 725.71,-635.4 725.71,-604.6 371.26,-604.6"/>
<text text-anchor="start" x="378.26" y="-616.8" font-family="Arial" font-size="14.00">member_moderation_event_id </text>
<text text-anchor="start" x="572.04" y="-616.8" font-family="Arial" font-size="14.00" fill="#666666">[bigint(20)]</text>
<polygon fill="none" stroke="black" points="371.26,-573.8 371.26,-604.6 725.71,-604.6 725.71,-573.8 371.26,-573.8"/>
<text text-anchor="start" x="378.26" y="-586" font-family="Arial" font-size="14.00">organization_id </text>
<text text-anchor="start" x="477.11" y="-586" font-family="Arial" font-size="14.00" fill="#666666">[bigint(20)]</text>
<polygon fill="none" stroke="black" points="371.26,-543 371.26,-573.8 725.71,-573.8 725.71,-543 371.26,-543"/>
<text text-anchor="start" x="378.26" y="-555.2" font-family="Arial" font-size="14.00">member_user_id </text>
<text text-anchor="start" x="487.2" y="-555.2" font-family="Arial" font-size="14.00" fill="#666666">[bigint(20)]</text>
<polygon fill="none" stroke="black" points="371.26,-512.2 371.26,-543 725.71,-543 725.71,-512.2 371.26,-512.2"/>
<text text-anchor="start" x="378.26" y="-524.4" font-family="Arial" font-size="14.00">admin_user_id </text>
<text text-anchor="start" x="473.98" y="-524.4" font-family="Arial" font-size="14.00" fill="#666666">[bigint(20)]</text>
<polygon fill="none" stroke="black" points="371.26,-481.4 371.26,-512.2 725.71,-512.2 725.71,-481.4 371.26,-481.4"/>
<text text-anchor="start" x="378.26" y="-493.6" font-family="Arial" font-size="14.00">created_at </text>
<text text-anchor="start" x="448.31" y="-493.6" font-family="Arial" font-size="14.00" fill="#666666">[datetime(6)]</text>
<polygon fill="none" stroke="black" points="371.26,-450.6 371.26,-481.4 725.71,-481.4 725.71,-450.6 371.26,-450.6"/>
<text text-anchor="start" x="378.26" y="-462.8" font-family="Arial" font-size="14.00">reason </text>
<text text-anchor="start" x="424.96" y="-462.8" font-family="Arial" font-size="14.00" fill="#666666">[varchar(255)]</text>
<polygon fill="none" stroke="black" points="371.26,-419.8 371.26,-450.6 725.71,-450.6 725.71,-419.8 371.26,-419.8"/>
<text text-anchor="start" x="378.26" y="-432" font-family="Arial" font-size="14.00">expires_at </text>
<text text-anchor="start" x="446.74" y="-432" font-family="Arial" font-size="14.00" fill="#666666">[datetime(6)]</text>
<polygon fill="none" stroke="black" points="371.26,-389 371.26,-419.8 725.71,-419.8 725.71,-389 371.26,-389"/>
<text text-anchor="start" x="378.26" y="-401.2" font-family="Arial" font-size="14.00">action </text>
<text text-anchor="start" x="419.51" y="-401.2" font-family="Arial" font-size="14.00" fill="#666666">[enum(&#39;ban&#39;,&#39;unban&#39;)]</text>
<polygon fill="none" stroke="black" stroke-width="3" points="369.76,-387.5 369.76,-672.5 727.21,-672.5 727.21,-387.5 369.76,-387.5"/>
</g>
<!-- organizations -->
<g id="node2" class="node">
<title>organizations</title>
<polygon fill="#efefef" stroke="none" points="101.75,-212.6 101.75,-248.2 337.21,-248.2 337.21,-212.6 101.75,-212.6"/>
<polygon fill="none" stroke="black" points="101.75,-212.6 101.75,-248.2 337.21,-248.2 337.21,-212.6 101.75,-212.6"/>
<text text-anchor="start" x="108.75" y="-226" font-family="Arial Bold" font-size="18.00">organizations</text>
<text text-anchor="start" x="205.72" y="-226" font-family="Arial" font-size="14.00">    </text>
<text text-anchor="start" x="236.84" y="-226" font-family="Arial" font-size="14.00" fill="#666666">[BASE TABLE]</text>
<polygon fill="none" stroke="black" points="101.75,-181.8 101.75,-212.6 337.21,-212.6 337.21,-181.8 101.75,-181.8"/>
<text text-anchor="start" x="108.75" y="-194" font-family="Arial" font-size="14.00">organization_id </text>
<text text-anchor="start" x="207.6" y="-194" font-family="Arial" font-size="14.00" fill="#666666">[bigint(20)]</text>
<polygon fill="none" stroke="black" points="101.75,-151 101.75,-181.8 337.21,-181.8 337.21,-151 101.75,-151"/>
<text text-anchor="start" x="108.75" y="-163.2" font-family="Arial" font-size="14.00">name </text>
<text text-anchor="start" x="147.66" y="-163.2" font-family="Arial" font-size="14.00" fill="#666666">[varchar(255)]</text>
<polygon fill="none" stroke="black" points="101.75,-120.2 101.75,-151 337.21,-151 337.21,-120.2 101.75,-120.2"/>
<text text-anchor="start" x="108.75" y="-132.4" font-family="Arial" font-size="14.00">requires_join_request </text>
<text text-anchor="start" x="247.28" y="-132.4" font-family="Arial" font-size="14.00" fill="#666666">[tinyint(1)]</text>
<polygon fill="none" stroke="black" points="101.75,-89.4 101.75,-120.2 337.21,-120.2 337.21,-89.4 101.75,-89.4"/>
<text text-anchor="start" x="108.75" y="-101.6" font-family="Arial" font-size="14.00">created_at </text>
<text text-anchor="start" x="178.8" y="-101.6" font-family="Arial" font-size="14.00" fill="#666666">[datetime(6)]</text>
<polygon fill="none" stroke="black" points="101.75,-58.6 101.75,-89.4 337.21,-89.4 337.21,-58.6 101.75,-58.6"/>
<text text-anchor="start" x="108.75" y="-70.8" font-family="Arial" font-size="14.00">description </text>
<text text-anchor="start" x="180.35" y="-70.8" font-family="Arial" font-size="14.00" fill="#666666">[text]</text>
</g>
<!-- member_moderations_history&#45;&gt;organizations -->
<g id="edge1" class="edge">
<title>member_moderations_history:organization_id&#45;&gt;organizations:organization_id</title>
<path fill="none" stroke="black" d="M360.23,-587.09C294.7,-556.24 421.86,-197.2 338.21,-197.2"/>
<polygon fill="black" stroke="black" points="360.15,-587.07 369.01,-593.53 365.37,-588.17 369.61,-589.06 369.61,-589.06 369.61,-589.06 365.37,-588.17 370.86,-584.73 360.15,-587.07"/>
<text text-anchor="start" x="7" y="-599.2" font-family="Arial" font-size="10.00">FOREIGN KEY (organization_id) REFERENCES organizations (organization_id)</text>
</g>
<!-- users -->
<g id="node3" class="node">
<title>users</title>
<polygon fill="#efefef" stroke="none" points="441.49,-228 441.49,-263.6 655.48,-263.6 655.48,-228 441.49,-228"/>
<polygon fill="none" stroke="black" points="441.49,-228 441.49,-263.6 655.48,-263.6 655.48,-228 441.49,-228"/>
<text text-anchor="start" x="467.74" y="-241.4" font-family="Arial Bold" font-size="18.00">users</text>
<text text-anchor="start" x="504.73" y="-241.4" font-family="Arial" font-size="14.00">    </text>
<text text-anchor="start" x="535.85" y="-241.4" font-family="Arial" font-size="14.00" fill="#666666">[BASE TABLE]</text>
<polygon fill="none" stroke="black" points="441.49,-197.2 441.49,-228 655.48,-228 655.48,-197.2 441.49,-197.2"/>
<text text-anchor="start" x="448.49" y="-209.4" font-family="Arial" font-size="14.00">user_id </text>
<text text-anchor="start" x="498.29" y="-209.4" font-family="Arial" font-size="14.00" fill="#666666">[bigint(20)]</text>
<polygon fill="none" stroke="black" points="441.49,-166.4 441.49,-197.2 655.48,-197.2 655.48,-166.4 441.49,-166.4"/>
<text text-anchor="start" x="448.49" y="-178.6" font-family="Arial" font-size="14.00">email </text>
<text text-anchor="start" x="485.83" y="-178.6" font-family="Arial" font-size="14.00" fill="#666666">[varchar(320)]</text>
<polygon fill="none" stroke="black" points="441.49,-135.6 441.49,-166.4 655.48,-166.4 655.48,-135.6 441.49,-135.6"/>
<text text-anchor="start" x="448.49" y="-147.8" font-family="Arial" font-size="14.00">first_name </text>
<text text-anchor="start" x="517.73" y="-147.8" font-family="Arial" font-size="14.00" fill="#666666">[varchar(255)]</text>
<polygon fill="none" stroke="black" points="441.49,-104.8 441.49,-135.6 655.48,-135.6 655.48,-104.8 441.49,-104.8"/>
<text text-anchor="start" x="448.49" y="-117" font-family="Arial" font-size="14.00">last_name </text>
<text text-anchor="start" x="516.97" y="-117" font-family="Arial" font-size="14.00" fill="#666666">[varchar(255)]</text>
<polygon fill="none" stroke="black" points="441.49,-74 441.49,-104.8 655.48,-104.8 655.48,-74 441.49,-74"/>
<text text-anchor="start" x="448.49" y="-86.2" font-family="Arial" font-size="14.00">password_hash </text>
<text text-anchor="start" x="550.44" y="-86.2" font-family="Arial" font-size="14.00" fill="#666666">[varbinary(255)]</text>
<polygon fill="none" stroke="black" points="441.49,-43.2 441.49,-74 655.48,-74 655.48,-43.2 441.49,-43.2"/>
<text text-anchor="start" x="448.49" y="-55.4" font-family="Arial" font-size="14.00">middle_name </text>
<text text-anchor="start" x="536.42" y="-55.4" font-family="Arial" font-size="14.00" fill="#666666">[varchar(255)]</text>
</g>
<!-- member_moderations_history&#45;&gt;users -->
<g id="edge2" class="edge">
<title>member_moderations_history:member_user_id&#45;&gt;users:user_id</title>
<path fill="none" stroke="black" d="M736.77,-556.19C798.52,-526.74 731.22,-212.6 656.48,-212.6"/>
<polygon fill="black" stroke="black" points="736.8,-556.18 726.07,-553.93 731.59,-557.33 727.36,-558.26 727.36,-558.26 727.36,-558.26 731.59,-557.33 728,-562.72 736.8,-556.18"/>
<text text-anchor="start" x="733.71" y="-568.4" font-family="Arial" font-size="10.00">FOREIGN KEY (member_user_id) REFERENCES users (user_id)</text>
</g>
<!-- member_moderations_history&#45;&gt;users -->
<g id="edge3" class="edge">
<title>member_moderations_history:admin_user_id&#45;&gt;users:user_id</title>
<path fill="none" stroke="black" d="M736.55,-525.25C791.29,-496.42 724.56,-212.6 656.48,-212.6"/>
<polygon fill="black" stroke="black" points="736.76,-525.2 725.98,-523.15 731.57,-526.44 727.36,-527.44 727.36,-527.44 727.36,-527.44 731.57,-526.44 728.08,-531.9 736.76,-525.2"/>
<text text-anchor="start" x="733.71" y="-537.6" font-family="Arial" font-size="10.00">FOREIGN KEY (admin_user_id) REFERENCES users (user_id)</text>
</g>
</g>
</svg>
