<?xml version="1.0" encoding="UTF-8" standalone="no"?>
<!DOCTYPE svg PUBLIC "-//W3C//DTD SVG 1.1//EN"
 "http://www.w3.org/Graphics/SVG/1.1/DTD/svg11.dtd">
<!-- Generated by graphviz version 12.1.2 (20240928.0832)
 -->
<!-- Title: member_roles_history Pages: 1 -->
<svg width="988pt" height="664pt"
 viewBox="0.00 0.00 988.12 663.60" xmlns="http://www.w3.org/2000/svg" xmlns:xlink="http://www.w3.org/1999/xlink">
<g id="graph0" class="graph" transform="scale(1 1) rotate(0) translate(4 659.6)">
<title>member_roles_history</title>
<polygon fill="white" stroke="none" points="-4,4 -4,-659.6 984.12,-659.6 984.12,4 -4,4"/>
<!-- member_roles_history -->
<g id="node1" class="node">
<title>member_roles_history</title>
<polygon fill="#efefef" stroke="none" points="371.26,-573.8 371.26,-609.4 671.71,-609.4 671.71,-573.8 371.26,-573.8"/>
<polygon fill="none" stroke="black" points="371.26,-573.8 371.26,-609.4 671.71,-609.4 671.71,-573.8 371.26,-573.8"/>
<text text-anchor="start" x="378.26" y="-587.2" font-family="Arial Bold" font-size="18.00">member_roles_history</text>
<text text-anchor="start" x="540.22" y="-587.2" font-family="Arial" font-size="14.00">    </text>
<text text-anchor="start" x="571.34" y="-587.2" font-family="Arial" font-size="14.00" fill="#666666">[BASE TABLE]</text>
<polygon fill="none" stroke="black" points="371.26,-543 371.26,-573.8 671.71,-573.8 671.71,-543 371.26,-543"/>
<text text-anchor="start" x="378.26" y="-555.2" font-family="Arial" font-size="14.00">member_role_event_id </text>
<text text-anchor="start" x="525.34" y="-555.2" font-family="Arial" font-size="14.00" fill="#666666">[bigint(20)]</text>
<polygon fill="none" stroke="black" points="371.26,-512.2 371.26,-543 671.71,-543 671.71,-512.2 371.26,-512.2"/>
<text text-anchor="start" x="378.26" y="-524.4" font-family="Arial" font-size="14.00">organization_id </text>
<text text-anchor="start" x="477.11" y="-524.4" font-family="Arial" font-size="14.00" fill="#666666">[bigint(20)]</text>
<polygon fill="none" stroke="black" points="371.26,-481.4 371.26,-512.2 671.71,-512.2 671.71,-481.4 371.26,-481.4"/>
<text text-anchor="start" x="378.26" y="-493.6" font-family="Arial" font-size="14.00">member_user_id </text>
<text text-anchor="start" x="487.2" y="-493.6" font-family="Arial" font-size="14.00" fill="#666666">[bigint(20)]</text>
<polygon fill="none" stroke="black" points="371.26,-450.6 371.26,-481.4 671.71,-481.4 671.71,-450.6 371.26,-450.6"/>
<text text-anchor="start" x="378.26" y="-462.8" font-family="Arial" font-size="14.00">owner_user_id </text>
<text text-anchor="start" x="473.98" y="-462.8" font-family="Arial" font-size="14.00" fill="#666666">[bigint(20)]</text>
<polygon fill="none" stroke="black" points="371.26,-419.8 371.26,-450.6 671.71,-450.6 671.71,-419.8 371.26,-419.8"/>
<text text-anchor="start" x="378.26" y="-432" font-family="Arial" font-size="14.00">created_at </text>
<text text-anchor="start" x="448.31" y="-432" font-family="Arial" font-size="14.00" fill="#666666">[datetime(6)]</text>
<polygon fill="none" stroke="black" points="371.26,-389 371.26,-419.8 671.71,-419.8 671.71,-389 371.26,-389"/>
<text text-anchor="start" x="378.26" y="-401.2" font-family="Arial" font-size="14.00">role </text>
<text text-anchor="start" x="405.49" y="-401.2" font-family="Arial" font-size="14.00" fill="#666666">[enum(&#39;owner&#39;,&#39;admin&#39;,&#39;user&#39;)]</text>
<polygon fill="none" stroke="black" stroke-width="3" points="369.76,-387.5 369.76,-610.9 673.21,-610.9 673.21,-387.5 369.76,-387.5"/>
</g>
<!-- organizations -->
<g id="node2" class="node">
<title>organizations</title>
<polygon fill="#efefef" stroke="none" points="74.76,-212.6 74.76,-248.2 310.22,-248.2 310.22,-212.6 74.76,-212.6"/>
<polygon fill="none" stroke="black" points="74.76,-212.6 74.76,-248.2 310.22,-248.2 310.22,-212.6 74.76,-212.6"/>
<text text-anchor="start" x="81.76" y="-226" font-family="Arial Bold" font-size="18.00">organizations</text>
<text text-anchor="start" x="178.73" y="-226" font-family="Arial" font-size="14.00">    </text>
<text text-anchor="start" x="209.84" y="-226" font-family="Arial" font-size="14.00" fill="#666666">[BASE TABLE]</text>
<polygon fill="none" stroke="black" points="74.76,-181.8 74.76,-212.6 310.22,-212.6 310.22,-181.8 74.76,-181.8"/>
<text text-anchor="start" x="81.76" y="-194" font-family="Arial" font-size="14.00">organization_id </text>
<text text-anchor="start" x="180.6" y="-194" font-family="Arial" font-size="14.00" fill="#666666">[bigint(20)]</text>
<polygon fill="none" stroke="black" points="74.76,-151 74.76,-181.8 310.22,-181.8 310.22,-151 74.76,-151"/>
<text text-anchor="start" x="81.76" y="-163.2" font-family="Arial" font-size="14.00">name </text>
<text text-anchor="start" x="120.67" y="-163.2" font-family="Arial" font-size="14.00" fill="#666666">[varchar(255)]</text>
<polygon fill="none" stroke="black" points="74.76,-120.2 74.76,-151 310.22,-151 310.22,-120.2 74.76,-120.2"/>
<text text-anchor="start" x="81.76" y="-132.4" font-family="Arial" font-size="14.00">requires_join_request </text>
<text text-anchor="start" x="220.29" y="-132.4" font-family="Arial" font-size="14.00" fill="#666666">[tinyint(1)]</text>
<polygon fill="none" stroke="black" points="74.76,-89.4 74.76,-120.2 310.22,-120.2 310.22,-89.4 74.76,-89.4"/>
<text text-anchor="start" x="81.76" y="-101.6" font-family="Arial" font-size="14.00">created_at </text>
<text text-anchor="start" x="151.81" y="-101.6" font-family="Arial" font-size="14.00" fill="#666666">[datetime(6)]</text>
<polygon fill="none" stroke="black" points="74.76,-58.6 74.76,-89.4 310.22,-89.4 310.22,-58.6 74.76,-58.6"/>
<text text-anchor="start" x="81.76" y="-70.8" font-family="Arial" font-size="14.00">description </text>
<text text-anchor="start" x="153.35" y="-70.8" font-family="Arial" font-size="14.00" fill="#666666">[text]</text>
</g>
<!-- member_roles_history&#45;&gt;organizations -->
<g id="edge1" class="edge">
<title>member_roles_history:organization_id&#45;&gt;organizations:organization_id</title>
<path fill="none" stroke="black" d="M360.02,-527.02C232.54,-511.66 456.75,-197.2 311.22,-197.2"/>
<polygon fill="black" stroke="black" points="359.94,-527.01 369.67,-532.07 365.27,-527.32 369.59,-527.56 369.59,-527.56 369.59,-527.56 365.27,-527.32 370.18,-523.09 359.94,-527.01"/>
<text text-anchor="start" x="7" y="-537.6" font-family="Arial" font-size="10.00">FOREIGN KEY (organization_id) REFERENCES organizations (organization_id)</text>
</g>
<!-- users -->
<g id="node3" class="node">
<title>users</title>
<polygon fill="#efefef" stroke="none" points="414.49,-228 414.49,-263.6 628.48,-263.6 628.48,-228 414.49,-228"/>
<polygon fill="none" stroke="black" points="414.49,-228 414.49,-263.6 628.48,-263.6 628.48,-228 414.49,-228"/>
<text text-anchor="start" x="440.75" y="-241.4" font-family="Arial Bold" font-size="18.00">users</text>
<text text-anchor="start" x="477.74" y="-241.4" font-family="Arial" font-size="14.00">    </text>
<text text-anchor="start" x="508.86" y="-241.4" font-family="Arial" font-size="14.00" fill="#666666">[BASE TABLE]</text>
<polygon fill="none" stroke="black" points="414.49,-197.2 414.49,-228 628.48,-228 628.48,-197.2 414.49,-197.2"/>
<text text-anchor="start" x="421.49" y="-209.4" font-family="Arial" font-size="14.00">user_id </text>
<text text-anchor="start" x="471.3" y="-209.4" font-family="Arial" font-size="14.00" fill="#666666">[bigint(20)]</text>
<polygon fill="none" stroke="black" points="414.49,-166.4 414.49,-197.2 628.48,-197.2 628.48,-166.4 414.49,-166.4"/>
<text text-anchor="start" x="421.49" y="-178.6" font-family="Arial" font-size="14.00">email </text>
<text text-anchor="start" x="458.84" y="-178.6" font-family="Arial" font-size="14.00" fill="#666666">[varchar(320)]</text>
<polygon fill="none" stroke="black" points="414.49,-135.6 414.49,-166.4 628.48,-166.4 628.48,-135.6 414.49,-135.6"/>
<text text-anchor="start" x="421.49" y="-147.8" font-family="Arial" font-size="14.00">first_name </text>
<text text-anchor="start" x="490.74" y="-147.8" font-family="Arial" font-size="14.00" fill="#666666">[varchar(255)]</text>
<polygon fill="none" stroke="black" points="414.49,-104.8 414.49,-135.6 628.48,-135.6 628.48,-104.8 414.49,-104.8"/>
<text text-anchor="start" x="421.49" y="-117" font-family="Arial" font-size="14.00">last_name </text>
<text text-anchor="start" x="489.97" y="-117" font-family="Arial" font-size="14.00" fill="#666666">[varchar(255)]</text>
<polygon fill="none" stroke="black" points="414.49,-74 414.49,-104.8 628.48,-104.8 628.48,-74 414.49,-74"/>
<text text-anchor="start" x="421.49" y="-86.2" font-family="Arial" font-size="14.00">password_hash </text>
<text text-anchor="start" x="523.44" y="-86.2" font-family="Arial" font-size="14.00" fill="#666666">[varbinary(255)]</text>
<polygon fill="none" stroke="black" points="414.49,-43.2 414.49,-74 628.48,-74 628.48,-43.2 414.49,-43.2"/>
<text text-anchor="start" x="421.49" y="-55.4" font-family="Arial" font-size="14.00">middle_name </text>
<text text-anchor="start" x="509.43" y="-55.4" font-family="Arial" font-size="14.00" fill="#666666">[varchar(255)]</text>
</g>
<!-- member_roles_history&#45;&gt;users -->
<g id="edge2" class="edge">
<title>member_roles_history:member_user_id&#45;&gt;users:user_id</title>
<path fill="none" stroke="black" d="M682.81,-496.17C798.05,-481.47 753.75,-212.6 629.48,-212.6"/>
<polygon fill="black" stroke="black" points="683.03,-496.16 672.77,-492.29 677.7,-496.49 673.38,-496.76 673.38,-496.76 673.38,-496.76 677.7,-496.49 673.33,-501.27 683.03,-496.16"/>
<text text-anchor="start" x="679.71" y="-506.8" font-family="Arial" font-size="10.00">FOREIGN KEY (member_user_id) REFERENCES users (user_id)</text>
</g>
<!-- member_roles_history&#45;&gt;users -->
<g id="edge3" class="edge">
<title>member_roles_history:owner_user_id&#45;&gt;users:user_id</title>
<path fill="none" stroke="black" d="M682.97,-465.27C784.19,-450.41 740.16,-212.6 629.48,-212.6"/>
<polygon fill="black" stroke="black" points="683.02,-465.27 672.73,-461.49 677.7,-465.65 673.38,-465.95 673.38,-465.95 673.38,-465.95 677.7,-465.65 673.37,-470.47 683.02,-465.27"/>
<text text-anchor="start" x="679.71" y="-476" font-family="Arial" font-size="10.00">FOREIGN KEY (owner_user_id) REFERENCES users (user_id)</text>
</g>
</g>
</svg>
