<?xml version="1.0" encoding="UTF-8" standalone="no"?>
<!DOCTYPE svg PUBLIC "-//W3C//DTD SVG 1.1//EN"
 "http://www.w3.org/Graphics/SVG/1.1/DTD/svg11.dtd">
<!-- Generated by graphviz version 12.1.2 (20240928.0832)
 -->
<!-- Title: online_calendars Pages: 1 -->
<svg width="730pt" height="852pt"
 viewBox="0.00 0.00 729.63 852.40" xmlns="http://www.w3.org/2000/svg" xmlns:xlink="http://www.w3.org/1999/xlink">
<g id="graph0" class="graph" transform="scale(1 1) rotate(0) translate(4 848.4)">
<title>online_calendars</title>
<polygon fill="white" stroke="none" points="-4,4 -4,-848.4 725.63,-848.4 725.63,4 -4,4"/>
<!-- online_calendars -->
<g id="node1" class="node">
<title>online_calendars</title>
<polygon fill="#efefef" stroke="none" points="212.25,-543 212.25,-578.6 472.69,-578.6 472.69,-543 212.25,-543"/>
<polygon fill="none" stroke="black" points="212.25,-543 212.25,-578.6 472.69,-578.6 472.69,-543 212.25,-543"/>
<text text-anchor="start" x="219.25" y="-556.4" font-family="Arial Bold" font-size="18.00">online_calendars</text>
<text text-anchor="start" x="341.2" y="-556.4" font-family="Arial" font-size="14.00">    </text>
<text text-anchor="start" x="372.32" y="-556.4" font-family="Arial" font-size="14.00" fill="#666666">[BASE TABLE]</text>
<polygon fill="none" stroke="black" points="212.25,-512.2 212.25,-543 472.69,-543 472.69,-512.2 212.25,-512.2"/>
<text text-anchor="start" x="219.25" y="-524.4" font-family="Arial" font-size="14.00">id </text>
<text text-anchor="start" x="234.04" y="-524.4" font-family="Arial" font-size="14.00" fill="#666666">[int(11)]</text>
<polygon fill="none" stroke="black" points="212.25,-481.4 212.25,-512.2 472.69,-512.2 472.69,-481.4 212.25,-481.4"/>
<text text-anchor="start" x="219.25" y="-493.6" font-family="Arial" font-size="14.00">owner_id </text>
<text text-anchor="start" x="279.96" y="-493.6" font-family="Arial" font-size="14.00" fill="#666666">[int(11)]</text>
<polygon fill="none" stroke="black" points="212.25,-450.6 212.25,-481.4 472.69,-481.4 472.69,-450.6 212.25,-450.6"/>
<text text-anchor="start" x="219.25" y="-462.8" font-family="Arial" font-size="14.00">name </text>
<text text-anchor="start" x="258.16" y="-462.8" font-family="Arial" font-size="14.00" fill="#666666">[varchar(255)]</text>
<polygon fill="none" stroke="black" points="212.25,-419.8 212.25,-450.6 472.69,-450.6 472.69,-419.8 212.25,-419.8"/>
<text text-anchor="start" x="219.25" y="-432" font-family="Arial" font-size="14.00">url </text>
<text text-anchor="start" x="238.7" y="-432" font-family="Arial" font-size="14.00" fill="#666666">[varchar(2048)]</text>
<polygon fill="none" stroke="black" points="212.25,-389 212.25,-419.8 472.69,-419.8 472.69,-389 212.25,-389"/>
<text text-anchor="start" x="219.25" y="-401.2" font-family="Arial" font-size="14.00">description </text>
<text text-anchor="start" x="290.85" y="-401.2" font-family="Arial" font-size="14.00" fill="#666666">[text]</text>
<polygon fill="none" stroke="black" stroke-width="3" points="210.75,-387.5 210.75,-580.1 474.19,-580.1 474.19,-387.5 210.75,-387.5"/>
</g>
<!-- users -->
<g id="node3" class="node">
<title>users</title>
<polygon fill="#efefef" stroke="none" points="235.48,-228 235.48,-263.6 449.47,-263.6 449.47,-228 235.48,-228"/>
<polygon fill="none" stroke="black" points="235.48,-228 235.48,-263.6 449.47,-263.6 449.47,-228 235.48,-228"/>
<text text-anchor="start" x="261.73" y="-241.4" font-family="Arial Bold" font-size="18.00">users</text>
<text text-anchor="start" x="298.72" y="-241.4" font-family="Arial" font-size="14.00">    </text>
<text text-anchor="start" x="329.84" y="-241.4" font-family="Arial" font-size="14.00" fill="#666666">[BASE TABLE]</text>
<polygon fill="none" stroke="black" points="235.48,-197.2 235.48,-228 449.47,-228 449.47,-197.2 235.48,-197.2"/>
<text text-anchor="start" x="242.48" y="-209.4" font-family="Arial" font-size="14.00">id </text>
<text text-anchor="start" x="257.26" y="-209.4" font-family="Arial" font-size="14.00" fill="#666666">[int(11)]</text>
<polygon fill="none" stroke="black" points="235.48,-166.4 235.48,-197.2 449.47,-197.2 449.47,-166.4 235.48,-166.4"/>
<text text-anchor="start" x="242.48" y="-178.6" font-family="Arial" font-size="14.00">email </text>
<text text-anchor="start" x="279.82" y="-178.6" font-family="Arial" font-size="14.00" fill="#666666">[varchar(320)]</text>
<polygon fill="none" stroke="black" points="235.48,-135.6 235.48,-166.4 449.47,-166.4 449.47,-135.6 235.48,-135.6"/>
<text text-anchor="start" x="242.48" y="-147.8" font-family="Arial" font-size="14.00">first_name </text>
<text text-anchor="start" x="311.72" y="-147.8" font-family="Arial" font-size="14.00" fill="#666666">[varchar(255)]</text>
<polygon fill="none" stroke="black" points="235.48,-104.8 235.48,-135.6 449.47,-135.6 449.47,-104.8 235.48,-104.8"/>
<text text-anchor="start" x="242.48" y="-117" font-family="Arial" font-size="14.00">last_name </text>
<text text-anchor="start" x="310.96" y="-117" font-family="Arial" font-size="14.00" fill="#666666">[varchar(255)]</text>
<polygon fill="none" stroke="black" points="235.48,-74 235.48,-104.8 449.47,-104.8 449.47,-74 235.48,-74"/>
<text text-anchor="start" x="242.48" y="-86.2" font-family="Arial" font-size="14.00">password_hash </text>
<text text-anchor="start" x="344.43" y="-86.2" font-family="Arial" font-size="14.00" fill="#666666">[varbinary(255)]</text>
<polygon fill="none" stroke="black" points="235.48,-43.2 235.48,-74 449.47,-74 449.47,-43.2 235.48,-43.2"/>
<text text-anchor="start" x="242.48" y="-55.4" font-family="Arial" font-size="14.00">middle_name </text>
<text text-anchor="start" x="330.41" y="-55.4" font-family="Arial" font-size="14.00" fill="#666666">[varchar(255)]</text>
</g>
<!-- online_calendars&#45;&gt;users -->
<g id="edge2" class="edge">
<title>online_calendars:owner_id&#45;&gt;users:id</title>
<path fill="none" stroke="black" d="M484.1,-496.13C599.02,-480.93 573.61,-212.6 450.47,-212.6"/>
<polygon fill="black" stroke="black" points="484,-496.14 473.73,-492.29 478.68,-496.48 474.36,-496.76 474.36,-496.76 474.36,-496.76 478.68,-496.48 474.31,-501.27 484,-496.14"/>
<text text-anchor="start" x="480.69" y="-506.8" font-family="Arial" font-size="10.00">FOREIGN KEY (owner_id) REFERENCES users (id)</text>
</g>
<!-- users_external_online_calendars -->
<g id="node2" class="node">
<title>users_external_online_calendars</title>
<polygon fill="#efefef" stroke="none" points="155.77,-765.6 155.77,-801.2 529.17,-801.2 529.17,-765.6 155.77,-765.6"/>
<polygon fill="none" stroke="black" points="155.77,-765.6 155.77,-801.2 529.17,-801.2 529.17,-765.6 155.77,-765.6"/>
<text text-anchor="start" x="162.77" y="-779" font-family="Arial Bold" font-size="18.00">users_external_online_calendars</text>
<text text-anchor="start" x="397.68" y="-779" font-family="Arial" font-size="14.00">    </text>
<text text-anchor="start" x="428.8" y="-779" font-family="Arial" font-size="14.00" fill="#666666">[BASE TABLE]</text>
<polygon fill="none" stroke="black" points="155.77,-734.8 155.77,-765.6 529.17,-765.6 529.17,-734.8 155.77,-734.8"/>
<text text-anchor="start" x="162.77" y="-747" font-family="Arial" font-size="14.00">user_id </text>
<text text-anchor="start" x="212.58" y="-747" font-family="Arial" font-size="14.00" fill="#666666">[int(11)]</text>
<polygon fill="none" stroke="black" points="155.77,-704 155.77,-734.8 529.17,-734.8 529.17,-704 155.77,-704"/>
<text text-anchor="start" x="162.77" y="-716.2" font-family="Arial" font-size="14.00">online_calendar_id </text>
<text text-anchor="start" x="284.2" y="-716.2" font-family="Arial" font-size="14.00" fill="#666666">[int(11)]</text>
</g>
<!-- users_external_online_calendars&#45;&gt;online_calendars -->
<g id="edge1" class="edge">
<title>users_external_online_calendars:online_calendar_id&#45;&gt;online_calendars:id</title>
<path fill="none" stroke="black" d="M343.37,-692.6C353.22,-640.57 441.04,-680.06 472.69,-624.8 494.16,-587.31 516.89,-527.6 473.69,-527.6"/>
<polygon fill="black" stroke="black" points="343.36,-692.7 338.02,-702.28 342.9,-698.02 342.53,-702.33 342.53,-702.33 342.53,-702.33 342.9,-698.02 346.98,-703.06 343.36,-692.7"/>
<text text-anchor="start" x="7" y="-713" font-family="Arial" font-size="10.00">FOREIGN KEY (online_calendar_id) REFERENCES online_calendars (id)</text>
</g>
</g>
</svg>
