<?xml version="1.0" encoding="UTF-8" standalone="no"?>
<!DOCTYPE svg PUBLIC "-//W3C//DTD SVG 1.1//EN"
 "http://www.w3.org/Graphics/SVG/1.1/DTD/svg11.dtd">
<!-- Generated by graphviz version 12.1.2 (20240928.0832)
 -->
<!-- Title: organization_members_history Pages: 1 -->
<svg width="1050pt" height="633pt"
 viewBox="0.00 0.00 1050.10 632.80" xmlns="http://www.w3.org/2000/svg" xmlns:xlink="http://www.w3.org/1999/xlink">
<g id="graph0" class="graph" transform="scale(1 1) rotate(0) translate(4 628.8)">
<title>organization_members_history</title>
<polygon fill="white" stroke="none" points="-4,4 -4,-628.8 1046.1,-628.8 1046.1,4 -4,4"/>
<!-- organization_members_history -->
<g id="node1" class="node">
<title>organization_members_history</title>
<polygon fill="#efefef" stroke="none" points="371.26,-543 371.26,-578.6 733.69,-578.6 733.69,-543 371.26,-543"/>
<polygon fill="none" stroke="black" points="371.26,-543 371.26,-578.6 733.69,-578.6 733.69,-543 371.26,-543"/>
<text text-anchor="start" x="378.26" y="-556.4" font-family="Arial Bold" font-size="18.00">organization_members_history</text>
<text text-anchor="start" x="602.21" y="-556.4" font-family="Arial" font-size="14.00">    </text>
<text text-anchor="start" x="633.32" y="-556.4" font-family="Arial" font-size="14.00" fill="#666666">[BASE TABLE]</text>
<polygon fill="none" stroke="black" points="371.26,-512.2 371.26,-543 733.69,-543 733.69,-512.2 371.26,-512.2"/>
<text text-anchor="start" x="378.26" y="-524.4" font-family="Arial" font-size="14.00">organization_member_event_id </text>
<text text-anchor="start" x="578.27" y="-524.4" font-family="Arial" font-size="14.00" fill="#666666">[bigint(20)]</text>
<polygon fill="none" stroke="black" points="371.26,-481.4 371.26,-512.2 733.69,-512.2 733.69,-481.4 371.26,-481.4"/>
<text text-anchor="start" x="378.26" y="-493.6" font-family="Arial" font-size="14.00">organization_id </text>
<text text-anchor="start" x="477.11" y="-493.6" font-family="Arial" font-size="14.00" fill="#666666">[bigint(20)]</text>
<polygon fill="none" stroke="black" points="371.26,-450.6 371.26,-481.4 733.69,-481.4 733.69,-450.6 371.26,-450.6"/>
<text text-anchor="start" x="378.26" y="-462.8" font-family="Arial" font-size="14.00">member_user_id </text>
<text text-anchor="start" x="487.2" y="-462.8" font-family="Arial" font-size="14.00" fill="#666666">[bigint(20)]</text>
<polygon fill="none" stroke="black" points="371.26,-419.8 371.26,-450.6 733.69,-450.6 733.69,-419.8 371.26,-419.8"/>
<text text-anchor="start" x="378.26" y="-432" font-family="Arial" font-size="14.00">added </text>
<text text-anchor="start" x="421.08" y="-432" font-family="Arial" font-size="14.00" fill="#666666">[tinyint(1)]</text>
<polygon fill="none" stroke="black" points="371.26,-389 371.26,-419.8 733.69,-419.8 733.69,-389 371.26,-389"/>
<text text-anchor="start" x="378.26" y="-401.2" font-family="Arial" font-size="14.00">created_at </text>
<text text-anchor="start" x="448.31" y="-401.2" font-family="Arial" font-size="14.00" fill="#666666">[datetime(6)]</text>
<polygon fill="none" stroke="black" stroke-width="3" points="369.76,-387.5 369.76,-580.1 735.19,-580.1 735.19,-387.5 369.76,-387.5"/>
</g>
<!-- organizations -->
<g id="node2" class="node">
<title>organizations</title>
<polygon fill="#efefef" stroke="none" points="270.75,-212.6 270.75,-248.2 506.21,-248.2 506.21,-212.6 270.75,-212.6"/>
<polygon fill="none" stroke="black" points="270.75,-212.6 270.75,-248.2 506.21,-248.2 506.21,-212.6 270.75,-212.6"/>
<text text-anchor="start" x="277.75" y="-226" font-family="Arial Bold" font-size="18.00">organizations</text>
<text text-anchor="start" x="374.72" y="-226" font-family="Arial" font-size="14.00">    </text>
<text text-anchor="start" x="405.83" y="-226" font-family="Arial" font-size="14.00" fill="#666666">[BASE TABLE]</text>
<polygon fill="none" stroke="black" points="270.75,-181.8 270.75,-212.6 506.21,-212.6 506.21,-181.8 270.75,-181.8"/>
<text text-anchor="start" x="277.75" y="-194" font-family="Arial" font-size="14.00">organization_id </text>
<text text-anchor="start" x="376.6" y="-194" font-family="Arial" font-size="14.00" fill="#666666">[bigint(20)]</text>
<polygon fill="none" stroke="black" points="270.75,-151 270.75,-181.8 506.21,-181.8 506.21,-151 270.75,-151"/>
<text text-anchor="start" x="277.75" y="-163.2" font-family="Arial" font-size="14.00">name </text>
<text text-anchor="start" x="316.66" y="-163.2" font-family="Arial" font-size="14.00" fill="#666666">[varchar(255)]</text>
<polygon fill="none" stroke="black" points="270.75,-120.2 270.75,-151 506.21,-151 506.21,-120.2 270.75,-120.2"/>
<text text-anchor="start" x="277.75" y="-132.4" font-family="Arial" font-size="14.00">requires_join_request </text>
<text text-anchor="start" x="416.28" y="-132.4" font-family="Arial" font-size="14.00" fill="#666666">[tinyint(1)]</text>
<polygon fill="none" stroke="black" points="270.75,-89.4 270.75,-120.2 506.21,-120.2 506.21,-89.4 270.75,-89.4"/>
<text text-anchor="start" x="277.75" y="-101.6" font-family="Arial" font-size="14.00">created_at </text>
<text text-anchor="start" x="347.8" y="-101.6" font-family="Arial" font-size="14.00" fill="#666666">[datetime(6)]</text>
<polygon fill="none" stroke="black" points="270.75,-58.6 270.75,-89.4 506.21,-89.4 506.21,-58.6 270.75,-58.6"/>
<text text-anchor="start" x="277.75" y="-70.8" font-family="Arial" font-size="14.00">description </text>
<text text-anchor="start" x="349.34" y="-70.8" font-family="Arial" font-size="14.00" fill="#666666">[text]</text>
</g>
<!-- organization_members_history&#45;&gt;organizations -->
<g id="edge1" class="edge">
<title>organization_members_history:organization_id&#45;&gt;organizations:organization_id</title>
<path fill="none" stroke="black" d="M359.9,-495.95C305.17,-486.23 334.37,-395.96 371.26,-342.8 407.85,-290.07 469.51,-344.05 506.21,-291.4 530.15,-257.05 549.08,-197.2 507.21,-197.2"/>
<polygon fill="black" stroke="black" points="359.96,-495.95 369.56,-501.26 365.28,-496.39 369.59,-496.74 369.59,-496.74 369.59,-496.74 365.28,-496.39 370.3,-492.29 359.96,-495.95"/>
<text text-anchor="start" x="7" y="-506.8" font-family="Arial" font-size="10.00">FOREIGN KEY (organization_id) REFERENCES organizations (organization_id)</text>
</g>
<!-- users -->
<g id="node3" class="node">
<title>users</title>
<polygon fill="#efefef" stroke="none" points="610.48,-228 610.48,-263.6 824.47,-263.6 824.47,-228 610.48,-228"/>
<polygon fill="none" stroke="black" points="610.48,-228 610.48,-263.6 824.47,-263.6 824.47,-228 610.48,-228"/>
<text text-anchor="start" x="636.74" y="-241.4" font-family="Arial Bold" font-size="18.00">users</text>
<text text-anchor="start" x="673.73" y="-241.4" font-family="Arial" font-size="14.00">    </text>
<text text-anchor="start" x="704.85" y="-241.4" font-family="Arial" font-size="14.00" fill="#666666">[BASE TABLE]</text>
<polygon fill="none" stroke="black" points="610.48,-197.2 610.48,-228 824.47,-228 824.47,-197.2 610.48,-197.2"/>
<text text-anchor="start" x="617.48" y="-209.4" font-family="Arial" font-size="14.00">user_id </text>
<text text-anchor="start" x="667.29" y="-209.4" font-family="Arial" font-size="14.00" fill="#666666">[bigint(20)]</text>
<polygon fill="none" stroke="black" points="610.48,-166.4 610.48,-197.2 824.47,-197.2 824.47,-166.4 610.48,-166.4"/>
<text text-anchor="start" x="617.48" y="-178.6" font-family="Arial" font-size="14.00">email </text>
<text text-anchor="start" x="654.83" y="-178.6" font-family="Arial" font-size="14.00" fill="#666666">[varchar(320)]</text>
<polygon fill="none" stroke="black" points="610.48,-135.6 610.48,-166.4 824.47,-166.4 824.47,-135.6 610.48,-135.6"/>
<text text-anchor="start" x="617.48" y="-147.8" font-family="Arial" font-size="14.00">first_name </text>
<text text-anchor="start" x="686.73" y="-147.8" font-family="Arial" font-size="14.00" fill="#666666">[varchar(255)]</text>
<polygon fill="none" stroke="black" points="610.48,-104.8 610.48,-135.6 824.47,-135.6 824.47,-104.8 610.48,-104.8"/>
<text text-anchor="start" x="617.48" y="-117" font-family="Arial" font-size="14.00">last_name </text>
<text text-anchor="start" x="685.96" y="-117" font-family="Arial" font-size="14.00" fill="#666666">[varchar(255)]</text>
<polygon fill="none" stroke="black" points="610.48,-74 610.48,-104.8 824.47,-104.8 824.47,-74 610.48,-74"/>
<text text-anchor="start" x="617.48" y="-86.2" font-family="Arial" font-size="14.00">password_hash </text>
<text text-anchor="start" x="719.43" y="-86.2" font-family="Arial" font-size="14.00" fill="#666666">[varbinary(255)]</text>
<polygon fill="none" stroke="black" points="610.48,-43.2 610.48,-74 824.47,-74 824.47,-43.2 610.48,-43.2"/>
<text text-anchor="start" x="617.48" y="-55.4" font-family="Arial" font-size="14.00">middle_name </text>
<text text-anchor="start" x="705.42" y="-55.4" font-family="Arial" font-size="14.00" fill="#666666">[varchar(255)]</text>
</g>
<!-- organization_members_history&#45;&gt;users -->
<g id="edge2" class="edge">
<title>organization_members_history:member_user_id&#45;&gt;users:user_id</title>
<path fill="none" stroke="black" d="M744.86,-464.92C786.3,-455.3 764.46,-383.49 733.69,-342.8 699.29,-297.29 644.94,-352.27 610.48,-306.8 585.19,-273.43 567.61,-212.6 609.48,-212.6"/>
<polygon fill="black" stroke="black" points="744.97,-464.91 734.55,-461.49 739.67,-465.47 735.36,-465.93 735.36,-465.93 735.36,-465.93 739.67,-465.47 735.5,-470.44 744.97,-464.91"/>
<text text-anchor="start" x="741.69" y="-476" font-family="Arial" font-size="10.00">FOREIGN KEY (member_user_id) REFERENCES users (user_id)</text>
</g>
</g>
</svg>
