<?xml version="1.0" encoding="UTF-8" standalone="no"?>
<!DOCTYPE svg PUBLIC "-//W3C//DTD SVG 1.1//EN"
 "http://www.w3.org/Graphics/SVG/1.1/DTD/svg11.dtd">
<!-- Generated by graphviz version 12.1.2 (20240928.0832)
 -->
<!-- Title: organizations Pages: 1 -->
<svg width="2212pt" height="694pt"
 viewBox="0.00 0.00 2212.46 694.40" xmlns="http://www.w3.org/2000/svg" xmlns:xlink="http://www.w3.org/1999/xlink">
<g id="graph0" class="graph" transform="scale(1 1) rotate(0) translate(4 690.4)">
<title>organizations</title>
<polygon fill="white" stroke="none" points="-4,4 -4,-690.4 2208.46,-690.4 2208.46,4 -4,4"/>
<!-- organizations -->
<g id="node1" class="node">
<title>organizations</title>
<polygon fill="#efefef" stroke="none" points="997.69,-200.2 997.69,-235.8 1233.15,-235.8 1233.15,-200.2 997.69,-200.2"/>
<polygon fill="none" stroke="black" points="997.69,-200.2 997.69,-235.8 1233.15,-235.8 1233.15,-200.2 997.69,-200.2"/>
<text text-anchor="start" x="1004.69" y="-213.6" font-family="Arial Bold" font-size="18.00">organizations</text>
<text text-anchor="start" x="1101.66" y="-213.6" font-family="Arial" font-size="14.00">    </text>
<text text-anchor="start" x="1132.78" y="-213.6" font-family="Arial" font-size="14.00" fill="#666666">[BASE TABLE]</text>
<polygon fill="none" stroke="black" points="997.69,-169.4 997.69,-200.2 1233.15,-200.2 1233.15,-169.4 997.69,-169.4"/>
<text text-anchor="start" x="1004.69" y="-181.6" font-family="Arial" font-size="14.00">organization_id </text>
<text text-anchor="start" x="1103.54" y="-181.6" font-family="Arial" font-size="14.00" fill="#666666">[bigint(20)]</text>
<polygon fill="none" stroke="black" points="997.69,-138.6 997.69,-169.4 1233.15,-169.4 1233.15,-138.6 997.69,-138.6"/>
<text text-anchor="start" x="1004.69" y="-150.8" font-family="Arial" font-size="14.00">name </text>
<text text-anchor="start" x="1043.6" y="-150.8" font-family="Arial" font-size="14.00" fill="#666666">[varchar(255)]</text>
<polygon fill="none" stroke="black" points="997.69,-107.8 997.69,-138.6 1233.15,-138.6 1233.15,-107.8 997.69,-107.8"/>
<text text-anchor="start" x="1004.69" y="-120" font-family="Arial" font-size="14.00">requires_join_request </text>
<text text-anchor="start" x="1143.22" y="-120" font-family="Arial" font-size="14.00" fill="#666666">[tinyint(1)]</text>
<polygon fill="none" stroke="black" points="997.69,-77 997.69,-107.8 1233.15,-107.8 1233.15,-77 997.69,-77"/>
<text text-anchor="start" x="1004.69" y="-89.2" font-family="Arial" font-size="14.00">created_at </text>
<text text-anchor="start" x="1074.74" y="-89.2" font-family="Arial" font-size="14.00" fill="#666666">[datetime(6)]</text>
<polygon fill="none" stroke="black" points="997.69,-46.2 997.69,-77 1233.15,-77 1233.15,-46.2 997.69,-46.2"/>
<text text-anchor="start" x="1004.69" y="-58.4" font-family="Arial" font-size="14.00">description </text>
<text text-anchor="start" x="1076.29" y="-58.4" font-family="Arial" font-size="14.00" fill="#666666">[text]</text>
<polygon fill="none" stroke="black" stroke-width="3" points="996.19,-44.7 996.19,-237.3 1234.65,-237.3 1234.65,-44.7 996.19,-44.7"/>
</g>
<!-- member_moderations_history -->
<g id="node2" class="node">
<title>member_moderations_history</title>
<polygon fill="#efefef" stroke="none" points="43.2,-607.6 43.2,-643.2 397.65,-643.2 397.65,-607.6 43.2,-607.6"/>
<polygon fill="none" stroke="black" points="43.2,-607.6 43.2,-643.2 397.65,-643.2 397.65,-607.6 43.2,-607.6"/>
<text text-anchor="start" x="50.2" y="-621" font-family="Arial Bold" font-size="18.00">member_moderations_history</text>
<text text-anchor="start" x="266.16" y="-621" font-family="Arial" font-size="14.00">    </text>
<text text-anchor="start" x="297.27" y="-621" font-family="Arial" font-size="14.00" fill="#666666">[BASE TABLE]</text>
<polygon fill="none" stroke="black" points="43.2,-576.8 43.2,-607.6 397.65,-607.6 397.65,-576.8 43.2,-576.8"/>
<text text-anchor="start" x="50.2" y="-589" font-family="Arial" font-size="14.00">member_moderation_event_id </text>
<text text-anchor="start" x="243.98" y="-589" font-family="Arial" font-size="14.00" fill="#666666">[bigint(20)]</text>
<polygon fill="none" stroke="black" points="43.2,-546 43.2,-576.8 397.65,-576.8 397.65,-546 43.2,-546"/>
<text text-anchor="start" x="50.2" y="-558.2" font-family="Arial" font-size="14.00">organization_id </text>
<text text-anchor="start" x="149.05" y="-558.2" font-family="Arial" font-size="14.00" fill="#666666">[bigint(20)]</text>
<polygon fill="none" stroke="black" points="43.2,-515.2 43.2,-546 397.65,-546 397.65,-515.2 43.2,-515.2"/>
<text text-anchor="start" x="50.2" y="-527.4" font-family="Arial" font-size="14.00">member_user_id </text>
<text text-anchor="start" x="159.14" y="-527.4" font-family="Arial" font-size="14.00" fill="#666666">[bigint(20)]</text>
<polygon fill="none" stroke="black" points="43.2,-484.4 43.2,-515.2 397.65,-515.2 397.65,-484.4 43.2,-484.4"/>
<text text-anchor="start" x="50.2" y="-496.6" font-family="Arial" font-size="14.00">admin_user_id </text>
<text text-anchor="start" x="145.92" y="-496.6" font-family="Arial" font-size="14.00" fill="#666666">[bigint(20)]</text>
<polygon fill="none" stroke="black" points="43.2,-453.6 43.2,-484.4 397.65,-484.4 397.65,-453.6 43.2,-453.6"/>
<text text-anchor="start" x="50.2" y="-465.8" font-family="Arial" font-size="14.00">created_at </text>
<text text-anchor="start" x="120.25" y="-465.8" font-family="Arial" font-size="14.00" fill="#666666">[datetime(6)]</text>
<polygon fill="none" stroke="black" points="43.2,-422.8 43.2,-453.6 397.65,-453.6 397.65,-422.8 43.2,-422.8"/>
<text text-anchor="start" x="50.2" y="-435" font-family="Arial" font-size="14.00">reason </text>
<text text-anchor="start" x="96.9" y="-435" font-family="Arial" font-size="14.00" fill="#666666">[varchar(255)]</text>
<polygon fill="none" stroke="black" points="43.2,-392 43.2,-422.8 397.65,-422.8 397.65,-392 43.2,-392"/>
<text text-anchor="start" x="50.2" y="-404.2" font-family="Arial" font-size="14.00">expires_at </text>
<text text-anchor="start" x="118.68" y="-404.2" font-family="Arial" font-size="14.00" fill="#666666">[datetime(6)]</text>
<polygon fill="none" stroke="black" points="43.2,-361.2 43.2,-392 397.65,-392 397.65,-361.2 43.2,-361.2"/>
<text text-anchor="start" x="50.2" y="-373.4" font-family="Arial" font-size="14.00">action </text>
<text text-anchor="start" x="91.45" y="-373.4" font-family="Arial" font-size="14.00" fill="#666666">[enum(&#39;ban&#39;,&#39;unban&#39;)]</text>
</g>
<!-- member_moderations_history&#45;&gt;organizations -->
<g id="edge1" class="edge">
<title>member_moderations_history:organization_id&#45;&gt;organizations:organization_id</title>
<path fill="none" stroke="black" d="M408.86,-560.87C500.46,-550.6 375.94,-394.72 450.42,-318 537.46,-228.35 871.74,-184.8 996.69,-184.8"/>
<polygon fill="black" stroke="black" points="408.97,-560.86 398.74,-556.89 403.64,-561.14 399.31,-561.37 399.31,-561.37 399.31,-561.37 403.64,-561.14 399.21,-565.88 408.97,-560.86"/>
<text text-anchor="start" x="220.52" y="-545.4" font-family="Arial" font-size="10.00">FOREIGN KEY (organization_id) REFERENCES organizations (organization_id)</text>
</g>
<!-- organization_members_history -->
<g id="node3" class="node">
<title>organization_members_history</title>
<polygon fill="#efefef" stroke="none" points="502.21,-561.4 502.21,-597 864.64,-597 864.64,-561.4 502.21,-561.4"/>
<polygon fill="none" stroke="black" points="502.21,-561.4 502.21,-597 864.64,-597 864.64,-561.4 502.21,-561.4"/>
<text text-anchor="start" x="509.21" y="-574.8" font-family="Arial Bold" font-size="18.00">organization_members_history</text>
<text text-anchor="start" x="733.15" y="-574.8" font-family="Arial" font-size="14.00">    </text>
<text text-anchor="start" x="764.27" y="-574.8" font-family="Arial" font-size="14.00" fill="#666666">[BASE TABLE]</text>
<polygon fill="none" stroke="black" points="502.21,-530.6 502.21,-561.4 864.64,-561.4 864.64,-530.6 502.21,-530.6"/>
<text text-anchor="start" x="509.21" y="-542.8" font-family="Arial" font-size="14.00">organization_member_event_id </text>
<text text-anchor="start" x="709.22" y="-542.8" font-family="Arial" font-size="14.00" fill="#666666">[bigint(20)]</text>
<polygon fill="none" stroke="black" points="502.21,-499.8 502.21,-530.6 864.64,-530.6 864.64,-499.8 502.21,-499.8"/>
<text text-anchor="start" x="509.21" y="-512" font-family="Arial" font-size="14.00">organization_id </text>
<text text-anchor="start" x="608.05" y="-512" font-family="Arial" font-size="14.00" fill="#666666">[bigint(20)]</text>
<polygon fill="none" stroke="black" points="502.21,-469 502.21,-499.8 864.64,-499.8 864.64,-469 502.21,-469"/>
<text text-anchor="start" x="509.21" y="-481.2" font-family="Arial" font-size="14.00">member_user_id </text>
<text text-anchor="start" x="618.14" y="-481.2" font-family="Arial" font-size="14.00" fill="#666666">[bigint(20)]</text>
<polygon fill="none" stroke="black" points="502.21,-438.2 502.21,-469 864.64,-469 864.64,-438.2 502.21,-438.2"/>
<text text-anchor="start" x="509.21" y="-450.4" font-family="Arial" font-size="14.00">added </text>
<text text-anchor="start" x="552.03" y="-450.4" font-family="Arial" font-size="14.00" fill="#666666">[tinyint(1)]</text>
<polygon fill="none" stroke="black" points="502.21,-407.4 502.21,-438.2 864.64,-438.2 864.64,-407.4 502.21,-407.4"/>
<text text-anchor="start" x="509.21" y="-419.6" font-family="Arial" font-size="14.00">created_at </text>
<text text-anchor="start" x="579.25" y="-419.6" font-family="Arial" font-size="14.00" fill="#666666">[datetime(6)]</text>
</g>
<!-- organization_members_history&#45;&gt;organizations -->
<g id="edge2" class="edge">
<title>organization_members_history:organization_id&#45;&gt;organizations:organization_id</title>
<path fill="none" stroke="black" d="M875.96,-514.64C950.2,-505.92 882.85,-398.03 916.42,-318 943.16,-254.26 927.57,-184.8 996.69,-184.8"/>
<polygon fill="black" stroke="black" points="875.96,-514.64 865.73,-510.69 870.63,-514.93 866.31,-515.16 866.31,-515.16 866.31,-515.16 870.63,-514.93 866.22,-519.68 875.96,-514.64"/>
<text text-anchor="start" x="872.64" y="-525.2" font-family="Arial" font-size="10.00">FOREIGN KEY (organization_id) REFERENCES organizations (organization_id)</text>
</g>
<!-- join_prompts_history -->
<g id="node4" class="node">
<title>join_prompts_history</title>
<polygon fill="#efefef" stroke="none" points="968.68,-561.4 968.68,-597 1262.17,-597 1262.17,-561.4 968.68,-561.4"/>
<polygon fill="none" stroke="black" points="968.68,-561.4 968.68,-597 1262.17,-597 1262.17,-561.4 968.68,-561.4"/>
<text text-anchor="start" x="975.68" y="-574.8" font-family="Arial Bold" font-size="18.00">join_prompts_history</text>
<text text-anchor="start" x="1130.68" y="-574.8" font-family="Arial" font-size="14.00">    </text>
<text text-anchor="start" x="1161.8" y="-574.8" font-family="Arial" font-size="14.00" fill="#666666">[BASE TABLE]</text>
<polygon fill="none" stroke="black" points="968.68,-530.6 968.68,-561.4 1262.17,-561.4 1262.17,-530.6 968.68,-530.6"/>
<text text-anchor="start" x="975.68" y="-542.8" font-family="Arial" font-size="14.00">join_prompt_event_id </text>
<text text-anchor="start" x="1113.43" y="-542.8" font-family="Arial" font-size="14.00" fill="#666666">[bigint(20)]</text>
<polygon fill="none" stroke="black" points="968.68,-499.8 968.68,-530.6 1262.17,-530.6 1262.17,-499.8 968.68,-499.8"/>
<text text-anchor="start" x="975.68" y="-512" font-family="Arial" font-size="14.00">organization_id </text>
<text text-anchor="start" x="1074.52" y="-512" font-family="Arial" font-size="14.00" fill="#666666">[bigint(20)]</text>
<polygon fill="none" stroke="black" points="968.68,-469 968.68,-499.8 1262.17,-499.8 1262.17,-469 968.68,-469"/>
<text text-anchor="start" x="975.68" y="-481.2" font-family="Arial" font-size="14.00">owner_user_id </text>
<text text-anchor="start" x="1071.4" y="-481.2" font-family="Arial" font-size="14.00" fill="#666666">[bigint(20)]</text>
<polygon fill="none" stroke="black" points="968.68,-438.2 968.68,-469 1262.17,-469 1262.17,-438.2 968.68,-438.2"/>
<text text-anchor="start" x="975.68" y="-450.4" font-family="Arial" font-size="14.00">prompt </text>
<text text-anchor="start" x="1023.14" y="-450.4" font-family="Arial" font-size="14.00" fill="#666666">[text]</text>
<polygon fill="none" stroke="black" points="968.68,-407.4 968.68,-438.2 1262.17,-438.2 1262.17,-407.4 968.68,-407.4"/>
<text text-anchor="start" x="975.68" y="-419.6" font-family="Arial" font-size="14.00">created_at </text>
<text text-anchor="start" x="1045.72" y="-419.6" font-family="Arial" font-size="14.00" fill="#666666">[datetime(6)]</text>
</g>
<!-- join_prompts_history&#45;&gt;organizations -->
<g id="edge3" class="edge">
<title>join_prompts_history:organization_id&#45;&gt;organizations:organization_id</title>
<path fill="none" stroke="black" d="M1273.24,-512.91C1333.93,-483.72 1304.26,-184.8 1234.15,-184.8"/>
<polygon fill="black" stroke="black" points="1273.25,-512.91 1262.5,-510.74 1268.05,-514.09 1263.82,-515.05 1263.82,-515.05 1263.82,-515.05 1268.05,-514.09 1264.49,-519.51 1273.25,-512.91"/>
<text text-anchor="start" x="899.91" y="-499.2" font-family="Arial" font-size="10.00">FOREIGN KEY (organization_id) REFERENCES organizations (organization_id)</text>
</g>
<!-- organization_calendars_history -->
<g id="node5" class="node">
<title>organization_calendars_history</title>
<polygon fill="#efefef" stroke="none" points="1366.22,-576.8 1366.22,-612.4 1730.63,-612.4 1730.63,-576.8 1366.22,-576.8"/>
<polygon fill="none" stroke="black" points="1366.22,-576.8 1366.22,-612.4 1730.63,-612.4 1730.63,-576.8 1366.22,-576.8"/>
<text text-anchor="start" x="1373.22" y="-590.2" font-family="Arial Bold" font-size="18.00">organization_calendars_history</text>
<text text-anchor="start" x="1599.14" y="-590.2" font-family="Arial" font-size="14.00">    </text>
<text text-anchor="start" x="1630.26" y="-590.2" font-family="Arial" font-size="14.00" fill="#666666">[BASE TABLE]</text>
<polygon fill="none" stroke="black" points="1366.22,-546 1366.22,-576.8 1730.63,-576.8 1730.63,-546 1366.22,-546"/>
<text text-anchor="start" x="1373.22" y="-558.2" font-family="Arial" font-size="14.00">organization_calendar_event_id </text>
<text text-anchor="start" x="1575.59" y="-558.2" font-family="Arial" font-size="14.00" fill="#666666">[bigint(20)]</text>
<polygon fill="none" stroke="black" points="1366.22,-515.2 1366.22,-546 1730.63,-546 1730.63,-515.2 1366.22,-515.2"/>
<text text-anchor="start" x="1373.22" y="-527.4" font-family="Arial" font-size="14.00">organization_id </text>
<text text-anchor="start" x="1472.06" y="-527.4" font-family="Arial" font-size="14.00" fill="#666666">[bigint(20)]</text>
<polygon fill="none" stroke="black" points="1366.22,-484.4 1366.22,-515.2 1730.63,-515.2 1730.63,-484.4 1366.22,-484.4"/>
<text text-anchor="start" x="1373.22" y="-496.6" font-family="Arial" font-size="14.00">calendar_id </text>
<text text-anchor="start" x="1449.49" y="-496.6" font-family="Arial" font-size="14.00" fill="#666666">[bigint(20)]</text>
<polygon fill="none" stroke="black" points="1366.22,-453.6 1366.22,-484.4 1730.63,-484.4 1730.63,-453.6 1366.22,-453.6"/>
<text text-anchor="start" x="1373.22" y="-465.8" font-family="Arial" font-size="14.00">admin_user_id </text>
<text text-anchor="start" x="1468.94" y="-465.8" font-family="Arial" font-size="14.00" fill="#666666">[bigint(20)]</text>
<polygon fill="none" stroke="black" points="1366.22,-422.8 1366.22,-453.6 1730.63,-453.6 1730.63,-422.8 1366.22,-422.8"/>
<text text-anchor="start" x="1373.22" y="-435" font-family="Arial" font-size="14.00">added </text>
<text text-anchor="start" x="1416.04" y="-435" font-family="Arial" font-size="14.00" fill="#666666">[tinyint(1)]</text>
<polygon fill="none" stroke="black" points="1366.22,-392 1366.22,-422.8 1730.63,-422.8 1730.63,-392 1366.22,-392"/>
<text text-anchor="start" x="1373.22" y="-404.2" font-family="Arial" font-size="14.00">created_at </text>
<text text-anchor="start" x="1443.26" y="-404.2" font-family="Arial" font-size="14.00" fill="#666666">[datetime(6)]</text>
</g>
<!-- organization_calendars_history&#45;&gt;organizations -->
<g id="edge4" class="edge">
<title>organization_calendars_history:organization_id&#45;&gt;organizations:organization_id</title>
<path fill="none" stroke="black" d="M1355.13,-530.1C1274.07,-521.54 1349.85,-404.57 1314.42,-318 1288.24,-254.03 1303.27,-184.8 1234.15,-184.8"/>
<polygon fill="black" stroke="black" points="1354.89,-530.09 1364.66,-535.08 1360.22,-530.35 1364.55,-530.57 1364.55,-530.57 1364.55,-530.57 1360.22,-530.35 1365.1,-526.09 1354.89,-530.09"/>
<text text-anchor="start" x="1372.22" y="-540.6" font-family="Arial" font-size="10.00">FOREIGN KEY (organization_id) REFERENCES organizations (organization_id)</text>
</g>
<!-- member_roles_history -->
<g id="node6" class="node">
<title>member_roles_history</title>
<polygon fill="#efefef" stroke="none" points="1835.2,-576.8 1835.2,-612.4 2135.65,-612.4 2135.65,-576.8 1835.2,-576.8"/>
<polygon fill="none" stroke="black" points="1835.2,-576.8 1835.2,-612.4 2135.65,-612.4 2135.65,-576.8 1835.2,-576.8"/>
<text text-anchor="start" x="1842.2" y="-590.2" font-family="Arial Bold" font-size="18.00">member_roles_history</text>
<text text-anchor="start" x="2004.16" y="-590.2" font-family="Arial" font-size="14.00">    </text>
<text text-anchor="start" x="2035.28" y="-590.2" font-family="Arial" font-size="14.00" fill="#666666">[BASE TABLE]</text>
<polygon fill="none" stroke="black" points="1835.2,-546 1835.2,-576.8 2135.65,-576.8 2135.65,-546 1835.2,-546"/>
<text text-anchor="start" x="1842.2" y="-558.2" font-family="Arial" font-size="14.00">member_role_event_id </text>
<text text-anchor="start" x="1989.28" y="-558.2" font-family="Arial" font-size="14.00" fill="#666666">[bigint(20)]</text>
<polygon fill="none" stroke="black" points="1835.2,-515.2 1835.2,-546 2135.65,-546 2135.65,-515.2 1835.2,-515.2"/>
<text text-anchor="start" x="1842.2" y="-527.4" font-family="Arial" font-size="14.00">organization_id </text>
<text text-anchor="start" x="1941.04" y="-527.4" font-family="Arial" font-size="14.00" fill="#666666">[bigint(20)]</text>
<polygon fill="none" stroke="black" points="1835.2,-484.4 1835.2,-515.2 2135.65,-515.2 2135.65,-484.4 1835.2,-484.4"/>
<text text-anchor="start" x="1842.2" y="-496.6" font-family="Arial" font-size="14.00">member_user_id </text>
<text text-anchor="start" x="1951.13" y="-496.6" font-family="Arial" font-size="14.00" fill="#666666">[bigint(20)]</text>
<polygon fill="none" stroke="black" points="1835.2,-453.6 1835.2,-484.4 2135.65,-484.4 2135.65,-453.6 1835.2,-453.6"/>
<text text-anchor="start" x="1842.2" y="-465.8" font-family="Arial" font-size="14.00">owner_user_id </text>
<text text-anchor="start" x="1937.92" y="-465.8" font-family="Arial" font-size="14.00" fill="#666666">[bigint(20)]</text>
<polygon fill="none" stroke="black" points="1835.2,-422.8 1835.2,-453.6 2135.65,-453.6 2135.65,-422.8 1835.2,-422.8"/>
<text text-anchor="start" x="1842.2" y="-435" font-family="Arial" font-size="14.00">created_at </text>
<text text-anchor="start" x="1912.24" y="-435" font-family="Arial" font-size="14.00" fill="#666666">[datetime(6)]</text>
<polygon fill="none" stroke="black" points="1835.2,-392 1835.2,-422.8 2135.65,-422.8 2135.65,-392 1835.2,-392"/>
<text text-anchor="start" x="1842.2" y="-404.2" font-family="Arial" font-size="14.00">role </text>
<text text-anchor="start" x="1869.43" y="-404.2" font-family="Arial" font-size="14.00" fill="#666666">[enum(&#39;owner&#39;,&#39;admin&#39;,&#39;user&#39;)]</text>
</g>
<!-- member_roles_history&#45;&gt;organizations -->
<g id="edge5" class="edge">
<title>member_roles_history:organization_id&#45;&gt;organizations:organization_id</title>
<path fill="none" stroke="black" d="M1824.22,-530.02C1745.17,-520.03 1848.66,-384.2 1782.42,-318 1693.74,-229.37 1359.53,-184.8 1234.15,-184.8"/>
<polygon fill="black" stroke="black" points="1823.88,-530 1833.6,-535.07 1829.2,-530.31 1833.53,-530.56 1833.53,-530.56 1833.53,-530.56 1829.2,-530.31 1834.12,-526.09 1823.88,-530"/>
<text text-anchor="start" x="1841.2" y="-540.6" font-family="Arial" font-size="10.00">FOREIGN KEY (organization_id) REFERENCES organizations (organization_id)</text>
</g>
</g>
</svg>
