<?xml version="1.0" encoding="UTF-8" standalone="no"?>
<!DOCTYPE svg PUBLIC "-//W3C//DTD SVG 1.1//EN"
 "http://www.w3.org/Graphics/SVG/1.1/DTD/svg11.dtd">
<!-- Generated by graphviz version 12.1.2 (20240928.0832)
 -->
<!-- Title: organization_calendars_history Pages: 1 -->
<svg width="1067pt" height="664pt"
 viewBox="0.00 0.00 1066.56 663.60" xmlns="http://www.w3.org/2000/svg" xmlns:xlink="http://www.w3.org/1999/xlink">
<g id="graph0" class="graph" transform="scale(1 1) rotate(0) translate(4 659.6)">
<title>organization_calendars_history</title>
<polygon fill="white" stroke="none" points="-4,4 -4,-659.6 1062.56,-659.6 1062.56,4 -4,4"/>
<!-- organization_calendars_history -->
<g id="node1" class="node">
<title>organization_calendars_history</title>
<polygon fill="#efefef" stroke="none" points="371.26,-573.8 371.26,-609.4 735.67,-609.4 735.67,-573.8 371.26,-573.8"/>
<polygon fill="none" stroke="black" points="371.26,-573.8 371.26,-609.4 735.67,-609.4 735.67,-573.8 371.26,-573.8"/>
<text text-anchor="start" x="378.26" y="-587.2" font-family="Arial Bold" font-size="18.00">organization_calendars_history</text>
<text text-anchor="start" x="604.18" y="-587.2" font-family="Arial" font-size="14.00">    </text>
<text text-anchor="start" x="635.3" y="-587.2" font-family="Arial" font-size="14.00" fill="#666666">[BASE TABLE]</text>
<polygon fill="none" stroke="black" points="371.26,-543 371.26,-573.8 735.67,-573.8 735.67,-543 371.26,-543"/>
<text text-anchor="start" x="378.26" y="-555.2" font-family="Arial" font-size="14.00">organization_calendar_event_id </text>
<text text-anchor="start" x="580.63" y="-555.2" font-family="Arial" font-size="14.00" fill="#666666">[bigint(20)]</text>
<polygon fill="none" stroke="black" points="371.26,-512.2 371.26,-543 735.67,-543 735.67,-512.2 371.26,-512.2"/>
<text text-anchor="start" x="378.26" y="-524.4" font-family="Arial" font-size="14.00">organization_id </text>
<text text-anchor="start" x="477.11" y="-524.4" font-family="Arial" font-size="14.00" fill="#666666">[bigint(20)]</text>
<polygon fill="none" stroke="black" points="371.26,-481.4 371.26,-512.2 735.67,-512.2 735.67,-481.4 371.26,-481.4"/>
<text text-anchor="start" x="378.26" y="-493.6" font-family="Arial" font-size="14.00">calendar_id </text>
<text text-anchor="start" x="454.54" y="-493.6" font-family="Arial" font-size="14.00" fill="#666666">[bigint(20)]</text>
<polygon fill="none" stroke="black" points="371.26,-450.6 371.26,-481.4 735.67,-481.4 735.67,-450.6 371.26,-450.6"/>
<text text-anchor="start" x="378.26" y="-462.8" font-family="Arial" font-size="14.00">admin_user_id </text>
<text text-anchor="start" x="473.98" y="-462.8" font-family="Arial" font-size="14.00" fill="#666666">[bigint(20)]</text>
<polygon fill="none" stroke="black" points="371.26,-419.8 371.26,-450.6 735.67,-450.6 735.67,-419.8 371.26,-419.8"/>
<text text-anchor="start" x="378.26" y="-432" font-family="Arial" font-size="14.00">added </text>
<text text-anchor="start" x="421.08" y="-432" font-family="Arial" font-size="14.00" fill="#666666">[tinyint(1)]</text>
<polygon fill="none" stroke="black" points="371.26,-389 371.26,-419.8 735.67,-419.8 735.67,-389 371.26,-389"/>
<text text-anchor="start" x="378.26" y="-401.2" font-family="Arial" font-size="14.00">created_at </text>
<text text-anchor="start" x="448.31" y="-401.2" font-family="Arial" font-size="14.00" fill="#666666">[datetime(6)]</text>
<polygon fill="none" stroke="black" stroke-width="3" points="369.76,-387.5 369.76,-610.9 737.17,-610.9 737.17,-387.5 369.76,-387.5"/>
</g>
<!-- organizations -->
<g id="node2" class="node">
<title>organizations</title>
<polygon fill="#efefef" stroke="none" points="110.74,-212.6 110.74,-248.2 346.2,-248.2 346.2,-212.6 110.74,-212.6"/>
<polygon fill="none" stroke="black" points="110.74,-212.6 110.74,-248.2 346.2,-248.2 346.2,-212.6 110.74,-212.6"/>
<text text-anchor="start" x="117.74" y="-226" font-family="Arial Bold" font-size="18.00">organizations</text>
<text text-anchor="start" x="214.71" y="-226" font-family="Arial" font-size="14.00">    </text>
<text text-anchor="start" x="245.82" y="-226" font-family="Arial" font-size="14.00" fill="#666666">[BASE TABLE]</text>
<polygon fill="none" stroke="black" points="110.74,-181.8 110.74,-212.6 346.2,-212.6 346.2,-181.8 110.74,-181.8"/>
<text text-anchor="start" x="117.74" y="-194" font-family="Arial" font-size="14.00">organization_id </text>
<text text-anchor="start" x="216.58" y="-194" font-family="Arial" font-size="14.00" fill="#666666">[bigint(20)]</text>
<polygon fill="none" stroke="black" points="110.74,-151 110.74,-181.8 346.2,-181.8 346.2,-151 110.74,-151"/>
<text text-anchor="start" x="117.74" y="-163.2" font-family="Arial" font-size="14.00">name </text>
<text text-anchor="start" x="156.65" y="-163.2" font-family="Arial" font-size="14.00" fill="#666666">[varchar(255)]</text>
<polygon fill="none" stroke="black" points="110.74,-120.2 110.74,-151 346.2,-151 346.2,-120.2 110.74,-120.2"/>
<text text-anchor="start" x="117.74" y="-132.4" font-family="Arial" font-size="14.00">requires_join_request </text>
<text text-anchor="start" x="256.27" y="-132.4" font-family="Arial" font-size="14.00" fill="#666666">[tinyint(1)]</text>
<polygon fill="none" stroke="black" points="110.74,-89.4 110.74,-120.2 346.2,-120.2 346.2,-89.4 110.74,-89.4"/>
<text text-anchor="start" x="117.74" y="-101.6" font-family="Arial" font-size="14.00">created_at </text>
<text text-anchor="start" x="187.78" y="-101.6" font-family="Arial" font-size="14.00" fill="#666666">[datetime(6)]</text>
<polygon fill="none" stroke="black" points="110.74,-58.6 110.74,-89.4 346.2,-89.4 346.2,-58.6 110.74,-58.6"/>
<text text-anchor="start" x="117.74" y="-70.8" font-family="Arial" font-size="14.00">description </text>
<text text-anchor="start" x="189.33" y="-70.8" font-family="Arial" font-size="14.00" fill="#666666">[text]</text>
</g>
<!-- organization_calendars_history&#45;&gt;organizations -->
<g id="edge1" class="edge">
<title>organization_calendars_history:organization_id&#45;&gt;organizations:organization_id</title>
<path fill="none" stroke="black" d="M359.84,-526.97C236.57,-511.03 490.66,-197.2 347.2,-197.2"/>
<polygon fill="black" stroke="black" points="359.94,-526.98 369.65,-532.07 365.27,-527.3 369.59,-527.56 369.59,-527.56 369.59,-527.56 365.27,-527.3 370.2,-523.09 359.94,-526.98"/>
<text text-anchor="start" x="7" y="-537.6" font-family="Arial" font-size="10.00">FOREIGN KEY (organization_id) REFERENCES organizations (organization_id)</text>
</g>
<!-- calendars -->
<g id="node3" class="node">
<title>calendars</title>
<polygon fill="#efefef" stroke="none" points="450.24,-197.2 450.24,-232.8 656.69,-232.8 656.69,-197.2 450.24,-197.2"/>
<polygon fill="none" stroke="black" points="450.24,-197.2 450.24,-232.8 656.69,-232.8 656.69,-197.2 450.24,-197.2"/>
<text text-anchor="start" x="457.24" y="-210.6" font-family="Arial Bold" font-size="18.00">calendars</text>
<text text-anchor="start" x="525.2" y="-210.6" font-family="Arial" font-size="14.00">    </text>
<text text-anchor="start" x="556.32" y="-210.6" font-family="Arial" font-size="14.00" fill="#666666">[BASE TABLE]</text>
<polygon fill="none" stroke="black" points="450.24,-166.4 450.24,-197.2 656.69,-197.2 656.69,-166.4 450.24,-166.4"/>
<text text-anchor="start" x="457.24" y="-178.6" font-family="Arial" font-size="14.00">calendar_id </text>
<text text-anchor="start" x="533.52" y="-178.6" font-family="Arial" font-size="14.00" fill="#666666">[bigint(20)]</text>
<polygon fill="none" stroke="black" points="450.24,-135.6 450.24,-166.4 656.69,-166.4 656.69,-135.6 450.24,-135.6"/>
<text text-anchor="start" x="457.24" y="-147.8" font-family="Arial" font-size="14.00">owner_user_id </text>
<text text-anchor="start" x="552.97" y="-147.8" font-family="Arial" font-size="14.00" fill="#666666">[bigint(20)]</text>
<polygon fill="none" stroke="black" points="450.24,-104.8 450.24,-135.6 656.69,-135.6 656.69,-104.8 450.24,-104.8"/>
<text text-anchor="start" x="457.24" y="-117" font-family="Arial" font-size="14.00">name </text>
<text text-anchor="start" x="496.15" y="-117" font-family="Arial" font-size="14.00" fill="#666666">[varchar(255)]</text>
<polygon fill="none" stroke="black" points="450.24,-74 450.24,-104.8 656.69,-104.8 656.69,-74 450.24,-74"/>
<text text-anchor="start" x="457.24" y="-86.2" font-family="Arial" font-size="14.00">description </text>
<text text-anchor="start" x="528.84" y="-86.2" font-family="Arial" font-size="14.00" fill="#666666">[text]</text>
</g>
<!-- organization_calendars_history&#45;&gt;calendars -->
<g id="edge2" class="edge">
<title>organization_calendars_history:calendar_id&#45;&gt;calendars:calendar_id</title>
<path fill="none" stroke="black" d="M746.88,-496.02C799.94,-487.14 755.89,-404.26 735.67,-342.8 729.49,-324 719.14,-324.06 709.47,-306.8 680.06,-254.35 717.82,-181.8 657.69,-181.8"/>
<polygon fill="black" stroke="black" points="746.98,-496.01 736.66,-492.29 741.66,-496.42 737.34,-496.75 737.34,-496.75 737.34,-496.75 741.66,-496.42 737.35,-501.26 746.98,-496.01"/>
<text text-anchor="start" x="743.67" y="-506.8" font-family="Arial" font-size="10.00">FOREIGN KEY (calendar_id) REFERENCES calendars (calendar_id)</text>
</g>
<!-- users -->
<g id="node4" class="node">
<title>users</title>
<polygon fill="#efefef" stroke="none" points="761.47,-228 761.47,-263.6 975.46,-263.6 975.46,-228 761.47,-228"/>
<polygon fill="none" stroke="black" points="761.47,-228 761.47,-263.6 975.46,-263.6 975.46,-228 761.47,-228"/>
<text text-anchor="start" x="787.72" y="-241.4" font-family="Arial Bold" font-size="18.00">users</text>
<text text-anchor="start" x="824.72" y="-241.4" font-family="Arial" font-size="14.00">    </text>
<text text-anchor="start" x="855.83" y="-241.4" font-family="Arial" font-size="14.00" fill="#666666">[BASE TABLE]</text>
<polygon fill="none" stroke="black" points="761.47,-197.2 761.47,-228 975.46,-228 975.46,-197.2 761.47,-197.2"/>
<text text-anchor="start" x="768.47" y="-209.4" font-family="Arial" font-size="14.00">user_id </text>
<text text-anchor="start" x="818.28" y="-209.4" font-family="Arial" font-size="14.00" fill="#666666">[bigint(20)]</text>
<polygon fill="none" stroke="black" points="761.47,-166.4 761.47,-197.2 975.46,-197.2 975.46,-166.4 761.47,-166.4"/>
<text text-anchor="start" x="768.47" y="-178.6" font-family="Arial" font-size="14.00">email </text>
<text text-anchor="start" x="805.81" y="-178.6" font-family="Arial" font-size="14.00" fill="#666666">[varchar(320)]</text>
<polygon fill="none" stroke="black" points="761.47,-135.6 761.47,-166.4 975.46,-166.4 975.46,-135.6 761.47,-135.6"/>
<text text-anchor="start" x="768.47" y="-147.8" font-family="Arial" font-size="14.00">first_name </text>
<text text-anchor="start" x="837.72" y="-147.8" font-family="Arial" font-size="14.00" fill="#666666">[varchar(255)]</text>
<polygon fill="none" stroke="black" points="761.47,-104.8 761.47,-135.6 975.46,-135.6 975.46,-104.8 761.47,-104.8"/>
<text text-anchor="start" x="768.47" y="-117" font-family="Arial" font-size="14.00">last_name </text>
<text text-anchor="start" x="836.95" y="-117" font-family="Arial" font-size="14.00" fill="#666666">[varchar(255)]</text>
<polygon fill="none" stroke="black" points="761.47,-74 761.47,-104.8 975.46,-104.8 975.46,-74 761.47,-74"/>
<text text-anchor="start" x="768.47" y="-86.2" font-family="Arial" font-size="14.00">password_hash </text>
<text text-anchor="start" x="870.42" y="-86.2" font-family="Arial" font-size="14.00" fill="#666666">[varbinary(255)]</text>
<polygon fill="none" stroke="black" points="761.47,-43.2 761.47,-74 975.46,-74 975.46,-43.2 761.47,-43.2"/>
<text text-anchor="start" x="768.47" y="-55.4" font-family="Arial" font-size="14.00">middle_name </text>
<text text-anchor="start" x="856.41" y="-55.4" font-family="Arial" font-size="14.00" fill="#666666">[varchar(255)]</text>
</g>
<!-- organization_calendars_history&#45;&gt;users -->
<g id="edge3" class="edge">
<title>organization_calendars_history:admin_user_id&#45;&gt;users:user_id</title>
<path fill="none" stroke="black" d="M746.92,-465.18C836.69,-449.45 651.11,-212.6 760.47,-212.6"/>
<polygon fill="black" stroke="black" points="746.97,-465.18 736.65,-461.49 741.66,-465.6 737.34,-465.95 737.34,-465.95 737.34,-465.95 741.66,-465.6 737.36,-470.46 746.97,-465.18"/>
<text text-anchor="start" x="743.67" y="-476" font-family="Arial" font-size="10.00">FOREIGN KEY (admin_user_id) REFERENCES users (user_id)</text>
</g>
</g>
</svg>
