<?xml version="1.0" encoding="UTF-8" standalone="no"?>
<!DOCTYPE svg PUBLIC "-//W3C//DTD SVG 1.1//EN"
 "http://www.w3.org/Graphics/SVG/1.1/DTD/svg11.dtd">
<!-- Generated by graphviz version 12.1.2 (20240928.0832)
 -->
<!-- Title: s25101270_countmein Pages: 1 -->
<svg width="1506pt" height="908pt"
 viewBox="0.00 0.00 1505.75 908.00" xmlns="http://www.w3.org/2000/svg" xmlns:xlink="http://www.w3.org/1999/xlink">
<g id="graph0" class="graph" transform="scale(1 1) rotate(0) translate(4 904)">
<title>s25101270_countmein</title>
<polygon fill="white" stroke="none" points="-4,4 -4,-904 1501.75,-904 1501.75,4 -4,4"/>
<!-- online_calendars -->
<g id="node1" class="node">
<title>online_calendars</title>
<polygon fill="#efefef" stroke="none" points="738.68,-540 738.68,-575.6 999.12,-575.6 999.12,-540 738.68,-540"/>
<polygon fill="none" stroke="black" points="738.68,-540 738.68,-575.6 999.12,-575.6 999.12,-540 738.68,-540"/>
<text text-anchor="start" x="745.68" y="-553.4" font-family="Arial Bold" font-size="18.00">online_calendars</text>
<text text-anchor="start" x="867.63" y="-553.4" font-family="Arial" font-size="14.00">    </text>
<text text-anchor="start" x="898.74" y="-553.4" font-family="Arial" font-size="14.00" fill="#666666">[BASE TABLE]</text>
<polygon fill="none" stroke="black" points="738.68,-509.2 738.68,-540 999.12,-540 999.12,-509.2 738.68,-509.2"/>
<text text-anchor="start" x="745.68" y="-521.4" font-family="Arial" font-size="14.00">id </text>
<text text-anchor="start" x="760.47" y="-521.4" font-family="Arial" font-size="14.00" fill="#666666">[int(11)]</text>
<polygon fill="none" stroke="black" points="738.68,-478.4 738.68,-509.2 999.12,-509.2 999.12,-478.4 738.68,-478.4"/>
<text text-anchor="start" x="745.68" y="-490.6" font-family="Arial" font-size="14.00">owner_id </text>
<text text-anchor="start" x="806.38" y="-490.6" font-family="Arial" font-size="14.00" fill="#666666">[int(11)]</text>
<polygon fill="none" stroke="black" points="738.68,-447.6 738.68,-478.4 999.12,-478.4 999.12,-447.6 738.68,-447.6"/>
<text text-anchor="start" x="745.68" y="-459.8" font-family="Arial" font-size="14.00">name </text>
<text text-anchor="start" x="784.59" y="-459.8" font-family="Arial" font-size="14.00" fill="#666666">[varchar(255)]</text>
<polygon fill="none" stroke="black" points="738.68,-416.8 738.68,-447.6 999.12,-447.6 999.12,-416.8 738.68,-416.8"/>
<text text-anchor="start" x="745.68" y="-429" font-family="Arial" font-size="14.00">url </text>
<text text-anchor="start" x="765.13" y="-429" font-family="Arial" font-size="14.00" fill="#666666">[varchar(2048)]</text>
<polygon fill="none" stroke="black" points="738.68,-386 738.68,-416.8 999.12,-416.8 999.12,-386 738.68,-386"/>
<text text-anchor="start" x="745.68" y="-398.2" font-family="Arial" font-size="14.00">description </text>
<text text-anchor="start" x="817.27" y="-398.2" font-family="Arial" font-size="14.00" fill="#666666">[text]</text>
</g>
<!-- users -->
<g id="node3" class="node">
<title>users</title>
<polygon fill="#efefef" stroke="none" points="761.9,-228 761.9,-263.6 975.89,-263.6 975.89,-228 761.9,-228"/>
<polygon fill="none" stroke="black" points="761.9,-228 761.9,-263.6 975.89,-263.6 975.89,-228 761.9,-228"/>
<text text-anchor="start" x="788.16" y="-241.4" font-family="Arial Bold" font-size="18.00">users</text>
<text text-anchor="start" x="825.15" y="-241.4" font-family="Arial" font-size="14.00">    </text>
<text text-anchor="start" x="856.27" y="-241.4" font-family="Arial" font-size="14.00" fill="#666666">[BASE TABLE]</text>
<polygon fill="none" stroke="black" points="761.9,-197.2 761.9,-228 975.89,-228 975.89,-197.2 761.9,-197.2"/>
<text text-anchor="start" x="768.9" y="-209.4" font-family="Arial" font-size="14.00">id </text>
<text text-anchor="start" x="783.69" y="-209.4" font-family="Arial" font-size="14.00" fill="#666666">[int(11)]</text>
<polygon fill="none" stroke="black" points="761.9,-166.4 761.9,-197.2 975.89,-197.2 975.89,-166.4 761.9,-166.4"/>
<text text-anchor="start" x="768.9" y="-178.6" font-family="Arial" font-size="14.00">email </text>
<text text-anchor="start" x="806.25" y="-178.6" font-family="Arial" font-size="14.00" fill="#666666">[varchar(320)]</text>
<polygon fill="none" stroke="black" points="761.9,-135.6 761.9,-166.4 975.89,-166.4 975.89,-135.6 761.9,-135.6"/>
<text text-anchor="start" x="768.9" y="-147.8" font-family="Arial" font-size="14.00">first_name </text>
<text text-anchor="start" x="838.15" y="-147.8" font-family="Arial" font-size="14.00" fill="#666666">[varchar(255)]</text>
<polygon fill="none" stroke="black" points="761.9,-104.8 761.9,-135.6 975.89,-135.6 975.89,-104.8 761.9,-104.8"/>
<text text-anchor="start" x="768.9" y="-117" font-family="Arial" font-size="14.00">last_name </text>
<text text-anchor="start" x="837.38" y="-117" font-family="Arial" font-size="14.00" fill="#666666">[varchar(255)]</text>
<polygon fill="none" stroke="black" points="761.9,-74 761.9,-104.8 975.89,-104.8 975.89,-74 761.9,-74"/>
<text text-anchor="start" x="768.9" y="-86.2" font-family="Arial" font-size="14.00">password_hash </text>
<text text-anchor="start" x="870.85" y="-86.2" font-family="Arial" font-size="14.00" fill="#666666">[varbinary(255)]</text>
<polygon fill="none" stroke="black" points="761.9,-43.2 761.9,-74 975.89,-74 975.89,-43.2 761.9,-43.2"/>
<text text-anchor="start" x="768.9" y="-55.4" font-family="Arial" font-size="14.00">middle_name </text>
<text text-anchor="start" x="856.84" y="-55.4" font-family="Arial" font-size="14.00" fill="#666666">[varchar(255)]</text>
</g>
<!-- online_calendars&#45;&gt;users -->
<g id="edge1" class="edge">
<title>online_calendars:owner_id&#45;&gt;users:id</title>
<path fill="none" stroke="black" d="M1009.95,-491.2C1060.06,-462.85 1036.04,-212.6 976.89,-212.6"/>
<polygon fill="black" stroke="black" points="1010.11,-491.15 999.29,-489.36 1004.95,-492.52 1000.76,-493.63 1000.76,-493.63 1000.76,-493.63 1004.95,-492.52 1001.59,-498.06 1010.11,-491.15"/>
<text text-anchor="start" x="1007.12" y="-503.8" font-family="Arial" font-size="10.00">FOREIGN KEY (owner_id) REFERENCES users (id)</text>
</g>
<!-- calendars_access_codes -->
<g id="node2" class="node">
<title>calendars_access_codes</title>
<polygon fill="#efefef" stroke="none" points="43.2,-821.2 43.2,-856.8 354.6,-856.8 354.6,-821.2 43.2,-821.2"/>
<polygon fill="none" stroke="black" points="43.2,-821.2 43.2,-856.8 354.6,-856.8 354.6,-821.2 43.2,-821.2"/>
<text text-anchor="start" x="50.2" y="-834.6" font-family="Arial Bold" font-size="18.00">calendars_access_codes</text>
<text text-anchor="start" x="223.11" y="-834.6" font-family="Arial" font-size="14.00">    </text>
<text text-anchor="start" x="254.22" y="-834.6" font-family="Arial" font-size="14.00" fill="#666666">[BASE TABLE]</text>
<polygon fill="none" stroke="black" points="43.2,-790.4 43.2,-821.2 354.6,-821.2 354.6,-790.4 43.2,-790.4"/>
<text text-anchor="start" x="50.2" y="-802.6" font-family="Arial" font-size="14.00">id </text>
<text text-anchor="start" x="64.99" y="-802.6" font-family="Arial" font-size="14.00" fill="#666666">[int(11)]</text>
<polygon fill="none" stroke="black" points="43.2,-759.6 43.2,-790.4 354.6,-790.4 354.6,-759.6 43.2,-759.6"/>
<text text-anchor="start" x="50.2" y="-771.8" font-family="Arial" font-size="14.00">calendar_id </text>
<text text-anchor="start" x="126.48" y="-771.8" font-family="Arial" font-size="14.00" fill="#666666">[int(11)]</text>
<polygon fill="none" stroke="black" points="43.2,-728.8 43.2,-759.6 354.6,-759.6 354.6,-728.8 43.2,-728.8"/>
<text text-anchor="start" x="50.2" y="-741" font-family="Arial" font-size="14.00">code </text>
<text text-anchor="start" x="84.45" y="-741" font-family="Arial" font-size="14.00" fill="#666666">[varchar(64)]</text>
<polygon fill="none" stroke="black" points="43.2,-698 43.2,-728.8 354.6,-728.8 354.6,-698 43.2,-698"/>
<text text-anchor="start" x="50.2" y="-710.2" font-family="Arial" font-size="14.00">expires_at </text>
<text text-anchor="start" x="118.68" y="-710.2" font-family="Arial" font-size="14.00" fill="#666666">[datetime(6)]</text>
</g>
<!-- calendars -->
<g id="node4" class="node">
<title>calendars</title>
<polygon fill="#efefef" stroke="none" points="390.68,-540 390.68,-575.6 597.12,-575.6 597.12,-540 390.68,-540"/>
<polygon fill="none" stroke="black" points="390.68,-540 390.68,-575.6 597.12,-575.6 597.12,-540 390.68,-540"/>
<text text-anchor="start" x="397.68" y="-553.4" font-family="Arial Bold" font-size="18.00">calendars</text>
<text text-anchor="start" x="465.63" y="-553.4" font-family="Arial" font-size="14.00">    </text>
<text text-anchor="start" x="496.75" y="-553.4" font-family="Arial" font-size="14.00" fill="#666666">[BASE TABLE]</text>
<polygon fill="none" stroke="black" points="390.68,-509.2 390.68,-540 597.12,-540 597.12,-509.2 390.68,-509.2"/>
<text text-anchor="start" x="397.68" y="-521.4" font-family="Arial" font-size="14.00">id </text>
<text text-anchor="start" x="412.46" y="-521.4" font-family="Arial" font-size="14.00" fill="#666666">[int(11)]</text>
<polygon fill="none" stroke="black" points="390.68,-478.4 390.68,-509.2 597.12,-509.2 597.12,-478.4 390.68,-478.4"/>
<text text-anchor="start" x="397.68" y="-490.6" font-family="Arial" font-size="14.00">owner_id </text>
<text text-anchor="start" x="458.38" y="-490.6" font-family="Arial" font-size="14.00" fill="#666666">[int(11)]</text>
<polygon fill="none" stroke="black" points="390.68,-447.6 390.68,-478.4 597.12,-478.4 597.12,-447.6 390.68,-447.6"/>
<text text-anchor="start" x="397.68" y="-459.8" font-family="Arial" font-size="14.00">name </text>
<text text-anchor="start" x="436.59" y="-459.8" font-family="Arial" font-size="14.00" fill="#666666">[varchar(255)]</text>
<polygon fill="none" stroke="black" points="390.68,-416.8 390.68,-447.6 597.12,-447.6 597.12,-416.8 390.68,-416.8"/>
<text text-anchor="start" x="397.68" y="-429" font-family="Arial" font-size="14.00">ical_data </text>
<text text-anchor="start" x="457.61" y="-429" font-family="Arial" font-size="14.00" fill="#666666">[longblob]</text>
<polygon fill="none" stroke="black" points="390.68,-386 390.68,-416.8 597.12,-416.8 597.12,-386 390.68,-386"/>
<text text-anchor="start" x="397.68" y="-398.2" font-family="Arial" font-size="14.00">description </text>
<text text-anchor="start" x="469.27" y="-398.2" font-family="Arial" font-size="14.00" fill="#666666">[text]</text>
</g>
<!-- calendars_access_codes&#45;&gt;calendars -->
<g id="edge2" class="edge">
<title>calendars_access_codes:calendar_id&#45;&gt;calendars:id</title>
<path fill="none" stroke="black" d="M365.8,-774.19C455.59,-758.65 281.09,-524.6 389.68,-524.6"/>
<polygon fill="black" stroke="black" points="365.9,-774.18 355.57,-770.49 360.58,-774.6 356.26,-774.95 356.26,-774.95 356.26,-774.95 360.58,-774.6 356.29,-779.46 365.9,-774.18"/>
<text text-anchor="start" x="223.61" y="-759" font-family="Arial" font-size="10.00">FOREIGN KEY (calendar_id) REFERENCES calendars (id)</text>
</g>
<!-- calendars&#45;&gt;users -->
<g id="edge3" class="edge">
<title>calendars:owner_id&#45;&gt;users:id</title>
<path fill="none" stroke="black" d="M608.45,-493.07C664.49,-484.49 620.17,-401.58 653.9,-342.8 691.17,-277.83 686,-212.6 760.9,-212.6"/>
<polygon fill="black" stroke="black" points="608.43,-493.08 598.14,-489.29 603.11,-493.45 598.79,-493.75 598.79,-493.75 598.79,-493.75 603.11,-493.45 598.77,-498.27 608.43,-493.08"/>
<text text-anchor="start" x="605.12" y="-503.8" font-family="Arial" font-size="10.00">FOREIGN KEY (owner_id) REFERENCES users (id)</text>
</g>
<!-- users_external_online_calendars -->
<g id="node5" class="node">
<title>users_external_online_calendars</title>
<polygon fill="#efefef" stroke="none" points="883.2,-790.4 883.2,-826 1256.6,-826 1256.6,-790.4 883.2,-790.4"/>
<polygon fill="none" stroke="black" points="883.2,-790.4 883.2,-826 1256.6,-826 1256.6,-790.4 883.2,-790.4"/>
<text text-anchor="start" x="890.2" y="-803.8" font-family="Arial Bold" font-size="18.00">users_external_online_calendars</text>
<text text-anchor="start" x="1125.11" y="-803.8" font-family="Arial" font-size="14.00">    </text>
<text text-anchor="start" x="1156.22" y="-803.8" font-family="Arial" font-size="14.00" fill="#666666">[BASE TABLE]</text>
<polygon fill="none" stroke="black" points="883.2,-759.6 883.2,-790.4 1256.6,-790.4 1256.6,-759.6 883.2,-759.6"/>
<text text-anchor="start" x="890.2" y="-771.8" font-family="Arial" font-size="14.00">user_id </text>
<text text-anchor="start" x="940.01" y="-771.8" font-family="Arial" font-size="14.00" fill="#666666">[int(11)]</text>
<polygon fill="none" stroke="black" points="883.2,-728.8 883.2,-759.6 1256.6,-759.6 1256.6,-728.8 883.2,-728.8"/>
<text text-anchor="start" x="890.2" y="-741" font-family="Arial" font-size="14.00">online_calendar_id </text>
<text text-anchor="start" x="1011.63" y="-741" font-family="Arial" font-size="14.00" fill="#666666">[int(11)]</text>
</g>
<!-- users_external_online_calendars&#45;&gt;online_calendars -->
<g id="edge4" class="edge">
<title>users_external_online_calendars:online_calendar_id&#45;&gt;online_calendars:id</title>
<path fill="none" stroke="black" d="M872.42,-741.5C860.67,-732.7 872.15,-704.36 883.2,-685.6 913.39,-634.37 969.09,-670.12 999.12,-618.8 1020.26,-582.66 1041.99,-524.6 1000.12,-524.6"/>
<polygon fill="black" stroke="black" points="872.24,-741.45 880.68,-748.45 877.38,-742.87 881.56,-744.02 881.56,-744.02 881.56,-744.02 877.38,-742.87 883.08,-739.77 872.24,-741.45"/>
<text text-anchor="start" x="889.2" y="-754.2" font-family="Arial" font-size="10.00">FOREIGN KEY (online_calendar_id) REFERENCES online_calendars (id)</text>
</g>
<!-- users_external_online_calendars&#45;&gt;users -->
<g id="edge5" class="edge">
<title>users_external_online_calendars:user_id&#45;&gt;users:id</title>
<path fill="none" stroke="black" d="M1267.63,-773.45C1293.73,-764.17 1276.88,-715.16 1256.6,-685.6 1211.2,-619.45 1138.36,-681.97 1088.9,-618.8 1012.56,-521.31 1090.65,-460.07 1050.9,-342.8 1029.53,-279.76 1043.46,-212.6 976.89,-212.6"/>
<polygon fill="black" stroke="black" points="1267.81,-773.43 1257.24,-770.5 1262.54,-774.24 1258.26,-774.9 1258.26,-774.9 1258.26,-774.9 1262.54,-774.24 1258.61,-779.4 1267.81,-773.43"/>
<text text-anchor="start" x="1264.6" y="-785" font-family="Arial" font-size="10.00">FOREIGN KEY (user_id) REFERENCES users (id)</text>
</g>
<!-- users_external_calendars -->
<g id="node6" class="node">
<title>users_external_calendars</title>
<polygon fill="#efefef" stroke="none" points="459.2,-790.4 459.2,-826 778.6,-826 778.6,-790.4 459.2,-790.4"/>
<polygon fill="none" stroke="black" points="459.2,-790.4 459.2,-826 778.6,-826 778.6,-790.4 459.2,-790.4"/>
<text text-anchor="start" x="466.2" y="-803.8" font-family="Arial Bold" font-size="18.00">users_external_calendars</text>
<text text-anchor="start" x="647.11" y="-803.8" font-family="Arial" font-size="14.00">    </text>
<text text-anchor="start" x="678.23" y="-803.8" font-family="Arial" font-size="14.00" fill="#666666">[BASE TABLE]</text>
<polygon fill="none" stroke="black" points="459.2,-759.6 459.2,-790.4 778.6,-790.4 778.6,-759.6 459.2,-759.6"/>
<text text-anchor="start" x="466.2" y="-771.8" font-family="Arial" font-size="14.00">user_id </text>
<text text-anchor="start" x="516" y="-771.8" font-family="Arial" font-size="14.00" fill="#666666">[int(11)]</text>
<polygon fill="none" stroke="black" points="459.2,-728.8 459.2,-759.6 778.6,-759.6 778.6,-728.8 459.2,-728.8"/>
<text text-anchor="start" x="466.2" y="-741" font-family="Arial" font-size="14.00">calendar_id </text>
<text text-anchor="start" x="542.47" y="-741" font-family="Arial" font-size="14.00" fill="#666666">[int(11)]</text>
</g>
<!-- users_external_calendars&#45;&gt;users -->
<g id="edge7" class="edge">
<title>users_external_calendars:user_id&#45;&gt;users:id</title>
<path fill="none" stroke="black" d="M789.85,-773.4C814.81,-764.21 794.97,-717.33 778.6,-685.6 755.49,-640.79 709.76,-663.74 686.9,-618.8 645.29,-537.02 669.15,-212.6 760.9,-212.6"/>
<polygon fill="black" stroke="black" points="789.81,-773.41 779.24,-770.5 784.54,-774.23 780.26,-774.9 780.26,-774.9 780.26,-774.9 784.54,-774.23 780.62,-779.39 789.81,-773.41"/>
<text text-anchor="start" x="786.6" y="-785" font-family="Arial" font-size="10.00">FOREIGN KEY (user_id) REFERENCES users (id)</text>
</g>
<!-- users_external_calendars&#45;&gt;calendars -->
<g id="edge6" class="edge">
<title>users_external_calendars:calendar_id&#45;&gt;calendars:id</title>
<path fill="none" stroke="black" d="M448.36,-741.47C436.45,-732.57 447.48,-703.95 459.2,-685.6 495.86,-628.2 560.64,-676.32 597.12,-618.8 619.55,-583.44 639.99,-524.6 598.12,-524.6"/>
<polygon fill="black" stroke="black" points="448.24,-741.43 456.67,-748.45 453.38,-742.86 457.55,-744.02 457.55,-744.02 457.55,-744.02 453.38,-742.86 459.08,-739.77 448.24,-741.43"/>
<text text-anchor="start" x="256.72" y="-728.2" font-family="Arial" font-size="10.00">FOREIGN KEY (calendar_id) REFERENCES calendars (id)</text>
</g>
<!-- users_sessions -->
<g id="node7" class="node">
<title>users_sessions</title>
<polygon fill="#efefef" stroke="none" points="1141.15,-524.6 1141.15,-560.2 1384.64,-560.2 1384.64,-524.6 1141.15,-524.6"/>
<polygon fill="none" stroke="black" points="1141.15,-524.6 1141.15,-560.2 1384.64,-560.2 1384.64,-524.6 1141.15,-524.6"/>
<text text-anchor="start" x="1148.15" y="-538" font-family="Arial Bold" font-size="18.00">users_sessions</text>
<text text-anchor="start" x="1253.16" y="-538" font-family="Arial" font-size="14.00">    </text>
<text text-anchor="start" x="1284.27" y="-538" font-family="Arial" font-size="14.00" fill="#666666">[BASE TABLE]</text>
<polygon fill="none" stroke="black" points="1141.15,-493.8 1141.15,-524.6 1384.64,-524.6 1384.64,-493.8 1141.15,-493.8"/>
<text text-anchor="start" x="1148.15" y="-506" font-family="Arial" font-size="14.00">id </text>
<text text-anchor="start" x="1162.94" y="-506" font-family="Arial" font-size="14.00" fill="#666666">[binary(16)]</text>
<polygon fill="none" stroke="black" points="1141.15,-463 1141.15,-493.8 1384.64,-493.8 1384.64,-463 1141.15,-463"/>
<text text-anchor="start" x="1148.15" y="-475.2" font-family="Arial" font-size="14.00">user_id </text>
<text text-anchor="start" x="1197.96" y="-475.2" font-family="Arial" font-size="14.00" fill="#666666">[int(11)]</text>
<polygon fill="none" stroke="black" points="1141.15,-432.2 1141.15,-463 1384.64,-463 1384.64,-432.2 1141.15,-432.2"/>
<text text-anchor="start" x="1148.15" y="-444.4" font-family="Arial" font-size="14.00">email </text>
<text text-anchor="start" x="1185.5" y="-444.4" font-family="Arial" font-size="14.00" fill="#666666">[varchar(320)]</text>
<polygon fill="none" stroke="black" points="1141.15,-401.4 1141.15,-432.2 1384.64,-432.2 1384.64,-401.4 1141.15,-401.4"/>
<text text-anchor="start" x="1148.15" y="-413.6" font-family="Arial" font-size="14.00">expires_at </text>
<text text-anchor="start" x="1216.63" y="-413.6" font-family="Arial" font-size="14.00" fill="#666666">[datetime(6)]</text>
</g>
<!-- users_sessions&#45;&gt;users -->
<g id="edge8" class="edge">
<title>users_sessions:user_id&#45;&gt;users:id</title>
<path fill="none" stroke="black" d="M1129.76,-477.6C1079.63,-469.15 1115.51,-395.47 1083.9,-342.8 1045.35,-278.58 1051.8,-212.6 976.89,-212.6"/>
<polygon fill="black" stroke="black" points="1129.85,-477.61 1139.47,-482.86 1135.17,-478.02 1139.49,-478.35 1139.49,-478.35 1139.49,-478.35 1135.17,-478.02 1140.16,-473.89 1129.85,-477.61"/>
<text text-anchor="start" x="967.03" y="-462.4" font-family="Arial" font-size="10.00">FOREIGN KEY (user_id) REFERENCES users (id)</text>
</g>
</g>
</svg>
