<?xml version="1.0" encoding="UTF-8" standalone="no"?>
<!DOCTYPE svg PUBLIC "-//W3C//DTD SVG 1.1//EN"
 "http://www.w3.org/Graphics/SVG/1.1/DTD/svg11.dtd">
<!-- Generated by graphviz version 12.1.2 (20240928.0832)
 -->
<!-- Title: s25101270_countmein Pages: 1 -->
<svg width="2826pt" height="1374pt"
 viewBox="0.00 0.00 2825.82 1374.00" xmlns="http://www.w3.org/2000/svg" xmlns:xlink="http://www.w3.org/1999/xlink">
<g id="graph0" class="graph" transform="scale(1 1) rotate(0) translate(4 1370)">
<title>s25101270_countmein</title>
<polygon fill="white" stroke="none" points="-4,4 -4,-1370 2821.82,-1370 2821.82,4 -4,4"/>
<!-- member_moderations_history -->
<g id="node1" class="node">
<title>member_moderations_history</title>
<polygon fill="#efefef" stroke="none" points="956.99,-632.4 956.99,-668 1311.43,-668 1311.43,-632.4 956.99,-632.4"/>
<polygon fill="none" stroke="black" points="956.99,-632.4 956.99,-668 1311.43,-668 1311.43,-632.4 956.99,-632.4"/>
<text text-anchor="start" x="963.99" y="-645.8" font-family="Arial Bold" font-size="18.00">member_moderations_history</text>
<text text-anchor="start" x="1179.94" y="-645.8" font-family="Arial" font-size="14.00">    </text>
<text text-anchor="start" x="1211.06" y="-645.8" font-family="Arial" font-size="14.00" fill="#666666">[BASE TABLE]</text>
<polygon fill="none" stroke="black" points="956.99,-601.6 956.99,-632.4 1311.43,-632.4 1311.43,-601.6 956.99,-601.6"/>
<text text-anchor="start" x="963.99" y="-613.8" font-family="Arial" font-size="14.00">member_moderation_event_id </text>
<text text-anchor="start" x="1157.77" y="-613.8" font-family="Arial" font-size="14.00" fill="#666666">[bigint(20)]</text>
<polygon fill="none" stroke="black" points="956.99,-570.8 956.99,-601.6 1311.43,-601.6 1311.43,-570.8 956.99,-570.8"/>
<text text-anchor="start" x="963.99" y="-583" font-family="Arial" font-size="14.00">organization_id </text>
<text text-anchor="start" x="1062.84" y="-583" font-family="Arial" font-size="14.00" fill="#666666">[bigint(20)]</text>
<polygon fill="none" stroke="black" points="956.99,-540 956.99,-570.8 1311.43,-570.8 1311.43,-540 956.99,-540"/>
<text text-anchor="start" x="963.99" y="-552.2" font-family="Arial" font-size="14.00">member_user_id </text>
<text text-anchor="start" x="1072.93" y="-552.2" font-family="Arial" font-size="14.00" fill="#666666">[bigint(20)]</text>
<polygon fill="none" stroke="black" points="956.99,-509.2 956.99,-540 1311.43,-540 1311.43,-509.2 956.99,-509.2"/>
<text text-anchor="start" x="963.99" y="-521.4" font-family="Arial" font-size="14.00">admin_user_id </text>
<text text-anchor="start" x="1059.71" y="-521.4" font-family="Arial" font-size="14.00" fill="#666666">[bigint(20)]</text>
<polygon fill="none" stroke="black" points="956.99,-478.4 956.99,-509.2 1311.43,-509.2 1311.43,-478.4 956.99,-478.4"/>
<text text-anchor="start" x="963.99" y="-490.6" font-family="Arial" font-size="14.00">created_at </text>
<text text-anchor="start" x="1034.04" y="-490.6" font-family="Arial" font-size="14.00" fill="#666666">[datetime(6)]</text>
<polygon fill="none" stroke="black" points="956.99,-447.6 956.99,-478.4 1311.43,-478.4 1311.43,-447.6 956.99,-447.6"/>
<text text-anchor="start" x="963.99" y="-459.8" font-family="Arial" font-size="14.00">reason </text>
<text text-anchor="start" x="1010.68" y="-459.8" font-family="Arial" font-size="14.00" fill="#666666">[varchar(255)]</text>
<polygon fill="none" stroke="black" points="956.99,-416.8 956.99,-447.6 1311.43,-447.6 1311.43,-416.8 956.99,-416.8"/>
<text text-anchor="start" x="963.99" y="-429" font-family="Arial" font-size="14.00">expires_at </text>
<text text-anchor="start" x="1032.47" y="-429" font-family="Arial" font-size="14.00" fill="#666666">[datetime(6)]</text>
<polygon fill="none" stroke="black" points="956.99,-386 956.99,-416.8 1311.43,-416.8 1311.43,-386 956.99,-386"/>
<text text-anchor="start" x="963.99" y="-398.2" font-family="Arial" font-size="14.00">action </text>
<text text-anchor="start" x="1005.24" y="-398.2" font-family="Arial" font-size="14.00" fill="#666666">[enum(&#39;ban&#39;,&#39;unban&#39;)]</text>
</g>
<!-- users -->
<g id="node3" class="node">
<title>users</title>
<polygon fill="#efefef" stroke="none" points="1569.21,-228 1569.21,-263.6 1783.21,-263.6 1783.21,-228 1569.21,-228"/>
<polygon fill="none" stroke="black" points="1569.21,-228 1569.21,-263.6 1783.21,-263.6 1783.21,-228 1569.21,-228"/>
<text text-anchor="start" x="1595.47" y="-241.4" font-family="Arial Bold" font-size="18.00">users</text>
<text text-anchor="start" x="1632.46" y="-241.4" font-family="Arial" font-size="14.00">    </text>
<text text-anchor="start" x="1663.58" y="-241.4" font-family="Arial" font-size="14.00" fill="#666666">[BASE TABLE]</text>
<polygon fill="none" stroke="black" points="1569.21,-197.2 1569.21,-228 1783.21,-228 1783.21,-197.2 1569.21,-197.2"/>
<text text-anchor="start" x="1576.21" y="-209.4" font-family="Arial" font-size="14.00">user_id </text>
<text text-anchor="start" x="1626.02" y="-209.4" font-family="Arial" font-size="14.00" fill="#666666">[bigint(20)]</text>
<polygon fill="none" stroke="black" points="1569.21,-166.4 1569.21,-197.2 1783.21,-197.2 1783.21,-166.4 1569.21,-166.4"/>
<text text-anchor="start" x="1576.21" y="-178.6" font-family="Arial" font-size="14.00">email </text>
<text text-anchor="start" x="1613.56" y="-178.6" font-family="Arial" font-size="14.00" fill="#666666">[varchar(320)]</text>
<polygon fill="none" stroke="black" points="1569.21,-135.6 1569.21,-166.4 1783.21,-166.4 1783.21,-135.6 1569.21,-135.6"/>
<text text-anchor="start" x="1576.21" y="-147.8" font-family="Arial" font-size="14.00">first_name </text>
<text text-anchor="start" x="1645.46" y="-147.8" font-family="Arial" font-size="14.00" fill="#666666">[varchar(255)]</text>
<polygon fill="none" stroke="black" points="1569.21,-104.8 1569.21,-135.6 1783.21,-135.6 1783.21,-104.8 1569.21,-104.8"/>
<text text-anchor="start" x="1576.21" y="-117" font-family="Arial" font-size="14.00">last_name </text>
<text text-anchor="start" x="1644.7" y="-117" font-family="Arial" font-size="14.00" fill="#666666">[varchar(255)]</text>
<polygon fill="none" stroke="black" points="1569.21,-74 1569.21,-104.8 1783.21,-104.8 1783.21,-74 1569.21,-74"/>
<text text-anchor="start" x="1576.21" y="-86.2" font-family="Arial" font-size="14.00">password_hash </text>
<text text-anchor="start" x="1678.17" y="-86.2" font-family="Arial" font-size="14.00" fill="#666666">[varbinary(255)]</text>
<polygon fill="none" stroke="black" points="1569.21,-43.2 1569.21,-74 1783.21,-74 1783.21,-43.2 1569.21,-43.2"/>
<text text-anchor="start" x="1576.21" y="-55.4" font-family="Arial" font-size="14.00">middle_name </text>
<text text-anchor="start" x="1664.15" y="-55.4" font-family="Arial" font-size="14.00" fill="#666666">[varchar(255)]</text>
</g>
<!-- member_moderations_history&#45;&gt;users -->
<g id="edge1" class="edge">
<title>member_moderations_history:admin_user_id&#45;&gt;users:user_id</title>
<path fill="none" stroke="black" d="M1322.78,-523.92C1389.31,-514.42 1316.29,-407.15 1364.21,-342.8 1428.45,-256.53 1460.65,-212.6 1568.21,-212.6"/>
<polygon fill="black" stroke="black" points="1322.75,-523.92 1312.47,-520.09 1317.42,-524.27 1313.1,-524.56 1313.1,-524.56 1313.1,-524.56 1317.42,-524.27 1313.06,-529.07 1322.75,-523.92"/>
<text text-anchor="start" x="1319.43" y="-534.6" font-family="Arial" font-size="10.00">FOREIGN KEY (admin_user_id) REFERENCES users (user_id)</text>
</g>
<!-- member_moderations_history&#45;&gt;users -->
<g id="edge2" class="edge">
<title>member_moderations_history:member_user_id&#45;&gt;users:user_id</title>
<path fill="none" stroke="black" d="M1322.46,-554.86C1402.33,-545.57 1309.74,-418.97 1364.21,-342.8 1426.78,-255.31 1460.65,-212.6 1568.21,-212.6"/>
<polygon fill="black" stroke="black" points="1322.75,-554.84 1312.52,-550.89 1317.43,-555.13 1313.1,-555.36 1313.1,-555.36 1313.1,-555.36 1317.43,-555.13 1313.01,-559.88 1322.75,-554.84"/>
<text text-anchor="start" x="1319.43" y="-565.4" font-family="Arial" font-size="10.00">FOREIGN KEY (member_user_id) REFERENCES users (user_id)</text>
</g>
<!-- organizations -->
<g id="node12" class="node">
<title>organizations</title>
<polygon fill="#efefef" stroke="none" points="553.48,-212.6 553.48,-248.2 788.94,-248.2 788.94,-212.6 553.48,-212.6"/>
<polygon fill="none" stroke="black" points="553.48,-212.6 553.48,-248.2 788.94,-248.2 788.94,-212.6 553.48,-212.6"/>
<text text-anchor="start" x="560.48" y="-226" font-family="Arial Bold" font-size="18.00">organizations</text>
<text text-anchor="start" x="657.45" y="-226" font-family="Arial" font-size="14.00">    </text>
<text text-anchor="start" x="688.57" y="-226" font-family="Arial" font-size="14.00" fill="#666666">[BASE TABLE]</text>
<polygon fill="none" stroke="black" points="553.48,-181.8 553.48,-212.6 788.94,-212.6 788.94,-181.8 553.48,-181.8"/>
<text text-anchor="start" x="560.48" y="-194" font-family="Arial" font-size="14.00">organization_id </text>
<text text-anchor="start" x="659.33" y="-194" font-family="Arial" font-size="14.00" fill="#666666">[bigint(20)]</text>
<polygon fill="none" stroke="black" points="553.48,-151 553.48,-181.8 788.94,-181.8 788.94,-151 553.48,-151"/>
<text text-anchor="start" x="560.48" y="-163.2" font-family="Arial" font-size="14.00">name </text>
<text text-anchor="start" x="599.39" y="-163.2" font-family="Arial" font-size="14.00" fill="#666666">[varchar(255)]</text>
<polygon fill="none" stroke="black" points="553.48,-120.2 553.48,-151 788.94,-151 788.94,-120.2 553.48,-120.2"/>
<text text-anchor="start" x="560.48" y="-132.4" font-family="Arial" font-size="14.00">requires_join_request </text>
<text text-anchor="start" x="699.01" y="-132.4" font-family="Arial" font-size="14.00" fill="#666666">[tinyint(1)]</text>
<polygon fill="none" stroke="black" points="553.48,-89.4 553.48,-120.2 788.94,-120.2 788.94,-89.4 553.48,-89.4"/>
<text text-anchor="start" x="560.48" y="-101.6" font-family="Arial" font-size="14.00">created_at </text>
<text text-anchor="start" x="630.53" y="-101.6" font-family="Arial" font-size="14.00" fill="#666666">[datetime(6)]</text>
<polygon fill="none" stroke="black" points="553.48,-58.6 553.48,-89.4 788.94,-89.4 788.94,-58.6 553.48,-58.6"/>
<text text-anchor="start" x="560.48" y="-70.8" font-family="Arial" font-size="14.00">description </text>
<text text-anchor="start" x="632.07" y="-70.8" font-family="Arial" font-size="14.00" fill="#666666">[text]</text>
</g>
<!-- member_moderations_history&#45;&gt;organizations -->
<g id="edge3" class="edge">
<title>member_moderations_history:organization_id&#45;&gt;organizations:organization_id</title>
<path fill="none" stroke="black" d="M946.02,-583.74C904.05,-561.16 926.08,-389.56 904.21,-342.8 869.36,-268.29 872.2,-197.2 789.94,-197.2"/>
<polygon fill="black" stroke="black" points="945.95,-583.72 954.59,-590.49 951.13,-585 955.34,-586.04 955.34,-586.04 955.34,-586.04 951.13,-585 956.74,-581.75 945.95,-583.72"/>
<text text-anchor="start" x="962.99" y="-596.2" font-family="Arial" font-size="10.00">FOREIGN KEY (organization_id) REFERENCES organizations (organization_id)</text>
</g>
<!-- organization_members_history -->
<g id="node2" class="node">
<title>organization_members_history</title>
<polygon fill="#efefef" stroke="none" points="489.99,-586.2 489.99,-621.8 852.43,-621.8 852.43,-586.2 489.99,-586.2"/>
<polygon fill="none" stroke="black" points="489.99,-586.2 489.99,-621.8 852.43,-621.8 852.43,-586.2 489.99,-586.2"/>
<text text-anchor="start" x="496.99" y="-599.6" font-family="Arial Bold" font-size="18.00">organization_members_history</text>
<text text-anchor="start" x="720.94" y="-599.6" font-family="Arial" font-size="14.00">    </text>
<text text-anchor="start" x="752.06" y="-599.6" font-family="Arial" font-size="14.00" fill="#666666">[BASE TABLE]</text>
<polygon fill="none" stroke="black" points="489.99,-555.4 489.99,-586.2 852.43,-586.2 852.43,-555.4 489.99,-555.4"/>
<text text-anchor="start" x="496.99" y="-567.6" font-family="Arial" font-size="14.00">organization_member_event_id </text>
<text text-anchor="start" x="697.01" y="-567.6" font-family="Arial" font-size="14.00" fill="#666666">[bigint(20)]</text>
<polygon fill="none" stroke="black" points="489.99,-524.6 489.99,-555.4 852.43,-555.4 852.43,-524.6 489.99,-524.6"/>
<text text-anchor="start" x="496.99" y="-536.8" font-family="Arial" font-size="14.00">organization_id </text>
<text text-anchor="start" x="595.84" y="-536.8" font-family="Arial" font-size="14.00" fill="#666666">[bigint(20)]</text>
<polygon fill="none" stroke="black" points="489.99,-493.8 489.99,-524.6 852.43,-524.6 852.43,-493.8 489.99,-493.8"/>
<text text-anchor="start" x="496.99" y="-506" font-family="Arial" font-size="14.00">member_user_id </text>
<text text-anchor="start" x="605.93" y="-506" font-family="Arial" font-size="14.00" fill="#666666">[bigint(20)]</text>
<polygon fill="none" stroke="black" points="489.99,-463 489.99,-493.8 852.43,-493.8 852.43,-463 489.99,-463"/>
<text text-anchor="start" x="496.99" y="-475.2" font-family="Arial" font-size="14.00">added </text>
<text text-anchor="start" x="539.81" y="-475.2" font-family="Arial" font-size="14.00" fill="#666666">[tinyint(1)]</text>
<polygon fill="none" stroke="black" points="489.99,-432.2 489.99,-463 852.43,-463 852.43,-432.2 489.99,-432.2"/>
<text text-anchor="start" x="496.99" y="-444.4" font-family="Arial" font-size="14.00">created_at </text>
<text text-anchor="start" x="567.04" y="-444.4" font-family="Arial" font-size="14.00" fill="#666666">[datetime(6)]</text>
</g>
<!-- organization_members_history&#45;&gt;users -->
<g id="edge4" class="edge">
<title>organization_members_history:member_user_id&#45;&gt;users:user_id</title>
<path fill="none" stroke="black" d="M863.66,-508.4C923.08,-498.15 850.39,-392.01 905.21,-342.8 1016.95,-242.5 1418.07,-212.6 1568.21,-212.6"/>
<polygon fill="black" stroke="black" points="863.73,-508.39 853.41,-504.69 858.41,-508.81 854.1,-509.15 854.1,-509.15 854.1,-509.15 858.41,-508.81 854.11,-513.66 863.73,-508.39"/>
<text text-anchor="start" x="860.43" y="-519.2" font-family="Arial" font-size="10.00">FOREIGN KEY (member_user_id) REFERENCES users (user_id)</text>
</g>
<!-- organization_members_history&#45;&gt;organizations -->
<g id="edge5" class="edge">
<title>organization_members_history:organization_id&#45;&gt;organizations:organization_id</title>
<path fill="none" stroke="black" d="M863.41,-537.81C924.92,-508.62 863.78,-197.2 789.94,-197.2"/>
<polygon fill="black" stroke="black" points="863.52,-537.79 852.79,-535.53 858.31,-538.93 854.08,-539.86 854.08,-539.86 854.08,-539.86 858.31,-538.93 854.72,-544.32 863.52,-537.79"/>
<text text-anchor="start" x="860.43" y="-550" font-family="Arial" font-size="10.00">FOREIGN KEY (organization_id) REFERENCES organizations (organization_id)</text>
</g>
<!-- join_responses_history -->
<g id="node4" class="node">
<title>join_responses_history</title>
<polygon fill="#efefef" stroke="none" points="1269.97,-959.8 1269.97,-995.4 1574.45,-995.4 1574.45,-959.8 1269.97,-959.8"/>
<polygon fill="none" stroke="black" points="1269.97,-959.8 1269.97,-995.4 1574.45,-995.4 1574.45,-959.8 1269.97,-959.8"/>
<text text-anchor="start" x="1276.97" y="-973.2" font-family="Arial Bold" font-size="18.00">join_responses_history</text>
<text text-anchor="start" x="1442.96" y="-973.2" font-family="Arial" font-size="14.00">    </text>
<text text-anchor="start" x="1474.08" y="-973.2" font-family="Arial" font-size="14.00" fill="#666666">[BASE TABLE]</text>
<polygon fill="none" stroke="black" points="1269.97,-929 1269.97,-959.8 1574.45,-959.8 1574.45,-929 1269.97,-929"/>
<text text-anchor="start" x="1276.97" y="-941.2" font-family="Arial" font-size="14.00">join_response_event_id </text>
<text text-anchor="start" x="1428.75" y="-941.2" font-family="Arial" font-size="14.00" fill="#666666">[bigint(20)]</text>
<polygon fill="none" stroke="black" points="1269.97,-898.2 1269.97,-929 1574.45,-929 1574.45,-898.2 1269.97,-898.2"/>
<text text-anchor="start" x="1276.97" y="-910.4" font-family="Arial" font-size="14.00">join_prompt_event_id </text>
<text text-anchor="start" x="1414.73" y="-910.4" font-family="Arial" font-size="14.00" fill="#666666">[bigint(20)]</text>
<polygon fill="none" stroke="black" points="1269.97,-867.4 1269.97,-898.2 1574.45,-898.2 1574.45,-867.4 1269.97,-867.4"/>
<text text-anchor="start" x="1276.97" y="-879.6" font-family="Arial" font-size="14.00">user_id </text>
<text text-anchor="start" x="1326.78" y="-879.6" font-family="Arial" font-size="14.00" fill="#666666">[bigint(20)]</text>
<polygon fill="none" stroke="black" points="1269.97,-836.6 1269.97,-867.4 1574.45,-867.4 1574.45,-836.6 1269.97,-836.6"/>
<text text-anchor="start" x="1276.97" y="-848.8" font-family="Arial" font-size="14.00">response </text>
<text text-anchor="start" x="1338.45" y="-848.8" font-family="Arial" font-size="14.00" fill="#666666">[text]</text>
<polygon fill="none" stroke="black" points="1269.97,-805.8 1269.97,-836.6 1574.45,-836.6 1574.45,-805.8 1269.97,-805.8"/>
<text text-anchor="start" x="1276.97" y="-818" font-family="Arial" font-size="14.00">created_at </text>
<text text-anchor="start" x="1347.02" y="-818" font-family="Arial" font-size="14.00" fill="#666666">[datetime(6)]</text>
</g>
<!-- join_responses_history&#45;&gt;users -->
<g id="edge7" class="edge">
<title>join_responses_history:user_id&#45;&gt;users:user_id</title>
<path fill="none" stroke="black" d="M1585.84,-881.81C1632.98,-871.76 1581.97,-787.53 1627.21,-747.2 1675.49,-704.16 1727.6,-761.53 1768.21,-711.2 1785.61,-689.63 1811.92,-212.6 1784.21,-212.6"/>
<polygon fill="black" stroke="black" points="1585.74,-881.82 1575.36,-878.29 1580.43,-882.33 1576.12,-882.74 1576.12,-882.74 1576.12,-882.74 1580.43,-882.33 1576.21,-887.25 1585.74,-881.82"/>
<text text-anchor="start" x="1582.45" y="-892.8" font-family="Arial" font-size="10.00">FOREIGN KEY (user_id) REFERENCES users (user_id)</text>
</g>
<!-- join_prompts_history -->
<g id="node6" class="node">
<title>join_prompts_history</title>
<polygon fill="#efefef" stroke="none" points="92.46,-586.2 92.46,-621.8 385.96,-621.8 385.96,-586.2 92.46,-586.2"/>
<polygon fill="none" stroke="black" points="92.46,-586.2 92.46,-621.8 385.96,-621.8 385.96,-586.2 92.46,-586.2"/>
<text text-anchor="start" x="99.46" y="-599.6" font-family="Arial Bold" font-size="18.00">join_prompts_history</text>
<text text-anchor="start" x="254.47" y="-599.6" font-family="Arial" font-size="14.00">    </text>
<text text-anchor="start" x="285.59" y="-599.6" font-family="Arial" font-size="14.00" fill="#666666">[BASE TABLE]</text>
<polygon fill="none" stroke="black" points="92.46,-555.4 92.46,-586.2 385.96,-586.2 385.96,-555.4 92.46,-555.4"/>
<text text-anchor="start" x="99.46" y="-567.6" font-family="Arial" font-size="14.00">join_prompt_event_id </text>
<text text-anchor="start" x="237.22" y="-567.6" font-family="Arial" font-size="14.00" fill="#666666">[bigint(20)]</text>
<polygon fill="none" stroke="black" points="92.46,-524.6 92.46,-555.4 385.96,-555.4 385.96,-524.6 92.46,-524.6"/>
<text text-anchor="start" x="99.46" y="-536.8" font-family="Arial" font-size="14.00">organization_id </text>
<text text-anchor="start" x="198.31" y="-536.8" font-family="Arial" font-size="14.00" fill="#666666">[bigint(20)]</text>
<polygon fill="none" stroke="black" points="92.46,-493.8 92.46,-524.6 385.96,-524.6 385.96,-493.8 92.46,-493.8"/>
<text text-anchor="start" x="99.46" y="-506" font-family="Arial" font-size="14.00">owner_user_id </text>
<text text-anchor="start" x="195.19" y="-506" font-family="Arial" font-size="14.00" fill="#666666">[bigint(20)]</text>
<polygon fill="none" stroke="black" points="92.46,-463 92.46,-493.8 385.96,-493.8 385.96,-463 92.46,-463"/>
<text text-anchor="start" x="99.46" y="-475.2" font-family="Arial" font-size="14.00">prompt </text>
<text text-anchor="start" x="146.93" y="-475.2" font-family="Arial" font-size="14.00" fill="#666666">[text]</text>
<polygon fill="none" stroke="black" points="92.46,-432.2 92.46,-463 385.96,-463 385.96,-432.2 92.46,-432.2"/>
<text text-anchor="start" x="99.46" y="-444.4" font-family="Arial" font-size="14.00">created_at </text>
<text text-anchor="start" x="169.51" y="-444.4" font-family="Arial" font-size="14.00" fill="#666666">[datetime(6)]</text>
</g>
<!-- join_responses_history&#45;&gt;join_prompts_history -->
<g id="edge6" class="edge">
<title>join_responses_history:join_prompt_event_id&#45;&gt;join_prompts_history:join_prompt_event_id</title>
<path fill="none" stroke="black" d="M1258.67,-913.53C1061.52,-910.92 577.33,-835.67 438.21,-711.2 388.71,-666.91 453.39,-570.8 386.96,-570.8"/>
<polygon fill="black" stroke="black" points="1258.64,-913.53 1268.61,-918.1 1263.97,-913.57 1268.3,-913.6 1268.3,-913.6 1268.3,-913.6 1263.97,-913.57 1268.67,-909.1 1258.64,-913.53"/>
<text text-anchor="start" x="817.34" y="-923.6" font-family="Arial" font-size="10.00">FOREIGN KEY (join_prompt_event_id) REFERENCES join_prompts_history (join_prompt_event_id)</text>
</g>
<!-- calendars -->
<g id="node5" class="node">
<title>calendars</title>
<polygon fill="#efefef" stroke="none" points="2243.99,-586.2 2243.99,-621.8 2450.43,-621.8 2450.43,-586.2 2243.99,-586.2"/>
<polygon fill="none" stroke="black" points="2243.99,-586.2 2243.99,-621.8 2450.43,-621.8 2450.43,-586.2 2243.99,-586.2"/>
<text text-anchor="start" x="2250.99" y="-599.6" font-family="Arial Bold" font-size="18.00">calendars</text>
<text text-anchor="start" x="2318.94" y="-599.6" font-family="Arial" font-size="14.00">    </text>
<text text-anchor="start" x="2350.06" y="-599.6" font-family="Arial" font-size="14.00" fill="#666666">[BASE TABLE]</text>
<polygon fill="none" stroke="black" points="2243.99,-555.4 2243.99,-586.2 2450.43,-586.2 2450.43,-555.4 2243.99,-555.4"/>
<text text-anchor="start" x="2250.99" y="-567.6" font-family="Arial" font-size="14.00">calendar_id </text>
<text text-anchor="start" x="2327.26" y="-567.6" font-family="Arial" font-size="14.00" fill="#666666">[bigint(20)]</text>
<polygon fill="none" stroke="black" points="2243.99,-524.6 2243.99,-555.4 2450.43,-555.4 2450.43,-524.6 2243.99,-524.6"/>
<text text-anchor="start" x="2250.99" y="-536.8" font-family="Arial" font-size="14.00">owner_user_id </text>
<text text-anchor="start" x="2346.71" y="-536.8" font-family="Arial" font-size="14.00" fill="#666666">[bigint(20)]</text>
<polygon fill="none" stroke="black" points="2243.99,-493.8 2243.99,-524.6 2450.43,-524.6 2450.43,-493.8 2243.99,-493.8"/>
<text text-anchor="start" x="2250.99" y="-506" font-family="Arial" font-size="14.00">name </text>
<text text-anchor="start" x="2289.9" y="-506" font-family="Arial" font-size="14.00" fill="#666666">[varchar(255)]</text>
<polygon fill="none" stroke="black" points="2243.99,-463 2243.99,-493.8 2450.43,-493.8 2450.43,-463 2243.99,-463"/>
<text text-anchor="start" x="2250.99" y="-475.2" font-family="Arial" font-size="14.00">color </text>
<text text-anchor="start" x="2285.22" y="-475.2" font-family="Arial" font-size="14.00" fill="#666666">[varchar(6)]</text>
<polygon fill="none" stroke="black" points="2243.99,-432.2 2243.99,-463 2450.43,-463 2450.43,-432.2 2243.99,-432.2"/>
<text text-anchor="start" x="2250.99" y="-444.4" font-family="Arial" font-size="14.00">description </text>
<text text-anchor="start" x="2322.58" y="-444.4" font-family="Arial" font-size="14.00" fill="#666666">[text]</text>
</g>
<!-- calendars&#45;&gt;users -->
<g id="edge8" class="edge">
<title>calendars:owner_user_id&#45;&gt;users:user_id</title>
<path fill="none" stroke="black" d="M2232.8,-539.35C2160.57,-529.33 2251.81,-405.89 2192.21,-342.8 2126.86,-273.62 1879.38,-212.6 1784.21,-212.6"/>
<polygon fill="black" stroke="black" points="2232.67,-539.34 2242.37,-544.47 2238,-539.68 2242.32,-539.96 2242.32,-539.96 2242.32,-539.96 2238,-539.68 2242.94,-535.49 2232.67,-539.34"/>
<text text-anchor="start" x="2249.99" y="-550" font-family="Arial" font-size="10.00">FOREIGN KEY (owner_user_id) REFERENCES users (user_id)</text>
</g>
<!-- join_prompts_history&#45;&gt;users -->
<g id="edge10" class="edge">
<title>join_prompts_history:owner_user_id&#45;&gt;users:user_id</title>
<path fill="none" stroke="black" d="M397.16,-508.38C456.27,-497.87 381,-389.11 438.21,-342.8 508.09,-286.23 751.83,-316.58 841.21,-306.8 1165.09,-271.36 1242.4,-212.6 1568.21,-212.6"/>
<polygon fill="black" stroke="black" points="397.26,-508.37 386.93,-504.69 391.94,-508.8 387.62,-509.15 387.62,-509.15 387.62,-509.15 391.94,-508.8 387.65,-513.66 397.26,-508.37"/>
<text text-anchor="start" x="244.97" y="-493.2" font-family="Arial" font-size="10.00">FOREIGN KEY (owner_user_id) REFERENCES users (user_id)</text>
</g>
<!-- join_prompts_history&#45;&gt;organizations -->
<g id="edge9" class="edge">
<title>join_prompts_history:organization_id&#45;&gt;organizations:organization_id</title>
<path fill="none" stroke="black" d="M397.26,-539.42C471.19,-530.54 399.67,-420.62 438.21,-342.8 474.72,-269.08 470.22,-197.2 552.48,-197.2"/>
<polygon fill="black" stroke="black" points="397.28,-539.42 387.04,-535.49 391.95,-539.72 387.63,-539.96 387.63,-539.96 387.63,-539.96 391.95,-539.72 387.54,-544.47 397.28,-539.42"/>
<text text-anchor="start" x="23.7" y="-550" font-family="Arial" font-size="10.00">FOREIGN KEY (organization_id) REFERENCES organizations (organization_id)</text>
</g>
<!-- join_requests_history -->
<g id="node7" class="node">
<title>join_requests_history</title>
<polygon fill="#efefef" stroke="none" points="1849.38,-1287.2 1849.38,-1322.8 2175.05,-1322.8 2175.05,-1287.2 1849.38,-1287.2"/>
<polygon fill="none" stroke="black" points="1849.38,-1287.2 1849.38,-1322.8 2175.05,-1322.8 2175.05,-1287.2 1849.38,-1287.2"/>
<text text-anchor="start" x="1872.47" y="-1300.6" font-family="Arial Bold" font-size="18.00">join_requests_history</text>
<text text-anchor="start" x="2027.46" y="-1300.6" font-family="Arial" font-size="14.00">    </text>
<text text-anchor="start" x="2058.58" y="-1300.6" font-family="Arial" font-size="14.00" fill="#666666">[BASE TABLE]</text>
<polygon fill="none" stroke="black" points="1849.38,-1256.4 1849.38,-1287.2 2175.05,-1287.2 2175.05,-1256.4 1849.38,-1256.4"/>
<text text-anchor="start" x="1856.38" y="-1268.6" font-family="Arial" font-size="14.00">join_request_event_id </text>
<text text-anchor="start" x="1997.26" y="-1268.6" font-family="Arial" font-size="14.00" fill="#666666">[bigint(20)]</text>
<polygon fill="none" stroke="black" points="1849.38,-1225.6 1849.38,-1256.4 2175.05,-1256.4 2175.05,-1225.6 1849.38,-1225.6"/>
<text text-anchor="start" x="1856.38" y="-1237.8" font-family="Arial" font-size="14.00">join_response_event_id </text>
<text text-anchor="start" x="2008.15" y="-1237.8" font-family="Arial" font-size="14.00" fill="#666666">[bigint(20)]</text>
<polygon fill="none" stroke="black" points="1849.38,-1194.8 1849.38,-1225.6 2175.05,-1225.6 2175.05,-1194.8 1849.38,-1194.8"/>
<text text-anchor="start" x="1856.38" y="-1207" font-family="Arial" font-size="14.00">admin_user_id </text>
<text text-anchor="start" x="1952.1" y="-1207" font-family="Arial" font-size="14.00" fill="#666666">[bigint(20)]</text>
<polygon fill="none" stroke="black" points="1849.38,-1164 1849.38,-1194.8 2175.05,-1194.8 2175.05,-1164 1849.38,-1164"/>
<text text-anchor="start" x="1856.38" y="-1176.2" font-family="Arial" font-size="14.00">created_at </text>
<text text-anchor="start" x="1926.42" y="-1176.2" font-family="Arial" font-size="14.00" fill="#666666">[datetime(6)]</text>
<polygon fill="none" stroke="black" points="1849.38,-1133.2 1849.38,-1164 2175.05,-1164 2175.05,-1133.2 1849.38,-1133.2"/>
<text text-anchor="start" x="1856.38" y="-1145.4" font-family="Arial" font-size="14.00">status </text>
<text text-anchor="start" x="1897.62" y="-1145.4" font-family="Arial" font-size="14.00" fill="#666666">[enum(&#39;open&#39;,&#39;retracted&#39;,&#39;denied&#39;,&#39;accepted&#39;)]</text>
</g>
<!-- join_requests_history&#45;&gt;users -->
<g id="edge11" class="edge">
<title>join_requests_history:admin_user_id&#45;&gt;users:user_id</title>
<path fill="none" stroke="black" d="M2186.44,-1210.19C2358.66,-1209.87 2450.13,-1200.18 2547.21,-1054 2584.4,-998 2556.21,-370.28 2532.21,-342.8 2421.24,-215.71 1952.93,-212.6 1784.21,-212.6"/>
<polygon fill="black" stroke="black" points="2186.38,-1210.19 2176.38,-1205.7 2181.05,-1210.2 2176.72,-1210.2 2176.72,-1210.2 2176.72,-1210.2 2181.05,-1210.2 2176.39,-1214.7 2186.38,-1210.19"/>
<text text-anchor="start" x="2183.05" y="-1220.2" font-family="Arial" font-size="10.00">FOREIGN KEY (admin_user_id) REFERENCES users (user_id)</text>
</g>
<!-- join_requests_history&#45;&gt;join_responses_history -->
<g id="edge12" class="edge">
<title>join_requests_history:join_response_event_id&#45;&gt;join_responses_history:join_response_event_id</title>
<path fill="none" stroke="black" d="M1838.07,-1240.81C1718.84,-1236.34 1703.49,-1153.29 1627.21,-1054 1594.39,-1011.28 1629.32,-944.4 1575.45,-944.4"/>
<polygon fill="black" stroke="black" points="1838.04,-1240.81 1847.96,-1245.49 1843.38,-1240.91 1847.71,-1240.99 1847.71,-1240.99 1847.71,-1240.99 1843.38,-1240.91 1848.12,-1236.49 1838.04,-1240.81"/>
<text text-anchor="start" x="1366.7" y="-1251" font-family="Arial" font-size="10.00">FOREIGN KEY (join_response_event_id) REFERENCES join_responses_history (join_response_event_id)</text>
</g>
<!-- organization_calendars_history -->
<g id="node8" class="node">
<title>organization_calendars_history</title>
<polygon fill="#efefef" stroke="none" points="1679.01,-975.2 1679.01,-1010.8 2043.42,-1010.8 2043.42,-975.2 1679.01,-975.2"/>
<polygon fill="none" stroke="black" points="1679.01,-975.2 1679.01,-1010.8 2043.42,-1010.8 2043.42,-975.2 1679.01,-975.2"/>
<text text-anchor="start" x="1686.01" y="-988.6" font-family="Arial Bold" font-size="18.00">organization_calendars_history</text>
<text text-anchor="start" x="1911.93" y="-988.6" font-family="Arial" font-size="14.00">    </text>
<text text-anchor="start" x="1943.05" y="-988.6" font-family="Arial" font-size="14.00" fill="#666666">[BASE TABLE]</text>
<polygon fill="none" stroke="black" points="1679.01,-944.4 1679.01,-975.2 2043.42,-975.2 2043.42,-944.4 1679.01,-944.4"/>
<text text-anchor="start" x="1686.01" y="-956.6" font-family="Arial" font-size="14.00">organization_calendar_event_id </text>
<text text-anchor="start" x="1888.38" y="-956.6" font-family="Arial" font-size="14.00" fill="#666666">[bigint(20)]</text>
<polygon fill="none" stroke="black" points="1679.01,-913.6 1679.01,-944.4 2043.42,-944.4 2043.42,-913.6 1679.01,-913.6"/>
<text text-anchor="start" x="1686.01" y="-925.8" font-family="Arial" font-size="14.00">organization_id </text>
<text text-anchor="start" x="1784.85" y="-925.8" font-family="Arial" font-size="14.00" fill="#666666">[bigint(20)]</text>
<polygon fill="none" stroke="black" points="1679.01,-882.8 1679.01,-913.6 2043.42,-913.6 2043.42,-882.8 1679.01,-882.8"/>
<text text-anchor="start" x="1686.01" y="-895" font-family="Arial" font-size="14.00">calendar_id </text>
<text text-anchor="start" x="1762.28" y="-895" font-family="Arial" font-size="14.00" fill="#666666">[bigint(20)]</text>
<polygon fill="none" stroke="black" points="1679.01,-852 1679.01,-882.8 2043.42,-882.8 2043.42,-852 1679.01,-852"/>
<text text-anchor="start" x="1686.01" y="-864.2" font-family="Arial" font-size="14.00">admin_user_id </text>
<text text-anchor="start" x="1781.73" y="-864.2" font-family="Arial" font-size="14.00" fill="#666666">[bigint(20)]</text>
<polygon fill="none" stroke="black" points="1679.01,-821.2 1679.01,-852 2043.42,-852 2043.42,-821.2 1679.01,-821.2"/>
<text text-anchor="start" x="1686.01" y="-833.4" font-family="Arial" font-size="14.00">added </text>
<text text-anchor="start" x="1728.83" y="-833.4" font-family="Arial" font-size="14.00" fill="#666666">[tinyint(1)]</text>
<polygon fill="none" stroke="black" points="1679.01,-790.4 1679.01,-821.2 2043.42,-821.2 2043.42,-790.4 1679.01,-790.4"/>
<text text-anchor="start" x="1686.01" y="-802.6" font-family="Arial" font-size="14.00">created_at </text>
<text text-anchor="start" x="1756.05" y="-802.6" font-family="Arial" font-size="14.00" fill="#666666">[datetime(6)]</text>
</g>
<!-- organization_calendars_history&#45;&gt;users -->
<g id="edge13" class="edge">
<title>organization_calendars_history:admin_user_id&#45;&gt;users:user_id</title>
<path fill="none" stroke="black" d="M1667.84,-866.29C1627.76,-856.67 1649.09,-786.85 1679.01,-747.2 1713.11,-702 1767.3,-756.54 1801.21,-711.2 1834.41,-666.81 1839.64,-212.6 1784.21,-212.6"/>
<polygon fill="black" stroke="black" points="1667.73,-866.28 1677.18,-871.84 1673.03,-866.86 1677.34,-867.33 1677.34,-867.33 1677.34,-867.33 1673.03,-866.86 1678.16,-862.89 1667.73,-866.28"/>
<text text-anchor="start" x="1685.01" y="-851.4" font-family="Arial" font-size="10.00">FOREIGN KEY (admin_user_id) REFERENCES users (user_id)</text>
</g>
<!-- organization_calendars_history&#45;&gt;calendars -->
<g id="edge14" class="edge">
<title>organization_calendars_history:calendar_id&#45;&gt;calendars:calendar_id</title>
<path fill="none" stroke="black" d="M2054.52,-897.58C2117.82,-889.29 2079.34,-799.67 2131.21,-747.2 2153.34,-724.81 2172.12,-735.43 2192.21,-711.2 2234.57,-660.12 2176.63,-570.8 2242.99,-570.8"/>
<polygon fill="black" stroke="black" points="2054.73,-897.57 2044.48,-893.69 2049.41,-897.89 2045.08,-898.16 2045.08,-898.16 2045.08,-898.16 2049.41,-897.89 2045.03,-902.67 2054.73,-897.57"/>
<text text-anchor="start" x="2051.42" y="-908.2" font-family="Arial" font-size="10.00">FOREIGN KEY (calendar_id) REFERENCES calendars (calendar_id)</text>
</g>
<!-- organization_calendars_history&#45;&gt;organizations -->
<g id="edge15" class="edge">
<title>organization_calendars_history:organization_id&#45;&gt;organizations:organization_id</title>
<path fill="none" stroke="black" d="M1667.76,-928.23C1602.52,-917.44 1689.7,-796.27 1626.21,-747.2 1556.48,-693.3 101.82,-774.22 40.21,-711.2 -17.02,-652.66 -9.13,-408.12 40.21,-342.8 111.54,-248.37 434.13,-197.2 552.48,-197.2"/>
<polygon fill="black" stroke="black" points="1667.7,-928.22 1677.33,-933.46 1673.02,-928.63 1677.34,-928.95 1677.34,-928.95 1677.34,-928.95 1673.02,-928.63 1678.01,-924.49 1667.7,-928.22"/>
<text text-anchor="start" x="1685.01" y="-939" font-family="Arial" font-size="10.00">FOREIGN KEY (organization_id) REFERENCES organizations (organization_id)</text>
</g>
<!-- users_sessions -->
<g id="node9" class="node">
<title>users_sessions</title>
<polygon fill="#efefef" stroke="none" points="1896.46,-555.4 1896.46,-591 2139.96,-591 2139.96,-555.4 1896.46,-555.4"/>
<polygon fill="none" stroke="black" points="1896.46,-555.4 1896.46,-591 2139.96,-591 2139.96,-555.4 1896.46,-555.4"/>
<text text-anchor="start" x="1903.46" y="-568.8" font-family="Arial Bold" font-size="18.00">users_sessions</text>
<text text-anchor="start" x="2008.47" y="-568.8" font-family="Arial" font-size="14.00">    </text>
<text text-anchor="start" x="2039.59" y="-568.8" font-family="Arial" font-size="14.00" fill="#666666">[BASE TABLE]</text>
<polygon fill="none" stroke="black" points="1896.46,-524.6 1896.46,-555.4 2139.96,-555.4 2139.96,-524.6 1896.46,-524.6"/>
<text text-anchor="start" x="1903.46" y="-536.8" font-family="Arial" font-size="14.00">session_hash </text>
<text text-anchor="start" x="1992.97" y="-536.8" font-family="Arial" font-size="14.00" fill="#666666">[binary(32)]</text>
<polygon fill="none" stroke="black" points="1896.46,-493.8 1896.46,-524.6 2139.96,-524.6 2139.96,-493.8 1896.46,-493.8"/>
<text text-anchor="start" x="1903.46" y="-506" font-family="Arial" font-size="14.00">user_id </text>
<text text-anchor="start" x="1953.27" y="-506" font-family="Arial" font-size="14.00" fill="#666666">[bigint(20)]</text>
<polygon fill="none" stroke="black" points="1896.46,-463 1896.46,-493.8 2139.96,-493.8 2139.96,-463 1896.46,-463"/>
<text text-anchor="start" x="1903.46" y="-475.2" font-family="Arial" font-size="14.00">expires_at </text>
<text text-anchor="start" x="1971.95" y="-475.2" font-family="Arial" font-size="14.00" fill="#666666">[datetime(6)]</text>
</g>
<!-- users_sessions&#45;&gt;users -->
<g id="edge16" class="edge">
<title>users_sessions:user_id&#45;&gt;users:user_id</title>
<path fill="none" stroke="black" d="M1885.31,-508.6C1821.87,-500.49 1865.62,-412.36 1839.21,-342.8 1816.91,-284.07 1847.03,-212.6 1784.21,-212.6"/>
<polygon fill="black" stroke="black" points="1885.15,-508.59 1894.86,-513.67 1890.47,-508.9 1894.8,-509.16 1894.8,-509.16 1894.8,-509.16 1890.47,-508.9 1895.4,-504.69 1885.15,-508.59"/>
<text text-anchor="start" x="1769.88" y="-493.2" font-family="Arial" font-size="10.00">FOREIGN KEY (user_id) REFERENCES users (user_id)</text>
</g>
<!-- member_roles_history -->
<g id="node10" class="node">
<title>member_roles_history</title>
<polygon fill="#efefef" stroke="none" points="1415.98,-601.6 1415.98,-637.2 1716.44,-637.2 1716.44,-601.6 1415.98,-601.6"/>
<polygon fill="none" stroke="black" points="1415.98,-601.6 1415.98,-637.2 1716.44,-637.2 1716.44,-601.6 1415.98,-601.6"/>
<text text-anchor="start" x="1422.98" y="-615" font-family="Arial Bold" font-size="18.00">member_roles_history</text>
<text text-anchor="start" x="1584.95" y="-615" font-family="Arial" font-size="14.00">    </text>
<text text-anchor="start" x="1616.07" y="-615" font-family="Arial" font-size="14.00" fill="#666666">[BASE TABLE]</text>
<polygon fill="none" stroke="black" points="1415.98,-570.8 1415.98,-601.6 1716.44,-601.6 1716.44,-570.8 1415.98,-570.8"/>
<text text-anchor="start" x="1422.98" y="-583" font-family="Arial" font-size="14.00">member_role_event_id </text>
<text text-anchor="start" x="1570.07" y="-583" font-family="Arial" font-size="14.00" fill="#666666">[bigint(20)]</text>
<polygon fill="none" stroke="black" points="1415.98,-540 1415.98,-570.8 1716.44,-570.8 1716.44,-540 1415.98,-540"/>
<text text-anchor="start" x="1422.98" y="-552.2" font-family="Arial" font-size="14.00">organization_id </text>
<text text-anchor="start" x="1521.83" y="-552.2" font-family="Arial" font-size="14.00" fill="#666666">[bigint(20)]</text>
<polygon fill="none" stroke="black" points="1415.98,-509.2 1415.98,-540 1716.44,-540 1716.44,-509.2 1415.98,-509.2"/>
<text text-anchor="start" x="1422.98" y="-521.4" font-family="Arial" font-size="14.00">member_user_id </text>
<text text-anchor="start" x="1531.92" y="-521.4" font-family="Arial" font-size="14.00" fill="#666666">[bigint(20)]</text>
<polygon fill="none" stroke="black" points="1415.98,-478.4 1415.98,-509.2 1716.44,-509.2 1716.44,-478.4 1415.98,-478.4"/>
<text text-anchor="start" x="1422.98" y="-490.6" font-family="Arial" font-size="14.00">owner_user_id </text>
<text text-anchor="start" x="1518.71" y="-490.6" font-family="Arial" font-size="14.00" fill="#666666">[bigint(20)]</text>
<polygon fill="none" stroke="black" points="1415.98,-447.6 1415.98,-478.4 1716.44,-478.4 1716.44,-447.6 1415.98,-447.6"/>
<text text-anchor="start" x="1422.98" y="-459.8" font-family="Arial" font-size="14.00">created_at </text>
<text text-anchor="start" x="1493.03" y="-459.8" font-family="Arial" font-size="14.00" fill="#666666">[datetime(6)]</text>
<polygon fill="none" stroke="black" points="1415.98,-416.8 1415.98,-447.6 1716.44,-447.6 1716.44,-416.8 1415.98,-416.8"/>
<text text-anchor="start" x="1422.98" y="-429" font-family="Arial" font-size="14.00">role </text>
<text text-anchor="start" x="1450.22" y="-429" font-family="Arial" font-size="14.00" fill="#666666">[enum(&#39;owner&#39;,&#39;admin&#39;,&#39;user&#39;)]</text>
</g>
<!-- member_roles_history&#45;&gt;users -->
<g id="edge17" class="edge">
<title>member_roles_history:member_user_id&#45;&gt;users:user_id</title>
<path fill="none" stroke="black" d="M1727.58,-523.77C1781.08,-514.36 1750.98,-426.82 1716.44,-373.6 1677.32,-313.33 1608.46,-366.99 1569.21,-306.8 1546.35,-271.73 1526.35,-212.6 1568.21,-212.6"/>
<polygon fill="black" stroke="black" points="1727.74,-523.76 1717.41,-520.09 1722.42,-524.19 1718.1,-524.55 1718.1,-524.55 1718.1,-524.55 1722.42,-524.19 1718.14,-529.06 1727.74,-523.76"/>
<text text-anchor="start" x="1724.44" y="-534.6" font-family="Arial" font-size="10.00">FOREIGN KEY (member_user_id) REFERENCES users (user_id)</text>
</g>
<!-- member_roles_history&#45;&gt;users -->
<g id="edge19" class="edge">
<title>member_roles_history:owner_user_id&#45;&gt;users:user_id</title>
<path fill="none" stroke="black" d="M1727.57,-492.72C1767.29,-483.35 1743.52,-415.24 1716.44,-373.6 1677.27,-313.36 1608.46,-366.99 1569.21,-306.8 1546.35,-271.73 1526.35,-212.6 1568.21,-212.6"/>
<polygon fill="black" stroke="black" points="1727.71,-492.7 1717.29,-489.29 1722.41,-493.27 1718.1,-493.73 1718.1,-493.73 1718.1,-493.73 1722.41,-493.27 1718.25,-498.24 1727.71,-492.7"/>
<text text-anchor="start" x="1426.47" y="-503.8" font-family="Arial" font-size="10.00">FOREIGN KEY (owner_user_id) REFERENCES users (user_id)</text>
</g>
<!-- member_roles_history&#45;&gt;organizations -->
<g id="edge18" class="edge">
<title>member_roles_history:organization_id&#45;&gt;organizations:organization_id</title>
<path fill="none" stroke="black" d="M1405.01,-554.82C1325.94,-544.85 1429.1,-409.34 1363.21,-342.8 1270.73,-249.4 921.38,-197.2 789.94,-197.2"/>
<polygon fill="black" stroke="black" points="1404.67,-554.8 1414.39,-559.87 1409.99,-555.11 1414.32,-555.36 1414.32,-555.36 1414.32,-555.36 1409.99,-555.11 1414.91,-550.89 1404.67,-554.8"/>
<text text-anchor="start" x="1421.98" y="-565.4" font-family="Arial" font-size="10.00">FOREIGN KEY (organization_id) REFERENCES organizations (organization_id)</text>
</g>
<!-- calendar_writes_history -->
<g id="node11" class="node">
<title>calendar_writes_history</title>
<polygon fill="#efefef" stroke="none" points="2183.5,-959.8 2183.5,-995.4 2494.93,-995.4 2494.93,-959.8 2183.5,-959.8"/>
<polygon fill="none" stroke="black" points="2183.5,-959.8 2183.5,-995.4 2494.93,-995.4 2494.93,-959.8 2183.5,-959.8"/>
<text text-anchor="start" x="2190.5" y="-973.2" font-family="Arial Bold" font-size="18.00">calendar_writes_history</text>
<text text-anchor="start" x="2363.44" y="-973.2" font-family="Arial" font-size="14.00">    </text>
<text text-anchor="start" x="2394.55" y="-973.2" font-family="Arial" font-size="14.00" fill="#666666">[BASE TABLE]</text>
<polygon fill="none" stroke="black" points="2183.5,-929 2183.5,-959.8 2494.93,-959.8 2494.93,-929 2183.5,-929"/>
<text text-anchor="start" x="2190.5" y="-941.2" font-family="Arial" font-size="14.00">calendar_write_event_id </text>
<text text-anchor="start" x="2346.15" y="-941.2" font-family="Arial" font-size="14.00" fill="#666666">[bigint(20)]</text>
<polygon fill="none" stroke="black" points="2183.5,-898.2 2183.5,-929 2494.93,-929 2494.93,-898.2 2183.5,-898.2"/>
<text text-anchor="start" x="2190.5" y="-910.4" font-family="Arial" font-size="14.00">calendar_id </text>
<text text-anchor="start" x="2266.77" y="-910.4" font-family="Arial" font-size="14.00" fill="#666666">[bigint(20)]</text>
<polygon fill="none" stroke="black" points="2183.5,-867.4 2183.5,-898.2 2494.93,-898.2 2494.93,-867.4 2183.5,-867.4"/>
<text text-anchor="start" x="2190.5" y="-879.6" font-family="Arial" font-size="14.00">writer_user_id </text>
<text text-anchor="start" x="2282.31" y="-879.6" font-family="Arial" font-size="14.00" fill="#666666">[bigint(20)]</text>
<polygon fill="none" stroke="black" points="2183.5,-836.6 2183.5,-867.4 2494.93,-867.4 2494.93,-836.6 2183.5,-836.6"/>
<text text-anchor="start" x="2190.5" y="-848.8" font-family="Arial" font-size="14.00">ical_encrypted </text>
<text text-anchor="start" x="2284.66" y="-848.8" font-family="Arial" font-size="14.00" fill="#666666">[longblob]</text>
<polygon fill="none" stroke="black" points="2183.5,-805.8 2183.5,-836.6 2494.93,-836.6 2494.93,-805.8 2183.5,-805.8"/>
<text text-anchor="start" x="2190.5" y="-818" font-family="Arial" font-size="14.00">created_at </text>
<text text-anchor="start" x="2260.54" y="-818" font-family="Arial" font-size="14.00" fill="#666666">[datetime(6)]</text>
</g>
<!-- calendar_writes_history&#45;&gt;users -->
<g id="edge21" class="edge">
<title>calendar_writes_history:writer_user_id&#45;&gt;users:user_id</title>
<path fill="none" stroke="black" d="M2502.68,-875.37C2530.66,-815.05 2555.24,-406.31 2502.21,-342.8 2398.28,-218.33 1946.37,-212.6 1784.21,-212.6"/>
<polygon fill="black" stroke="black" points="2502.88,-875.15 2492.82,-879.53 2499.29,-879.1 2496.38,-882.3 2496.38,-882.3 2496.38,-882.3 2499.29,-879.1 2499.48,-885.58 2502.88,-875.15"/>
<text text-anchor="start" x="2502.93" y="-892.8" font-family="Arial" font-size="10.00">FOREIGN KEY (writer_user_id) REFERENCES users (user_id)</text>
</g>
<!-- calendar_writes_history&#45;&gt;calendars -->
<g id="edge20" class="edge">
<title>calendar_writes_history:calendar_id&#45;&gt;calendars:calendar_id</title>
<path fill="none" stroke="black" d="M2506.08,-912.76C2559.73,-903.25 2530.92,-814.84 2494.93,-762.6 2427.04,-664.05 2312.07,-763.41 2243.99,-665 2220.17,-630.57 2201.12,-570.8 2242.99,-570.8"/>
<polygon fill="black" stroke="black" points="2506.23,-912.75 2495.89,-909.09 2500.91,-913.19 2496.59,-913.55 2496.59,-913.55 2496.59,-913.55 2500.91,-913.19 2496.63,-918.06 2506.23,-912.75"/>
<text text-anchor="start" x="2502.93" y="-923.6" font-family="Arial" font-size="10.00">FOREIGN KEY (calendar_id) REFERENCES calendars (calendar_id)</text>
</g>
</g>
</svg>
