<?xml version="1.0" encoding="UTF-8" standalone="no"?>
<!DOCTYPE svg PUBLIC "-//W3C//DTD SVG 1.1//EN"
 "http://www.w3.org/Graphics/SVG/1.1/DTD/svg11.dtd">
<!-- Generated by graphviz version 12.1.2 (20240928.0832)
 -->
<!-- Title: s25101270_countmein Pages: 1 -->
<svg width="1161pt" height="939pt"
 viewBox="0.00 0.00 1160.84 938.80" xmlns="http://www.w3.org/2000/svg" xmlns:xlink="http://www.w3.org/1999/xlink">
<g id="graph0" class="graph" transform="scale(1 1) rotate(0) translate(4 934.8)">
<title>s25101270_countmein</title>
<polygon fill="white" stroke="none" points="-4,4 -4,-934.8 1156.84,-934.8 1156.84,4 -4,4"/>
<!-- users_calendars -->
<g id="node1" class="node">
<title>users_calendars</title>
<polygon fill="#efefef" stroke="none" points="43.2,-821.2 43.2,-856.8 295.64,-856.8 295.64,-821.2 43.2,-821.2"/>
<polygon fill="none" stroke="black" points="43.2,-821.2 43.2,-856.8 295.64,-856.8 295.64,-821.2 43.2,-821.2"/>
<text text-anchor="start" x="50.2" y="-834.6" font-family="Arial Bold" font-size="18.00">users_calendars</text>
<text text-anchor="start" x="164.15" y="-834.6" font-family="Arial" font-size="14.00">    </text>
<text text-anchor="start" x="195.27" y="-834.6" font-family="Arial" font-size="14.00" fill="#666666">[BASE TABLE]</text>
<polygon fill="none" stroke="black" points="43.2,-790.4 43.2,-821.2 295.64,-821.2 295.64,-790.4 43.2,-790.4"/>
<text text-anchor="start" x="50.2" y="-802.6" font-family="Arial" font-size="14.00">user_id </text>
<text text-anchor="start" x="100.01" y="-802.6" font-family="Arial" font-size="14.00" fill="#666666">[int(11)]</text>
<polygon fill="none" stroke="black" points="43.2,-759.6 43.2,-790.4 295.64,-790.4 295.64,-759.6 43.2,-759.6"/>
<text text-anchor="start" x="50.2" y="-771.8" font-family="Arial" font-size="14.00">calendar_id </text>
<text text-anchor="start" x="126.48" y="-771.8" font-family="Arial" font-size="14.00" fill="#666666">[int(11)]</text>
</g>
<!-- users -->
<g id="node3" class="node">
<title>users</title>
<polygon fill="#efefef" stroke="none" points="535.42,-228 535.42,-263.6 749.42,-263.6 749.42,-228 535.42,-228"/>
<polygon fill="none" stroke="black" points="535.42,-228 535.42,-263.6 749.42,-263.6 749.42,-228 535.42,-228"/>
<text text-anchor="start" x="561.68" y="-241.4" font-family="Arial Bold" font-size="18.00">users</text>
<text text-anchor="start" x="598.67" y="-241.4" font-family="Arial" font-size="14.00">    </text>
<text text-anchor="start" x="629.79" y="-241.4" font-family="Arial" font-size="14.00" fill="#666666">[BASE TABLE]</text>
<polygon fill="none" stroke="black" points="535.42,-197.2 535.42,-228 749.42,-228 749.42,-197.2 535.42,-197.2"/>
<text text-anchor="start" x="542.42" y="-209.4" font-family="Arial" font-size="14.00">id </text>
<text text-anchor="start" x="557.21" y="-209.4" font-family="Arial" font-size="14.00" fill="#666666">[int(11)]</text>
<polygon fill="none" stroke="black" points="535.42,-166.4 535.42,-197.2 749.42,-197.2 749.42,-166.4 535.42,-166.4"/>
<text text-anchor="start" x="542.42" y="-178.6" font-family="Arial" font-size="14.00">email </text>
<text text-anchor="start" x="579.77" y="-178.6" font-family="Arial" font-size="14.00" fill="#666666">[varchar(320)]</text>
<polygon fill="none" stroke="black" points="535.42,-135.6 535.42,-166.4 749.42,-166.4 749.42,-135.6 535.42,-135.6"/>
<text text-anchor="start" x="542.42" y="-147.8" font-family="Arial" font-size="14.00">first_name </text>
<text text-anchor="start" x="611.67" y="-147.8" font-family="Arial" font-size="14.00" fill="#666666">[varchar(255)]</text>
<polygon fill="none" stroke="black" points="535.42,-104.8 535.42,-135.6 749.42,-135.6 749.42,-104.8 535.42,-104.8"/>
<text text-anchor="start" x="542.42" y="-117" font-family="Arial" font-size="14.00">last_name </text>
<text text-anchor="start" x="610.91" y="-117" font-family="Arial" font-size="14.00" fill="#666666">[varchar(255)]</text>
<polygon fill="none" stroke="black" points="535.42,-74 535.42,-104.8 749.42,-104.8 749.42,-74 535.42,-74"/>
<text text-anchor="start" x="542.42" y="-86.2" font-family="Arial" font-size="14.00">password_hash </text>
<text text-anchor="start" x="644.37" y="-86.2" font-family="Arial" font-size="14.00" fill="#666666">[varbinary(255)]</text>
<polygon fill="none" stroke="black" points="535.42,-43.2 535.42,-74 749.42,-74 749.42,-43.2 535.42,-43.2"/>
<text text-anchor="start" x="542.42" y="-55.4" font-family="Arial" font-size="14.00">middle_name </text>
<text text-anchor="start" x="630.36" y="-55.4" font-family="Arial" font-size="14.00" fill="#666666">[varchar(255)]</text>
</g>
<!-- users_calendars&#45;&gt;users -->
<g id="edge2" class="edge">
<title>users_calendars:user_id&#45;&gt;users:id</title>
<path fill="none" stroke="black" d="M305.92,-801.39C352.43,-756.66 376.23,-386.02 400.42,-342.8 440.97,-270.33 451.38,-212.6 534.42,-212.6"/>
<polygon fill="black" stroke="black" points="305.97,-801.36 295.01,-801.59 301.16,-803.65 297.24,-805.51 297.24,-805.51 297.24,-805.51 301.16,-803.65 298.87,-809.72 305.97,-801.36"/>
<text text-anchor="start" x="183.56" y="-789.8" font-family="Arial" font-size="10.00">FOREIGN KEY (user_id) REFERENCES users (id)</text>
</g>
<!-- calendars -->
<g id="node5" class="node">
<title>calendars</title>
<polygon fill="#efefef" stroke="none" points="452.2,-570.8 452.2,-606.4 658.64,-606.4 658.64,-570.8 452.2,-570.8"/>
<polygon fill="none" stroke="black" points="452.2,-570.8 452.2,-606.4 658.64,-606.4 658.64,-570.8 452.2,-570.8"/>
<text text-anchor="start" x="459.2" y="-584.2" font-family="Arial Bold" font-size="18.00">calendars</text>
<text text-anchor="start" x="527.15" y="-584.2" font-family="Arial" font-size="14.00">    </text>
<text text-anchor="start" x="558.27" y="-584.2" font-family="Arial" font-size="14.00" fill="#666666">[BASE TABLE]</text>
<polygon fill="none" stroke="black" points="452.2,-540 452.2,-570.8 658.64,-570.8 658.64,-540 452.2,-540"/>
<text text-anchor="start" x="459.2" y="-552.2" font-family="Arial" font-size="14.00">id </text>
<text text-anchor="start" x="473.98" y="-552.2" font-family="Arial" font-size="14.00" fill="#666666">[int(11)]</text>
<polygon fill="none" stroke="black" points="452.2,-509.2 452.2,-540 658.64,-540 658.64,-509.2 452.2,-509.2"/>
<text text-anchor="start" x="459.2" y="-521.4" font-family="Arial" font-size="14.00">owner_id </text>
<text text-anchor="start" x="519.9" y="-521.4" font-family="Arial" font-size="14.00" fill="#666666">[int(11)]</text>
<polygon fill="none" stroke="black" points="452.2,-478.4 452.2,-509.2 658.64,-509.2 658.64,-478.4 452.2,-478.4"/>
<text text-anchor="start" x="459.2" y="-490.6" font-family="Arial" font-size="14.00">name </text>
<text text-anchor="start" x="498.11" y="-490.6" font-family="Arial" font-size="14.00" fill="#666666">[varchar(255)]</text>
<polygon fill="none" stroke="black" points="452.2,-447.6 452.2,-478.4 658.64,-478.4 658.64,-447.6 452.2,-447.6"/>
<text text-anchor="start" x="459.2" y="-459.8" font-family="Arial" font-size="14.00">description </text>
<text text-anchor="start" x="530.79" y="-459.8" font-family="Arial" font-size="14.00" fill="#666666">[text]</text>
<polygon fill="none" stroke="black" points="452.2,-416.8 452.2,-447.6 658.64,-447.6 658.64,-416.8 452.2,-416.8"/>
<text text-anchor="start" x="459.2" y="-429" font-family="Arial" font-size="14.00">ical </text>
<text text-anchor="start" x="484.09" y="-429" font-family="Arial" font-size="14.00" fill="#666666">[longblob]</text>
<polygon fill="none" stroke="black" points="452.2,-386 452.2,-416.8 658.64,-416.8 658.64,-386 452.2,-386"/>
<text text-anchor="start" x="459.2" y="-398.2" font-family="Arial" font-size="14.00">members_only </text>
<text text-anchor="start" x="554.9" y="-398.2" font-family="Arial" font-size="14.00" fill="#666666">[tinyint(1)]</text>
</g>
<!-- users_calendars&#45;&gt;calendars -->
<g id="edge1" class="edge">
<title>users_calendars:calendar_id&#45;&gt;calendars:id</title>
<path fill="none" stroke="black" d="M306.61,-774C339.28,-766.63 323.92,-720.34 347.42,-685.6 388.88,-624.31 377.2,-555.4 451.2,-555.4"/>
<polygon fill="black" stroke="black" points="306.92,-773.96 296.52,-770.49 301.61,-774.5 297.31,-774.93 297.31,-774.93 297.31,-774.93 301.61,-774.5 297.42,-779.44 306.92,-773.96"/>
<text text-anchor="start" x="164.65" y="-759" font-family="Arial" font-size="10.00">FOREIGN KEY (calendar_id) REFERENCES calendars (id)</text>
</g>
<!-- calendars_access_codes -->
<g id="node2" class="node">
<title>calendars_access_codes</title>
<polygon fill="#efefef" stroke="none" points="399.72,-852 399.72,-887.6 711.12,-887.6 711.12,-852 399.72,-852"/>
<polygon fill="none" stroke="black" points="399.72,-852 399.72,-887.6 711.12,-887.6 711.12,-852 399.72,-852"/>
<text text-anchor="start" x="406.72" y="-865.4" font-family="Arial Bold" font-size="18.00">calendars_access_codes</text>
<text text-anchor="start" x="579.63" y="-865.4" font-family="Arial" font-size="14.00">    </text>
<text text-anchor="start" x="610.75" y="-865.4" font-family="Arial" font-size="14.00" fill="#666666">[BASE TABLE]</text>
<polygon fill="none" stroke="black" points="399.72,-821.2 399.72,-852 711.12,-852 711.12,-821.2 399.72,-821.2"/>
<text text-anchor="start" x="406.72" y="-833.4" font-family="Arial" font-size="14.00">id </text>
<text text-anchor="start" x="421.51" y="-833.4" font-family="Arial" font-size="14.00" fill="#666666">[int(11)]</text>
<polygon fill="none" stroke="black" points="399.72,-790.4 399.72,-821.2 711.12,-821.2 711.12,-790.4 399.72,-790.4"/>
<text text-anchor="start" x="406.72" y="-802.6" font-family="Arial" font-size="14.00">calendar_id </text>
<text text-anchor="start" x="483" y="-802.6" font-family="Arial" font-size="14.00" fill="#666666">[int(11)]</text>
<polygon fill="none" stroke="black" points="399.72,-759.6 399.72,-790.4 711.12,-790.4 711.12,-759.6 399.72,-759.6"/>
<text text-anchor="start" x="406.72" y="-771.8" font-family="Arial" font-size="14.00">code </text>
<text text-anchor="start" x="440.97" y="-771.8" font-family="Arial" font-size="14.00" fill="#666666">[varchar(64)]</text>
<polygon fill="none" stroke="black" points="399.72,-728.8 399.72,-759.6 711.12,-759.6 711.12,-728.8 399.72,-728.8"/>
<text text-anchor="start" x="406.72" y="-741" font-family="Arial" font-size="14.00">expires_at </text>
<text text-anchor="start" x="475.2" y="-741" font-family="Arial" font-size="14.00" fill="#666666">[datetime(6)]</text>
</g>
<!-- calendars_access_codes&#45;&gt;calendars -->
<g id="edge3" class="edge">
<title>calendars_access_codes:calendar_id&#45;&gt;calendars:id</title>
<path fill="none" stroke="black" d="M722.45,-804.71C759.17,-795.83 720.58,-734.15 711.12,-685.6 699.22,-624.52 721.87,-555.4 659.64,-555.4"/>
<polygon fill="black" stroke="black" points="722.4,-804.72 711.98,-801.29 717.09,-805.28 712.78,-805.73 712.78,-805.73 712.78,-805.73 717.09,-805.28 712.92,-810.24 722.4,-804.72"/>
<text text-anchor="start" x="719.12" y="-815.8" font-family="Arial" font-size="10.00">FOREIGN KEY (calendar_id) REFERENCES calendars (id)</text>
</g>
<!-- users_calendars_bans -->
<g id="node4" class="node">
<title>users_calendars_bans</title>
<polygon fill="#efefef" stroke="none" points="815.2,-852 815.2,-887.6 1109.64,-887.6 1109.64,-852 815.2,-852"/>
<polygon fill="none" stroke="black" points="815.2,-852 815.2,-887.6 1109.64,-887.6 1109.64,-852 815.2,-852"/>
<text text-anchor="start" x="822.2" y="-865.4" font-family="Arial Bold" font-size="18.00">users_calendars_bans</text>
<text text-anchor="start" x="978.15" y="-865.4" font-family="Arial" font-size="14.00">    </text>
<text text-anchor="start" x="1009.26" y="-865.4" font-family="Arial" font-size="14.00" fill="#666666">[BASE TABLE]</text>
<polygon fill="none" stroke="black" points="815.2,-821.2 815.2,-852 1109.64,-852 1109.64,-821.2 815.2,-821.2"/>
<text text-anchor="start" x="822.2" y="-833.4" font-family="Arial" font-size="14.00">user_id </text>
<text text-anchor="start" x="872.01" y="-833.4" font-family="Arial" font-size="14.00" fill="#666666">[int(11)]</text>
<polygon fill="none" stroke="black" points="815.2,-790.4 815.2,-821.2 1109.64,-821.2 1109.64,-790.4 815.2,-790.4"/>
<text text-anchor="start" x="822.2" y="-802.6" font-family="Arial" font-size="14.00">calendar_id </text>
<text text-anchor="start" x="898.48" y="-802.6" font-family="Arial" font-size="14.00" fill="#666666">[int(11)]</text>
<polygon fill="none" stroke="black" points="815.2,-759.6 815.2,-790.4 1109.64,-790.4 1109.64,-759.6 815.2,-759.6"/>
<text text-anchor="start" x="822.2" y="-771.8" font-family="Arial" font-size="14.00">reason </text>
<text text-anchor="start" x="868.9" y="-771.8" font-family="Arial" font-size="14.00" fill="#666666">[varchar(255)]</text>
<polygon fill="none" stroke="black" points="815.2,-728.8 815.2,-759.6 1109.64,-759.6 1109.64,-728.8 815.2,-728.8"/>
<text text-anchor="start" x="822.2" y="-741" font-family="Arial" font-size="14.00">expires_at </text>
<text text-anchor="start" x="890.69" y="-741" font-family="Arial" font-size="14.00" fill="#666666">[datetime(6)]</text>
</g>
<!-- users_calendars_bans&#45;&gt;users -->
<g id="edge5" class="edge">
<title>users_calendars_bans:user_id&#45;&gt;users:id</title>
<path fill="none" stroke="black" d="M803.94,-835.91C747.94,-827.72 787.02,-748.38 763.42,-685.6 757.32,-669.38 751.82,-666.6 748.42,-649.6 721.68,-515.89 746.53,-479.14 748.42,-342.8 749.22,-284.93 808.29,-212.6 750.42,-212.6"/>
<polygon fill="black" stroke="black" points="803.89,-835.9 813.57,-841.07 809.21,-836.26 813.54,-836.56 813.54,-836.56 813.54,-836.56 809.21,-836.26 814.17,-832.09 803.89,-835.9"/>
<text text-anchor="start" x="821.2" y="-846.6" font-family="Arial" font-size="10.00">FOREIGN KEY (user_id) REFERENCES users (id)</text>
</g>
<!-- users_calendars_bans&#45;&gt;calendars -->
<g id="edge4" class="edge">
<title>users_calendars_bans:calendar_id&#45;&gt;calendars:id</title>
<path fill="none" stroke="black" d="M803.93,-804.84C761.56,-796.03 796.77,-728.26 763.42,-685.6 747,-664.59 733.22,-669.45 715.42,-649.6 682.94,-613.37 708.3,-555.4 659.64,-555.4"/>
<polygon fill="black" stroke="black" points="803.91,-804.84 813.45,-810.25 809.22,-805.34 813.54,-805.74 813.54,-805.74 813.54,-805.74 809.22,-805.34 814.29,-801.29 803.91,-804.84"/>
<text text-anchor="start" x="821.2" y="-789.8" font-family="Arial" font-size="10.00">FOREIGN KEY (calendar_id) REFERENCES calendars (id)</text>
</g>
<!-- calendars&#45;&gt;users -->
<g id="edge6" class="edge">
<title>calendars:owner_id&#45;&gt;users:id</title>
<path fill="none" stroke="black" d="M669.85,-523.91C737.43,-514.17 705.1,-404.42 658.64,-342.8 624.3,-297.24 569.89,-352.27 535.42,-306.8 510.13,-273.43 492.55,-212.6 534.42,-212.6"/>
<polygon fill="black" stroke="black" points="669.95,-523.9 659.67,-520.09 664.63,-524.26 660.31,-524.55 660.31,-524.55 660.31,-524.55 664.63,-524.26 660.28,-529.07 669.95,-523.9"/>
<text text-anchor="start" x="666.64" y="-534.6" font-family="Arial" font-size="10.00">FOREIGN KEY (owner_id) REFERENCES users (id)</text>
</g>
<!-- users_sessions -->
<g id="node6" class="node">
<title>users_sessions</title>
<polygon fill="#efefef" stroke="none" points="800.67,-540 800.67,-575.6 1044.17,-575.6 1044.17,-540 800.67,-540"/>
<polygon fill="none" stroke="black" points="800.67,-540 800.67,-575.6 1044.17,-575.6 1044.17,-540 800.67,-540"/>
<text text-anchor="start" x="807.67" y="-553.4" font-family="Arial Bold" font-size="18.00">users_sessions</text>
<text text-anchor="start" x="912.68" y="-553.4" font-family="Arial" font-size="14.00">    </text>
<text text-anchor="start" x="943.79" y="-553.4" font-family="Arial" font-size="14.00" fill="#666666">[BASE TABLE]</text>
<polygon fill="none" stroke="black" points="800.67,-509.2 800.67,-540 1044.17,-540 1044.17,-509.2 800.67,-509.2"/>
<text text-anchor="start" x="807.67" y="-521.4" font-family="Arial" font-size="14.00">id </text>
<text text-anchor="start" x="822.46" y="-521.4" font-family="Arial" font-size="14.00" fill="#666666">[binary(16)]</text>
<polygon fill="none" stroke="black" points="800.67,-478.4 800.67,-509.2 1044.17,-509.2 1044.17,-478.4 800.67,-478.4"/>
<text text-anchor="start" x="807.67" y="-490.6" font-family="Arial" font-size="14.00">user_id </text>
<text text-anchor="start" x="857.48" y="-490.6" font-family="Arial" font-size="14.00" fill="#666666">[int(11)]</text>
<polygon fill="none" stroke="black" points="800.67,-447.6 800.67,-478.4 1044.17,-478.4 1044.17,-447.6 800.67,-447.6"/>
<text text-anchor="start" x="807.67" y="-459.8" font-family="Arial" font-size="14.00">email </text>
<text text-anchor="start" x="845.02" y="-459.8" font-family="Arial" font-size="14.00" fill="#666666">[varchar(320)]</text>
<polygon fill="none" stroke="black" points="800.67,-416.8 800.67,-447.6 1044.17,-447.6 1044.17,-416.8 800.67,-416.8"/>
<text text-anchor="start" x="807.67" y="-429" font-family="Arial" font-size="14.00">expires_at </text>
<text text-anchor="start" x="876.16" y="-429" font-family="Arial" font-size="14.00" fill="#666666">[datetime(6)]</text>
</g>
<!-- users_sessions&#45;&gt;users -->
<g id="edge7" class="edge">
<title>users_sessions:user_id&#45;&gt;users:id</title>
<path fill="none" stroke="black" d="M789.36,-493.09C684.49,-477.56 873.58,-212.6 750.42,-212.6"/>
<polygon fill="black" stroke="black" points="789.36,-493.09 799.03,-498.27 794.69,-493.46 799.01,-493.75 799.01,-493.75 799.01,-493.75 794.69,-493.46 799.65,-489.29 789.36,-493.09"/>
<text text-anchor="start" x="626.56" y="-477.8" font-family="Arial" font-size="10.00">FOREIGN KEY (user_id) REFERENCES users (id)</text>
</g>
</g>
</svg>
