<?xml version="1.0" encoding="UTF-8" standalone="no"?>
<!DOCTYPE svg PUBLIC "-//W3C//DTD SVG 1.1//EN"
 "http://www.w3.org/Graphics/SVG/1.1/DTD/svg11.dtd">
<!-- Generated by graphviz version 12.1.2 (20240928.0832)
 -->
<!-- Title: s25101270_countmein Pages: 1 -->
<svg width="845pt" height="939pt"
 viewBox="0.00 0.00 845.37 938.80" xmlns="http://www.w3.org/2000/svg" xmlns:xlink="http://www.w3.org/1999/xlink">
<g id="graph0" class="graph" transform="scale(1 1) rotate(0) translate(4 934.8)">
<title>s25101270_countmein</title>
<polygon fill="white" stroke="none" points="-4,4 -4,-934.8 841.37,-934.8 841.37,4 -4,4"/>
<!-- users_calendars -->
<g id="node1" class="node">
<title>users_calendars</title>
<polygon fill="#efefef" stroke="none" points="43.2,-821.2 43.2,-856.8 295.64,-856.8 295.64,-821.2 43.2,-821.2"/>
<polygon fill="none" stroke="black" points="43.2,-821.2 43.2,-856.8 295.64,-856.8 295.64,-821.2 43.2,-821.2"/>
<text text-anchor="start" x="50.2" y="-834.6" font-family="Arial Bold" font-size="18.00">users_calendars</text>
<text text-anchor="start" x="164.15" y="-834.6" font-family="Arial" font-size="14.00">    </text>
<text text-anchor="start" x="195.27" y="-834.6" font-family="Arial" font-size="14.00" fill="#666666">[BASE TABLE]</text>
<polygon fill="none" stroke="black" points="43.2,-790.4 43.2,-821.2 295.64,-821.2 295.64,-790.4 43.2,-790.4"/>
<text text-anchor="start" x="50.2" y="-802.6" font-family="Arial" font-size="14.00">user_id </text>
<text text-anchor="start" x="100.01" y="-802.6" font-family="Arial" font-size="14.00" fill="#666666">[int(11)]</text>
<polygon fill="none" stroke="black" points="43.2,-759.6 43.2,-790.4 295.64,-790.4 295.64,-759.6 43.2,-759.6"/>
<text text-anchor="start" x="50.2" y="-771.8" font-family="Arial" font-size="14.00">calendar_id </text>
<text text-anchor="start" x="126.48" y="-771.8" font-family="Arial" font-size="14.00" fill="#666666">[int(11)]</text>
</g>
<!-- users -->
<g id="node3" class="node">
<title>users</title>
<polygon fill="#efefef" stroke="none" points="236.42,-228 236.42,-263.6 450.42,-263.6 450.42,-228 236.42,-228"/>
<polygon fill="none" stroke="black" points="236.42,-228 236.42,-263.6 450.42,-263.6 450.42,-228 236.42,-228"/>
<text text-anchor="start" x="262.68" y="-241.4" font-family="Arial Bold" font-size="18.00">users</text>
<text text-anchor="start" x="299.67" y="-241.4" font-family="Arial" font-size="14.00">    </text>
<text text-anchor="start" x="330.79" y="-241.4" font-family="Arial" font-size="14.00" fill="#666666">[BASE TABLE]</text>
<polygon fill="none" stroke="black" points="236.42,-197.2 236.42,-228 450.42,-228 450.42,-197.2 236.42,-197.2"/>
<text text-anchor="start" x="243.42" y="-209.4" font-family="Arial" font-size="14.00">id </text>
<text text-anchor="start" x="258.21" y="-209.4" font-family="Arial" font-size="14.00" fill="#666666">[int(11)]</text>
<polygon fill="none" stroke="black" points="236.42,-166.4 236.42,-197.2 450.42,-197.2 450.42,-166.4 236.42,-166.4"/>
<text text-anchor="start" x="243.42" y="-178.6" font-family="Arial" font-size="14.00">email </text>
<text text-anchor="start" x="280.77" y="-178.6" font-family="Arial" font-size="14.00" fill="#666666">[varchar(320)]</text>
<polygon fill="none" stroke="black" points="236.42,-135.6 236.42,-166.4 450.42,-166.4 450.42,-135.6 236.42,-135.6"/>
<text text-anchor="start" x="243.42" y="-147.8" font-family="Arial" font-size="14.00">first_name </text>
<text text-anchor="start" x="312.67" y="-147.8" font-family="Arial" font-size="14.00" fill="#666666">[varchar(255)]</text>
<polygon fill="none" stroke="black" points="236.42,-104.8 236.42,-135.6 450.42,-135.6 450.42,-104.8 236.42,-104.8"/>
<text text-anchor="start" x="243.42" y="-117" font-family="Arial" font-size="14.00">last_name </text>
<text text-anchor="start" x="311.91" y="-117" font-family="Arial" font-size="14.00" fill="#666666">[varchar(255)]</text>
<polygon fill="none" stroke="black" points="236.42,-74 236.42,-104.8 450.42,-104.8 450.42,-74 236.42,-74"/>
<text text-anchor="start" x="243.42" y="-86.2" font-family="Arial" font-size="14.00">password_hash </text>
<text text-anchor="start" x="345.37" y="-86.2" font-family="Arial" font-size="14.00" fill="#666666">[varbinary(255)]</text>
<polygon fill="none" stroke="black" points="236.42,-43.2 236.42,-74 450.42,-74 450.42,-43.2 236.42,-43.2"/>
<text text-anchor="start" x="243.42" y="-55.4" font-family="Arial" font-size="14.00">middle_name </text>
<text text-anchor="start" x="331.36" y="-55.4" font-family="Arial" font-size="14.00" fill="#666666">[varchar(255)]</text>
</g>
<!-- users_calendars&#45;&gt;users -->
<g id="edge2" class="edge">
<title>users_calendars:user_id&#45;&gt;users:id</title>
<path fill="none" stroke="black" d="M306.92,-804.18C332.08,-794.88 313.14,-747.52 295.64,-716.4 268.11,-667.47 215.67,-698.69 188.42,-649.6 93.6,-478.81 40.08,-212.6 235.42,-212.6"/>
<polygon fill="black" stroke="black" points="306.85,-804.2 296.27,-801.3 301.58,-805.02 297.3,-805.7 297.3,-805.7 297.3,-805.7 301.58,-805.02 297.67,-810.19 306.85,-804.2"/>
<text text-anchor="start" x="303.64" y="-815.8" font-family="Arial" font-size="10.00">FOREIGN KEY (user_id) REFERENCES users (id)</text>
</g>
<!-- calendars -->
<g id="node4" class="node">
<title>calendars</title>
<polygon fill="#efefef" stroke="none" points="240.2,-570.8 240.2,-606.4 446.64,-606.4 446.64,-570.8 240.2,-570.8"/>
<polygon fill="none" stroke="black" points="240.2,-570.8 240.2,-606.4 446.64,-606.4 446.64,-570.8 240.2,-570.8"/>
<text text-anchor="start" x="247.2" y="-584.2" font-family="Arial Bold" font-size="18.00">calendars</text>
<text text-anchor="start" x="315.15" y="-584.2" font-family="Arial" font-size="14.00">    </text>
<text text-anchor="start" x="346.27" y="-584.2" font-family="Arial" font-size="14.00" fill="#666666">[BASE TABLE]</text>
<polygon fill="none" stroke="black" points="240.2,-540 240.2,-570.8 446.64,-570.8 446.64,-540 240.2,-540"/>
<text text-anchor="start" x="247.2" y="-552.2" font-family="Arial" font-size="14.00">id </text>
<text text-anchor="start" x="261.98" y="-552.2" font-family="Arial" font-size="14.00" fill="#666666">[int(11)]</text>
<polygon fill="none" stroke="black" points="240.2,-509.2 240.2,-540 446.64,-540 446.64,-509.2 240.2,-509.2"/>
<text text-anchor="start" x="247.2" y="-521.4" font-family="Arial" font-size="14.00">owner_id </text>
<text text-anchor="start" x="307.9" y="-521.4" font-family="Arial" font-size="14.00" fill="#666666">[int(11)]</text>
<polygon fill="none" stroke="black" points="240.2,-478.4 240.2,-509.2 446.64,-509.2 446.64,-478.4 240.2,-478.4"/>
<text text-anchor="start" x="247.2" y="-490.6" font-family="Arial" font-size="14.00">name </text>
<text text-anchor="start" x="286.11" y="-490.6" font-family="Arial" font-size="14.00" fill="#666666">[varchar(255)]</text>
<polygon fill="none" stroke="black" points="240.2,-447.6 240.2,-478.4 446.64,-478.4 446.64,-447.6 240.2,-447.6"/>
<text text-anchor="start" x="247.2" y="-459.8" font-family="Arial" font-size="14.00">description </text>
<text text-anchor="start" x="318.79" y="-459.8" font-family="Arial" font-size="14.00" fill="#666666">[text]</text>
<polygon fill="none" stroke="black" points="240.2,-416.8 240.2,-447.6 446.64,-447.6 446.64,-416.8 240.2,-416.8"/>
<text text-anchor="start" x="247.2" y="-429" font-family="Arial" font-size="14.00">ical </text>
<text text-anchor="start" x="272.09" y="-429" font-family="Arial" font-size="14.00" fill="#666666">[longblob]</text>
<polygon fill="none" stroke="black" points="240.2,-386 240.2,-416.8 446.64,-416.8 446.64,-386 240.2,-386"/>
<text text-anchor="start" x="247.2" y="-398.2" font-family="Arial" font-size="14.00">members_only </text>
<text text-anchor="start" x="342.9" y="-398.2" font-family="Arial" font-size="14.00" fill="#666666">[tinyint(1)]</text>
</g>
<!-- users_calendars&#45;&gt;calendars -->
<g id="edge1" class="edge">
<title>users_calendars:calendar_id&#45;&gt;calendars:id</title>
<path fill="none" stroke="black" d="M306.44,-772.19C316.77,-763.54 303.14,-736.63 295.64,-716.4 282.23,-680.22 253.49,-685.82 240.2,-649.6 225.77,-610.29 197.33,-555.4 239.2,-555.4"/>
<polygon fill="black" stroke="black" points="306.57,-772.15 295.72,-770.58 301.45,-773.62 297.28,-774.82 297.28,-774.82 297.28,-774.82 301.45,-773.62 298.2,-779.23 306.57,-772.15"/>
<text text-anchor="start" x="303.64" y="-785" font-family="Arial" font-size="10.00">FOREIGN KEY (calendar_id) REFERENCES calendars (id)</text>
</g>
<!-- calendars_access_codes -->
<g id="node2" class="node">
<title>calendars_access_codes</title>
<polygon fill="#efefef" stroke="none" points="399.72,-852 399.72,-887.6 711.12,-887.6 711.12,-852 399.72,-852"/>
<polygon fill="none" stroke="black" points="399.72,-852 399.72,-887.6 711.12,-887.6 711.12,-852 399.72,-852"/>
<text text-anchor="start" x="406.72" y="-865.4" font-family="Arial Bold" font-size="18.00">calendars_access_codes</text>
<text text-anchor="start" x="579.63" y="-865.4" font-family="Arial" font-size="14.00">    </text>
<text text-anchor="start" x="610.75" y="-865.4" font-family="Arial" font-size="14.00" fill="#666666">[BASE TABLE]</text>
<polygon fill="none" stroke="black" points="399.72,-821.2 399.72,-852 711.12,-852 711.12,-821.2 399.72,-821.2"/>
<text text-anchor="start" x="406.72" y="-833.4" font-family="Arial" font-size="14.00">id </text>
<text text-anchor="start" x="421.51" y="-833.4" font-family="Arial" font-size="14.00" fill="#666666">[int(11)]</text>
<polygon fill="none" stroke="black" points="399.72,-790.4 399.72,-821.2 711.12,-821.2 711.12,-790.4 399.72,-790.4"/>
<text text-anchor="start" x="406.72" y="-802.6" font-family="Arial" font-size="14.00">calendar_id </text>
<text text-anchor="start" x="483" y="-802.6" font-family="Arial" font-size="14.00" fill="#666666">[int(11)]</text>
<polygon fill="none" stroke="black" points="399.72,-759.6 399.72,-790.4 711.12,-790.4 711.12,-759.6 399.72,-759.6"/>
<text text-anchor="start" x="406.72" y="-771.8" font-family="Arial" font-size="14.00">code </text>
<text text-anchor="start" x="440.97" y="-771.8" font-family="Arial" font-size="14.00" fill="#666666">[varchar(64)]</text>
<polygon fill="none" stroke="black" points="399.72,-728.8 399.72,-759.6 711.12,-759.6 711.12,-728.8 399.72,-728.8"/>
<text text-anchor="start" x="406.72" y="-741" font-family="Arial" font-size="14.00">expires_at </text>
<text text-anchor="start" x="475.2" y="-741" font-family="Arial" font-size="14.00" fill="#666666">[datetime(6)]</text>
</g>
<!-- calendars_access_codes&#45;&gt;calendars -->
<g id="edge3" class="edge">
<title>calendars_access_codes:calendar_id&#45;&gt;calendars:id</title>
<path fill="none" stroke="black" d="M388.67,-804.76C349.57,-795.74 377.57,-730.05 399.72,-685.6 411.45,-662.07 434.89,-673.11 446.64,-649.6 465.36,-612.15 489.51,-555.4 447.64,-555.4"/>
<polygon fill="black" stroke="black" points="388.44,-804.74 397.93,-810.24 393.75,-805.29 398.06,-805.73 398.06,-805.73 398.06,-805.73 393.75,-805.29 398.85,-801.29 388.44,-804.74"/>
<text text-anchor="start" x="405.72" y="-815.8" font-family="Arial" font-size="10.00">FOREIGN KEY (calendar_id) REFERENCES calendars (id)</text>
</g>
<!-- calendars&#45;&gt;users -->
<g id="edge4" class="edge">
<title>calendars:owner_id&#45;&gt;users:id</title>
<path fill="none" stroke="black" d="M455.72,-518.37C482.67,-474.39 483.17,-212.6 451.42,-212.6"/>
<polygon fill="black" stroke="black" points="455.82,-518.29 445.16,-520.83 451.6,-521.55 448.17,-524.19 448.17,-524.19 448.17,-524.19 451.6,-521.55 450.66,-527.96 455.82,-518.29"/>
<text text-anchor="start" x="454.64" y="-534.6" font-family="Arial" font-size="10.00">FOREIGN KEY (owner_id) REFERENCES users (id)</text>
</g>
<!-- users_sessions -->
<g id="node5" class="node">
<title>users_sessions</title>
<polygon fill="#efefef" stroke="none" points="550.67,-540 550.67,-575.6 794.17,-575.6 794.17,-540 550.67,-540"/>
<polygon fill="none" stroke="black" points="550.67,-540 550.67,-575.6 794.17,-575.6 794.17,-540 550.67,-540"/>
<text text-anchor="start" x="557.67" y="-553.4" font-family="Arial Bold" font-size="18.00">users_sessions</text>
<text text-anchor="start" x="662.68" y="-553.4" font-family="Arial" font-size="14.00">    </text>
<text text-anchor="start" x="693.79" y="-553.4" font-family="Arial" font-size="14.00" fill="#666666">[BASE TABLE]</text>
<polygon fill="none" stroke="black" points="550.67,-509.2 550.67,-540 794.17,-540 794.17,-509.2 550.67,-509.2"/>
<text text-anchor="start" x="557.67" y="-521.4" font-family="Arial" font-size="14.00">id </text>
<text text-anchor="start" x="572.46" y="-521.4" font-family="Arial" font-size="14.00" fill="#666666">[binary(16)]</text>
<polygon fill="none" stroke="black" points="550.67,-478.4 550.67,-509.2 794.17,-509.2 794.17,-478.4 550.67,-478.4"/>
<text text-anchor="start" x="557.67" y="-490.6" font-family="Arial" font-size="14.00">user_id </text>
<text text-anchor="start" x="607.48" y="-490.6" font-family="Arial" font-size="14.00" fill="#666666">[int(11)]</text>
<polygon fill="none" stroke="black" points="550.67,-447.6 550.67,-478.4 794.17,-478.4 794.17,-447.6 550.67,-447.6"/>
<text text-anchor="start" x="557.67" y="-459.8" font-family="Arial" font-size="14.00">email </text>
<text text-anchor="start" x="595.02" y="-459.8" font-family="Arial" font-size="14.00" fill="#666666">[varchar(320)]</text>
<polygon fill="none" stroke="black" points="550.67,-416.8 550.67,-447.6 794.17,-447.6 794.17,-416.8 550.67,-416.8"/>
<text text-anchor="start" x="557.67" y="-429" font-family="Arial" font-size="14.00">expires_at </text>
<text text-anchor="start" x="626.16" y="-429" font-family="Arial" font-size="14.00" fill="#666666">[datetime(6)]</text>
</g>
<!-- users_sessions&#45;&gt;users -->
<g id="edge5" class="edge">
<title>users_sessions:user_id&#45;&gt;users:id</title>
<path fill="none" stroke="black" d="M539.68,-491.37C486.91,-463.88 513.99,-212.6 451.42,-212.6"/>
<polygon fill="black" stroke="black" points="539.63,-491.36 548.28,-498.09 544.82,-492.62 549.02,-493.64 549.02,-493.64 549.02,-493.64 544.82,-492.62 550.41,-489.35 539.63,-491.36"/>
<text text-anchor="start" x="496.63" y="-477.8" font-family="Arial" font-size="10.00">FOREIGN KEY (user_id) REFERENCES users (id)</text>
</g>
</g>
</svg>
