<?xml version="1.0" encoding="UTF-8" standalone="no"?>
<!DOCTYPE svg PUBLIC "-//W3C//DTD SVG 1.1//EN"
 "http://www.w3.org/Graphics/SVG/1.1/DTD/svg11.dtd">
<!-- Generated by graphviz version 12.1.2 (20240928.0832)
 -->
<!-- Title: users_external_online_calendars Pages: 1 -->
<svg width="966pt" height="540pt"
 viewBox="0.00 0.00 966.02 540.40" xmlns="http://www.w3.org/2000/svg" xmlns:xlink="http://www.w3.org/1999/xlink">
<g id="graph0" class="graph" transform="scale(1 1) rotate(0) translate(4 536.4)">
<title>users_external_online_calendars</title>
<polygon fill="white" stroke="none" points="-4,4 -4,-536.4 962.02,-536.4 962.02,4 -4,4"/>
<!-- users_external_online_calendars -->
<g id="node1" class="node">
<title>users_external_online_calendars</title>
<polygon fill="#efefef" stroke="none" points="241.16,-450.6 241.16,-486.2 614.55,-486.2 614.55,-450.6 241.16,-450.6"/>
<polygon fill="none" stroke="black" points="241.16,-450.6 241.16,-486.2 614.55,-486.2 614.55,-450.6 241.16,-450.6"/>
<text text-anchor="start" x="248.16" y="-464" font-family="Arial Bold" font-size="18.00">users_external_online_calendars</text>
<text text-anchor="start" x="483.06" y="-464" font-family="Arial" font-size="14.00">    </text>
<text text-anchor="start" x="514.18" y="-464" font-family="Arial" font-size="14.00" fill="#666666">[BASE TABLE]</text>
<polygon fill="none" stroke="black" points="241.16,-419.8 241.16,-450.6 614.55,-450.6 614.55,-419.8 241.16,-419.8"/>
<text text-anchor="start" x="248.16" y="-432" font-family="Arial" font-size="14.00">user_id </text>
<text text-anchor="start" x="297.96" y="-432" font-family="Arial" font-size="14.00" fill="#666666">[int(11)]</text>
<polygon fill="none" stroke="black" points="241.16,-389 241.16,-419.8 614.55,-419.8 614.55,-389 241.16,-389"/>
<text text-anchor="start" x="248.16" y="-401.2" font-family="Arial" font-size="14.00">online_calendar_id </text>
<text text-anchor="start" x="369.58" y="-401.2" font-family="Arial" font-size="14.00" fill="#666666">[int(11)]</text>
<polygon fill="none" stroke="black" stroke-width="3" points="239.66,-387.5 239.66,-487.7 616.05,-487.7 616.05,-387.5 239.66,-387.5"/>
</g>
<!-- users -->
<g id="node2" class="node">
<title>users</title>
<polygon fill="#efefef" stroke="none" points="149.86,-228 149.86,-263.6 363.85,-263.6 363.85,-228 149.86,-228"/>
<polygon fill="none" stroke="black" points="149.86,-228 149.86,-263.6 363.85,-263.6 363.85,-228 149.86,-228"/>
<text text-anchor="start" x="176.11" y="-241.4" font-family="Arial Bold" font-size="18.00">users</text>
<text text-anchor="start" x="213.11" y="-241.4" font-family="Arial" font-size="14.00">    </text>
<text text-anchor="start" x="244.22" y="-241.4" font-family="Arial" font-size="14.00" fill="#666666">[BASE TABLE]</text>
<polygon fill="none" stroke="black" points="149.86,-197.2 149.86,-228 363.85,-228 363.85,-197.2 149.86,-197.2"/>
<text text-anchor="start" x="156.86" y="-209.4" font-family="Arial" font-size="14.00">id </text>
<text text-anchor="start" x="171.64" y="-209.4" font-family="Arial" font-size="14.00" fill="#666666">[int(11)]</text>
<polygon fill="none" stroke="black" points="149.86,-166.4 149.86,-197.2 363.85,-197.2 363.85,-166.4 149.86,-166.4"/>
<text text-anchor="start" x="156.86" y="-178.6" font-family="Arial" font-size="14.00">email </text>
<text text-anchor="start" x="194.2" y="-178.6" font-family="Arial" font-size="14.00" fill="#666666">[varchar(320)]</text>
<polygon fill="none" stroke="black" points="149.86,-135.6 149.86,-166.4 363.85,-166.4 363.85,-135.6 149.86,-135.6"/>
<text text-anchor="start" x="156.86" y="-147.8" font-family="Arial" font-size="14.00">first_name </text>
<text text-anchor="start" x="226.11" y="-147.8" font-family="Arial" font-size="14.00" fill="#666666">[varchar(255)]</text>
<polygon fill="none" stroke="black" points="149.86,-104.8 149.86,-135.6 363.85,-135.6 363.85,-104.8 149.86,-104.8"/>
<text text-anchor="start" x="156.86" y="-117" font-family="Arial" font-size="14.00">last_name </text>
<text text-anchor="start" x="225.34" y="-117" font-family="Arial" font-size="14.00" fill="#666666">[varchar(255)]</text>
<polygon fill="none" stroke="black" points="149.86,-74 149.86,-104.8 363.85,-104.8 363.85,-74 149.86,-74"/>
<text text-anchor="start" x="156.86" y="-86.2" font-family="Arial" font-size="14.00">password_hash </text>
<text text-anchor="start" x="258.81" y="-86.2" font-family="Arial" font-size="14.00" fill="#666666">[varbinary(255)]</text>
<polygon fill="none" stroke="black" points="149.86,-43.2 149.86,-74 363.85,-74 363.85,-43.2 149.86,-43.2"/>
<text text-anchor="start" x="156.86" y="-55.4" font-family="Arial" font-size="14.00">middle_name </text>
<text text-anchor="start" x="244.8" y="-55.4" font-family="Arial" font-size="14.00" fill="#666666">[varchar(255)]</text>
</g>
<!-- users_external_online_calendars&#45;&gt;users -->
<g id="edge1" class="edge">
<title>users_external_online_calendars:user_id&#45;&gt;users:id</title>
<path fill="none" stroke="black" d="M230.1,-433.7C202.39,-424.25 218.69,-372.47 241.16,-342.8 275.46,-297.49 329.55,-352.11 363.85,-306.8 389.12,-273.42 406.72,-212.6 364.85,-212.6"/>
<polygon fill="black" stroke="black" points="229.94,-433.67 239.16,-439.6 235.21,-434.46 239.5,-435.1 239.5,-435.1 239.5,-435.1 235.21,-434.46 240.49,-430.7 229.94,-433.67"/>
<text text-anchor="start" x="7" y="-445.2" font-family="Arial" font-size="10.00">FOREIGN KEY (user_id) REFERENCES users (id)</text>
</g>
<!-- online_calendars -->
<g id="node3" class="node">
<title>online_calendars</title>
<polygon fill="#efefef" stroke="none" points="468.64,-212.6 468.64,-248.2 729.07,-248.2 729.07,-212.6 468.64,-212.6"/>
<polygon fill="none" stroke="black" points="468.64,-212.6 468.64,-248.2 729.07,-248.2 729.07,-212.6 468.64,-212.6"/>
<text text-anchor="start" x="475.64" y="-226" font-family="Arial Bold" font-size="18.00">online_calendars</text>
<text text-anchor="start" x="597.58" y="-226" font-family="Arial" font-size="14.00">    </text>
<text text-anchor="start" x="628.7" y="-226" font-family="Arial" font-size="14.00" fill="#666666">[BASE TABLE]</text>
<polygon fill="none" stroke="black" points="468.64,-181.8 468.64,-212.6 729.07,-212.6 729.07,-181.8 468.64,-181.8"/>
<text text-anchor="start" x="475.64" y="-194" font-family="Arial" font-size="14.00">id </text>
<text text-anchor="start" x="490.42" y="-194" font-family="Arial" font-size="14.00" fill="#666666">[int(11)]</text>
<polygon fill="none" stroke="black" points="468.64,-151 468.64,-181.8 729.07,-181.8 729.07,-151 468.64,-151"/>
<text text-anchor="start" x="475.64" y="-163.2" font-family="Arial" font-size="14.00">owner_id </text>
<text text-anchor="start" x="536.34" y="-163.2" font-family="Arial" font-size="14.00" fill="#666666">[int(11)]</text>
<polygon fill="none" stroke="black" points="468.64,-120.2 468.64,-151 729.07,-151 729.07,-120.2 468.64,-120.2"/>
<text text-anchor="start" x="475.64" y="-132.4" font-family="Arial" font-size="14.00">name </text>
<text text-anchor="start" x="514.55" y="-132.4" font-family="Arial" font-size="14.00" fill="#666666">[varchar(255)]</text>
<polygon fill="none" stroke="black" points="468.64,-89.4 468.64,-120.2 729.07,-120.2 729.07,-89.4 468.64,-89.4"/>
<text text-anchor="start" x="475.64" y="-101.6" font-family="Arial" font-size="14.00">url </text>
<text text-anchor="start" x="495.08" y="-101.6" font-family="Arial" font-size="14.00" fill="#666666">[varchar(2048)]</text>
<polygon fill="none" stroke="black" points="468.64,-58.6 468.64,-89.4 729.07,-89.4 729.07,-58.6 468.64,-58.6"/>
<text text-anchor="start" x="475.64" y="-70.8" font-family="Arial" font-size="14.00">description </text>
<text text-anchor="start" x="547.23" y="-70.8" font-family="Arial" font-size="14.00" fill="#666666">[text]</text>
</g>
<!-- users_external_online_calendars&#45;&gt;online_calendars -->
<g id="edge2" class="edge">
<title>users_external_online_calendars:online_calendar_id&#45;&gt;online_calendars:id</title>
<path fill="none" stroke="black" d="M625.61,-401.73C638.98,-392.51 628.05,-361.55 614.55,-342.8 574.37,-287.01 508.66,-347.31 468.64,-291.4 444.26,-257.36 425.77,-197.2 467.64,-197.2"/>
<polygon fill="black" stroke="black" points="625.54,-401.75 614.72,-399.96 620.38,-403.12 616.2,-404.23 616.2,-404.23 616.2,-404.23 620.38,-403.12 617.03,-408.66 625.54,-401.75"/>
<text text-anchor="start" x="622.55" y="-414.4" font-family="Arial" font-size="10.00">FOREIGN KEY (online_calendar_id) REFERENCES online_calendars (id)</text>
</g>
</g>
</svg>
