<?xml version="1.0" encoding="UTF-8" standalone="no"?>
<!DOCTYPE svg PUBLIC "-//W3C//DTD SVG 1.1//EN"
 "http://www.w3.org/Graphics/SVG/1.1/DTD/svg11.dtd">
<!-- Generated by graphviz version 12.1.2 (20240928.0832)
 -->
<!-- Title: users_labels Pages: 1 -->
<svg width="738pt" height="822pt"
 viewBox="0.00 0.00 737.65 821.60" xmlns="http://www.w3.org/2000/svg" xmlns:xlink="http://www.w3.org/1999/xlink">
<g id="graph0" class="graph" transform="scale(1 1) rotate(0) translate(4 817.6)">
<title>users_labels</title>
<polygon fill="white" stroke="none" points="-4,4 -4,-817.6 733.65,-817.6 733.65,4 -4,4"/>
<!-- users_labels -->
<g id="node1" class="node">
<title>users_labels</title>
<polygon fill="#efefef" stroke="none" points="237.01,-512.2 237.01,-547.8 463.47,-547.8 463.47,-512.2 237.01,-512.2"/>
<polygon fill="none" stroke="black" points="237.01,-512.2 237.01,-547.8 463.47,-547.8 463.47,-512.2 237.01,-512.2"/>
<text text-anchor="start" x="244.01" y="-525.6" font-family="Arial Bold" font-size="18.00">users_labels</text>
<text text-anchor="start" x="331.98" y="-525.6" font-family="Arial" font-size="14.00">    </text>
<text text-anchor="start" x="363.1" y="-525.6" font-family="Arial" font-size="14.00" fill="#666666">[BASE TABLE]</text>
<polygon fill="none" stroke="black" points="237.01,-481.4 237.01,-512.2 463.47,-512.2 463.47,-481.4 237.01,-481.4"/>
<text text-anchor="start" x="244.01" y="-493.6" font-family="Arial" font-size="14.00">user_label_id </text>
<text text-anchor="start" x="331.18" y="-493.6" font-family="Arial" font-size="14.00" fill="#666666">[bigint(20)]</text>
<polygon fill="none" stroke="black" points="237.01,-450.6 237.01,-481.4 463.47,-481.4 463.47,-450.6 237.01,-450.6"/>
<text text-anchor="start" x="244.01" y="-462.8" font-family="Arial" font-size="14.00">user_id </text>
<text text-anchor="start" x="293.81" y="-462.8" font-family="Arial" font-size="14.00" fill="#666666">[bigint(20)]</text>
<polygon fill="none" stroke="black" points="237.01,-419.8 237.01,-450.6 463.47,-450.6 463.47,-419.8 237.01,-419.8"/>
<text text-anchor="start" x="244.01" y="-432" font-family="Arial" font-size="14.00">name </text>
<text text-anchor="start" x="282.92" y="-432" font-family="Arial" font-size="14.00" fill="#666666">[varchar(255)]</text>
<polygon fill="none" stroke="black" points="237.01,-389 237.01,-419.8 463.47,-419.8 463.47,-389 237.01,-389"/>
<text text-anchor="start" x="244.01" y="-401.2" font-family="Arial" font-size="14.00">color </text>
<text text-anchor="start" x="278.24" y="-401.2" font-family="Arial" font-size="14.00" fill="#666666">[char(6)]</text>
<polygon fill="none" stroke="black" stroke-width="3" points="235.51,-387.5 235.51,-549.3 464.97,-549.3 464.97,-387.5 235.51,-387.5"/>
</g>
<!-- users -->
<g id="node3" class="node">
<title>users</title>
<polygon fill="#efefef" stroke="none" points="243.24,-228 243.24,-263.6 457.24,-263.6 457.24,-228 243.24,-228"/>
<polygon fill="none" stroke="black" points="243.24,-228 243.24,-263.6 457.24,-263.6 457.24,-228 243.24,-228"/>
<text text-anchor="start" x="269.5" y="-241.4" font-family="Arial Bold" font-size="18.00">users</text>
<text text-anchor="start" x="306.49" y="-241.4" font-family="Arial" font-size="14.00">    </text>
<text text-anchor="start" x="337.61" y="-241.4" font-family="Arial" font-size="14.00" fill="#666666">[BASE TABLE]</text>
<polygon fill="none" stroke="black" points="243.24,-197.2 243.24,-228 457.24,-228 457.24,-197.2 243.24,-197.2"/>
<text text-anchor="start" x="250.24" y="-209.4" font-family="Arial" font-size="14.00">user_id </text>
<text text-anchor="start" x="300.05" y="-209.4" font-family="Arial" font-size="14.00" fill="#666666">[bigint(20)]</text>
<polygon fill="none" stroke="black" points="243.24,-166.4 243.24,-197.2 457.24,-197.2 457.24,-166.4 243.24,-166.4"/>
<text text-anchor="start" x="250.24" y="-178.6" font-family="Arial" font-size="14.00">email </text>
<text text-anchor="start" x="287.59" y="-178.6" font-family="Arial" font-size="14.00" fill="#666666">[varchar(320)]</text>
<polygon fill="none" stroke="black" points="243.24,-135.6 243.24,-166.4 457.24,-166.4 457.24,-135.6 243.24,-135.6"/>
<text text-anchor="start" x="250.24" y="-147.8" font-family="Arial" font-size="14.00">first_name </text>
<text text-anchor="start" x="319.49" y="-147.8" font-family="Arial" font-size="14.00" fill="#666666">[varchar(255)]</text>
<polygon fill="none" stroke="black" points="243.24,-104.8 243.24,-135.6 457.24,-135.6 457.24,-104.8 243.24,-104.8"/>
<text text-anchor="start" x="250.24" y="-117" font-family="Arial" font-size="14.00">last_name </text>
<text text-anchor="start" x="318.73" y="-117" font-family="Arial" font-size="14.00" fill="#666666">[varchar(255)]</text>
<polygon fill="none" stroke="black" points="243.24,-74 243.24,-104.8 457.24,-104.8 457.24,-74 243.24,-74"/>
<text text-anchor="start" x="250.24" y="-86.2" font-family="Arial" font-size="14.00">password_hash </text>
<text text-anchor="start" x="352.2" y="-86.2" font-family="Arial" font-size="14.00" fill="#666666">[varbinary(255)]</text>
<polygon fill="none" stroke="black" points="243.24,-43.2 243.24,-74 457.24,-74 457.24,-43.2 243.24,-43.2"/>
<text text-anchor="start" x="250.24" y="-55.4" font-family="Arial" font-size="14.00">middle_name </text>
<text text-anchor="start" x="338.18" y="-55.4" font-family="Arial" font-size="14.00" fill="#666666">[varchar(255)]</text>
</g>
<!-- users_labels&#45;&gt;users -->
<g id="edge2" class="edge">
<title>users_labels:user_id&#45;&gt;users:user_id</title>
<path fill="none" stroke="black" d="M474.69,-465.27C576.64,-450.41 567.37,-212.6 458.24,-212.6"/>
<polygon fill="black" stroke="black" points="474.78,-465.27 464.49,-461.49 469.46,-465.64 465.14,-465.95 465.14,-465.95 465.14,-465.95 469.46,-465.64 465.13,-470.46 474.78,-465.27"/>
<text text-anchor="start" x="471.47" y="-476" font-family="Arial" font-size="10.00">FOREIGN KEY (user_id) REFERENCES users (user_id)</text>
</g>
<!-- calendars_users_labels -->
<g id="node2" class="node">
<title>calendars_users_labels</title>
<polygon fill="#efefef" stroke="none" points="198.53,-734.8 198.53,-770.4 501.95,-770.4 501.95,-734.8 198.53,-734.8"/>
<polygon fill="none" stroke="black" points="198.53,-734.8 198.53,-770.4 501.95,-770.4 501.95,-734.8 198.53,-734.8"/>
<text text-anchor="start" x="205.53" y="-748.2" font-family="Arial Bold" font-size="18.00">calendars_users_labels</text>
<text text-anchor="start" x="370.46" y="-748.2" font-family="Arial" font-size="14.00">    </text>
<text text-anchor="start" x="401.58" y="-748.2" font-family="Arial" font-size="14.00" fill="#666666">[BASE TABLE]</text>
<polygon fill="none" stroke="black" points="198.53,-704 198.53,-734.8 501.95,-734.8 501.95,-704 198.53,-704"/>
<text text-anchor="start" x="205.53" y="-716.2" font-family="Arial" font-size="14.00">calendar_id </text>
<text text-anchor="start" x="281.8" y="-716.2" font-family="Arial" font-size="14.00" fill="#666666">[bigint(20)]</text>
<polygon fill="none" stroke="black" points="198.53,-673.2 198.53,-704 501.95,-704 501.95,-673.2 198.53,-673.2"/>
<text text-anchor="start" x="205.53" y="-685.4" font-family="Arial" font-size="14.00">user_label_id </text>
<text text-anchor="start" x="292.7" y="-685.4" font-family="Arial" font-size="14.00" fill="#666666">[bigint(20)]</text>
</g>
<!-- calendars_users_labels&#45;&gt;users_labels -->
<g id="edge1" class="edge">
<title>calendars_users_labels:user_label_id&#45;&gt;users_labels:user_label_id</title>
<path fill="none" stroke="black" d="M351.2,-661.84C360.59,-615.31 436.57,-644.64 463.47,-594 483.74,-555.85 507.68,-496.8 464.47,-496.8"/>
<polygon fill="black" stroke="black" points="351.19,-661.91 345.79,-671.45 350.7,-667.22 350.3,-671.53 350.3,-671.53 350.3,-671.53 350.7,-667.22 354.75,-672.28 351.19,-661.91"/>
<text text-anchor="start" x="7" y="-682.2" font-family="Arial" font-size="10.00">FOREIGN KEY (user_label_id) REFERENCES users_labels (user_label_id)</text>
</g>
</g>
</svg>
