<?xml version="1.0" encoding="UTF-8" standalone="no"?>
<!DOCTYPE svg PUBLIC "-//W3C//DTD SVG 1.1//EN"
 "http://www.w3.org/Graphics/SVG/1.1/DTD/svg11.dtd">
<!-- Generated by graphviz version 12.1.2 (20240928.0832)
 -->
<!-- Title: users Pages: 1 -->
<svg width="1404pt" height="664pt"
 viewBox="0.00 0.00 1404.37 663.60" xmlns="http://www.w3.org/2000/svg" xmlns:xlink="http://www.w3.org/1999/xlink">
<g id="graph0" class="graph" transform="scale(1 1) rotate(0) translate(4 659.6)">
<title>users</title>
<polygon fill="white" stroke="none" points="-4,4 -4,-659.6 1400.37,-659.6 1400.37,4 -4,4"/>
<!-- users -->
<g id="node1" class="node">
<title>users</title>
<polygon fill="#efefef" stroke="none" points="617.42,-231 617.42,-266.6 831.42,-266.6 831.42,-231 617.42,-231"/>
<polygon fill="none" stroke="black" points="617.42,-231 617.42,-266.6 831.42,-266.6 831.42,-231 617.42,-231"/>
<text text-anchor="start" x="643.68" y="-244.4" font-family="Arial Bold" font-size="18.00">users</text>
<text text-anchor="start" x="680.67" y="-244.4" font-family="Arial" font-size="14.00">    </text>
<text text-anchor="start" x="711.79" y="-244.4" font-family="Arial" font-size="14.00" fill="#666666">[BASE TABLE]</text>
<polygon fill="none" stroke="black" points="617.42,-200.2 617.42,-231 831.42,-231 831.42,-200.2 617.42,-200.2"/>
<text text-anchor="start" x="624.42" y="-212.4" font-family="Arial" font-size="14.00">id </text>
<text text-anchor="start" x="639.21" y="-212.4" font-family="Arial" font-size="14.00" fill="#666666">[int(11)]</text>
<polygon fill="none" stroke="black" points="617.42,-169.4 617.42,-200.2 831.42,-200.2 831.42,-169.4 617.42,-169.4"/>
<text text-anchor="start" x="624.42" y="-181.6" font-family="Arial" font-size="14.00">email </text>
<text text-anchor="start" x="661.77" y="-181.6" font-family="Arial" font-size="14.00" fill="#666666">[varchar(320)]</text>
<polygon fill="none" stroke="black" points="617.42,-138.6 617.42,-169.4 831.42,-169.4 831.42,-138.6 617.42,-138.6"/>
<text text-anchor="start" x="624.42" y="-150.8" font-family="Arial" font-size="14.00">first_name </text>
<text text-anchor="start" x="693.67" y="-150.8" font-family="Arial" font-size="14.00" fill="#666666">[varchar(255)]</text>
<polygon fill="none" stroke="black" points="617.42,-107.8 617.42,-138.6 831.42,-138.6 831.42,-107.8 617.42,-107.8"/>
<text text-anchor="start" x="624.42" y="-120" font-family="Arial" font-size="14.00">last_name </text>
<text text-anchor="start" x="692.91" y="-120" font-family="Arial" font-size="14.00" fill="#666666">[varchar(255)]</text>
<polygon fill="none" stroke="black" points="617.42,-77 617.42,-107.8 831.42,-107.8 831.42,-77 617.42,-77"/>
<text text-anchor="start" x="624.42" y="-89.2" font-family="Arial" font-size="14.00">password_hash </text>
<text text-anchor="start" x="726.37" y="-89.2" font-family="Arial" font-size="14.00" fill="#666666">[varbinary(255)]</text>
<polygon fill="none" stroke="black" points="617.42,-46.2 617.42,-77 831.42,-77 831.42,-46.2 617.42,-46.2"/>
<text text-anchor="start" x="624.42" y="-58.4" font-family="Arial" font-size="14.00">middle_name </text>
<text text-anchor="start" x="712.36" y="-58.4" font-family="Arial" font-size="14.00" fill="#666666">[varchar(255)]</text>
<polygon fill="none" stroke="black" stroke-width="3" points="615.92,-44.7 615.92,-268.1 832.92,-268.1 832.92,-44.7 615.92,-44.7"/>
</g>
<!-- users_calendars -->
<g id="node2" class="node">
<title>users_calendars</title>
<polygon fill="#efefef" stroke="none" points="43.2,-515.2 43.2,-550.8 295.64,-550.8 295.64,-515.2 43.2,-515.2"/>
<polygon fill="none" stroke="black" points="43.2,-515.2 43.2,-550.8 295.64,-550.8 295.64,-515.2 43.2,-515.2"/>
<text text-anchor="start" x="50.2" y="-528.6" font-family="Arial Bold" font-size="18.00">users_calendars</text>
<text text-anchor="start" x="164.15" y="-528.6" font-family="Arial" font-size="14.00">    </text>
<text text-anchor="start" x="195.27" y="-528.6" font-family="Arial" font-size="14.00" fill="#666666">[BASE TABLE]</text>
<polygon fill="none" stroke="black" points="43.2,-484.4 43.2,-515.2 295.64,-515.2 295.64,-484.4 43.2,-484.4"/>
<text text-anchor="start" x="50.2" y="-496.6" font-family="Arial" font-size="14.00">user_id </text>
<text text-anchor="start" x="100.01" y="-496.6" font-family="Arial" font-size="14.00" fill="#666666">[int(11)]</text>
<polygon fill="none" stroke="black" points="43.2,-453.6 43.2,-484.4 295.64,-484.4 295.64,-453.6 43.2,-453.6"/>
<text text-anchor="start" x="50.2" y="-465.8" font-family="Arial" font-size="14.00">calendar_id </text>
<text text-anchor="start" x="126.48" y="-465.8" font-family="Arial" font-size="14.00" fill="#666666">[int(11)]</text>
</g>
<!-- users_calendars&#45;&gt;users -->
<g id="edge1" class="edge">
<title>users_calendars:user_id&#45;&gt;users:id</title>
<path fill="none" stroke="black" d="M306.76,-499.01C360.95,-489.62 304.11,-399.33 348.42,-348.8 436.12,-248.8 483.41,-215.6 616.42,-215.6"/>
<polygon fill="black" stroke="black" points="306.94,-498.99 296.62,-495.29 301.62,-499.41 297.31,-499.75 297.31,-499.75 297.31,-499.75 301.62,-499.41 297.32,-504.26 306.94,-498.99"/>
<text text-anchor="start" x="183.56" y="-483.8" font-family="Arial" font-size="10.00">FOREIGN KEY (user_id) REFERENCES users (id)</text>
</g>
<!-- users_calendars_bans -->
<g id="node3" class="node">
<title>users_calendars_bans</title>
<polygon fill="#efefef" stroke="none" points="400.2,-546 400.2,-581.6 694.64,-581.6 694.64,-546 400.2,-546"/>
<polygon fill="none" stroke="black" points="400.2,-546 400.2,-581.6 694.64,-581.6 694.64,-546 400.2,-546"/>
<text text-anchor="start" x="407.2" y="-559.4" font-family="Arial Bold" font-size="18.00">users_calendars_bans</text>
<text text-anchor="start" x="563.15" y="-559.4" font-family="Arial" font-size="14.00">    </text>
<text text-anchor="start" x="594.26" y="-559.4" font-family="Arial" font-size="14.00" fill="#666666">[BASE TABLE]</text>
<polygon fill="none" stroke="black" points="400.2,-515.2 400.2,-546 694.64,-546 694.64,-515.2 400.2,-515.2"/>
<text text-anchor="start" x="407.2" y="-527.4" font-family="Arial" font-size="14.00">user_id </text>
<text text-anchor="start" x="457.01" y="-527.4" font-family="Arial" font-size="14.00" fill="#666666">[int(11)]</text>
<polygon fill="none" stroke="black" points="400.2,-484.4 400.2,-515.2 694.64,-515.2 694.64,-484.4 400.2,-484.4"/>
<text text-anchor="start" x="407.2" y="-496.6" font-family="Arial" font-size="14.00">calendar_id </text>
<text text-anchor="start" x="483.48" y="-496.6" font-family="Arial" font-size="14.00" fill="#666666">[int(11)]</text>
<polygon fill="none" stroke="black" points="400.2,-453.6 400.2,-484.4 694.64,-484.4 694.64,-453.6 400.2,-453.6"/>
<text text-anchor="start" x="407.2" y="-465.8" font-family="Arial" font-size="14.00">reason </text>
<text text-anchor="start" x="453.9" y="-465.8" font-family="Arial" font-size="14.00" fill="#666666">[varchar(255)]</text>
<polygon fill="none" stroke="black" points="400.2,-422.8 400.2,-453.6 694.64,-453.6 694.64,-422.8 400.2,-422.8"/>
<text text-anchor="start" x="407.2" y="-435" font-family="Arial" font-size="14.00">expires_at </text>
<text text-anchor="start" x="475.69" y="-435" font-family="Arial" font-size="14.00" fill="#666666">[datetime(6)]</text>
</g>
<!-- users_calendars_bans&#45;&gt;users -->
<g id="edge2" class="edge">
<title>users_calendars_bans:user_id&#45;&gt;users:id</title>
<path fill="none" stroke="black" d="M706.03,-529.75C758.26,-520.49 721.15,-437.09 694.64,-379.6 675.63,-338.39 636.5,-353.97 617.42,-312.8 599.26,-273.6 573.22,-215.6 616.42,-215.6"/>
<polygon fill="black" stroke="black" points="705.94,-529.76 695.61,-526.09 700.62,-530.19 696.3,-530.55 696.3,-530.55 696.3,-530.55 700.62,-530.19 696.33,-535.06 705.94,-529.76"/>
<text text-anchor="start" x="702.64" y="-540.6" font-family="Arial" font-size="10.00">FOREIGN KEY (user_id) REFERENCES users (id)</text>
</g>
<!-- calendars -->
<g id="node4" class="node">
<title>calendars</title>
<polygon fill="#efefef" stroke="none" points="799.2,-576.8 799.2,-612.4 1005.64,-612.4 1005.64,-576.8 799.2,-576.8"/>
<polygon fill="none" stroke="black" points="799.2,-576.8 799.2,-612.4 1005.64,-612.4 1005.64,-576.8 799.2,-576.8"/>
<text text-anchor="start" x="806.2" y="-590.2" font-family="Arial Bold" font-size="18.00">calendars</text>
<text text-anchor="start" x="874.15" y="-590.2" font-family="Arial" font-size="14.00">    </text>
<text text-anchor="start" x="905.27" y="-590.2" font-family="Arial" font-size="14.00" fill="#666666">[BASE TABLE]</text>
<polygon fill="none" stroke="black" points="799.2,-546 799.2,-576.8 1005.64,-576.8 1005.64,-546 799.2,-546"/>
<text text-anchor="start" x="806.2" y="-558.2" font-family="Arial" font-size="14.00">id </text>
<text text-anchor="start" x="820.98" y="-558.2" font-family="Arial" font-size="14.00" fill="#666666">[int(11)]</text>
<polygon fill="none" stroke="black" points="799.2,-515.2 799.2,-546 1005.64,-546 1005.64,-515.2 799.2,-515.2"/>
<text text-anchor="start" x="806.2" y="-527.4" font-family="Arial" font-size="14.00">owner_id </text>
<text text-anchor="start" x="866.9" y="-527.4" font-family="Arial" font-size="14.00" fill="#666666">[int(11)]</text>
<polygon fill="none" stroke="black" points="799.2,-484.4 799.2,-515.2 1005.64,-515.2 1005.64,-484.4 799.2,-484.4"/>
<text text-anchor="start" x="806.2" y="-496.6" font-family="Arial" font-size="14.00">name </text>
<text text-anchor="start" x="845.11" y="-496.6" font-family="Arial" font-size="14.00" fill="#666666">[varchar(255)]</text>
<polygon fill="none" stroke="black" points="799.2,-453.6 799.2,-484.4 1005.64,-484.4 1005.64,-453.6 799.2,-453.6"/>
<text text-anchor="start" x="806.2" y="-465.8" font-family="Arial" font-size="14.00">description </text>
<text text-anchor="start" x="877.79" y="-465.8" font-family="Arial" font-size="14.00" fill="#666666">[text]</text>
<polygon fill="none" stroke="black" points="799.2,-422.8 799.2,-453.6 1005.64,-453.6 1005.64,-422.8 799.2,-422.8"/>
<text text-anchor="start" x="806.2" y="-435" font-family="Arial" font-size="14.00">ical </text>
<text text-anchor="start" x="831.09" y="-435" font-family="Arial" font-size="14.00" fill="#666666">[longblob]</text>
<polygon fill="none" stroke="black" points="799.2,-392 799.2,-422.8 1005.64,-422.8 1005.64,-392 799.2,-392"/>
<text text-anchor="start" x="806.2" y="-404.2" font-family="Arial" font-size="14.00">members_only </text>
<text text-anchor="start" x="901.9" y="-404.2" font-family="Arial" font-size="14.00" fill="#666666">[tinyint(1)]</text>
</g>
<!-- calendars&#45;&gt;users -->
<g id="edge3" class="edge">
<title>calendars:owner_id&#45;&gt;users:id</title>
<path fill="none" stroke="black" d="M788.1,-529.97C722.09,-521.1 771.45,-420.81 799.2,-348.8 806.92,-328.76 823.65,-332.82 831.42,-312.8 847.04,-272.52 875.62,-215.6 832.42,-215.6"/>
<polygon fill="black" stroke="black" points="787.88,-529.95 797.58,-535.07 793.21,-530.29 797.53,-530.56 797.53,-530.56 797.53,-530.56 793.21,-530.29 798.14,-526.09 787.88,-529.95"/>
<text text-anchor="start" x="805.2" y="-514.6" font-family="Arial" font-size="10.00">FOREIGN KEY (owner_id) REFERENCES users (id)</text>
</g>
<!-- users_sessions -->
<g id="node5" class="node">
<title>users_sessions</title>
<polygon fill="#efefef" stroke="none" points="1109.67,-546 1109.67,-581.6 1353.17,-581.6 1353.17,-546 1109.67,-546"/>
<polygon fill="none" stroke="black" points="1109.67,-546 1109.67,-581.6 1353.17,-581.6 1353.17,-546 1109.67,-546"/>
<text text-anchor="start" x="1116.67" y="-559.4" font-family="Arial Bold" font-size="18.00">users_sessions</text>
<text text-anchor="start" x="1221.68" y="-559.4" font-family="Arial" font-size="14.00">    </text>
<text text-anchor="start" x="1252.79" y="-559.4" font-family="Arial" font-size="14.00" fill="#666666">[BASE TABLE]</text>
<polygon fill="none" stroke="black" points="1109.67,-515.2 1109.67,-546 1353.17,-546 1353.17,-515.2 1109.67,-515.2"/>
<text text-anchor="start" x="1116.67" y="-527.4" font-family="Arial" font-size="14.00">id </text>
<text text-anchor="start" x="1131.46" y="-527.4" font-family="Arial" font-size="14.00" fill="#666666">[binary(16)]</text>
<polygon fill="none" stroke="black" points="1109.67,-484.4 1109.67,-515.2 1353.17,-515.2 1353.17,-484.4 1109.67,-484.4"/>
<text text-anchor="start" x="1116.67" y="-496.6" font-family="Arial" font-size="14.00">user_id </text>
<text text-anchor="start" x="1166.48" y="-496.6" font-family="Arial" font-size="14.00" fill="#666666">[int(11)]</text>
<polygon fill="none" stroke="black" points="1109.67,-453.6 1109.67,-484.4 1353.17,-484.4 1353.17,-453.6 1109.67,-453.6"/>
<text text-anchor="start" x="1116.67" y="-465.8" font-family="Arial" font-size="14.00">email </text>
<text text-anchor="start" x="1154.02" y="-465.8" font-family="Arial" font-size="14.00" fill="#666666">[varchar(320)]</text>
<polygon fill="none" stroke="black" points="1109.67,-422.8 1109.67,-453.6 1353.17,-453.6 1353.17,-422.8 1109.67,-422.8"/>
<text text-anchor="start" x="1116.67" y="-435" font-family="Arial" font-size="14.00">expires_at </text>
<text text-anchor="start" x="1185.16" y="-435" font-family="Arial" font-size="14.00" fill="#666666">[datetime(6)]</text>
</g>
<!-- users_sessions&#45;&gt;users -->
<g id="edge4" class="edge">
<title>users_sessions:user_id&#45;&gt;users:id</title>
<path fill="none" stroke="black" d="M1098.55,-499.02C1044.28,-489.79 1099.73,-400.93 1057.42,-348.8 984.19,-258.57 948.63,-215.6 832.42,-215.6"/>
<polygon fill="black" stroke="black" points="1098.37,-499.01 1107.99,-504.26 1103.69,-499.42 1108.01,-499.75 1108.01,-499.75 1108.01,-499.75 1103.69,-499.42 1108.69,-495.29 1098.37,-499.01"/>
<text text-anchor="start" x="1055.63" y="-483.8" font-family="Arial" font-size="10.00">FOREIGN KEY (user_id) REFERENCES users (id)</text>
</g>
</g>
</svg>
