<?xml version="1.0" encoding="UTF-8" standalone="no"?>
<!DOCTYPE svg PUBLIC "-//W3C//DTD SVG 1.1//EN"
 "http://www.w3.org/Graphics/SVG/1.1/DTD/svg11.dtd">
<!-- Generated by graphviz version 12.1.2 (20240928.0832)
 -->
<!-- Title: users_calendars Pages: 1 -->
<svg width="781pt" height="602pt"
 viewBox="0.00 0.00 780.57 602.00" xmlns="http://www.w3.org/2000/svg" xmlns:xlink="http://www.w3.org/1999/xlink">
<g id="graph0" class="graph" transform="scale(1 1) rotate(0) translate(4 598)">
<title>users_calendars</title>
<polygon fill="white" stroke="none" points="-4,4 -4,-598 776.57,-598 776.57,4 -4,4"/>
<!-- users_calendars -->
<g id="node1" class="node">
<title>users_calendars</title>
<polygon fill="#efefef" stroke="none" points="241.16,-512.2 241.16,-547.8 493.6,-547.8 493.6,-512.2 241.16,-512.2"/>
<polygon fill="none" stroke="black" points="241.16,-512.2 241.16,-547.8 493.6,-547.8 493.6,-512.2 241.16,-512.2"/>
<text text-anchor="start" x="248.16" y="-525.6" font-family="Arial Bold" font-size="18.00">users_calendars</text>
<text text-anchor="start" x="362.11" y="-525.6" font-family="Arial" font-size="14.00">    </text>
<text text-anchor="start" x="393.22" y="-525.6" font-family="Arial" font-size="14.00" fill="#666666">[BASE TABLE]</text>
<polygon fill="none" stroke="black" points="241.16,-481.4 241.16,-512.2 493.6,-512.2 493.6,-481.4 241.16,-481.4"/>
<text text-anchor="start" x="248.16" y="-493.6" font-family="Arial" font-size="14.00">user_id </text>
<text text-anchor="start" x="297.96" y="-493.6" font-family="Arial" font-size="14.00" fill="#666666">[int(11)]</text>
<polygon fill="none" stroke="black" points="241.16,-450.6 241.16,-481.4 493.6,-481.4 493.6,-450.6 241.16,-450.6"/>
<text text-anchor="start" x="248.16" y="-462.8" font-family="Arial" font-size="14.00">calendar_id </text>
<text text-anchor="start" x="324.43" y="-462.8" font-family="Arial" font-size="14.00" fill="#666666">[int(11)]</text>
<polygon fill="none" stroke="black" points="241.16,-419.8 241.16,-450.6 493.6,-450.6 493.6,-419.8 241.16,-419.8"/>
<text text-anchor="start" x="248.16" y="-432" font-family="Arial" font-size="14.00">color </text>
<text text-anchor="start" x="282.39" y="-432" font-family="Arial" font-size="14.00" fill="#666666">[varchar(6)]</text>
<polygon fill="none" stroke="black" stroke-width="3" points="239.66,-418.3 239.66,-549.3 495.1,-549.3 495.1,-418.3 239.66,-418.3"/>
</g>
<!-- users -->
<g id="node2" class="node">
<title>users</title>
<polygon fill="#efefef" stroke="none" points="103.38,-243.4 103.38,-279 317.37,-279 317.37,-243.4 103.38,-243.4"/>
<polygon fill="none" stroke="black" points="103.38,-243.4 103.38,-279 317.37,-279 317.37,-243.4 103.38,-243.4"/>
<text text-anchor="start" x="129.64" y="-256.8" font-family="Arial Bold" font-size="18.00">users</text>
<text text-anchor="start" x="166.63" y="-256.8" font-family="Arial" font-size="14.00">    </text>
<text text-anchor="start" x="197.75" y="-256.8" font-family="Arial" font-size="14.00" fill="#666666">[BASE TABLE]</text>
<polygon fill="none" stroke="black" points="103.38,-212.6 103.38,-243.4 317.37,-243.4 317.37,-212.6 103.38,-212.6"/>
<text text-anchor="start" x="110.38" y="-224.8" font-family="Arial" font-size="14.00">id </text>
<text text-anchor="start" x="125.17" y="-224.8" font-family="Arial" font-size="14.00" fill="#666666">[int(11)]</text>
<polygon fill="none" stroke="black" points="103.38,-181.8 103.38,-212.6 317.37,-212.6 317.37,-181.8 103.38,-181.8"/>
<text text-anchor="start" x="110.38" y="-194" font-family="Arial" font-size="14.00">email </text>
<text text-anchor="start" x="147.73" y="-194" font-family="Arial" font-size="14.00" fill="#666666">[varchar(320)]</text>
<polygon fill="none" stroke="black" points="103.38,-151 103.38,-181.8 317.37,-181.8 317.37,-151 103.38,-151"/>
<text text-anchor="start" x="110.38" y="-163.2" font-family="Arial" font-size="14.00">first_name </text>
<text text-anchor="start" x="179.63" y="-163.2" font-family="Arial" font-size="14.00" fill="#666666">[varchar(255)]</text>
<polygon fill="none" stroke="black" points="103.38,-120.2 103.38,-151 317.37,-151 317.37,-120.2 103.38,-120.2"/>
<text text-anchor="start" x="110.38" y="-132.4" font-family="Arial" font-size="14.00">last_name </text>
<text text-anchor="start" x="178.86" y="-132.4" font-family="Arial" font-size="14.00" fill="#666666">[varchar(255)]</text>
<polygon fill="none" stroke="black" points="103.38,-89.4 103.38,-120.2 317.37,-120.2 317.37,-89.4 103.38,-89.4"/>
<text text-anchor="start" x="110.38" y="-101.6" font-family="Arial" font-size="14.00">password_hash </text>
<text text-anchor="start" x="212.33" y="-101.6" font-family="Arial" font-size="14.00" fill="#666666">[varbinary(255)]</text>
<polygon fill="none" stroke="black" points="103.38,-58.6 103.38,-89.4 317.37,-89.4 317.37,-58.6 103.38,-58.6"/>
<text text-anchor="start" x="110.38" y="-70.8" font-family="Arial" font-size="14.00">middle_name </text>
<text text-anchor="start" x="198.32" y="-70.8" font-family="Arial" font-size="14.00" fill="#666666">[varchar(255)]</text>
</g>
<!-- users_calendars&#45;&gt;users -->
<g id="edge1" class="edge">
<title>users_calendars:user_id&#45;&gt;users:id</title>
<path fill="none" stroke="black" d="M229.83,-495.72C189.58,-486.39 217.07,-418.45 241.16,-373.6 260.49,-337.6 298,-358.17 317.37,-322.2 337.23,-285.34 360.24,-228 318.37,-228"/>
<polygon fill="black" stroke="black" points="229.88,-495.73 239.36,-501.24 235.18,-496.28 239.49,-496.73 239.49,-496.73 239.49,-496.73 235.18,-496.28 240.29,-492.29 229.88,-495.73"/>
<text text-anchor="start" x="7" y="-506.8" font-family="Arial" font-size="10.00">FOREIGN KEY (user_id) REFERENCES users (id)</text>
</g>
<!-- calendars -->
<g id="node3" class="node">
<title>calendars</title>
<polygon fill="#efefef" stroke="none" points="422.15,-258.8 422.15,-294.4 628.6,-294.4 628.6,-258.8 422.15,-258.8"/>
<polygon fill="none" stroke="black" points="422.15,-258.8 422.15,-294.4 628.6,-294.4 628.6,-258.8 422.15,-258.8"/>
<text text-anchor="start" x="429.15" y="-272.2" font-family="Arial Bold" font-size="18.00">calendars</text>
<text text-anchor="start" x="497.11" y="-272.2" font-family="Arial" font-size="14.00">    </text>
<text text-anchor="start" x="528.23" y="-272.2" font-family="Arial" font-size="14.00" fill="#666666">[BASE TABLE]</text>
<polygon fill="none" stroke="black" points="422.15,-228 422.15,-258.8 628.6,-258.8 628.6,-228 422.15,-228"/>
<text text-anchor="start" x="429.15" y="-240.2" font-family="Arial" font-size="14.00">id </text>
<text text-anchor="start" x="443.94" y="-240.2" font-family="Arial" font-size="14.00" fill="#666666">[int(11)]</text>
<polygon fill="none" stroke="black" points="422.15,-197.2 422.15,-228 628.6,-228 628.6,-197.2 422.15,-197.2"/>
<text text-anchor="start" x="429.15" y="-209.4" font-family="Arial" font-size="14.00">owner_id </text>
<text text-anchor="start" x="489.86" y="-209.4" font-family="Arial" font-size="14.00" fill="#666666">[int(11)]</text>
<polygon fill="none" stroke="black" points="422.15,-166.4 422.15,-197.2 628.6,-197.2 628.6,-166.4 422.15,-166.4"/>
<text text-anchor="start" x="429.15" y="-178.6" font-family="Arial" font-size="14.00">name </text>
<text text-anchor="start" x="468.06" y="-178.6" font-family="Arial" font-size="14.00" fill="#666666">[varchar(255)]</text>
<polygon fill="none" stroke="black" points="422.15,-135.6 422.15,-166.4 628.6,-166.4 628.6,-135.6 422.15,-135.6"/>
<text text-anchor="start" x="429.15" y="-147.8" font-family="Arial" font-size="14.00">description </text>
<text text-anchor="start" x="500.75" y="-147.8" font-family="Arial" font-size="14.00" fill="#666666">[text]</text>
<polygon fill="none" stroke="black" points="422.15,-104.8 422.15,-135.6 628.6,-135.6 628.6,-104.8 422.15,-104.8"/>
<text text-anchor="start" x="429.15" y="-117" font-family="Arial" font-size="14.00">ical </text>
<text text-anchor="start" x="454.05" y="-117" font-family="Arial" font-size="14.00" fill="#666666">[longblob]</text>
<polygon fill="none" stroke="black" points="422.15,-74 422.15,-104.8 628.6,-104.8 628.6,-74 422.15,-74"/>
<text text-anchor="start" x="429.15" y="-86.2" font-family="Arial" font-size="14.00">members_only </text>
<text text-anchor="start" x="524.86" y="-86.2" font-family="Arial" font-size="14.00" fill="#666666">[tinyint(1)]</text>
<polygon fill="none" stroke="black" points="422.15,-43.2 422.15,-74 628.6,-74 628.6,-43.2 422.15,-43.2"/>
<text text-anchor="start" x="429.15" y="-55.4" font-family="Arial" font-size="14.00">color </text>
<text text-anchor="start" x="463.39" y="-55.4" font-family="Arial" font-size="14.00" fill="#666666">[varchar(6)]</text>
</g>
<!-- users_calendars&#45;&gt;calendars -->
<g id="edge2" class="edge">
<title>users_calendars:calendar_id&#45;&gt;calendars:id</title>
<path fill="none" stroke="black" d="M504.58,-464.55C531.84,-455.41 513.29,-405.18 493.6,-373.6 474.79,-343.43 440.96,-367.78 422.15,-337.6 400.01,-302.07 379.28,-243.4 421.15,-243.4"/>
<polygon fill="black" stroke="black" points="504.82,-464.51 494.28,-461.5 499.54,-465.28 495.26,-465.9 495.26,-465.9 495.26,-465.9 499.54,-465.28 495.58,-470.41 504.82,-464.51"/>
<text text-anchor="start" x="501.6" y="-476" font-family="Arial" font-size="10.00">FOREIGN KEY (calendar_id) REFERENCES calendars (id)</text>
</g>
</g>
</svg>
