<?xml version="1.0" encoding="UTF-8" standalone="no"?>
<!DOCTYPE svg PUBLIC "-//W3C//DTD SVG 1.1//EN"
 "http://www.w3.org/Graphics/SVG/1.1/DTD/svg11.dtd">
<!-- Generated by graphviz version 12.1.2 (20240928.0832)
 -->
<!-- Title: users_sessions Pages: 1 -->
<svg width="539pt" height="571pt"
 viewBox="0.00 0.00 538.85 571.20" xmlns="http://www.w3.org/2000/svg" xmlns:xlink="http://www.w3.org/1999/xlink">
<g id="graph0" class="graph" transform="scale(1 1) rotate(0) translate(4 567.2)">
<title>users_sessions</title>
<polygon fill="white" stroke="none" points="-4,4 -4,-567.2 534.85,-567.2 534.85,4 -4,4"/>
<!-- users_sessions -->
<g id="node1" class="node">
<title>users_sessions</title>
<polygon fill="#efefef" stroke="none" points="46.2,-481.4 46.2,-517 289.69,-517 289.69,-481.4 46.2,-481.4"/>
<polygon fill="none" stroke="black" points="46.2,-481.4 46.2,-517 289.69,-517 289.69,-481.4 46.2,-481.4"/>
<text text-anchor="start" x="53.2" y="-494.8" font-family="Arial Bold" font-size="18.00">users_sessions</text>
<text text-anchor="start" x="158.2" y="-494.8" font-family="Arial" font-size="14.00">    </text>
<text text-anchor="start" x="189.32" y="-494.8" font-family="Arial" font-size="14.00" fill="#666666">[BASE TABLE]</text>
<polygon fill="none" stroke="black" points="46.2,-450.6 46.2,-481.4 289.69,-481.4 289.69,-450.6 46.2,-450.6"/>
<text text-anchor="start" x="53.2" y="-462.8" font-family="Arial" font-size="14.00">id </text>
<text text-anchor="start" x="67.99" y="-462.8" font-family="Arial" font-size="14.00" fill="#666666">[binary(16)]</text>
<polygon fill="none" stroke="black" points="46.2,-419.8 46.2,-450.6 289.69,-450.6 289.69,-419.8 46.2,-419.8"/>
<text text-anchor="start" x="53.2" y="-432" font-family="Arial" font-size="14.00">user_id </text>
<text text-anchor="start" x="103.01" y="-432" font-family="Arial" font-size="14.00" fill="#666666">[int(11)]</text>
<polygon fill="none" stroke="black" points="46.2,-389 46.2,-419.8 289.69,-419.8 289.69,-389 46.2,-389"/>
<text text-anchor="start" x="53.2" y="-401.2" font-family="Arial" font-size="14.00">expires_at </text>
<text text-anchor="start" x="121.68" y="-401.2" font-family="Arial" font-size="14.00" fill="#666666">[datetime(6)]</text>
<polygon fill="none" stroke="black" stroke-width="3" points="44.7,-387.5 44.7,-518.5 291.19,-518.5 291.19,-387.5 44.7,-387.5"/>
</g>
<!-- users -->
<g id="node2" class="node">
<title>users</title>
<polygon fill="#efefef" stroke="none" points="60.95,-228 60.95,-263.6 274.94,-263.6 274.94,-228 60.95,-228"/>
<polygon fill="none" stroke="black" points="60.95,-228 60.95,-263.6 274.94,-263.6 274.94,-228 60.95,-228"/>
<text text-anchor="start" x="87.2" y="-241.4" font-family="Arial Bold" font-size="18.00">users</text>
<text text-anchor="start" x="124.2" y="-241.4" font-family="Arial" font-size="14.00">    </text>
<text text-anchor="start" x="155.32" y="-241.4" font-family="Arial" font-size="14.00" fill="#666666">[BASE TABLE]</text>
<polygon fill="none" stroke="black" points="60.95,-197.2 60.95,-228 274.94,-228 274.94,-197.2 60.95,-197.2"/>
<text text-anchor="start" x="67.95" y="-209.4" font-family="Arial" font-size="14.00">id </text>
<text text-anchor="start" x="82.74" y="-209.4" font-family="Arial" font-size="14.00" fill="#666666">[int(11)]</text>
<polygon fill="none" stroke="black" points="60.95,-166.4 60.95,-197.2 274.94,-197.2 274.94,-166.4 60.95,-166.4"/>
<text text-anchor="start" x="67.95" y="-178.6" font-family="Arial" font-size="14.00">email </text>
<text text-anchor="start" x="105.29" y="-178.6" font-family="Arial" font-size="14.00" fill="#666666">[varchar(320)]</text>
<polygon fill="none" stroke="black" points="60.95,-135.6 60.95,-166.4 274.94,-166.4 274.94,-135.6 60.95,-135.6"/>
<text text-anchor="start" x="67.95" y="-147.8" font-family="Arial" font-size="14.00">first_name </text>
<text text-anchor="start" x="137.2" y="-147.8" font-family="Arial" font-size="14.00" fill="#666666">[varchar(255)]</text>
<polygon fill="none" stroke="black" points="60.95,-104.8 60.95,-135.6 274.94,-135.6 274.94,-104.8 60.95,-104.8"/>
<text text-anchor="start" x="67.95" y="-117" font-family="Arial" font-size="14.00">last_name </text>
<text text-anchor="start" x="136.43" y="-117" font-family="Arial" font-size="14.00" fill="#666666">[varchar(255)]</text>
<polygon fill="none" stroke="black" points="60.95,-74 60.95,-104.8 274.94,-104.8 274.94,-74 60.95,-74"/>
<text text-anchor="start" x="67.95" y="-86.2" font-family="Arial" font-size="14.00">password_hash </text>
<text text-anchor="start" x="169.9" y="-86.2" font-family="Arial" font-size="14.00" fill="#666666">[varbinary(255)]</text>
<polygon fill="none" stroke="black" points="60.95,-43.2 60.95,-74 274.94,-74 274.94,-43.2 60.95,-43.2"/>
<text text-anchor="start" x="67.95" y="-55.4" font-family="Arial" font-size="14.00">middle_name </text>
<text text-anchor="start" x="155.89" y="-55.4" font-family="Arial" font-size="14.00" fill="#666666">[varchar(255)]</text>
</g>
<!-- users_sessions&#45;&gt;users -->
<g id="edge1" class="edge">
<title>users_sessions:user_id&#45;&gt;users:id</title>
<path fill="none" stroke="black" d="M301,-434.35C388.67,-419.4 371.51,-212.6 275.94,-212.6"/>
<polygon fill="black" stroke="black" points="300.99,-434.35 290.66,-430.69 295.68,-434.79 291.36,-435.14 291.36,-435.14 291.36,-435.14 295.68,-434.79 291.4,-439.66 300.99,-434.35"/>
<text text-anchor="start" x="297.69" y="-445.2" font-family="Arial" font-size="10.00">FOREIGN KEY (user_id) REFERENCES users (id)</text>
</g>
</g>
</svg>
