<?xml version="1.0" encoding="UTF-8" standalone="no"?>
<!DOCTYPE svg PUBLIC "-//W3C//DTD SVG 1.1//EN"
 "http://www.w3.org/Graphics/SVG/1.1/DTD/svg11.dtd">
<!-- Generated by graphviz version 12.1.2 (20240928.0832)
 -->
<!-- Title: users_calendars Pages: 1 -->
<svg width="781pt" height="540pt"
 viewBox="0.00 0.00 780.57 540.40" xmlns="http://www.w3.org/2000/svg" xmlns:xlink="http://www.w3.org/1999/xlink">
<g id="graph0" class="graph" transform="scale(1 1) rotate(0) translate(4 536.4)">
<title>users_calendars</title>
<polygon fill="white" stroke="none" points="-4,4 -4,-536.4 776.57,-536.4 776.57,4 -4,4"/>
<!-- users_calendars -->
<g id="node1" class="node">
<title>users_calendars</title>
<polygon fill="#efefef" stroke="none" points="241.16,-450.6 241.16,-486.2 493.6,-486.2 493.6,-450.6 241.16,-450.6"/>
<polygon fill="none" stroke="black" points="241.16,-450.6 241.16,-486.2 493.6,-486.2 493.6,-450.6 241.16,-450.6"/>
<text text-anchor="start" x="248.16" y="-464" font-family="Arial Bold" font-size="18.00">users_calendars</text>
<text text-anchor="start" x="362.11" y="-464" font-family="Arial" font-size="14.00">    </text>
<text text-anchor="start" x="393.22" y="-464" font-family="Arial" font-size="14.00" fill="#666666">[BASE TABLE]</text>
<polygon fill="none" stroke="black" points="241.16,-419.8 241.16,-450.6 493.6,-450.6 493.6,-419.8 241.16,-419.8"/>
<text text-anchor="start" x="248.16" y="-432" font-family="Arial" font-size="14.00">user_id </text>
<text text-anchor="start" x="297.96" y="-432" font-family="Arial" font-size="14.00" fill="#666666">[int(11)]</text>
<polygon fill="none" stroke="black" points="241.16,-389 241.16,-419.8 493.6,-419.8 493.6,-389 241.16,-389"/>
<text text-anchor="start" x="248.16" y="-401.2" font-family="Arial" font-size="14.00">calendar_id </text>
<text text-anchor="start" x="324.43" y="-401.2" font-family="Arial" font-size="14.00" fill="#666666">[int(11)]</text>
<polygon fill="none" stroke="black" stroke-width="3" points="239.66,-387.5 239.66,-487.7 495.1,-487.7 495.1,-387.5 239.66,-387.5"/>
</g>
<!-- users -->
<g id="node2" class="node">
<title>users</title>
<polygon fill="#efefef" stroke="none" points="103.38,-228 103.38,-263.6 317.37,-263.6 317.37,-228 103.38,-228"/>
<polygon fill="none" stroke="black" points="103.38,-228 103.38,-263.6 317.37,-263.6 317.37,-228 103.38,-228"/>
<text text-anchor="start" x="129.64" y="-241.4" font-family="Arial Bold" font-size="18.00">users</text>
<text text-anchor="start" x="166.63" y="-241.4" font-family="Arial" font-size="14.00">    </text>
<text text-anchor="start" x="197.75" y="-241.4" font-family="Arial" font-size="14.00" fill="#666666">[BASE TABLE]</text>
<polygon fill="none" stroke="black" points="103.38,-197.2 103.38,-228 317.37,-228 317.37,-197.2 103.38,-197.2"/>
<text text-anchor="start" x="110.38" y="-209.4" font-family="Arial" font-size="14.00">id </text>
<text text-anchor="start" x="125.17" y="-209.4" font-family="Arial" font-size="14.00" fill="#666666">[int(11)]</text>
<polygon fill="none" stroke="black" points="103.38,-166.4 103.38,-197.2 317.37,-197.2 317.37,-166.4 103.38,-166.4"/>
<text text-anchor="start" x="110.38" y="-178.6" font-family="Arial" font-size="14.00">email </text>
<text text-anchor="start" x="147.73" y="-178.6" font-family="Arial" font-size="14.00" fill="#666666">[varchar(320)]</text>
<polygon fill="none" stroke="black" points="103.38,-135.6 103.38,-166.4 317.37,-166.4 317.37,-135.6 103.38,-135.6"/>
<text text-anchor="start" x="110.38" y="-147.8" font-family="Arial" font-size="14.00">first_name </text>
<text text-anchor="start" x="179.63" y="-147.8" font-family="Arial" font-size="14.00" fill="#666666">[varchar(255)]</text>
<polygon fill="none" stroke="black" points="103.38,-104.8 103.38,-135.6 317.37,-135.6 317.37,-104.8 103.38,-104.8"/>
<text text-anchor="start" x="110.38" y="-117" font-family="Arial" font-size="14.00">last_name </text>
<text text-anchor="start" x="178.86" y="-117" font-family="Arial" font-size="14.00" fill="#666666">[varchar(255)]</text>
<polygon fill="none" stroke="black" points="103.38,-74 103.38,-104.8 317.37,-104.8 317.37,-74 103.38,-74"/>
<text text-anchor="start" x="110.38" y="-86.2" font-family="Arial" font-size="14.00">password_hash </text>
<text text-anchor="start" x="212.33" y="-86.2" font-family="Arial" font-size="14.00" fill="#666666">[varbinary(255)]</text>
<polygon fill="none" stroke="black" points="103.38,-43.2 103.38,-74 317.37,-74 317.37,-43.2 103.38,-43.2"/>
<text text-anchor="start" x="110.38" y="-55.4" font-family="Arial" font-size="14.00">middle_name </text>
<text text-anchor="start" x="198.32" y="-55.4" font-family="Arial" font-size="14.00" fill="#666666">[varchar(255)]</text>
</g>
<!-- users_calendars&#45;&gt;users -->
<g id="edge1" class="edge">
<title>users_calendars:user_id&#45;&gt;users:id</title>
<path fill="none" stroke="black" d="M230.17,-433.74C202.84,-424.56 221.07,-374.13 241.16,-342.8 261.38,-311.26 297.16,-338.34 317.37,-306.8 339.97,-271.55 360.24,-212.6 318.37,-212.6"/>
<polygon fill="black" stroke="black" points="229.93,-433.71 239.18,-439.6 235.21,-434.48 239.5,-435.1 239.5,-435.1 239.5,-435.1 235.21,-434.48 240.48,-430.7 229.93,-433.71"/>
<text text-anchor="start" x="7" y="-445.2" font-family="Arial" font-size="10.00">FOREIGN KEY (user_id) REFERENCES users (id)</text>
</g>
<!-- calendars -->
<g id="node3" class="node">
<title>calendars</title>
<polygon fill="#efefef" stroke="none" points="422.15,-228 422.15,-263.6 628.6,-263.6 628.6,-228 422.15,-228"/>
<polygon fill="none" stroke="black" points="422.15,-228 422.15,-263.6 628.6,-263.6 628.6,-228 422.15,-228"/>
<text text-anchor="start" x="429.15" y="-241.4" font-family="Arial Bold" font-size="18.00">calendars</text>
<text text-anchor="start" x="497.11" y="-241.4" font-family="Arial" font-size="14.00">    </text>
<text text-anchor="start" x="528.23" y="-241.4" font-family="Arial" font-size="14.00" fill="#666666">[BASE TABLE]</text>
<polygon fill="none" stroke="black" points="422.15,-197.2 422.15,-228 628.6,-228 628.6,-197.2 422.15,-197.2"/>
<text text-anchor="start" x="429.15" y="-209.4" font-family="Arial" font-size="14.00">id </text>
<text text-anchor="start" x="443.94" y="-209.4" font-family="Arial" font-size="14.00" fill="#666666">[int(11)]</text>
<polygon fill="none" stroke="black" points="422.15,-166.4 422.15,-197.2 628.6,-197.2 628.6,-166.4 422.15,-166.4"/>
<text text-anchor="start" x="429.15" y="-178.6" font-family="Arial" font-size="14.00">owner_id </text>
<text text-anchor="start" x="489.86" y="-178.6" font-family="Arial" font-size="14.00" fill="#666666">[int(11)]</text>
<polygon fill="none" stroke="black" points="422.15,-135.6 422.15,-166.4 628.6,-166.4 628.6,-135.6 422.15,-135.6"/>
<text text-anchor="start" x="429.15" y="-147.8" font-family="Arial" font-size="14.00">name </text>
<text text-anchor="start" x="468.06" y="-147.8" font-family="Arial" font-size="14.00" fill="#666666">[varchar(255)]</text>
<polygon fill="none" stroke="black" points="422.15,-104.8 422.15,-135.6 628.6,-135.6 628.6,-104.8 422.15,-104.8"/>
<text text-anchor="start" x="429.15" y="-117" font-family="Arial" font-size="14.00">description </text>
<text text-anchor="start" x="500.75" y="-117" font-family="Arial" font-size="14.00" fill="#666666">[text]</text>
<polygon fill="none" stroke="black" points="422.15,-74 422.15,-104.8 628.6,-104.8 628.6,-74 422.15,-74"/>
<text text-anchor="start" x="429.15" y="-86.2" font-family="Arial" font-size="14.00">ical </text>
<text text-anchor="start" x="454.05" y="-86.2" font-family="Arial" font-size="14.00" fill="#666666">[longblob]</text>
<polygon fill="none" stroke="black" points="422.15,-43.2 422.15,-74 628.6,-74 628.6,-43.2 422.15,-43.2"/>
<text text-anchor="start" x="429.15" y="-55.4" font-family="Arial" font-size="14.00">members_only </text>
<text text-anchor="start" x="524.86" y="-55.4" font-family="Arial" font-size="14.00" fill="#666666">[tinyint(1)]</text>
</g>
<!-- users_calendars&#45;&gt;calendars -->
<g id="edge2" class="edge">
<title>users_calendars:calendar_id&#45;&gt;calendars:id</title>
<path fill="none" stroke="black" d="M504.57,-401.79C517.64,-392.77 505.87,-362.37 493.6,-342.8 474.71,-312.68 440.96,-336.98 422.15,-306.8 400.01,-271.27 379.28,-212.6 421.15,-212.6"/>
<polygon fill="black" stroke="black" points="504.59,-401.78 493.78,-399.96 499.43,-403.13 495.24,-404.23 495.24,-404.23 495.24,-404.23 499.43,-403.13 496.06,-408.67 504.59,-401.78"/>
<text text-anchor="start" x="501.6" y="-414.4" font-family="Arial" font-size="10.00">FOREIGN KEY (calendar_id) REFERENCES calendars (id)</text>
</g>
</g>
</svg>
