<?xml version="1.0" encoding="UTF-8" standalone="no"?>
<!DOCTYPE svg PUBLIC "-//W3C//DTD SVG 1.1//EN"
 "http://www.w3.org/Graphics/SVG/1.1/DTD/svg11.dtd">
<!-- Generated by graphviz version 12.1.2 (20240928.0832)
 -->
<!-- Title: users Pages: 1 -->
<svg width="1915pt" height="633pt"
 viewBox="0.00 0.00 1915.36 632.80" xmlns="http://www.w3.org/2000/svg" xmlns:xlink="http://www.w3.org/1999/xlink">
<g id="graph0" class="graph" transform="scale(1 1) rotate(0) translate(4 628.8)">
<title>users</title>
<polygon fill="white" stroke="none" points="-4,4 -4,-628.8 1911.36,-628.8 1911.36,4 -4,4"/>
<!-- users -->
<g id="node1" class="node">
<title>users</title>
<polygon fill="#efefef" stroke="none" points="798.42,-231 798.42,-266.6 1012.41,-266.6 1012.41,-231 798.42,-231"/>
<polygon fill="none" stroke="black" points="798.42,-231 798.42,-266.6 1012.41,-266.6 1012.41,-231 798.42,-231"/>
<text text-anchor="start" x="824.68" y="-244.4" font-family="Arial Bold" font-size="18.00">users</text>
<text text-anchor="start" x="861.67" y="-244.4" font-family="Arial" font-size="14.00">    </text>
<text text-anchor="start" x="892.79" y="-244.4" font-family="Arial" font-size="14.00" fill="#666666">[BASE TABLE]</text>
<polygon fill="none" stroke="black" points="798.42,-200.2 798.42,-231 1012.41,-231 1012.41,-200.2 798.42,-200.2"/>
<text text-anchor="start" x="805.42" y="-212.4" font-family="Arial" font-size="14.00">id </text>
<text text-anchor="start" x="820.21" y="-212.4" font-family="Arial" font-size="14.00" fill="#666666">[int(11)]</text>
<polygon fill="none" stroke="black" points="798.42,-169.4 798.42,-200.2 1012.41,-200.2 1012.41,-169.4 798.42,-169.4"/>
<text text-anchor="start" x="805.42" y="-181.6" font-family="Arial" font-size="14.00">email </text>
<text text-anchor="start" x="842.77" y="-181.6" font-family="Arial" font-size="14.00" fill="#666666">[varchar(320)]</text>
<polygon fill="none" stroke="black" points="798.42,-138.6 798.42,-169.4 1012.41,-169.4 1012.41,-138.6 798.42,-138.6"/>
<text text-anchor="start" x="805.42" y="-150.8" font-family="Arial" font-size="14.00">first_name </text>
<text text-anchor="start" x="874.67" y="-150.8" font-family="Arial" font-size="14.00" fill="#666666">[varchar(255)]</text>
<polygon fill="none" stroke="black" points="798.42,-107.8 798.42,-138.6 1012.41,-138.6 1012.41,-107.8 798.42,-107.8"/>
<text text-anchor="start" x="805.42" y="-120" font-family="Arial" font-size="14.00">last_name </text>
<text text-anchor="start" x="873.91" y="-120" font-family="Arial" font-size="14.00" fill="#666666">[varchar(255)]</text>
<polygon fill="none" stroke="black" points="798.42,-77 798.42,-107.8 1012.41,-107.8 1012.41,-77 798.42,-77"/>
<text text-anchor="start" x="805.42" y="-89.2" font-family="Arial" font-size="14.00">password_hash </text>
<text text-anchor="start" x="907.37" y="-89.2" font-family="Arial" font-size="14.00" fill="#666666">[varbinary(255)]</text>
<polygon fill="none" stroke="black" points="798.42,-46.2 798.42,-77 1012.41,-77 1012.41,-46.2 798.42,-46.2"/>
<text text-anchor="start" x="805.42" y="-58.4" font-family="Arial" font-size="14.00">middle_name </text>
<text text-anchor="start" x="893.36" y="-58.4" font-family="Arial" font-size="14.00" fill="#666666">[varchar(255)]</text>
<polygon fill="none" stroke="black" stroke-width="3" points="796.92,-44.7 796.92,-268.1 1013.91,-268.1 1013.91,-44.7 796.92,-44.7"/>
</g>
<!-- online_calendars -->
<g id="node2" class="node">
<title>online_calendars</title>
<polygon fill="#efefef" stroke="none" points="43.2,-546 43.2,-581.6 303.64,-581.6 303.64,-546 43.2,-546"/>
<polygon fill="none" stroke="black" points="43.2,-546 43.2,-581.6 303.64,-581.6 303.64,-546 43.2,-546"/>
<text text-anchor="start" x="50.2" y="-559.4" font-family="Arial Bold" font-size="18.00">online_calendars</text>
<text text-anchor="start" x="172.15" y="-559.4" font-family="Arial" font-size="14.00">    </text>
<text text-anchor="start" x="203.27" y="-559.4" font-family="Arial" font-size="14.00" fill="#666666">[BASE TABLE]</text>
<polygon fill="none" stroke="black" points="43.2,-515.2 43.2,-546 303.64,-546 303.64,-515.2 43.2,-515.2"/>
<text text-anchor="start" x="50.2" y="-527.4" font-family="Arial" font-size="14.00">id </text>
<text text-anchor="start" x="64.99" y="-527.4" font-family="Arial" font-size="14.00" fill="#666666">[int(11)]</text>
<polygon fill="none" stroke="black" points="43.2,-484.4 43.2,-515.2 303.64,-515.2 303.64,-484.4 43.2,-484.4"/>
<text text-anchor="start" x="50.2" y="-496.6" font-family="Arial" font-size="14.00">owner_id </text>
<text text-anchor="start" x="110.9" y="-496.6" font-family="Arial" font-size="14.00" fill="#666666">[int(11)]</text>
<polygon fill="none" stroke="black" points="43.2,-453.6 43.2,-484.4 303.64,-484.4 303.64,-453.6 43.2,-453.6"/>
<text text-anchor="start" x="50.2" y="-465.8" font-family="Arial" font-size="14.00">name </text>
<text text-anchor="start" x="89.11" y="-465.8" font-family="Arial" font-size="14.00" fill="#666666">[varchar(255)]</text>
<polygon fill="none" stroke="black" points="43.2,-422.8 43.2,-453.6 303.64,-453.6 303.64,-422.8 43.2,-422.8"/>
<text text-anchor="start" x="50.2" y="-435" font-family="Arial" font-size="14.00">url </text>
<text text-anchor="start" x="69.65" y="-435" font-family="Arial" font-size="14.00" fill="#666666">[varchar(2048)]</text>
<polygon fill="none" stroke="black" points="43.2,-392 43.2,-422.8 303.64,-422.8 303.64,-392 43.2,-392"/>
<text text-anchor="start" x="50.2" y="-404.2" font-family="Arial" font-size="14.00">description </text>
<text text-anchor="start" x="121.79" y="-404.2" font-family="Arial" font-size="14.00" fill="#666666">[text]</text>
</g>
<!-- online_calendars&#45;&gt;users -->
<g id="edge1" class="edge">
<title>online_calendars:owner_id&#45;&gt;users:id</title>
<path fill="none" stroke="black" d="M314.72,-498.97C368.51,-489.21 308.03,-395.43 356.42,-348.8 430.14,-277.76 695.05,-215.6 797.42,-215.6"/>
<polygon fill="black" stroke="black" points="314.94,-498.96 304.6,-495.29 309.62,-499.39 305.3,-499.75 305.3,-499.75 305.3,-499.75 309.62,-499.39 305.34,-504.26 314.94,-498.96"/>
<text text-anchor="start" x="187.67" y="-483.8" font-family="Arial" font-size="10.00">FOREIGN KEY (owner_id) REFERENCES users (id)</text>
</g>
<!-- calendars -->
<g id="node3" class="node">
<title>calendars</title>
<polygon fill="#efefef" stroke="none" points="408.2,-546 408.2,-581.6 614.64,-581.6 614.64,-546 408.2,-546"/>
<polygon fill="none" stroke="black" points="408.2,-546 408.2,-581.6 614.64,-581.6 614.64,-546 408.2,-546"/>
<text text-anchor="start" x="415.2" y="-559.4" font-family="Arial Bold" font-size="18.00">calendars</text>
<text text-anchor="start" x="483.15" y="-559.4" font-family="Arial" font-size="14.00">    </text>
<text text-anchor="start" x="514.27" y="-559.4" font-family="Arial" font-size="14.00" fill="#666666">[BASE TABLE]</text>
<polygon fill="none" stroke="black" points="408.2,-515.2 408.2,-546 614.64,-546 614.64,-515.2 408.2,-515.2"/>
<text text-anchor="start" x="415.2" y="-527.4" font-family="Arial" font-size="14.00">id </text>
<text text-anchor="start" x="429.98" y="-527.4" font-family="Arial" font-size="14.00" fill="#666666">[int(11)]</text>
<polygon fill="none" stroke="black" points="408.2,-484.4 408.2,-515.2 614.64,-515.2 614.64,-484.4 408.2,-484.4"/>
<text text-anchor="start" x="415.2" y="-496.6" font-family="Arial" font-size="14.00">owner_id </text>
<text text-anchor="start" x="475.9" y="-496.6" font-family="Arial" font-size="14.00" fill="#666666">[int(11)]</text>
<polygon fill="none" stroke="black" points="408.2,-453.6 408.2,-484.4 614.64,-484.4 614.64,-453.6 408.2,-453.6"/>
<text text-anchor="start" x="415.2" y="-465.8" font-family="Arial" font-size="14.00">name </text>
<text text-anchor="start" x="454.11" y="-465.8" font-family="Arial" font-size="14.00" fill="#666666">[varchar(255)]</text>
<polygon fill="none" stroke="black" points="408.2,-422.8 408.2,-453.6 614.64,-453.6 614.64,-422.8 408.2,-422.8"/>
<text text-anchor="start" x="415.2" y="-435" font-family="Arial" font-size="14.00">ical_data </text>
<text text-anchor="start" x="475.13" y="-435" font-family="Arial" font-size="14.00" fill="#666666">[longblob]</text>
<polygon fill="none" stroke="black" points="408.2,-392 408.2,-422.8 614.64,-422.8 614.64,-392 408.2,-392"/>
<text text-anchor="start" x="415.2" y="-404.2" font-family="Arial" font-size="14.00">description </text>
<text text-anchor="start" x="486.79" y="-404.2" font-family="Arial" font-size="14.00" fill="#666666">[text]</text>
</g>
<!-- calendars&#45;&gt;users -->
<g id="edge2" class="edge">
<title>calendars:owner_id&#45;&gt;users:id</title>
<path fill="none" stroke="black" d="M625.81,-499.06C680.69,-490.32 631.32,-405.95 666.42,-348.8 709.87,-278.04 714.39,-215.6 797.42,-215.6"/>
<polygon fill="black" stroke="black" points="625.95,-499.05 615.65,-495.29 620.63,-499.44 616.31,-499.75 616.31,-499.75 616.31,-499.75 620.63,-499.44 616.3,-504.26 625.95,-499.05"/>
<text text-anchor="start" x="622.64" y="-509.8" font-family="Arial" font-size="10.00">FOREIGN KEY (owner_id) REFERENCES users (id)</text>
</g>
<!-- users_external_online_calendars -->
<g id="node4" class="node">
<title>users_external_online_calendars</title>
<polygon fill="#efefef" stroke="none" points="718.72,-499.8 718.72,-535.4 1092.12,-535.4 1092.12,-499.8 718.72,-499.8"/>
<polygon fill="none" stroke="black" points="718.72,-499.8 718.72,-535.4 1092.12,-535.4 1092.12,-499.8 718.72,-499.8"/>
<text text-anchor="start" x="725.72" y="-513.2" font-family="Arial Bold" font-size="18.00">users_external_online_calendars</text>
<text text-anchor="start" x="960.63" y="-513.2" font-family="Arial" font-size="14.00">    </text>
<text text-anchor="start" x="991.74" y="-513.2" font-family="Arial" font-size="14.00" fill="#666666">[BASE TABLE]</text>
<polygon fill="none" stroke="black" points="718.72,-469 718.72,-499.8 1092.12,-499.8 1092.12,-469 718.72,-469"/>
<text text-anchor="start" x="725.72" y="-481.2" font-family="Arial" font-size="14.00">user_id </text>
<text text-anchor="start" x="775.53" y="-481.2" font-family="Arial" font-size="14.00" fill="#666666">[int(11)]</text>
<polygon fill="none" stroke="black" points="718.72,-438.2 718.72,-469 1092.12,-469 1092.12,-438.2 718.72,-438.2"/>
<text text-anchor="start" x="725.72" y="-450.4" font-family="Arial" font-size="14.00">online_calendar_id </text>
<text text-anchor="start" x="847.15" y="-450.4" font-family="Arial" font-size="14.00" fill="#666666">[int(11)]</text>
</g>
<!-- users_external_online_calendars&#45;&gt;users -->
<g id="edge3" class="edge">
<title>users_external_online_calendars:user_id&#45;&gt;users:id</title>
<path fill="none" stroke="black" d="M1102.91,-481.56C1145.83,-452.84 1071.95,-215.6 1013.41,-215.6"/>
<polygon fill="black" stroke="black" points="1103.04,-481.52 1092.18,-479.98 1097.92,-483.01 1093.76,-484.21 1093.76,-484.21 1093.76,-484.21 1097.92,-483.01 1094.69,-488.63 1103.04,-481.52"/>
<text text-anchor="start" x="1100.12" y="-494.4" font-family="Arial" font-size="10.00">FOREIGN KEY (user_id) REFERENCES users (id)</text>
</g>
<!-- users_external_calendars -->
<g id="node5" class="node">
<title>users_external_calendars</title>
<polygon fill="#efefef" stroke="none" points="1196.72,-499.8 1196.72,-535.4 1516.12,-535.4 1516.12,-499.8 1196.72,-499.8"/>
<polygon fill="none" stroke="black" points="1196.72,-499.8 1196.72,-535.4 1516.12,-535.4 1516.12,-499.8 1196.72,-499.8"/>
<text text-anchor="start" x="1203.72" y="-513.2" font-family="Arial Bold" font-size="18.00">users_external_calendars</text>
<text text-anchor="start" x="1384.63" y="-513.2" font-family="Arial" font-size="14.00">    </text>
<text text-anchor="start" x="1415.75" y="-513.2" font-family="Arial" font-size="14.00" fill="#666666">[BASE TABLE]</text>
<polygon fill="none" stroke="black" points="1196.72,-469 1196.72,-499.8 1516.12,-499.8 1516.12,-469 1196.72,-469"/>
<text text-anchor="start" x="1203.72" y="-481.2" font-family="Arial" font-size="14.00">user_id </text>
<text text-anchor="start" x="1253.52" y="-481.2" font-family="Arial" font-size="14.00" fill="#666666">[int(11)]</text>
<polygon fill="none" stroke="black" points="1196.72,-438.2 1196.72,-469 1516.12,-469 1516.12,-438.2 1196.72,-438.2"/>
<text text-anchor="start" x="1203.72" y="-450.4" font-family="Arial" font-size="14.00">calendar_id </text>
<text text-anchor="start" x="1279.99" y="-450.4" font-family="Arial" font-size="14.00" fill="#666666">[int(11)]</text>
</g>
<!-- users_external_calendars&#45;&gt;users -->
<g id="edge4" class="edge">
<title>users_external_calendars:user_id&#45;&gt;users:id</title>
<path fill="none" stroke="black" d="M1185.51,-483.58C1136.61,-474.96 1177.12,-399.89 1144.42,-348.8 1099.65,-278.87 1096.45,-215.6 1013.41,-215.6"/>
<polygon fill="black" stroke="black" points="1185.42,-483.58 1195.03,-488.86 1190.73,-484 1195.05,-484.35 1195.05,-484.35 1195.05,-484.35 1190.73,-484 1195.74,-479.89 1185.42,-483.58"/>
<text text-anchor="start" x="1142.68" y="-468.4" font-family="Arial" font-size="10.00">FOREIGN KEY (user_id) REFERENCES users (id)</text>
</g>
<!-- users_sessions -->
<g id="node6" class="node">
<title>users_sessions</title>
<polygon fill="#efefef" stroke="none" points="1620.67,-530.6 1620.67,-566.2 1864.16,-566.2 1864.16,-530.6 1620.67,-530.6"/>
<polygon fill="none" stroke="black" points="1620.67,-530.6 1620.67,-566.2 1864.16,-566.2 1864.16,-530.6 1620.67,-530.6"/>
<text text-anchor="start" x="1627.67" y="-544" font-family="Arial Bold" font-size="18.00">users_sessions</text>
<text text-anchor="start" x="1732.68" y="-544" font-family="Arial" font-size="14.00">    </text>
<text text-anchor="start" x="1763.79" y="-544" font-family="Arial" font-size="14.00" fill="#666666">[BASE TABLE]</text>
<polygon fill="none" stroke="black" points="1620.67,-499.8 1620.67,-530.6 1864.16,-530.6 1864.16,-499.8 1620.67,-499.8"/>
<text text-anchor="start" x="1627.67" y="-512" font-family="Arial" font-size="14.00">id </text>
<text text-anchor="start" x="1642.46" y="-512" font-family="Arial" font-size="14.00" fill="#666666">[binary(16)]</text>
<polygon fill="none" stroke="black" points="1620.67,-469 1620.67,-499.8 1864.16,-499.8 1864.16,-469 1620.67,-469"/>
<text text-anchor="start" x="1627.67" y="-481.2" font-family="Arial" font-size="14.00">user_id </text>
<text text-anchor="start" x="1677.48" y="-481.2" font-family="Arial" font-size="14.00" fill="#666666">[int(11)]</text>
<polygon fill="none" stroke="black" points="1620.67,-438.2 1620.67,-469 1864.16,-469 1864.16,-438.2 1620.67,-438.2"/>
<text text-anchor="start" x="1627.67" y="-450.4" font-family="Arial" font-size="14.00">email </text>
<text text-anchor="start" x="1665.02" y="-450.4" font-family="Arial" font-size="14.00" fill="#666666">[varchar(320)]</text>
<polygon fill="none" stroke="black" points="1620.67,-407.4 1620.67,-438.2 1864.16,-438.2 1864.16,-407.4 1620.67,-407.4"/>
<text text-anchor="start" x="1627.67" y="-419.6" font-family="Arial" font-size="14.00">expires_at </text>
<text text-anchor="start" x="1696.16" y="-419.6" font-family="Arial" font-size="14.00" fill="#666666">[datetime(6)]</text>
</g>
<!-- users_sessions&#45;&gt;users -->
<g id="edge5" class="edge">
<title>users_sessions:user_id&#45;&gt;users:id</title>
<path fill="none" stroke="black" d="M1609.3,-483.41C1562.29,-473.32 1613.82,-388.82 1568.42,-348.8 1473.27,-264.93 1140.25,-215.6 1013.41,-215.6"/>
<polygon fill="black" stroke="black" points="1609.39,-483.42 1618.91,-488.85 1614.7,-483.92 1619.01,-484.34 1619.01,-484.34 1619.01,-484.34 1614.7,-483.92 1619.77,-479.89 1609.39,-483.42"/>
<text text-anchor="start" x="1386.52" y="-494.4" font-family="Arial" font-size="10.00">FOREIGN KEY (user_id) REFERENCES users (id)</text>
</g>
</g>
</svg>
