<?xml version="1.0" encoding="UTF-8" standalone="no"?>
<!DOCTYPE svg PUBLIC "-//W3C//DTD SVG 1.1//EN"
 "http://www.w3.org/Graphics/SVG/1.1/DTD/svg11.dtd">
<!-- Generated by graphviz version 12.1.2 (20240928.0832)
 -->
<!-- Title: users_external_calendars Pages: 1 -->
<svg width="848pt" height="540pt"
 viewBox="0.00 0.00 847.53 540.40" xmlns="http://www.w3.org/2000/svg" xmlns:xlink="http://www.w3.org/1999/xlink">
<g id="graph0" class="graph" transform="scale(1 1) rotate(0) translate(4 536.4)">
<title>users_external_calendars</title>
<polygon fill="white" stroke="none" points="-4,4 -4,-536.4 843.53,-536.4 843.53,4 -4,4"/>
<!-- users_external_calendars -->
<g id="node1" class="node">
<title>users_external_calendars</title>
<polygon fill="#efefef" stroke="none" points="241.16,-450.6 241.16,-486.2 560.56,-486.2 560.56,-450.6 241.16,-450.6"/>
<polygon fill="none" stroke="black" points="241.16,-450.6 241.16,-486.2 560.56,-486.2 560.56,-450.6 241.16,-450.6"/>
<text text-anchor="start" x="248.16" y="-464" font-family="Arial Bold" font-size="18.00">users_external_calendars</text>
<text text-anchor="start" x="429.07" y="-464" font-family="Arial" font-size="14.00">    </text>
<text text-anchor="start" x="460.19" y="-464" font-family="Arial" font-size="14.00" fill="#666666">[BASE TABLE]</text>
<polygon fill="none" stroke="black" points="241.16,-419.8 241.16,-450.6 560.56,-450.6 560.56,-419.8 241.16,-419.8"/>
<text text-anchor="start" x="248.16" y="-432" font-family="Arial" font-size="14.00">user_id </text>
<text text-anchor="start" x="297.96" y="-432" font-family="Arial" font-size="14.00" fill="#666666">[int(11)]</text>
<polygon fill="none" stroke="black" points="241.16,-389 241.16,-419.8 560.56,-419.8 560.56,-389 241.16,-389"/>
<text text-anchor="start" x="248.16" y="-401.2" font-family="Arial" font-size="14.00">calendar_id </text>
<text text-anchor="start" x="324.43" y="-401.2" font-family="Arial" font-size="14.00" fill="#666666">[int(11)]</text>
<polygon fill="none" stroke="black" stroke-width="3" points="239.66,-387.5 239.66,-487.7 562.06,-487.7 562.06,-387.5 239.66,-387.5"/>
</g>
<!-- users -->
<g id="node2" class="node">
<title>users</title>
<polygon fill="#efefef" stroke="none" points="136.86,-228 136.86,-263.6 350.85,-263.6 350.85,-228 136.86,-228"/>
<polygon fill="none" stroke="black" points="136.86,-228 136.86,-263.6 350.85,-263.6 350.85,-228 136.86,-228"/>
<text text-anchor="start" x="163.12" y="-241.4" font-family="Arial Bold" font-size="18.00">users</text>
<text text-anchor="start" x="200.11" y="-241.4" font-family="Arial" font-size="14.00">    </text>
<text text-anchor="start" x="231.23" y="-241.4" font-family="Arial" font-size="14.00" fill="#666666">[BASE TABLE]</text>
<polygon fill="none" stroke="black" points="136.86,-197.2 136.86,-228 350.85,-228 350.85,-197.2 136.86,-197.2"/>
<text text-anchor="start" x="143.86" y="-209.4" font-family="Arial" font-size="14.00">id </text>
<text text-anchor="start" x="158.65" y="-209.4" font-family="Arial" font-size="14.00" fill="#666666">[int(11)]</text>
<polygon fill="none" stroke="black" points="136.86,-166.4 136.86,-197.2 350.85,-197.2 350.85,-166.4 136.86,-166.4"/>
<text text-anchor="start" x="143.86" y="-178.6" font-family="Arial" font-size="14.00">email </text>
<text text-anchor="start" x="181.21" y="-178.6" font-family="Arial" font-size="14.00" fill="#666666">[varchar(320)]</text>
<polygon fill="none" stroke="black" points="136.86,-135.6 136.86,-166.4 350.85,-166.4 350.85,-135.6 136.86,-135.6"/>
<text text-anchor="start" x="143.86" y="-147.8" font-family="Arial" font-size="14.00">first_name </text>
<text text-anchor="start" x="213.11" y="-147.8" font-family="Arial" font-size="14.00" fill="#666666">[varchar(255)]</text>
<polygon fill="none" stroke="black" points="136.86,-104.8 136.86,-135.6 350.85,-135.6 350.85,-104.8 136.86,-104.8"/>
<text text-anchor="start" x="143.86" y="-117" font-family="Arial" font-size="14.00">last_name </text>
<text text-anchor="start" x="212.35" y="-117" font-family="Arial" font-size="14.00" fill="#666666">[varchar(255)]</text>
<polygon fill="none" stroke="black" points="136.86,-74 136.86,-104.8 350.85,-104.8 350.85,-74 136.86,-74"/>
<text text-anchor="start" x="143.86" y="-86.2" font-family="Arial" font-size="14.00">password_hash </text>
<text text-anchor="start" x="245.81" y="-86.2" font-family="Arial" font-size="14.00" fill="#666666">[varbinary(255)]</text>
<polygon fill="none" stroke="black" points="136.86,-43.2 136.86,-74 350.85,-74 350.85,-43.2 136.86,-43.2"/>
<text text-anchor="start" x="143.86" y="-55.4" font-family="Arial" font-size="14.00">middle_name </text>
<text text-anchor="start" x="231.8" y="-55.4" font-family="Arial" font-size="14.00" fill="#666666">[varchar(255)]</text>
</g>
<!-- users_external_calendars&#45;&gt;users -->
<g id="edge1" class="edge">
<title>users_external_calendars:user_id&#45;&gt;users:id</title>
<path fill="none" stroke="black" d="M230.12,-433.71C202.48,-424.32 219.16,-372.82 241.16,-342.8 271.48,-301.41 320.53,-348.2 350.85,-306.8 375.59,-273.02 393.72,-212.6 351.85,-212.6"/>
<polygon fill="black" stroke="black" points="229.94,-433.68 239.16,-439.6 235.21,-434.46 239.5,-435.1 239.5,-435.1 239.5,-435.1 235.21,-434.46 240.49,-430.7 229.94,-433.68"/>
<text text-anchor="start" x="7" y="-445.2" font-family="Arial" font-size="10.00">FOREIGN KEY (user_id) REFERENCES users (id)</text>
</g>
<!-- calendars -->
<g id="node3" class="node">
<title>calendars</title>
<polygon fill="#efefef" stroke="none" points="455.64,-212.6 455.64,-248.2 662.08,-248.2 662.08,-212.6 455.64,-212.6"/>
<polygon fill="none" stroke="black" points="455.64,-212.6 455.64,-248.2 662.08,-248.2 662.08,-212.6 455.64,-212.6"/>
<text text-anchor="start" x="462.64" y="-226" font-family="Arial Bold" font-size="18.00">calendars</text>
<text text-anchor="start" x="530.59" y="-226" font-family="Arial" font-size="14.00">    </text>
<text text-anchor="start" x="561.71" y="-226" font-family="Arial" font-size="14.00" fill="#666666">[BASE TABLE]</text>
<polygon fill="none" stroke="black" points="455.64,-181.8 455.64,-212.6 662.08,-212.6 662.08,-181.8 455.64,-181.8"/>
<text text-anchor="start" x="462.64" y="-194" font-family="Arial" font-size="14.00">id </text>
<text text-anchor="start" x="477.42" y="-194" font-family="Arial" font-size="14.00" fill="#666666">[int(11)]</text>
<polygon fill="none" stroke="black" points="455.64,-151 455.64,-181.8 662.08,-181.8 662.08,-151 455.64,-151"/>
<text text-anchor="start" x="462.64" y="-163.2" font-family="Arial" font-size="14.00">owner_id </text>
<text text-anchor="start" x="523.34" y="-163.2" font-family="Arial" font-size="14.00" fill="#666666">[int(11)]</text>
<polygon fill="none" stroke="black" points="455.64,-120.2 455.64,-151 662.08,-151 662.08,-120.2 455.64,-120.2"/>
<text text-anchor="start" x="462.64" y="-132.4" font-family="Arial" font-size="14.00">name </text>
<text text-anchor="start" x="501.55" y="-132.4" font-family="Arial" font-size="14.00" fill="#666666">[varchar(255)]</text>
<polygon fill="none" stroke="black" points="455.64,-89.4 455.64,-120.2 662.08,-120.2 662.08,-89.4 455.64,-89.4"/>
<text text-anchor="start" x="462.64" y="-101.6" font-family="Arial" font-size="14.00">ical_data </text>
<text text-anchor="start" x="522.57" y="-101.6" font-family="Arial" font-size="14.00" fill="#666666">[longblob]</text>
<polygon fill="none" stroke="black" points="455.64,-58.6 455.64,-89.4 662.08,-89.4 662.08,-58.6 455.64,-58.6"/>
<text text-anchor="start" x="462.64" y="-70.8" font-family="Arial" font-size="14.00">description </text>
<text text-anchor="start" x="534.23" y="-70.8" font-family="Arial" font-size="14.00" fill="#666666">[text]</text>
</g>
<!-- users_external_calendars&#45;&gt;calendars -->
<g id="edge2" class="edge">
<title>users_external_calendars:calendar_id&#45;&gt;calendars:id</title>
<path fill="none" stroke="black" d="M571.54,-401.79C584.64,-392.75 572.95,-362.3 560.56,-342.8 532.72,-298.96 483.35,-335.31 455.64,-291.4 433.29,-255.99 412.77,-197.2 454.64,-197.2"/>
<polygon fill="black" stroke="black" points="571.56,-401.78 560.74,-399.96 566.4,-403.13 562.21,-404.23 562.21,-404.23 562.21,-404.23 566.4,-403.13 563.02,-408.67 571.56,-401.78"/>
<text text-anchor="start" x="568.56" y="-414.4" font-family="Arial" font-size="10.00">FOREIGN KEY (calendar_id) REFERENCES calendars (id)</text>
</g>
</g>
</svg>
