<?xml version="1.0" encoding="UTF-8" standalone="no"?>
<!DOCTYPE svg PUBLIC "-//W3C//DTD SVG 1.1//EN"
 "http://www.w3.org/Graphics/SVG/1.1/DTD/svg11.dtd">
<!-- Generated by graphviz version 12.1.2 (20240928.0832)
 -->
<!-- Title: users Pages: 1 -->
<svg width="4398pt" height="725pt"
 viewBox="0.00 0.00 4398.34 725.20" xmlns="http://www.w3.org/2000/svg" xmlns:xlink="http://www.w3.org/1999/xlink">
<g id="graph0" class="graph" transform="scale(1 1) rotate(0) translate(4 721.2)">
<title>users</title>
<polygon fill="white" stroke="none" points="-4,4 -4,-721.2 4394.34,-721.2 4394.34,4 -4,4"/>
<!-- users -->
<g id="node1" class="node">
<title>users</title>
<polygon fill="#efefef" stroke="none" points="2126.43,-231 2126.43,-266.6 2340.42,-266.6 2340.42,-231 2126.43,-231"/>
<polygon fill="none" stroke="black" points="2126.43,-231 2126.43,-266.6 2340.42,-266.6 2340.42,-231 2126.43,-231"/>
<text text-anchor="start" x="2152.68" y="-244.4" font-family="Arial Bold" font-size="18.00">users</text>
<text text-anchor="start" x="2189.67" y="-244.4" font-family="Arial" font-size="14.00">    </text>
<text text-anchor="start" x="2220.79" y="-244.4" font-family="Arial" font-size="14.00" fill="#666666">[BASE TABLE]</text>
<polygon fill="none" stroke="black" points="2126.43,-200.2 2126.43,-231 2340.42,-231 2340.42,-200.2 2126.43,-200.2"/>
<text text-anchor="start" x="2133.43" y="-212.4" font-family="Arial" font-size="14.00">user_id </text>
<text text-anchor="start" x="2183.23" y="-212.4" font-family="Arial" font-size="14.00" fill="#666666">[bigint(20)]</text>
<polygon fill="none" stroke="black" points="2126.43,-169.4 2126.43,-200.2 2340.42,-200.2 2340.42,-169.4 2126.43,-169.4"/>
<text text-anchor="start" x="2133.43" y="-181.6" font-family="Arial" font-size="14.00">email </text>
<text text-anchor="start" x="2170.77" y="-181.6" font-family="Arial" font-size="14.00" fill="#666666">[varchar(320)]</text>
<polygon fill="none" stroke="black" points="2126.43,-138.6 2126.43,-169.4 2340.42,-169.4 2340.42,-138.6 2126.43,-138.6"/>
<text text-anchor="start" x="2133.43" y="-150.8" font-family="Arial" font-size="14.00">first_name </text>
<text text-anchor="start" x="2202.67" y="-150.8" font-family="Arial" font-size="14.00" fill="#666666">[varchar(255)]</text>
<polygon fill="none" stroke="black" points="2126.43,-107.8 2126.43,-138.6 2340.42,-138.6 2340.42,-107.8 2126.43,-107.8"/>
<text text-anchor="start" x="2133.43" y="-120" font-family="Arial" font-size="14.00">last_name </text>
<text text-anchor="start" x="2201.91" y="-120" font-family="Arial" font-size="14.00" fill="#666666">[varchar(255)]</text>
<polygon fill="none" stroke="black" points="2126.43,-77 2126.43,-107.8 2340.42,-107.8 2340.42,-77 2126.43,-77"/>
<text text-anchor="start" x="2133.43" y="-89.2" font-family="Arial" font-size="14.00">password_hash </text>
<text text-anchor="start" x="2235.38" y="-89.2" font-family="Arial" font-size="14.00" fill="#666666">[varbinary(255)]</text>
<polygon fill="none" stroke="black" points="2126.43,-46.2 2126.43,-77 2340.42,-77 2340.42,-46.2 2126.43,-46.2"/>
<text text-anchor="start" x="2133.43" y="-58.4" font-family="Arial" font-size="14.00">middle_name </text>
<text text-anchor="start" x="2221.36" y="-58.4" font-family="Arial" font-size="14.00" fill="#666666">[varchar(255)]</text>
<polygon fill="none" stroke="black" stroke-width="3" points="2124.93,-44.7 2124.93,-268.1 2341.92,-268.1 2341.92,-44.7 2124.93,-44.7"/>
</g>
<!-- member_moderations_history -->
<g id="node2" class="node">
<title>member_moderations_history</title>
<polygon fill="#efefef" stroke="none" points="43.2,-638.4 43.2,-674 397.65,-674 397.65,-638.4 43.2,-638.4"/>
<polygon fill="none" stroke="black" points="43.2,-638.4 43.2,-674 397.65,-674 397.65,-638.4 43.2,-638.4"/>
<text text-anchor="start" x="50.2" y="-651.8" font-family="Arial Bold" font-size="18.00">member_moderations_history</text>
<text text-anchor="start" x="266.16" y="-651.8" font-family="Arial" font-size="14.00">    </text>
<text text-anchor="start" x="297.27" y="-651.8" font-family="Arial" font-size="14.00" fill="#666666">[BASE TABLE]</text>
<polygon fill="none" stroke="black" points="43.2,-607.6 43.2,-638.4 397.65,-638.4 397.65,-607.6 43.2,-607.6"/>
<text text-anchor="start" x="50.2" y="-619.8" font-family="Arial" font-size="14.00">member_moderation_event_id </text>
<text text-anchor="start" x="243.98" y="-619.8" font-family="Arial" font-size="14.00" fill="#666666">[bigint(20)]</text>
<polygon fill="none" stroke="black" points="43.2,-576.8 43.2,-607.6 397.65,-607.6 397.65,-576.8 43.2,-576.8"/>
<text text-anchor="start" x="50.2" y="-589" font-family="Arial" font-size="14.00">organization_id </text>
<text text-anchor="start" x="149.05" y="-589" font-family="Arial" font-size="14.00" fill="#666666">[bigint(20)]</text>
<polygon fill="none" stroke="black" points="43.2,-546 43.2,-576.8 397.65,-576.8 397.65,-546 43.2,-546"/>
<text text-anchor="start" x="50.2" y="-558.2" font-family="Arial" font-size="14.00">member_user_id </text>
<text text-anchor="start" x="159.14" y="-558.2" font-family="Arial" font-size="14.00" fill="#666666">[bigint(20)]</text>
<polygon fill="none" stroke="black" points="43.2,-515.2 43.2,-546 397.65,-546 397.65,-515.2 43.2,-515.2"/>
<text text-anchor="start" x="50.2" y="-527.4" font-family="Arial" font-size="14.00">admin_user_id </text>
<text text-anchor="start" x="145.92" y="-527.4" font-family="Arial" font-size="14.00" fill="#666666">[bigint(20)]</text>
<polygon fill="none" stroke="black" points="43.2,-484.4 43.2,-515.2 397.65,-515.2 397.65,-484.4 43.2,-484.4"/>
<text text-anchor="start" x="50.2" y="-496.6" font-family="Arial" font-size="14.00">created_at </text>
<text text-anchor="start" x="120.25" y="-496.6" font-family="Arial" font-size="14.00" fill="#666666">[datetime(6)]</text>
<polygon fill="none" stroke="black" points="43.2,-453.6 43.2,-484.4 397.65,-484.4 397.65,-453.6 43.2,-453.6"/>
<text text-anchor="start" x="50.2" y="-465.8" font-family="Arial" font-size="14.00">reason </text>
<text text-anchor="start" x="96.9" y="-465.8" font-family="Arial" font-size="14.00" fill="#666666">[varchar(255)]</text>
<polygon fill="none" stroke="black" points="43.2,-422.8 43.2,-453.6 397.65,-453.6 397.65,-422.8 43.2,-422.8"/>
<text text-anchor="start" x="50.2" y="-435" font-family="Arial" font-size="14.00">expires_at </text>
<text text-anchor="start" x="118.68" y="-435" font-family="Arial" font-size="14.00" fill="#666666">[datetime(6)]</text>
<polygon fill="none" stroke="black" points="43.2,-392 43.2,-422.8 397.65,-422.8 397.65,-392 43.2,-392"/>
<text text-anchor="start" x="50.2" y="-404.2" font-family="Arial" font-size="14.00">action </text>
<text text-anchor="start" x="91.45" y="-404.2" font-family="Arial" font-size="14.00" fill="#666666">[enum(&#39;ban&#39;,&#39;unban&#39;)]</text>
</g>
<!-- member_moderations_history&#45;&gt;users -->
<g id="edge1" class="edge">
<title>member_moderations_history:admin_user_id&#45;&gt;users:user_id</title>
<path fill="none" stroke="black" d="M408.9,-529.84C474.25,-519.2 388.35,-399.65 450.42,-348.8 594.85,-230.49 1938.73,-215.6 2125.43,-215.6"/>
<polygon fill="black" stroke="black" points="408.95,-529.84 398.65,-526.09 403.63,-530.23 399.31,-530.55 399.31,-530.55 399.31,-530.55 403.63,-530.23 399.31,-535.06 408.95,-529.84"/>
<text text-anchor="start" x="256.66" y="-514.6" font-family="Arial" font-size="10.00">FOREIGN KEY (admin_user_id) REFERENCES users (user_id)</text>
</g>
<!-- member_moderations_history&#45;&gt;users -->
<g id="edge2" class="edge">
<title>member_moderations_history:member_user_id&#45;&gt;users:user_id</title>
<path fill="none" stroke="black" d="M408.6,-560.79C487.29,-550.42 379.14,-409.53 450.42,-348.8 592.54,-227.72 1938.73,-215.6 2125.43,-215.6"/>
<polygon fill="black" stroke="black" points="408.96,-560.77 398.71,-556.89 403.64,-561.1 399.31,-561.36 399.31,-561.36 399.31,-561.36 403.64,-561.1 399.25,-565.87 408.96,-560.77"/>
<text text-anchor="start" x="251.94" y="-545.4" font-family="Arial" font-size="10.00">FOREIGN KEY (member_user_id) REFERENCES users (user_id)</text>
</g>
<!-- organization_members_history -->
<g id="node3" class="node">
<title>organization_members_history</title>
<polygon fill="#efefef" stroke="none" points="502.21,-592.2 502.21,-627.8 864.64,-627.8 864.64,-592.2 502.21,-592.2"/>
<polygon fill="none" stroke="black" points="502.21,-592.2 502.21,-627.8 864.64,-627.8 864.64,-592.2 502.21,-592.2"/>
<text text-anchor="start" x="509.21" y="-605.6" font-family="Arial Bold" font-size="18.00">organization_members_history</text>
<text text-anchor="start" x="733.15" y="-605.6" font-family="Arial" font-size="14.00">    </text>
<text text-anchor="start" x="764.27" y="-605.6" font-family="Arial" font-size="14.00" fill="#666666">[BASE TABLE]</text>
<polygon fill="none" stroke="black" points="502.21,-561.4 502.21,-592.2 864.64,-592.2 864.64,-561.4 502.21,-561.4"/>
<text text-anchor="start" x="509.21" y="-573.6" font-family="Arial" font-size="14.00">organization_member_event_id </text>
<text text-anchor="start" x="709.22" y="-573.6" font-family="Arial" font-size="14.00" fill="#666666">[bigint(20)]</text>
<polygon fill="none" stroke="black" points="502.21,-530.6 502.21,-561.4 864.64,-561.4 864.64,-530.6 502.21,-530.6"/>
<text text-anchor="start" x="509.21" y="-542.8" font-family="Arial" font-size="14.00">organization_id </text>
<text text-anchor="start" x="608.05" y="-542.8" font-family="Arial" font-size="14.00" fill="#666666">[bigint(20)]</text>
<polygon fill="none" stroke="black" points="502.21,-499.8 502.21,-530.6 864.64,-530.6 864.64,-499.8 502.21,-499.8"/>
<text text-anchor="start" x="509.21" y="-512" font-family="Arial" font-size="14.00">member_user_id </text>
<text text-anchor="start" x="618.14" y="-512" font-family="Arial" font-size="14.00" fill="#666666">[bigint(20)]</text>
<polygon fill="none" stroke="black" points="502.21,-469 502.21,-499.8 864.64,-499.8 864.64,-469 502.21,-469"/>
<text text-anchor="start" x="509.21" y="-481.2" font-family="Arial" font-size="14.00">added </text>
<text text-anchor="start" x="552.03" y="-481.2" font-family="Arial" font-size="14.00" fill="#666666">[tinyint(1)]</text>
<polygon fill="none" stroke="black" points="502.21,-438.2 502.21,-469 864.64,-469 864.64,-438.2 502.21,-438.2"/>
<text text-anchor="start" x="509.21" y="-450.4" font-family="Arial" font-size="14.00">created_at </text>
<text text-anchor="start" x="579.25" y="-450.4" font-family="Arial" font-size="14.00" fill="#666666">[datetime(6)]</text>
</g>
<!-- organization_members_history&#45;&gt;users -->
<g id="edge3" class="edge">
<title>organization_members_history:member_user_id&#45;&gt;users:user_id</title>
<path fill="none" stroke="black" d="M875.86,-514.38C935.1,-503.92 860.58,-395.66 917.42,-348.8 1021.62,-262.9 1990.39,-215.6 2125.43,-215.6"/>
<polygon fill="black" stroke="black" points="875.94,-514.38 865.61,-510.69 870.62,-514.8 866.31,-515.15 866.31,-515.15 866.31,-515.15 870.62,-514.8 866.33,-519.66 875.94,-514.38"/>
<text text-anchor="start" x="872.64" y="-525.2" font-family="Arial" font-size="10.00">FOREIGN KEY (member_user_id) REFERENCES users (user_id)</text>
</g>
<!-- join_responses_history -->
<g id="node4" class="node">
<title>join_responses_history</title>
<polygon fill="#efefef" stroke="none" points="969.18,-592.2 969.18,-627.8 1273.66,-627.8 1273.66,-592.2 969.18,-592.2"/>
<polygon fill="none" stroke="black" points="969.18,-592.2 969.18,-627.8 1273.66,-627.8 1273.66,-592.2 969.18,-592.2"/>
<text text-anchor="start" x="976.18" y="-605.6" font-family="Arial Bold" font-size="18.00">join_responses_history</text>
<text text-anchor="start" x="1142.17" y="-605.6" font-family="Arial" font-size="14.00">    </text>
<text text-anchor="start" x="1173.29" y="-605.6" font-family="Arial" font-size="14.00" fill="#666666">[BASE TABLE]</text>
<polygon fill="none" stroke="black" points="969.18,-561.4 969.18,-592.2 1273.66,-592.2 1273.66,-561.4 969.18,-561.4"/>
<text text-anchor="start" x="976.18" y="-573.6" font-family="Arial" font-size="14.00">join_response_event_id </text>
<text text-anchor="start" x="1127.96" y="-573.6" font-family="Arial" font-size="14.00" fill="#666666">[bigint(20)]</text>
<polygon fill="none" stroke="black" points="969.18,-530.6 969.18,-561.4 1273.66,-561.4 1273.66,-530.6 969.18,-530.6"/>
<text text-anchor="start" x="976.18" y="-542.8" font-family="Arial" font-size="14.00">join_prompt_event_id </text>
<text text-anchor="start" x="1113.94" y="-542.8" font-family="Arial" font-size="14.00" fill="#666666">[bigint(20)]</text>
<polygon fill="none" stroke="black" points="969.18,-499.8 969.18,-530.6 1273.66,-530.6 1273.66,-499.8 969.18,-499.8"/>
<text text-anchor="start" x="976.18" y="-512" font-family="Arial" font-size="14.00">user_id </text>
<text text-anchor="start" x="1025.99" y="-512" font-family="Arial" font-size="14.00" fill="#666666">[bigint(20)]</text>
<polygon fill="none" stroke="black" points="969.18,-469 969.18,-499.8 1273.66,-499.8 1273.66,-469 969.18,-469"/>
<text text-anchor="start" x="976.18" y="-481.2" font-family="Arial" font-size="14.00">response </text>
<text text-anchor="start" x="1037.67" y="-481.2" font-family="Arial" font-size="14.00" fill="#666666">[text]</text>
<polygon fill="none" stroke="black" points="969.18,-438.2 969.18,-469 1273.66,-469 1273.66,-438.2 969.18,-438.2"/>
<text text-anchor="start" x="976.18" y="-450.4" font-family="Arial" font-size="14.00">created_at </text>
<text text-anchor="start" x="1046.23" y="-450.4" font-family="Arial" font-size="14.00" fill="#666666">[datetime(6)]</text>
</g>
<!-- join_responses_history&#45;&gt;users -->
<g id="edge4" class="edge">
<title>join_responses_history:user_id&#45;&gt;users:user_id</title>
<path fill="none" stroke="black" d="M1284.89,-514.39C1344.24,-504.08 1270.9,-397.22 1326.42,-348.8 1462.08,-230.48 1945.42,-215.6 2125.43,-215.6"/>
<polygon fill="black" stroke="black" points="1284.97,-514.39 1274.64,-510.69 1279.65,-514.81 1275.33,-515.15 1275.33,-515.15 1275.33,-515.15 1279.65,-514.81 1275.35,-519.66 1284.97,-514.39"/>
<text text-anchor="start" x="1149.08" y="-499.2" font-family="Arial" font-size="10.00">FOREIGN KEY (user_id) REFERENCES users (user_id)</text>
</g>
<!-- calendars -->
<g id="node5" class="node">
<title>calendars</title>
<polygon fill="#efefef" stroke="none" points="1378.2,-576.8 1378.2,-612.4 1584.65,-612.4 1584.65,-576.8 1378.2,-576.8"/>
<polygon fill="none" stroke="black" points="1378.2,-576.8 1378.2,-612.4 1584.65,-612.4 1584.65,-576.8 1378.2,-576.8"/>
<text text-anchor="start" x="1385.2" y="-590.2" font-family="Arial Bold" font-size="18.00">calendars</text>
<text text-anchor="start" x="1453.16" y="-590.2" font-family="Arial" font-size="14.00">    </text>
<text text-anchor="start" x="1484.27" y="-590.2" font-family="Arial" font-size="14.00" fill="#666666">[BASE TABLE]</text>
<polygon fill="none" stroke="black" points="1378.2,-546 1378.2,-576.8 1584.65,-576.8 1584.65,-546 1378.2,-546"/>
<text text-anchor="start" x="1385.2" y="-558.2" font-family="Arial" font-size="14.00">calendar_id </text>
<text text-anchor="start" x="1461.47" y="-558.2" font-family="Arial" font-size="14.00" fill="#666666">[bigint(20)]</text>
<polygon fill="none" stroke="black" points="1378.2,-515.2 1378.2,-546 1584.65,-546 1584.65,-515.2 1378.2,-515.2"/>
<text text-anchor="start" x="1385.2" y="-527.4" font-family="Arial" font-size="14.00">owner_user_id </text>
<text text-anchor="start" x="1480.92" y="-527.4" font-family="Arial" font-size="14.00" fill="#666666">[bigint(20)]</text>
<polygon fill="none" stroke="black" points="1378.2,-484.4 1378.2,-515.2 1584.65,-515.2 1584.65,-484.4 1378.2,-484.4"/>
<text text-anchor="start" x="1385.2" y="-496.6" font-family="Arial" font-size="14.00">name </text>
<text text-anchor="start" x="1424.11" y="-496.6" font-family="Arial" font-size="14.00" fill="#666666">[varchar(255)]</text>
<polygon fill="none" stroke="black" points="1378.2,-453.6 1378.2,-484.4 1584.65,-484.4 1584.65,-453.6 1378.2,-453.6"/>
<text text-anchor="start" x="1385.2" y="-465.8" font-family="Arial" font-size="14.00">description </text>
<text text-anchor="start" x="1456.79" y="-465.8" font-family="Arial" font-size="14.00" fill="#666666">[text]</text>
</g>
<!-- calendars&#45;&gt;users -->
<g id="edge5" class="edge">
<title>calendars:owner_user_id&#45;&gt;users:user_id</title>
<path fill="none" stroke="black" d="M1595.91,-529.87C1661.52,-519.71 1579.58,-405.27 1636.42,-348.8 1716.32,-269.42 2012.8,-215.6 2125.43,-215.6"/>
<polygon fill="black" stroke="black" points="1595.95,-529.87 1585.66,-526.09 1590.63,-530.25 1586.31,-530.55 1586.31,-530.55 1586.31,-530.55 1590.63,-530.25 1586.3,-535.07 1595.95,-529.87"/>
<text text-anchor="start" x="1443.66" y="-514.6" font-family="Arial" font-size="10.00">FOREIGN KEY (owner_user_id) REFERENCES users (user_id)</text>
</g>
<!-- join_prompts_history -->
<g id="node6" class="node">
<title>join_prompts_history</title>
<polygon fill="#efefef" stroke="none" points="1688.68,-592.2 1688.68,-627.8 1982.17,-627.8 1982.17,-592.2 1688.68,-592.2"/>
<polygon fill="none" stroke="black" points="1688.68,-592.2 1688.68,-627.8 1982.17,-627.8 1982.17,-592.2 1688.68,-592.2"/>
<text text-anchor="start" x="1695.68" y="-605.6" font-family="Arial Bold" font-size="18.00">join_prompts_history</text>
<text text-anchor="start" x="1850.68" y="-605.6" font-family="Arial" font-size="14.00">    </text>
<text text-anchor="start" x="1881.8" y="-605.6" font-family="Arial" font-size="14.00" fill="#666666">[BASE TABLE]</text>
<polygon fill="none" stroke="black" points="1688.68,-561.4 1688.68,-592.2 1982.17,-592.2 1982.17,-561.4 1688.68,-561.4"/>
<text text-anchor="start" x="1695.68" y="-573.6" font-family="Arial" font-size="14.00">join_prompt_event_id </text>
<text text-anchor="start" x="1833.43" y="-573.6" font-family="Arial" font-size="14.00" fill="#666666">[bigint(20)]</text>
<polygon fill="none" stroke="black" points="1688.68,-530.6 1688.68,-561.4 1982.17,-561.4 1982.17,-530.6 1688.68,-530.6"/>
<text text-anchor="start" x="1695.68" y="-542.8" font-family="Arial" font-size="14.00">organization_id </text>
<text text-anchor="start" x="1794.52" y="-542.8" font-family="Arial" font-size="14.00" fill="#666666">[bigint(20)]</text>
<polygon fill="none" stroke="black" points="1688.68,-499.8 1688.68,-530.6 1982.17,-530.6 1982.17,-499.8 1688.68,-499.8"/>
<text text-anchor="start" x="1695.68" y="-512" font-family="Arial" font-size="14.00">owner_user_id </text>
<text text-anchor="start" x="1791.4" y="-512" font-family="Arial" font-size="14.00" fill="#666666">[bigint(20)]</text>
<polygon fill="none" stroke="black" points="1688.68,-469 1688.68,-499.8 1982.17,-499.8 1982.17,-469 1688.68,-469"/>
<text text-anchor="start" x="1695.68" y="-481.2" font-family="Arial" font-size="14.00">prompt </text>
<text text-anchor="start" x="1743.14" y="-481.2" font-family="Arial" font-size="14.00" fill="#666666">[text]</text>
<polygon fill="none" stroke="black" points="1688.68,-438.2 1688.68,-469 1982.17,-469 1982.17,-438.2 1688.68,-438.2"/>
<text text-anchor="start" x="1695.68" y="-450.4" font-family="Arial" font-size="14.00">created_at </text>
<text text-anchor="start" x="1765.72" y="-450.4" font-family="Arial" font-size="14.00" fill="#666666">[datetime(6)]</text>
</g>
<!-- join_prompts_history&#45;&gt;users -->
<g id="edge6" class="edge">
<title>join_prompts_history:owner_user_id&#45;&gt;users:user_id</title>
<path fill="none" stroke="black" d="M1993.55,-514.52C2054.94,-505.82 2002.47,-415.11 2034.42,-348.8 2065.55,-284.21 2053.73,-215.6 2125.43,-215.6"/>
<polygon fill="black" stroke="black" points="1993.48,-514.53 1983.21,-510.69 1988.16,-514.87 1983.84,-515.16 1983.84,-515.16 1983.84,-515.16 1988.16,-514.87 1983.8,-519.67 1993.48,-514.53"/>
<text text-anchor="start" x="1990.17" y="-525.2" font-family="Arial" font-size="10.00">FOREIGN KEY (owner_user_id) REFERENCES users (user_id)</text>
</g>
<!-- join_requests_history -->
<g id="node7" class="node">
<title>join_requests_history</title>
<polygon fill="#efefef" stroke="none" points="2086.68,-592.2 2086.68,-627.8 2380.16,-627.8 2380.16,-592.2 2086.68,-592.2"/>
<polygon fill="none" stroke="black" points="2086.68,-592.2 2086.68,-627.8 2380.16,-627.8 2380.16,-592.2 2086.68,-592.2"/>
<text text-anchor="start" x="2093.68" y="-605.6" font-family="Arial Bold" font-size="18.00">join_requests_history</text>
<text text-anchor="start" x="2248.67" y="-605.6" font-family="Arial" font-size="14.00">    </text>
<text text-anchor="start" x="2279.79" y="-605.6" font-family="Arial" font-size="14.00" fill="#666666">[BASE TABLE]</text>
<polygon fill="none" stroke="black" points="2086.68,-561.4 2086.68,-592.2 2380.16,-592.2 2380.16,-561.4 2086.68,-561.4"/>
<text text-anchor="start" x="2093.68" y="-573.6" font-family="Arial" font-size="14.00">join_request_event_id </text>
<text text-anchor="start" x="2234.57" y="-573.6" font-family="Arial" font-size="14.00" fill="#666666">[bigint(20)]</text>
<polygon fill="none" stroke="black" points="2086.68,-530.6 2086.68,-561.4 2380.16,-561.4 2380.16,-530.6 2086.68,-530.6"/>
<text text-anchor="start" x="2093.68" y="-542.8" font-family="Arial" font-size="14.00">join_response_event_id </text>
<text text-anchor="start" x="2245.46" y="-542.8" font-family="Arial" font-size="14.00" fill="#666666">[bigint(20)]</text>
<polygon fill="none" stroke="black" points="2086.68,-499.8 2086.68,-530.6 2380.16,-530.6 2380.16,-499.8 2086.68,-499.8"/>
<text text-anchor="start" x="2093.68" y="-512" font-family="Arial" font-size="14.00">admin_user_id </text>
<text text-anchor="start" x="2189.41" y="-512" font-family="Arial" font-size="14.00" fill="#666666">[bigint(20)]</text>
<polygon fill="none" stroke="black" points="2086.68,-469 2086.68,-499.8 2380.16,-499.8 2380.16,-469 2086.68,-469"/>
<text text-anchor="start" x="2093.68" y="-481.2" font-family="Arial" font-size="14.00">created_at </text>
<text text-anchor="start" x="2163.73" y="-481.2" font-family="Arial" font-size="14.00" fill="#666666">[datetime(6)]</text>
<polygon fill="none" stroke="black" points="2086.68,-438.2 2086.68,-469 2380.16,-469 2380.16,-438.2 2086.68,-438.2"/>
<text text-anchor="start" x="2093.68" y="-450.4" font-family="Arial" font-size="14.00">status </text>
<text text-anchor="start" x="2134.93" y="-450.4" font-family="Arial" font-size="14.00" fill="#666666">[enum(&#39;open&#39;,&#39;accepted&#39;,&#39;denied&#39;)]</text>
</g>
<!-- join_requests_history&#45;&gt;users -->
<g id="edge7" class="edge">
<title>join_requests_history:admin_user_id&#45;&gt;users:user_id</title>
<path fill="none" stroke="black" d="M2391.23,-512.61C2443.89,-483.33 2404.91,-215.6 2341.42,-215.6"/>
<polygon fill="black" stroke="black" points="2391.17,-512.63 2380.36,-510.76 2386,-513.95 2381.81,-515.03 2381.81,-515.03 2381.81,-515.03 2386,-513.95 2382.61,-519.47 2391.17,-512.63"/>
<text text-anchor="start" x="2239.18" y="-499.2" font-family="Arial" font-size="10.00">FOREIGN KEY (admin_user_id) REFERENCES users (user_id)</text>
</g>
<!-- users_labels -->
<g id="node8" class="node">
<title>users_labels</title>
<polygon fill="#efefef" stroke="none" points="2484.19,-576.8 2484.19,-612.4 2710.66,-612.4 2710.66,-576.8 2484.19,-576.8"/>
<polygon fill="none" stroke="black" points="2484.19,-576.8 2484.19,-612.4 2710.66,-612.4 2710.66,-576.8 2484.19,-576.8"/>
<text text-anchor="start" x="2491.19" y="-590.2" font-family="Arial Bold" font-size="18.00">users_labels</text>
<text text-anchor="start" x="2579.17" y="-590.2" font-family="Arial" font-size="14.00">    </text>
<text text-anchor="start" x="2610.28" y="-590.2" font-family="Arial" font-size="14.00" fill="#666666">[BASE TABLE]</text>
<polygon fill="none" stroke="black" points="2484.19,-546 2484.19,-576.8 2710.66,-576.8 2710.66,-546 2484.19,-546"/>
<text text-anchor="start" x="2491.19" y="-558.2" font-family="Arial" font-size="14.00">user_label_id </text>
<text text-anchor="start" x="2578.36" y="-558.2" font-family="Arial" font-size="14.00" fill="#666666">[bigint(20)]</text>
<polygon fill="none" stroke="black" points="2484.19,-515.2 2484.19,-546 2710.66,-546 2710.66,-515.2 2484.19,-515.2"/>
<text text-anchor="start" x="2491.19" y="-527.4" font-family="Arial" font-size="14.00">user_id </text>
<text text-anchor="start" x="2541" y="-527.4" font-family="Arial" font-size="14.00" fill="#666666">[bigint(20)]</text>
<polygon fill="none" stroke="black" points="2484.19,-484.4 2484.19,-515.2 2710.66,-515.2 2710.66,-484.4 2484.19,-484.4"/>
<text text-anchor="start" x="2491.19" y="-496.6" font-family="Arial" font-size="14.00">name </text>
<text text-anchor="start" x="2530.1" y="-496.6" font-family="Arial" font-size="14.00" fill="#666666">[varchar(255)]</text>
<polygon fill="none" stroke="black" points="2484.19,-453.6 2484.19,-484.4 2710.66,-484.4 2710.66,-453.6 2484.19,-453.6"/>
<text text-anchor="start" x="2491.19" y="-465.8" font-family="Arial" font-size="14.00">color </text>
<text text-anchor="start" x="2525.42" y="-465.8" font-family="Arial" font-size="14.00" fill="#666666">[char(6)]</text>
</g>
<!-- users_labels&#45;&gt;users -->
<g id="edge8" class="edge">
<title>users_labels:user_id&#45;&gt;users:user_id</title>
<path fill="none" stroke="black" d="M2472.78,-529.97C2405.25,-521.16 2466.25,-421.43 2432.42,-348.8 2402.15,-283.81 2413.12,-215.6 2341.42,-215.6"/>
<polygon fill="black" stroke="black" points="2472.87,-529.98 2482.58,-535.07 2478.2,-530.3 2482.52,-530.56 2482.52,-530.56 2482.52,-530.56 2478.2,-530.3 2483.13,-526.09 2472.87,-529.98"/>
<text text-anchor="start" x="2490.19" y="-540.6" font-family="Arial" font-size="10.00">FOREIGN KEY (user_id) REFERENCES users (user_id)</text>
</g>
<!-- organization_calendars_history -->
<g id="node9" class="node">
<title>organization_calendars_history</title>
<polygon fill="#efefef" stroke="none" points="2815.22,-607.6 2815.22,-643.2 3179.63,-643.2 3179.63,-607.6 2815.22,-607.6"/>
<polygon fill="none" stroke="black" points="2815.22,-607.6 2815.22,-643.2 3179.63,-643.2 3179.63,-607.6 2815.22,-607.6"/>
<text text-anchor="start" x="2822.22" y="-621" font-family="Arial Bold" font-size="18.00">organization_calendars_history</text>
<text text-anchor="start" x="3048.14" y="-621" font-family="Arial" font-size="14.00">    </text>
<text text-anchor="start" x="3079.26" y="-621" font-family="Arial" font-size="14.00" fill="#666666">[BASE TABLE]</text>
<polygon fill="none" stroke="black" points="2815.22,-576.8 2815.22,-607.6 3179.63,-607.6 3179.63,-576.8 2815.22,-576.8"/>
<text text-anchor="start" x="2822.22" y="-589" font-family="Arial" font-size="14.00">organization_calendar_event_id </text>
<text text-anchor="start" x="3024.59" y="-589" font-family="Arial" font-size="14.00" fill="#666666">[bigint(20)]</text>
<polygon fill="none" stroke="black" points="2815.22,-546 2815.22,-576.8 3179.63,-576.8 3179.63,-546 2815.22,-546"/>
<text text-anchor="start" x="2822.22" y="-558.2" font-family="Arial" font-size="14.00">organization_id </text>
<text text-anchor="start" x="2921.06" y="-558.2" font-family="Arial" font-size="14.00" fill="#666666">[bigint(20)]</text>
<polygon fill="none" stroke="black" points="2815.22,-515.2 2815.22,-546 3179.63,-546 3179.63,-515.2 2815.22,-515.2"/>
<text text-anchor="start" x="2822.22" y="-527.4" font-family="Arial" font-size="14.00">calendar_id </text>
<text text-anchor="start" x="2898.49" y="-527.4" font-family="Arial" font-size="14.00" fill="#666666">[bigint(20)]</text>
<polygon fill="none" stroke="black" points="2815.22,-484.4 2815.22,-515.2 3179.63,-515.2 3179.63,-484.4 2815.22,-484.4"/>
<text text-anchor="start" x="2822.22" y="-496.6" font-family="Arial" font-size="14.00">admin_user_id </text>
<text text-anchor="start" x="2917.94" y="-496.6" font-family="Arial" font-size="14.00" fill="#666666">[bigint(20)]</text>
<polygon fill="none" stroke="black" points="2815.22,-453.6 2815.22,-484.4 3179.63,-484.4 3179.63,-453.6 2815.22,-453.6"/>
<text text-anchor="start" x="2822.22" y="-465.8" font-family="Arial" font-size="14.00">added </text>
<text text-anchor="start" x="2865.04" y="-465.8" font-family="Arial" font-size="14.00" fill="#666666">[tinyint(1)]</text>
<polygon fill="none" stroke="black" points="2815.22,-422.8 2815.22,-453.6 3179.63,-453.6 3179.63,-422.8 2815.22,-422.8"/>
<text text-anchor="start" x="2822.22" y="-435" font-family="Arial" font-size="14.00">created_at </text>
<text text-anchor="start" x="2892.26" y="-435" font-family="Arial" font-size="14.00" fill="#666666">[datetime(6)]</text>
</g>
<!-- organization_calendars_history&#45;&gt;users -->
<g id="edge9" class="edge">
<title>organization_calendars_history:admin_user_id&#45;&gt;users:user_id</title>
<path fill="none" stroke="black" d="M2804.13,-498.98C2750.31,-489.25 2810.51,-395.75 2762.42,-348.8 2692.21,-280.25 2439.55,-215.6 2341.42,-215.6"/>
<polygon fill="black" stroke="black" points="2803.92,-498.96 2813.52,-504.26 2809.23,-499.39 2813.55,-499.75 2813.55,-499.75 2813.55,-499.75 2809.23,-499.39 2814.25,-495.29 2803.92,-498.96"/>
<text text-anchor="start" x="2597.74" y="-483.8" font-family="Arial" font-size="10.00">FOREIGN KEY (admin_user_id) REFERENCES users (user_id)</text>
</g>
<!-- users_sessions -->
<g id="node10" class="node">
<title>users_sessions</title>
<polygon fill="#efefef" stroke="none" points="3283.68,-561.4 3283.68,-597 3527.17,-597 3527.17,-561.4 3283.68,-561.4"/>
<polygon fill="none" stroke="black" points="3283.68,-561.4 3283.68,-597 3527.17,-597 3527.17,-561.4 3283.68,-561.4"/>
<text text-anchor="start" x="3290.68" y="-574.8" font-family="Arial Bold" font-size="18.00">users_sessions</text>
<text text-anchor="start" x="3395.68" y="-574.8" font-family="Arial" font-size="14.00">    </text>
<text text-anchor="start" x="3426.8" y="-574.8" font-family="Arial" font-size="14.00" fill="#666666">[BASE TABLE]</text>
<polygon fill="none" stroke="black" points="3283.68,-530.6 3283.68,-561.4 3527.17,-561.4 3527.17,-530.6 3283.68,-530.6"/>
<text text-anchor="start" x="3290.68" y="-542.8" font-family="Arial" font-size="14.00">session_hash </text>
<text text-anchor="start" x="3380.18" y="-542.8" font-family="Arial" font-size="14.00" fill="#666666">[binary(32)]</text>
<polygon fill="none" stroke="black" points="3283.68,-499.8 3283.68,-530.6 3527.17,-530.6 3527.17,-499.8 3283.68,-499.8"/>
<text text-anchor="start" x="3290.68" y="-512" font-family="Arial" font-size="14.00">user_id </text>
<text text-anchor="start" x="3340.48" y="-512" font-family="Arial" font-size="14.00" fill="#666666">[bigint(20)]</text>
<polygon fill="none" stroke="black" points="3283.68,-469 3283.68,-499.8 3527.17,-499.8 3527.17,-469 3283.68,-469"/>
<text text-anchor="start" x="3290.68" y="-481.2" font-family="Arial" font-size="14.00">expires_at </text>
<text text-anchor="start" x="3359.16" y="-481.2" font-family="Arial" font-size="14.00" fill="#666666">[datetime(6)]</text>
</g>
<!-- users_sessions&#45;&gt;users -->
<g id="edge10" class="edge">
<title>users_sessions:user_id&#45;&gt;users:user_id</title>
<path fill="none" stroke="black" d="M3272.47,-514.39C3213.23,-504.03 3287.23,-396.79 3231.42,-348.8 3079.8,-218.4 2541.4,-215.6 2341.42,-215.6"/>
<polygon fill="black" stroke="black" points="3272.37,-514.38 3281.99,-519.66 3277.69,-514.81 3282.01,-515.15 3282.01,-515.15 3282.01,-515.15 3277.69,-514.81 3282.7,-510.69 3272.37,-514.38"/>
<text text-anchor="start" x="3024.5" y="-525.2" font-family="Arial" font-size="10.00">FOREIGN KEY (user_id) REFERENCES users (user_id)</text>
</g>
<!-- member_roles_history -->
<g id="node11" class="node">
<title>member_roles_history</title>
<polygon fill="#efefef" stroke="none" points="3631.2,-607.6 3631.2,-643.2 3931.65,-643.2 3931.65,-607.6 3631.2,-607.6"/>
<polygon fill="none" stroke="black" points="3631.2,-607.6 3631.2,-643.2 3931.65,-643.2 3931.65,-607.6 3631.2,-607.6"/>
<text text-anchor="start" x="3638.2" y="-621" font-family="Arial Bold" font-size="18.00">member_roles_history</text>
<text text-anchor="start" x="3800.16" y="-621" font-family="Arial" font-size="14.00">    </text>
<text text-anchor="start" x="3831.28" y="-621" font-family="Arial" font-size="14.00" fill="#666666">[BASE TABLE]</text>
<polygon fill="none" stroke="black" points="3631.2,-576.8 3631.2,-607.6 3931.65,-607.6 3931.65,-576.8 3631.2,-576.8"/>
<text text-anchor="start" x="3638.2" y="-589" font-family="Arial" font-size="14.00">member_role_event_id </text>
<text text-anchor="start" x="3785.28" y="-589" font-family="Arial" font-size="14.00" fill="#666666">[bigint(20)]</text>
<polygon fill="none" stroke="black" points="3631.2,-546 3631.2,-576.8 3931.65,-576.8 3931.65,-546 3631.2,-546"/>
<text text-anchor="start" x="3638.2" y="-558.2" font-family="Arial" font-size="14.00">organization_id </text>
<text text-anchor="start" x="3737.04" y="-558.2" font-family="Arial" font-size="14.00" fill="#666666">[bigint(20)]</text>
<polygon fill="none" stroke="black" points="3631.2,-515.2 3631.2,-546 3931.65,-546 3931.65,-515.2 3631.2,-515.2"/>
<text text-anchor="start" x="3638.2" y="-527.4" font-family="Arial" font-size="14.00">member_user_id </text>
<text text-anchor="start" x="3747.13" y="-527.4" font-family="Arial" font-size="14.00" fill="#666666">[bigint(20)]</text>
<polygon fill="none" stroke="black" points="3631.2,-484.4 3631.2,-515.2 3931.65,-515.2 3931.65,-484.4 3631.2,-484.4"/>
<text text-anchor="start" x="3638.2" y="-496.6" font-family="Arial" font-size="14.00">owner_user_id </text>
<text text-anchor="start" x="3733.92" y="-496.6" font-family="Arial" font-size="14.00" fill="#666666">[bigint(20)]</text>
<polygon fill="none" stroke="black" points="3631.2,-453.6 3631.2,-484.4 3931.65,-484.4 3931.65,-453.6 3631.2,-453.6"/>
<text text-anchor="start" x="3638.2" y="-465.8" font-family="Arial" font-size="14.00">created_at </text>
<text text-anchor="start" x="3708.24" y="-465.8" font-family="Arial" font-size="14.00" fill="#666666">[datetime(6)]</text>
<polygon fill="none" stroke="black" points="3631.2,-422.8 3631.2,-453.6 3931.65,-453.6 3931.65,-422.8 3631.2,-422.8"/>
<text text-anchor="start" x="3638.2" y="-435" font-family="Arial" font-size="14.00">role </text>
<text text-anchor="start" x="3665.43" y="-435" font-family="Arial" font-size="14.00" fill="#666666">[enum(&#39;owner&#39;,&#39;admin&#39;,&#39;user&#39;)]</text>
</g>
<!-- member_roles_history&#45;&gt;users -->
<g id="edge11" class="edge">
<title>member_roles_history:member_user_id&#45;&gt;users:user_id</title>
<path fill="none" stroke="black" d="M3619.95,-529.85C3554.71,-519.29 3640.56,-400.59 3579.42,-348.8 3473.86,-259.37 2479.77,-215.6 2341.42,-215.6"/>
<polygon fill="black" stroke="black" points="3619.89,-529.84 3629.53,-535.06 3625.21,-530.23 3629.53,-530.55 3629.53,-530.55 3629.53,-530.55 3625.21,-530.23 3630.19,-526.09 3619.89,-529.84"/>
<text text-anchor="start" x="3637.2" y="-540.6" font-family="Arial" font-size="10.00">FOREIGN KEY (member_user_id) REFERENCES users (user_id)</text>
</g>
<!-- member_roles_history&#45;&gt;users -->
<g id="edge12" class="edge">
<title>member_roles_history:owner_user_id&#45;&gt;users:user_id</title>
<path fill="none" stroke="black" d="M3619.84,-498.87C3567.23,-488.32 3631.6,-390.72 3579.42,-348.8 3471.57,-262.15 2479.77,-215.6 2341.42,-215.6"/>
<polygon fill="black" stroke="black" points="3619.9,-498.88 3629.46,-504.25 3625.22,-499.35 3629.53,-499.74 3629.53,-499.74 3629.53,-499.74 3625.22,-499.35 3630.26,-495.29 3619.9,-498.88"/>
<text text-anchor="start" x="3637.2" y="-509.8" font-family="Arial" font-size="10.00">FOREIGN KEY (owner_user_id) REFERENCES users (user_id)</text>
</g>
<!-- calendar_writes_history -->
<g id="node12" class="node">
<title>calendar_writes_history</title>
<polygon fill="#efefef" stroke="none" points="4035.71,-592.2 4035.71,-627.8 4347.14,-627.8 4347.14,-592.2 4035.71,-592.2"/>
<polygon fill="none" stroke="black" points="4035.71,-592.2 4035.71,-627.8 4347.14,-627.8 4347.14,-592.2 4035.71,-592.2"/>
<text text-anchor="start" x="4042.71" y="-605.6" font-family="Arial Bold" font-size="18.00">calendar_writes_history</text>
<text text-anchor="start" x="4215.65" y="-605.6" font-family="Arial" font-size="14.00">    </text>
<text text-anchor="start" x="4246.77" y="-605.6" font-family="Arial" font-size="14.00" fill="#666666">[BASE TABLE]</text>
<polygon fill="none" stroke="black" points="4035.71,-561.4 4035.71,-592.2 4347.14,-592.2 4347.14,-561.4 4035.71,-561.4"/>
<text text-anchor="start" x="4042.71" y="-573.6" font-family="Arial" font-size="14.00">calendar_write_event_id </text>
<text text-anchor="start" x="4198.36" y="-573.6" font-family="Arial" font-size="14.00" fill="#666666">[bigint(20)]</text>
<polygon fill="none" stroke="black" points="4035.71,-530.6 4035.71,-561.4 4347.14,-561.4 4347.14,-530.6 4035.71,-530.6"/>
<text text-anchor="start" x="4042.71" y="-542.8" font-family="Arial" font-size="14.00">calendar_id </text>
<text text-anchor="start" x="4118.98" y="-542.8" font-family="Arial" font-size="14.00" fill="#666666">[bigint(20)]</text>
<polygon fill="none" stroke="black" points="4035.71,-499.8 4035.71,-530.6 4347.14,-530.6 4347.14,-499.8 4035.71,-499.8"/>
<text text-anchor="start" x="4042.71" y="-512" font-family="Arial" font-size="14.00">writer_user_id </text>
<text text-anchor="start" x="4134.52" y="-512" font-family="Arial" font-size="14.00" fill="#666666">[bigint(20)]</text>
<polygon fill="none" stroke="black" points="4035.71,-469 4035.71,-499.8 4347.14,-499.8 4347.14,-469 4035.71,-469"/>
<text text-anchor="start" x="4042.71" y="-481.2" font-family="Arial" font-size="14.00">ical_encrypted </text>
<text text-anchor="start" x="4136.87" y="-481.2" font-family="Arial" font-size="14.00" fill="#666666">[longblob]</text>
<polygon fill="none" stroke="black" points="4035.71,-438.2 4035.71,-469 4347.14,-469 4347.14,-438.2 4035.71,-438.2"/>
<text text-anchor="start" x="4042.71" y="-450.4" font-family="Arial" font-size="14.00">created_at </text>
<text text-anchor="start" x="4112.75" y="-450.4" font-family="Arial" font-size="14.00" fill="#666666">[datetime(6)]</text>
</g>
<!-- calendar_writes_history&#45;&gt;users -->
<g id="edge13" class="edge">
<title>calendar_writes_history:writer_user_id&#45;&gt;users:user_id</title>
<path fill="none" stroke="black" d="M4024.51,-514.38C3965.41,-503.85 4040.83,-394.88 3983.42,-348.8 3840.68,-234.22 2524.46,-215.6 2341.42,-215.6"/>
<polygon fill="black" stroke="black" points="4024.41,-514.37 4034.01,-519.66 4029.72,-514.8 4034.04,-515.15 4034.04,-515.15 4034.04,-515.15 4029.72,-514.8 4034.73,-510.69 4024.41,-514.37"/>
<text text-anchor="start" x="4041.71" y="-525.2" font-family="Arial" font-size="10.00">FOREIGN KEY (writer_user_id) REFERENCES users (user_id)</text>
</g>
</g>
</svg>
