<?xml version="1.0" encoding="UTF-8" standalone="no"?>
<!DOCTYPE svg PUBLIC "-//W3C//DTD SVG 1.1//EN"
 "http://www.w3.org/Graphics/SVG/1.1/DTD/svg11.dtd">
<!-- Generated by graphviz version 12.1.2 (20240928.0832)
 -->
<!-- Title: users Pages: 1 -->
<svg width="4430pt" height="725pt"
 viewBox="0.00 0.00 4430.34 725.20" xmlns="http://www.w3.org/2000/svg" xmlns:xlink="http://www.w3.org/1999/xlink">
<g id="graph0" class="graph" transform="scale(1 1) rotate(0) translate(4 721.2)">
<title>users</title>
<polygon fill="white" stroke="none" points="-4,4 -4,-721.2 4426.34,-721.2 4426.34,4 -4,4"/>
<!-- users -->
<g id="node1" class="node">
<title>users</title>
<polygon fill="#efefef" stroke="none" points="2142.43,-231 2142.43,-266.6 2356.42,-266.6 2356.42,-231 2142.43,-231"/>
<polygon fill="none" stroke="black" points="2142.43,-231 2142.43,-266.6 2356.42,-266.6 2356.42,-231 2142.43,-231"/>
<text text-anchor="start" x="2168.68" y="-244.4" font-family="Arial Bold" font-size="18.00">users</text>
<text text-anchor="start" x="2205.67" y="-244.4" font-family="Arial" font-size="14.00">    </text>
<text text-anchor="start" x="2236.79" y="-244.4" font-family="Arial" font-size="14.00" fill="#666666">[BASE TABLE]</text>
<polygon fill="none" stroke="black" points="2142.43,-200.2 2142.43,-231 2356.42,-231 2356.42,-200.2 2142.43,-200.2"/>
<text text-anchor="start" x="2149.43" y="-212.4" font-family="Arial" font-size="14.00">user_id </text>
<text text-anchor="start" x="2199.23" y="-212.4" font-family="Arial" font-size="14.00" fill="#666666">[bigint(20)]</text>
<polygon fill="none" stroke="black" points="2142.43,-169.4 2142.43,-200.2 2356.42,-200.2 2356.42,-169.4 2142.43,-169.4"/>
<text text-anchor="start" x="2149.43" y="-181.6" font-family="Arial" font-size="14.00">email </text>
<text text-anchor="start" x="2186.77" y="-181.6" font-family="Arial" font-size="14.00" fill="#666666">[varchar(320)]</text>
<polygon fill="none" stroke="black" points="2142.43,-138.6 2142.43,-169.4 2356.42,-169.4 2356.42,-138.6 2142.43,-138.6"/>
<text text-anchor="start" x="2149.43" y="-150.8" font-family="Arial" font-size="14.00">first_name </text>
<text text-anchor="start" x="2218.67" y="-150.8" font-family="Arial" font-size="14.00" fill="#666666">[varchar(255)]</text>
<polygon fill="none" stroke="black" points="2142.43,-107.8 2142.43,-138.6 2356.42,-138.6 2356.42,-107.8 2142.43,-107.8"/>
<text text-anchor="start" x="2149.43" y="-120" font-family="Arial" font-size="14.00">last_name </text>
<text text-anchor="start" x="2217.91" y="-120" font-family="Arial" font-size="14.00" fill="#666666">[varchar(255)]</text>
<polygon fill="none" stroke="black" points="2142.43,-77 2142.43,-107.8 2356.42,-107.8 2356.42,-77 2142.43,-77"/>
<text text-anchor="start" x="2149.43" y="-89.2" font-family="Arial" font-size="14.00">password_hash </text>
<text text-anchor="start" x="2251.38" y="-89.2" font-family="Arial" font-size="14.00" fill="#666666">[varbinary(255)]</text>
<polygon fill="none" stroke="black" points="2142.43,-46.2 2142.43,-77 2356.42,-77 2356.42,-46.2 2142.43,-46.2"/>
<text text-anchor="start" x="2149.43" y="-58.4" font-family="Arial" font-size="14.00">middle_name </text>
<text text-anchor="start" x="2237.36" y="-58.4" font-family="Arial" font-size="14.00" fill="#666666">[varchar(255)]</text>
<polygon fill="none" stroke="black" stroke-width="3" points="2140.93,-44.7 2140.93,-268.1 2357.92,-268.1 2357.92,-44.7 2140.93,-44.7"/>
</g>
<!-- member_moderations_history -->
<g id="node2" class="node">
<title>member_moderations_history</title>
<polygon fill="#efefef" stroke="none" points="43.2,-638.4 43.2,-674 397.65,-674 397.65,-638.4 43.2,-638.4"/>
<polygon fill="none" stroke="black" points="43.2,-638.4 43.2,-674 397.65,-674 397.65,-638.4 43.2,-638.4"/>
<text text-anchor="start" x="50.2" y="-651.8" font-family="Arial Bold" font-size="18.00">member_moderations_history</text>
<text text-anchor="start" x="266.16" y="-651.8" font-family="Arial" font-size="14.00">    </text>
<text text-anchor="start" x="297.27" y="-651.8" font-family="Arial" font-size="14.00" fill="#666666">[BASE TABLE]</text>
<polygon fill="none" stroke="black" points="43.2,-607.6 43.2,-638.4 397.65,-638.4 397.65,-607.6 43.2,-607.6"/>
<text text-anchor="start" x="50.2" y="-619.8" font-family="Arial" font-size="14.00">member_moderation_event_id </text>
<text text-anchor="start" x="243.98" y="-619.8" font-family="Arial" font-size="14.00" fill="#666666">[bigint(20)]</text>
<polygon fill="none" stroke="black" points="43.2,-576.8 43.2,-607.6 397.65,-607.6 397.65,-576.8 43.2,-576.8"/>
<text text-anchor="start" x="50.2" y="-589" font-family="Arial" font-size="14.00">organization_id </text>
<text text-anchor="start" x="149.05" y="-589" font-family="Arial" font-size="14.00" fill="#666666">[bigint(20)]</text>
<polygon fill="none" stroke="black" points="43.2,-546 43.2,-576.8 397.65,-576.8 397.65,-546 43.2,-546"/>
<text text-anchor="start" x="50.2" y="-558.2" font-family="Arial" font-size="14.00">member_user_id </text>
<text text-anchor="start" x="159.14" y="-558.2" font-family="Arial" font-size="14.00" fill="#666666">[bigint(20)]</text>
<polygon fill="none" stroke="black" points="43.2,-515.2 43.2,-546 397.65,-546 397.65,-515.2 43.2,-515.2"/>
<text text-anchor="start" x="50.2" y="-527.4" font-family="Arial" font-size="14.00">admin_user_id </text>
<text text-anchor="start" x="145.92" y="-527.4" font-family="Arial" font-size="14.00" fill="#666666">[bigint(20)]</text>
<polygon fill="none" stroke="black" points="43.2,-484.4 43.2,-515.2 397.65,-515.2 397.65,-484.4 43.2,-484.4"/>
<text text-anchor="start" x="50.2" y="-496.6" font-family="Arial" font-size="14.00">created_at </text>
<text text-anchor="start" x="120.25" y="-496.6" font-family="Arial" font-size="14.00" fill="#666666">[datetime(6)]</text>
<polygon fill="none" stroke="black" points="43.2,-453.6 43.2,-484.4 397.65,-484.4 397.65,-453.6 43.2,-453.6"/>
<text text-anchor="start" x="50.2" y="-465.8" font-family="Arial" font-size="14.00">reason </text>
<text text-anchor="start" x="96.9" y="-465.8" font-family="Arial" font-size="14.00" fill="#666666">[varchar(255)]</text>
<polygon fill="none" stroke="black" points="43.2,-422.8 43.2,-453.6 397.65,-453.6 397.65,-422.8 43.2,-422.8"/>
<text text-anchor="start" x="50.2" y="-435" font-family="Arial" font-size="14.00">expires_at </text>
<text text-anchor="start" x="118.68" y="-435" font-family="Arial" font-size="14.00" fill="#666666">[datetime(6)]</text>
<polygon fill="none" stroke="black" points="43.2,-392 43.2,-422.8 397.65,-422.8 397.65,-392 43.2,-392"/>
<text text-anchor="start" x="50.2" y="-404.2" font-family="Arial" font-size="14.00">action </text>
<text text-anchor="start" x="91.45" y="-404.2" font-family="Arial" font-size="14.00" fill="#666666">[enum(&#39;ban&#39;,&#39;unban&#39;)]</text>
</g>
<!-- member_moderations_history&#45;&gt;users -->
<g id="edge1" class="edge">
<title>member_moderations_history:admin_user_id&#45;&gt;users:user_id</title>
<path fill="none" stroke="black" d="M408.9,-529.84C474.25,-519.2 388.33,-399.63 450.42,-348.8 596.26,-229.42 1952.96,-215.6 2141.43,-215.6"/>
<polygon fill="black" stroke="black" points="408.95,-529.84 398.65,-526.09 403.63,-530.23 399.31,-530.55 399.31,-530.55 399.31,-530.55 403.63,-530.23 399.31,-535.06 408.95,-529.84"/>
<text text-anchor="start" x="256.66" y="-514.6" font-family="Arial" font-size="10.00">FOREIGN KEY (admin_user_id) REFERENCES users (user_id)</text>
</g>
<!-- member_moderations_history&#45;&gt;users -->
<g id="edge2" class="edge">
<title>member_moderations_history:member_user_id&#45;&gt;users:user_id</title>
<path fill="none" stroke="black" d="M408.6,-560.79C487.29,-550.42 379.12,-409.5 450.42,-348.8 593.93,-226.63 1952.96,-215.6 2141.43,-215.6"/>
<polygon fill="black" stroke="black" points="408.96,-560.77 398.71,-556.89 403.64,-561.1 399.31,-561.36 399.31,-561.36 399.31,-561.36 403.64,-561.1 399.25,-565.87 408.96,-560.77"/>
<text text-anchor="start" x="251.94" y="-545.4" font-family="Arial" font-size="10.00">FOREIGN KEY (member_user_id) REFERENCES users (user_id)</text>
</g>
<!-- organization_members_history -->
<g id="node3" class="node">
<title>organization_members_history</title>
<polygon fill="#efefef" stroke="none" points="502.21,-592.2 502.21,-627.8 864.64,-627.8 864.64,-592.2 502.21,-592.2"/>
<polygon fill="none" stroke="black" points="502.21,-592.2 502.21,-627.8 864.64,-627.8 864.64,-592.2 502.21,-592.2"/>
<text text-anchor="start" x="509.21" y="-605.6" font-family="Arial Bold" font-size="18.00">organization_members_history</text>
<text text-anchor="start" x="733.15" y="-605.6" font-family="Arial" font-size="14.00">    </text>
<text text-anchor="start" x="764.27" y="-605.6" font-family="Arial" font-size="14.00" fill="#666666">[BASE TABLE]</text>
<polygon fill="none" stroke="black" points="502.21,-561.4 502.21,-592.2 864.64,-592.2 864.64,-561.4 502.21,-561.4"/>
<text text-anchor="start" x="509.21" y="-573.6" font-family="Arial" font-size="14.00">organization_member_event_id </text>
<text text-anchor="start" x="709.22" y="-573.6" font-family="Arial" font-size="14.00" fill="#666666">[bigint(20)]</text>
<polygon fill="none" stroke="black" points="502.21,-530.6 502.21,-561.4 864.64,-561.4 864.64,-530.6 502.21,-530.6"/>
<text text-anchor="start" x="509.21" y="-542.8" font-family="Arial" font-size="14.00">organization_id </text>
<text text-anchor="start" x="608.05" y="-542.8" font-family="Arial" font-size="14.00" fill="#666666">[bigint(20)]</text>
<polygon fill="none" stroke="black" points="502.21,-499.8 502.21,-530.6 864.64,-530.6 864.64,-499.8 502.21,-499.8"/>
<text text-anchor="start" x="509.21" y="-512" font-family="Arial" font-size="14.00">member_user_id </text>
<text text-anchor="start" x="618.14" y="-512" font-family="Arial" font-size="14.00" fill="#666666">[bigint(20)]</text>
<polygon fill="none" stroke="black" points="502.21,-469 502.21,-499.8 864.64,-499.8 864.64,-469 502.21,-469"/>
<text text-anchor="start" x="509.21" y="-481.2" font-family="Arial" font-size="14.00">added </text>
<text text-anchor="start" x="552.03" y="-481.2" font-family="Arial" font-size="14.00" fill="#666666">[tinyint(1)]</text>
<polygon fill="none" stroke="black" points="502.21,-438.2 502.21,-469 864.64,-469 864.64,-438.2 502.21,-438.2"/>
<text text-anchor="start" x="509.21" y="-450.4" font-family="Arial" font-size="14.00">created_at </text>
<text text-anchor="start" x="579.25" y="-450.4" font-family="Arial" font-size="14.00" fill="#666666">[datetime(6)]</text>
</g>
<!-- organization_members_history&#45;&gt;users -->
<g id="edge3" class="edge">
<title>organization_members_history:member_user_id&#45;&gt;users:user_id</title>
<path fill="none" stroke="black" d="M875.86,-514.38C935.09,-503.92 860.54,-395.62 917.42,-348.8 1023.04,-261.85 2004.62,-215.6 2141.43,-215.6"/>
<polygon fill="black" stroke="black" points="875.94,-514.38 865.61,-510.69 870.62,-514.8 866.31,-515.15 866.31,-515.15 866.31,-515.15 870.62,-514.8 866.33,-519.66 875.94,-514.38"/>
<text text-anchor="start" x="872.64" y="-525.2" font-family="Arial" font-size="10.00">FOREIGN KEY (member_user_id) REFERENCES users (user_id)</text>
</g>
<!-- join_responses_history -->
<g id="node4" class="node">
<title>join_responses_history</title>
<polygon fill="#efefef" stroke="none" points="969.18,-592.2 969.18,-627.8 1273.66,-627.8 1273.66,-592.2 969.18,-592.2"/>
<polygon fill="none" stroke="black" points="969.18,-592.2 969.18,-627.8 1273.66,-627.8 1273.66,-592.2 969.18,-592.2"/>
<text text-anchor="start" x="976.18" y="-605.6" font-family="Arial Bold" font-size="18.00">join_responses_history</text>
<text text-anchor="start" x="1142.17" y="-605.6" font-family="Arial" font-size="14.00">    </text>
<text text-anchor="start" x="1173.29" y="-605.6" font-family="Arial" font-size="14.00" fill="#666666">[BASE TABLE]</text>
<polygon fill="none" stroke="black" points="969.18,-561.4 969.18,-592.2 1273.66,-592.2 1273.66,-561.4 969.18,-561.4"/>
<text text-anchor="start" x="976.18" y="-573.6" font-family="Arial" font-size="14.00">join_response_event_id </text>
<text text-anchor="start" x="1127.96" y="-573.6" font-family="Arial" font-size="14.00" fill="#666666">[bigint(20)]</text>
<polygon fill="none" stroke="black" points="969.18,-530.6 969.18,-561.4 1273.66,-561.4 1273.66,-530.6 969.18,-530.6"/>
<text text-anchor="start" x="976.18" y="-542.8" font-family="Arial" font-size="14.00">join_prompt_event_id </text>
<text text-anchor="start" x="1113.94" y="-542.8" font-family="Arial" font-size="14.00" fill="#666666">[bigint(20)]</text>
<polygon fill="none" stroke="black" points="969.18,-499.8 969.18,-530.6 1273.66,-530.6 1273.66,-499.8 969.18,-499.8"/>
<text text-anchor="start" x="976.18" y="-512" font-family="Arial" font-size="14.00">user_id </text>
<text text-anchor="start" x="1025.99" y="-512" font-family="Arial" font-size="14.00" fill="#666666">[bigint(20)]</text>
<polygon fill="none" stroke="black" points="969.18,-469 969.18,-499.8 1273.66,-499.8 1273.66,-469 969.18,-469"/>
<text text-anchor="start" x="976.18" y="-481.2" font-family="Arial" font-size="14.00">response </text>
<text text-anchor="start" x="1037.67" y="-481.2" font-family="Arial" font-size="14.00" fill="#666666">[text]</text>
<polygon fill="none" stroke="black" points="969.18,-438.2 969.18,-469 1273.66,-469 1273.66,-438.2 969.18,-438.2"/>
<text text-anchor="start" x="976.18" y="-450.4" font-family="Arial" font-size="14.00">created_at </text>
<text text-anchor="start" x="1046.23" y="-450.4" font-family="Arial" font-size="14.00" fill="#666666">[datetime(6)]</text>
</g>
<!-- join_responses_history&#45;&gt;users -->
<g id="edge4" class="edge">
<title>join_responses_history:user_id&#45;&gt;users:user_id</title>
<path fill="none" stroke="black" d="M1284.89,-514.39C1344.24,-504.07 1270.83,-397.13 1326.42,-348.8 1464.92,-228.4 1957.91,-215.6 2141.43,-215.6"/>
<polygon fill="black" stroke="black" points="1284.96,-514.39 1274.64,-510.69 1279.65,-514.81 1275.33,-515.15 1275.33,-515.15 1275.33,-515.15 1279.65,-514.81 1275.35,-519.66 1284.96,-514.39"/>
<text text-anchor="start" x="1149.08" y="-499.2" font-family="Arial" font-size="10.00">FOREIGN KEY (user_id) REFERENCES users (user_id)</text>
</g>
<!-- calendars -->
<g id="node5" class="node">
<title>calendars</title>
<polygon fill="#efefef" stroke="none" points="1378.2,-576.8 1378.2,-612.4 1584.65,-612.4 1584.65,-576.8 1378.2,-576.8"/>
<polygon fill="none" stroke="black" points="1378.2,-576.8 1378.2,-612.4 1584.65,-612.4 1584.65,-576.8 1378.2,-576.8"/>
<text text-anchor="start" x="1385.2" y="-590.2" font-family="Arial Bold" font-size="18.00">calendars</text>
<text text-anchor="start" x="1453.16" y="-590.2" font-family="Arial" font-size="14.00">    </text>
<text text-anchor="start" x="1484.27" y="-590.2" font-family="Arial" font-size="14.00" fill="#666666">[BASE TABLE]</text>
<polygon fill="none" stroke="black" points="1378.2,-546 1378.2,-576.8 1584.65,-576.8 1584.65,-546 1378.2,-546"/>
<text text-anchor="start" x="1385.2" y="-558.2" font-family="Arial" font-size="14.00">calendar_id </text>
<text text-anchor="start" x="1461.47" y="-558.2" font-family="Arial" font-size="14.00" fill="#666666">[bigint(20)]</text>
<polygon fill="none" stroke="black" points="1378.2,-515.2 1378.2,-546 1584.65,-546 1584.65,-515.2 1378.2,-515.2"/>
<text text-anchor="start" x="1385.2" y="-527.4" font-family="Arial" font-size="14.00">owner_user_id </text>
<text text-anchor="start" x="1480.92" y="-527.4" font-family="Arial" font-size="14.00" fill="#666666">[bigint(20)]</text>
<polygon fill="none" stroke="black" points="1378.2,-484.4 1378.2,-515.2 1584.65,-515.2 1584.65,-484.4 1378.2,-484.4"/>
<text text-anchor="start" x="1385.2" y="-496.6" font-family="Arial" font-size="14.00">name </text>
<text text-anchor="start" x="1424.11" y="-496.6" font-family="Arial" font-size="14.00" fill="#666666">[varchar(255)]</text>
<polygon fill="none" stroke="black" points="1378.2,-453.6 1378.2,-484.4 1584.65,-484.4 1584.65,-453.6 1378.2,-453.6"/>
<text text-anchor="start" x="1385.2" y="-465.8" font-family="Arial" font-size="14.00">description </text>
<text text-anchor="start" x="1456.79" y="-465.8" font-family="Arial" font-size="14.00" fill="#666666">[text]</text>
</g>
<!-- calendars&#45;&gt;users -->
<g id="edge5" class="edge">
<title>calendars:owner_user_id&#45;&gt;users:user_id</title>
<path fill="none" stroke="black" d="M1595.91,-529.87C1661.5,-519.69 1579.36,-405.04 1636.42,-348.8 1719.08,-267.33 2025.37,-215.6 2141.43,-215.6"/>
<polygon fill="black" stroke="black" points="1595.95,-529.87 1585.66,-526.09 1590.63,-530.25 1586.31,-530.55 1586.31,-530.55 1586.31,-530.55 1590.63,-530.25 1586.3,-535.07 1595.95,-529.87"/>
<text text-anchor="start" x="1443.66" y="-514.6" font-family="Arial" font-size="10.00">FOREIGN KEY (owner_user_id) REFERENCES users (user_id)</text>
</g>
<!-- join_prompts_history -->
<g id="node6" class="node">
<title>join_prompts_history</title>
<polygon fill="#efefef" stroke="none" points="1688.68,-592.2 1688.68,-627.8 1982.17,-627.8 1982.17,-592.2 1688.68,-592.2"/>
<polygon fill="none" stroke="black" points="1688.68,-592.2 1688.68,-627.8 1982.17,-627.8 1982.17,-592.2 1688.68,-592.2"/>
<text text-anchor="start" x="1695.68" y="-605.6" font-family="Arial Bold" font-size="18.00">join_prompts_history</text>
<text text-anchor="start" x="1850.68" y="-605.6" font-family="Arial" font-size="14.00">    </text>
<text text-anchor="start" x="1881.8" y="-605.6" font-family="Arial" font-size="14.00" fill="#666666">[BASE TABLE]</text>
<polygon fill="none" stroke="black" points="1688.68,-561.4 1688.68,-592.2 1982.17,-592.2 1982.17,-561.4 1688.68,-561.4"/>
<text text-anchor="start" x="1695.68" y="-573.6" font-family="Arial" font-size="14.00">join_prompt_event_id </text>
<text text-anchor="start" x="1833.43" y="-573.6" font-family="Arial" font-size="14.00" fill="#666666">[bigint(20)]</text>
<polygon fill="none" stroke="black" points="1688.68,-530.6 1688.68,-561.4 1982.17,-561.4 1982.17,-530.6 1688.68,-530.6"/>
<text text-anchor="start" x="1695.68" y="-542.8" font-family="Arial" font-size="14.00">organization_id </text>
<text text-anchor="start" x="1794.52" y="-542.8" font-family="Arial" font-size="14.00" fill="#666666">[bigint(20)]</text>
<polygon fill="none" stroke="black" points="1688.68,-499.8 1688.68,-530.6 1982.17,-530.6 1982.17,-499.8 1688.68,-499.8"/>
<text text-anchor="start" x="1695.68" y="-512" font-family="Arial" font-size="14.00">owner_user_id </text>
<text text-anchor="start" x="1791.4" y="-512" font-family="Arial" font-size="14.00" fill="#666666">[bigint(20)]</text>
<polygon fill="none" stroke="black" points="1688.68,-469 1688.68,-499.8 1982.17,-499.8 1982.17,-469 1688.68,-469"/>
<text text-anchor="start" x="1695.68" y="-481.2" font-family="Arial" font-size="14.00">prompt </text>
<text text-anchor="start" x="1743.14" y="-481.2" font-family="Arial" font-size="14.00" fill="#666666">[text]</text>
<polygon fill="none" stroke="black" points="1688.68,-438.2 1688.68,-469 1982.17,-469 1982.17,-438.2 1688.68,-438.2"/>
<text text-anchor="start" x="1695.68" y="-450.4" font-family="Arial" font-size="14.00">created_at </text>
<text text-anchor="start" x="1765.72" y="-450.4" font-family="Arial" font-size="14.00" fill="#666666">[datetime(6)]</text>
</g>
<!-- join_prompts_history&#45;&gt;users -->
<g id="edge6" class="edge">
<title>join_prompts_history:owner_user_id&#45;&gt;users:user_id</title>
<path fill="none" stroke="black" d="M1993.53,-514.51C2054.7,-505.7 1999.93,-413.82 2034.42,-348.8 2070.01,-281.72 2065.49,-215.6 2141.43,-215.6"/>
<polygon fill="black" stroke="black" points="1993.48,-514.52 1983.21,-510.69 1988.16,-514.87 1983.84,-515.16 1983.84,-515.16 1983.84,-515.16 1988.16,-514.87 1983.8,-519.67 1993.48,-514.52"/>
<text text-anchor="start" x="1990.17" y="-525.2" font-family="Arial" font-size="10.00">FOREIGN KEY (owner_user_id) REFERENCES users (user_id)</text>
</g>
<!-- join_requests_history -->
<g id="node7" class="node">
<title>join_requests_history</title>
<polygon fill="#efefef" stroke="none" points="2086.59,-592.2 2086.59,-627.8 2412.26,-627.8 2412.26,-592.2 2086.59,-592.2"/>
<polygon fill="none" stroke="black" points="2086.59,-592.2 2086.59,-627.8 2412.26,-627.8 2412.26,-592.2 2086.59,-592.2"/>
<text text-anchor="start" x="2109.68" y="-605.6" font-family="Arial Bold" font-size="18.00">join_requests_history</text>
<text text-anchor="start" x="2264.67" y="-605.6" font-family="Arial" font-size="14.00">    </text>
<text text-anchor="start" x="2295.79" y="-605.6" font-family="Arial" font-size="14.00" fill="#666666">[BASE TABLE]</text>
<polygon fill="none" stroke="black" points="2086.59,-561.4 2086.59,-592.2 2412.26,-592.2 2412.26,-561.4 2086.59,-561.4"/>
<text text-anchor="start" x="2093.59" y="-573.6" font-family="Arial" font-size="14.00">join_request_event_id </text>
<text text-anchor="start" x="2234.47" y="-573.6" font-family="Arial" font-size="14.00" fill="#666666">[bigint(20)]</text>
<polygon fill="none" stroke="black" points="2086.59,-530.6 2086.59,-561.4 2412.26,-561.4 2412.26,-530.6 2086.59,-530.6"/>
<text text-anchor="start" x="2093.59" y="-542.8" font-family="Arial" font-size="14.00">join_response_event_id </text>
<text text-anchor="start" x="2245.37" y="-542.8" font-family="Arial" font-size="14.00" fill="#666666">[bigint(20)]</text>
<polygon fill="none" stroke="black" points="2086.59,-499.8 2086.59,-530.6 2412.26,-530.6 2412.26,-499.8 2086.59,-499.8"/>
<text text-anchor="start" x="2093.59" y="-512" font-family="Arial" font-size="14.00">admin_user_id </text>
<text text-anchor="start" x="2189.31" y="-512" font-family="Arial" font-size="14.00" fill="#666666">[bigint(20)]</text>
<polygon fill="none" stroke="black" points="2086.59,-469 2086.59,-499.8 2412.26,-499.8 2412.26,-469 2086.59,-469"/>
<text text-anchor="start" x="2093.59" y="-481.2" font-family="Arial" font-size="14.00">created_at </text>
<text text-anchor="start" x="2163.64" y="-481.2" font-family="Arial" font-size="14.00" fill="#666666">[datetime(6)]</text>
<polygon fill="none" stroke="black" points="2086.59,-438.2 2086.59,-469 2412.26,-469 2412.26,-438.2 2086.59,-438.2"/>
<text text-anchor="start" x="2093.59" y="-450.4" font-family="Arial" font-size="14.00">status </text>
<text text-anchor="start" x="2134.83" y="-450.4" font-family="Arial" font-size="14.00" fill="#666666">[enum(&#39;open&#39;,&#39;retracted&#39;,&#39;denied&#39;,&#39;accepted&#39;)]</text>
</g>
<!-- join_requests_history&#45;&gt;users -->
<g id="edge7" class="edge">
<title>join_requests_history:admin_user_id&#45;&gt;users:user_id</title>
<path fill="none" stroke="black" d="M2423.28,-512.61C2474.84,-483.33 2421.44,-215.6 2357.42,-215.6"/>
<polygon fill="black" stroke="black" points="2423.26,-512.61 2412.46,-510.76 2418.1,-513.95 2413.91,-515.03 2413.91,-515.03 2413.91,-515.03 2418.1,-513.95 2414.71,-519.47 2423.26,-512.61"/>
<text text-anchor="start" x="2271.27" y="-499.2" font-family="Arial" font-size="10.00">FOREIGN KEY (admin_user_id) REFERENCES users (user_id)</text>
</g>
<!-- users_labels -->
<g id="node8" class="node">
<title>users_labels</title>
<polygon fill="#efefef" stroke="none" points="2516.19,-576.8 2516.19,-612.4 2742.66,-612.4 2742.66,-576.8 2516.19,-576.8"/>
<polygon fill="none" stroke="black" points="2516.19,-576.8 2516.19,-612.4 2742.66,-612.4 2742.66,-576.8 2516.19,-576.8"/>
<text text-anchor="start" x="2523.19" y="-590.2" font-family="Arial Bold" font-size="18.00">users_labels</text>
<text text-anchor="start" x="2611.17" y="-590.2" font-family="Arial" font-size="14.00">    </text>
<text text-anchor="start" x="2642.28" y="-590.2" font-family="Arial" font-size="14.00" fill="#666666">[BASE TABLE]</text>
<polygon fill="none" stroke="black" points="2516.19,-546 2516.19,-576.8 2742.66,-576.8 2742.66,-546 2516.19,-546"/>
<text text-anchor="start" x="2523.19" y="-558.2" font-family="Arial" font-size="14.00">user_label_id </text>
<text text-anchor="start" x="2610.36" y="-558.2" font-family="Arial" font-size="14.00" fill="#666666">[bigint(20)]</text>
<polygon fill="none" stroke="black" points="2516.19,-515.2 2516.19,-546 2742.66,-546 2742.66,-515.2 2516.19,-515.2"/>
<text text-anchor="start" x="2523.19" y="-527.4" font-family="Arial" font-size="14.00">user_id </text>
<text text-anchor="start" x="2573" y="-527.4" font-family="Arial" font-size="14.00" fill="#666666">[bigint(20)]</text>
<polygon fill="none" stroke="black" points="2516.19,-484.4 2516.19,-515.2 2742.66,-515.2 2742.66,-484.4 2516.19,-484.4"/>
<text text-anchor="start" x="2523.19" y="-496.6" font-family="Arial" font-size="14.00">name </text>
<text text-anchor="start" x="2562.1" y="-496.6" font-family="Arial" font-size="14.00" fill="#666666">[varchar(255)]</text>
<polygon fill="none" stroke="black" points="2516.19,-453.6 2516.19,-484.4 2742.66,-484.4 2742.66,-453.6 2516.19,-453.6"/>
<text text-anchor="start" x="2523.19" y="-465.8" font-family="Arial" font-size="14.00">color </text>
<text text-anchor="start" x="2557.42" y="-465.8" font-family="Arial" font-size="14.00" fill="#666666">[char(6)]</text>
</g>
<!-- users_labels&#45;&gt;users -->
<g id="edge8" class="edge">
<title>users_labels:user_id&#45;&gt;users:user_id</title>
<path fill="none" stroke="black" d="M2504.8,-529.96C2437.5,-521.04 2501.03,-420.07 2464.42,-348.8 2429.73,-281.25 2433.36,-215.6 2357.42,-215.6"/>
<polygon fill="black" stroke="black" points="2504.87,-529.97 2514.58,-535.07 2510.2,-530.29 2514.52,-530.56 2514.52,-530.56 2514.52,-530.56 2510.2,-530.29 2515.13,-526.09 2504.87,-529.97"/>
<text text-anchor="start" x="2257.02" y="-540.6" font-family="Arial" font-size="10.00">FOREIGN KEY (user_id) REFERENCES users (user_id)</text>
</g>
<!-- organization_calendars_history -->
<g id="node9" class="node">
<title>organization_calendars_history</title>
<polygon fill="#efefef" stroke="none" points="2847.22,-607.6 2847.22,-643.2 3211.63,-643.2 3211.63,-607.6 2847.22,-607.6"/>
<polygon fill="none" stroke="black" points="2847.22,-607.6 2847.22,-643.2 3211.63,-643.2 3211.63,-607.6 2847.22,-607.6"/>
<text text-anchor="start" x="2854.22" y="-621" font-family="Arial Bold" font-size="18.00">organization_calendars_history</text>
<text text-anchor="start" x="3080.14" y="-621" font-family="Arial" font-size="14.00">    </text>
<text text-anchor="start" x="3111.26" y="-621" font-family="Arial" font-size="14.00" fill="#666666">[BASE TABLE]</text>
<polygon fill="none" stroke="black" points="2847.22,-576.8 2847.22,-607.6 3211.63,-607.6 3211.63,-576.8 2847.22,-576.8"/>
<text text-anchor="start" x="2854.22" y="-589" font-family="Arial" font-size="14.00">organization_calendar_event_id </text>
<text text-anchor="start" x="3056.59" y="-589" font-family="Arial" font-size="14.00" fill="#666666">[bigint(20)]</text>
<polygon fill="none" stroke="black" points="2847.22,-546 2847.22,-576.8 3211.63,-576.8 3211.63,-546 2847.22,-546"/>
<text text-anchor="start" x="2854.22" y="-558.2" font-family="Arial" font-size="14.00">organization_id </text>
<text text-anchor="start" x="2953.06" y="-558.2" font-family="Arial" font-size="14.00" fill="#666666">[bigint(20)]</text>
<polygon fill="none" stroke="black" points="2847.22,-515.2 2847.22,-546 3211.63,-546 3211.63,-515.2 2847.22,-515.2"/>
<text text-anchor="start" x="2854.22" y="-527.4" font-family="Arial" font-size="14.00">calendar_id </text>
<text text-anchor="start" x="2930.49" y="-527.4" font-family="Arial" font-size="14.00" fill="#666666">[bigint(20)]</text>
<polygon fill="none" stroke="black" points="2847.22,-484.4 2847.22,-515.2 3211.63,-515.2 3211.63,-484.4 2847.22,-484.4"/>
<text text-anchor="start" x="2854.22" y="-496.6" font-family="Arial" font-size="14.00">admin_user_id </text>
<text text-anchor="start" x="2949.94" y="-496.6" font-family="Arial" font-size="14.00" fill="#666666">[bigint(20)]</text>
<polygon fill="none" stroke="black" points="2847.22,-453.6 2847.22,-484.4 3211.63,-484.4 3211.63,-453.6 2847.22,-453.6"/>
<text text-anchor="start" x="2854.22" y="-465.8" font-family="Arial" font-size="14.00">added </text>
<text text-anchor="start" x="2897.04" y="-465.8" font-family="Arial" font-size="14.00" fill="#666666">[tinyint(1)]</text>
<polygon fill="none" stroke="black" points="2847.22,-422.8 2847.22,-453.6 3211.63,-453.6 3211.63,-422.8 2847.22,-422.8"/>
<text text-anchor="start" x="2854.22" y="-435" font-family="Arial" font-size="14.00">created_at </text>
<text text-anchor="start" x="2924.26" y="-435" font-family="Arial" font-size="14.00" fill="#666666">[datetime(6)]</text>
</g>
<!-- organization_calendars_history&#45;&gt;users -->
<g id="edge9" class="edge">
<title>organization_calendars_history:admin_user_id&#45;&gt;users:user_id</title>
<path fill="none" stroke="black" d="M2836.13,-498.97C2782.33,-489.22 2842.76,-395.49 2794.42,-348.8 2721.4,-278.26 2458.94,-215.6 2357.42,-215.6"/>
<polygon fill="black" stroke="black" points="2835.92,-498.96 2845.52,-504.26 2841.23,-499.39 2845.55,-499.75 2845.55,-499.75 2845.55,-499.75 2841.23,-499.39 2846.25,-495.29 2835.92,-498.96"/>
<text text-anchor="start" x="2629.74" y="-483.8" font-family="Arial" font-size="10.00">FOREIGN KEY (admin_user_id) REFERENCES users (user_id)</text>
</g>
<!-- users_sessions -->
<g id="node10" class="node">
<title>users_sessions</title>
<polygon fill="#efefef" stroke="none" points="3315.68,-561.4 3315.68,-597 3559.17,-597 3559.17,-561.4 3315.68,-561.4"/>
<polygon fill="none" stroke="black" points="3315.68,-561.4 3315.68,-597 3559.17,-597 3559.17,-561.4 3315.68,-561.4"/>
<text text-anchor="start" x="3322.68" y="-574.8" font-family="Arial Bold" font-size="18.00">users_sessions</text>
<text text-anchor="start" x="3427.68" y="-574.8" font-family="Arial" font-size="14.00">    </text>
<text text-anchor="start" x="3458.8" y="-574.8" font-family="Arial" font-size="14.00" fill="#666666">[BASE TABLE]</text>
<polygon fill="none" stroke="black" points="3315.68,-530.6 3315.68,-561.4 3559.17,-561.4 3559.17,-530.6 3315.68,-530.6"/>
<text text-anchor="start" x="3322.68" y="-542.8" font-family="Arial" font-size="14.00">session_hash </text>
<text text-anchor="start" x="3412.18" y="-542.8" font-family="Arial" font-size="14.00" fill="#666666">[binary(32)]</text>
<polygon fill="none" stroke="black" points="3315.68,-499.8 3315.68,-530.6 3559.17,-530.6 3559.17,-499.8 3315.68,-499.8"/>
<text text-anchor="start" x="3322.68" y="-512" font-family="Arial" font-size="14.00">user_id </text>
<text text-anchor="start" x="3372.48" y="-512" font-family="Arial" font-size="14.00" fill="#666666">[bigint(20)]</text>
<polygon fill="none" stroke="black" points="3315.68,-469 3315.68,-499.8 3559.17,-499.8 3559.17,-469 3315.68,-469"/>
<text text-anchor="start" x="3322.68" y="-481.2" font-family="Arial" font-size="14.00">expires_at </text>
<text text-anchor="start" x="3391.16" y="-481.2" font-family="Arial" font-size="14.00" fill="#666666">[datetime(6)]</text>
</g>
<!-- users_sessions&#45;&gt;users -->
<g id="edge10" class="edge">
<title>users_sessions:user_id&#45;&gt;users:user_id</title>
<path fill="none" stroke="black" d="M3304.47,-514.39C3245.24,-504.03 3319.29,-396.72 3263.42,-348.8 3108.96,-216.31 2560.92,-215.6 2357.42,-215.6"/>
<polygon fill="black" stroke="black" points="3304.37,-514.38 3313.99,-519.66 3309.69,-514.81 3314.01,-515.15 3314.01,-515.15 3314.01,-515.15 3309.69,-514.81 3314.7,-510.69 3304.37,-514.38"/>
<text text-anchor="start" x="3056.5" y="-525.2" font-family="Arial" font-size="10.00">FOREIGN KEY (user_id) REFERENCES users (user_id)</text>
</g>
<!-- member_roles_history -->
<g id="node11" class="node">
<title>member_roles_history</title>
<polygon fill="#efefef" stroke="none" points="3663.2,-607.6 3663.2,-643.2 3963.65,-643.2 3963.65,-607.6 3663.2,-607.6"/>
<polygon fill="none" stroke="black" points="3663.2,-607.6 3663.2,-643.2 3963.65,-643.2 3963.65,-607.6 3663.2,-607.6"/>
<text text-anchor="start" x="3670.2" y="-621" font-family="Arial Bold" font-size="18.00">member_roles_history</text>
<text text-anchor="start" x="3832.16" y="-621" font-family="Arial" font-size="14.00">    </text>
<text text-anchor="start" x="3863.28" y="-621" font-family="Arial" font-size="14.00" fill="#666666">[BASE TABLE]</text>
<polygon fill="none" stroke="black" points="3663.2,-576.8 3663.2,-607.6 3963.65,-607.6 3963.65,-576.8 3663.2,-576.8"/>
<text text-anchor="start" x="3670.2" y="-589" font-family="Arial" font-size="14.00">member_role_event_id </text>
<text text-anchor="start" x="3817.28" y="-589" font-family="Arial" font-size="14.00" fill="#666666">[bigint(20)]</text>
<polygon fill="none" stroke="black" points="3663.2,-546 3663.2,-576.8 3963.65,-576.8 3963.65,-546 3663.2,-546"/>
<text text-anchor="start" x="3670.2" y="-558.2" font-family="Arial" font-size="14.00">organization_id </text>
<text text-anchor="start" x="3769.04" y="-558.2" font-family="Arial" font-size="14.00" fill="#666666">[bigint(20)]</text>
<polygon fill="none" stroke="black" points="3663.2,-515.2 3663.2,-546 3963.65,-546 3963.65,-515.2 3663.2,-515.2"/>
<text text-anchor="start" x="3670.2" y="-527.4" font-family="Arial" font-size="14.00">member_user_id </text>
<text text-anchor="start" x="3779.13" y="-527.4" font-family="Arial" font-size="14.00" fill="#666666">[bigint(20)]</text>
<polygon fill="none" stroke="black" points="3663.2,-484.4 3663.2,-515.2 3963.65,-515.2 3963.65,-484.4 3663.2,-484.4"/>
<text text-anchor="start" x="3670.2" y="-496.6" font-family="Arial" font-size="14.00">owner_user_id </text>
<text text-anchor="start" x="3765.92" y="-496.6" font-family="Arial" font-size="14.00" fill="#666666">[bigint(20)]</text>
<polygon fill="none" stroke="black" points="3663.2,-453.6 3663.2,-484.4 3963.65,-484.4 3963.65,-453.6 3663.2,-453.6"/>
<text text-anchor="start" x="3670.2" y="-465.8" font-family="Arial" font-size="14.00">created_at </text>
<text text-anchor="start" x="3740.24" y="-465.8" font-family="Arial" font-size="14.00" fill="#666666">[datetime(6)]</text>
<polygon fill="none" stroke="black" points="3663.2,-422.8 3663.2,-453.6 3963.65,-453.6 3963.65,-422.8 3663.2,-422.8"/>
<text text-anchor="start" x="3670.2" y="-435" font-family="Arial" font-size="14.00">role </text>
<text text-anchor="start" x="3697.43" y="-435" font-family="Arial" font-size="14.00" fill="#666666">[enum(&#39;owner&#39;,&#39;admin&#39;,&#39;user&#39;)]</text>
</g>
<!-- member_roles_history&#45;&gt;users -->
<g id="edge11" class="edge">
<title>member_roles_history:member_user_id&#45;&gt;users:user_id</title>
<path fill="none" stroke="black" d="M3651.95,-529.85C3586.71,-519.28 3672.59,-400.55 3611.42,-348.8 3504.45,-258.3 2497.54,-215.6 2357.42,-215.6"/>
<polygon fill="black" stroke="black" points="3651.89,-529.84 3661.53,-535.06 3657.21,-530.23 3661.53,-530.55 3661.53,-530.55 3661.53,-530.55 3657.21,-530.23 3662.19,-526.09 3651.89,-529.84"/>
<text text-anchor="start" x="3669.2" y="-540.6" font-family="Arial" font-size="10.00">FOREIGN KEY (member_user_id) REFERENCES users (user_id)</text>
</g>
<!-- member_roles_history&#45;&gt;users -->
<g id="edge12" class="edge">
<title>member_roles_history:owner_user_id&#45;&gt;users:user_id</title>
<path fill="none" stroke="black" d="M3651.84,-498.87C3599.23,-488.32 3663.63,-390.68 3611.42,-348.8 3502.13,-261.12 2497.54,-215.6 2357.42,-215.6"/>
<polygon fill="black" stroke="black" points="3651.9,-498.88 3661.46,-504.25 3657.22,-499.35 3661.53,-499.74 3661.53,-499.74 3661.53,-499.74 3657.22,-499.35 3662.27,-495.29 3651.9,-498.88"/>
<text text-anchor="start" x="3669.2" y="-509.8" font-family="Arial" font-size="10.00">FOREIGN KEY (owner_user_id) REFERENCES users (user_id)</text>
</g>
<!-- calendar_writes_history -->
<g id="node12" class="node">
<title>calendar_writes_history</title>
<polygon fill="#efefef" stroke="none" points="4067.71,-592.2 4067.71,-627.8 4379.14,-627.8 4379.14,-592.2 4067.71,-592.2"/>
<polygon fill="none" stroke="black" points="4067.71,-592.2 4067.71,-627.8 4379.14,-627.8 4379.14,-592.2 4067.71,-592.2"/>
<text text-anchor="start" x="4074.71" y="-605.6" font-family="Arial Bold" font-size="18.00">calendar_writes_history</text>
<text text-anchor="start" x="4247.65" y="-605.6" font-family="Arial" font-size="14.00">    </text>
<text text-anchor="start" x="4278.77" y="-605.6" font-family="Arial" font-size="14.00" fill="#666666">[BASE TABLE]</text>
<polygon fill="none" stroke="black" points="4067.71,-561.4 4067.71,-592.2 4379.14,-592.2 4379.14,-561.4 4067.71,-561.4"/>
<text text-anchor="start" x="4074.71" y="-573.6" font-family="Arial" font-size="14.00">calendar_write_event_id </text>
<text text-anchor="start" x="4230.36" y="-573.6" font-family="Arial" font-size="14.00" fill="#666666">[bigint(20)]</text>
<polygon fill="none" stroke="black" points="4067.71,-530.6 4067.71,-561.4 4379.14,-561.4 4379.14,-530.6 4067.71,-530.6"/>
<text text-anchor="start" x="4074.71" y="-542.8" font-family="Arial" font-size="14.00">calendar_id </text>
<text text-anchor="start" x="4150.98" y="-542.8" font-family="Arial" font-size="14.00" fill="#666666">[bigint(20)]</text>
<polygon fill="none" stroke="black" points="4067.71,-499.8 4067.71,-530.6 4379.14,-530.6 4379.14,-499.8 4067.71,-499.8"/>
<text text-anchor="start" x="4074.71" y="-512" font-family="Arial" font-size="14.00">writer_user_id </text>
<text text-anchor="start" x="4166.52" y="-512" font-family="Arial" font-size="14.00" fill="#666666">[bigint(20)]</text>
<polygon fill="none" stroke="black" points="4067.71,-469 4067.71,-499.8 4379.14,-499.8 4379.14,-469 4067.71,-469"/>
<text text-anchor="start" x="4074.71" y="-481.2" font-family="Arial" font-size="14.00">ical_encrypted </text>
<text text-anchor="start" x="4168.87" y="-481.2" font-family="Arial" font-size="14.00" fill="#666666">[longblob]</text>
<polygon fill="none" stroke="black" points="4067.71,-438.2 4067.71,-469 4379.14,-469 4379.14,-438.2 4067.71,-438.2"/>
<text text-anchor="start" x="4074.71" y="-450.4" font-family="Arial" font-size="14.00">created_at </text>
<text text-anchor="start" x="4144.75" y="-450.4" font-family="Arial" font-size="14.00" fill="#666666">[datetime(6)]</text>
</g>
<!-- calendar_writes_history&#45;&gt;users -->
<g id="edge13" class="edge">
<title>calendar_writes_history:writer_user_id&#45;&gt;users:user_id</title>
<path fill="none" stroke="black" d="M4056.51,-514.38C3997.41,-503.84 4072.84,-394.86 4015.42,-348.8 3871.25,-233.16 2542.23,-215.6 2357.42,-215.6"/>
<polygon fill="black" stroke="black" points="4056.41,-514.37 4066.01,-519.66 4061.72,-514.8 4066.04,-515.15 4066.04,-515.15 4066.04,-515.15 4061.72,-514.8 4066.73,-510.69 4056.41,-514.37"/>
<text text-anchor="start" x="4073.71" y="-525.2" font-family="Arial" font-size="10.00">FOREIGN KEY (writer_user_id) REFERENCES users (user_id)</text>
</g>
</g>
</svg>
