<?xml version="1.0" encoding="UTF-8" standalone="no"?>
<!DOCTYPE svg PUBLIC "-//W3C//DTD SVG 1.1//EN"
 "http://www.w3.org/Graphics/SVG/1.1/DTD/svg11.dtd">
<!-- Generated by graphviz version 12.1.2 (20240928.0832)
 -->
<!-- Title: users_calendars_bans Pages: 1 -->
<svg width="823pt" height="602pt"
 viewBox="0.00 0.00 822.56 602.00" xmlns="http://www.w3.org/2000/svg" xmlns:xlink="http://www.w3.org/1999/xlink">
<g id="graph0" class="graph" transform="scale(1 1) rotate(0) translate(4 598)">
<title>users_calendars_bans</title>
<polygon fill="white" stroke="none" points="-4,4 -4,-598 818.56,-598 818.56,4 -4,4"/>
<!-- users_calendars_bans -->
<g id="node1" class="node">
<title>users_calendars_bans</title>
<polygon fill="#efefef" stroke="none" points="241.16,-512.2 241.16,-547.8 535.59,-547.8 535.59,-512.2 241.16,-512.2"/>
<polygon fill="none" stroke="black" points="241.16,-512.2 241.16,-547.8 535.59,-547.8 535.59,-512.2 241.16,-512.2"/>
<text text-anchor="start" x="248.16" y="-525.6" font-family="Arial Bold" font-size="18.00">users_calendars_bans</text>
<text text-anchor="start" x="404.1" y="-525.6" font-family="Arial" font-size="14.00">    </text>
<text text-anchor="start" x="435.22" y="-525.6" font-family="Arial" font-size="14.00" fill="#666666">[BASE TABLE]</text>
<polygon fill="none" stroke="black" points="241.16,-481.4 241.16,-512.2 535.59,-512.2 535.59,-481.4 241.16,-481.4"/>
<text text-anchor="start" x="248.16" y="-493.6" font-family="Arial" font-size="14.00">user_id </text>
<text text-anchor="start" x="297.96" y="-493.6" font-family="Arial" font-size="14.00" fill="#666666">[int(11)]</text>
<polygon fill="none" stroke="black" points="241.16,-450.6 241.16,-481.4 535.59,-481.4 535.59,-450.6 241.16,-450.6"/>
<text text-anchor="start" x="248.16" y="-462.8" font-family="Arial" font-size="14.00">calendar_id </text>
<text text-anchor="start" x="324.43" y="-462.8" font-family="Arial" font-size="14.00" fill="#666666">[int(11)]</text>
<polygon fill="none" stroke="black" points="241.16,-419.8 241.16,-450.6 535.59,-450.6 535.59,-419.8 241.16,-419.8"/>
<text text-anchor="start" x="248.16" y="-432" font-family="Arial" font-size="14.00">reason </text>
<text text-anchor="start" x="294.85" y="-432" font-family="Arial" font-size="14.00" fill="#666666">[varchar(255)]</text>
<polygon fill="none" stroke="black" points="241.16,-389 241.16,-419.8 535.59,-419.8 535.59,-389 241.16,-389"/>
<text text-anchor="start" x="248.16" y="-401.2" font-family="Arial" font-size="14.00">expires_at </text>
<text text-anchor="start" x="316.64" y="-401.2" font-family="Arial" font-size="14.00" fill="#666666">[datetime(6)]</text>
<polygon fill="none" stroke="black" stroke-width="3" points="239.66,-387.5 239.66,-549.3 537.09,-549.3 537.09,-387.5 239.66,-387.5"/>
</g>
<!-- users -->
<g id="node2" class="node">
<title>users</title>
<polygon fill="#efefef" stroke="none" points="124.38,-228 124.38,-263.6 338.37,-263.6 338.37,-228 124.38,-228"/>
<polygon fill="none" stroke="black" points="124.38,-228 124.38,-263.6 338.37,-263.6 338.37,-228 124.38,-228"/>
<text text-anchor="start" x="150.63" y="-241.4" font-family="Arial Bold" font-size="18.00">users</text>
<text text-anchor="start" x="187.63" y="-241.4" font-family="Arial" font-size="14.00">    </text>
<text text-anchor="start" x="218.74" y="-241.4" font-family="Arial" font-size="14.00" fill="#666666">[BASE TABLE]</text>
<polygon fill="none" stroke="black" points="124.38,-197.2 124.38,-228 338.37,-228 338.37,-197.2 124.38,-197.2"/>
<text text-anchor="start" x="131.38" y="-209.4" font-family="Arial" font-size="14.00">id </text>
<text text-anchor="start" x="146.16" y="-209.4" font-family="Arial" font-size="14.00" fill="#666666">[int(11)]</text>
<polygon fill="none" stroke="black" points="124.38,-166.4 124.38,-197.2 338.37,-197.2 338.37,-166.4 124.38,-166.4"/>
<text text-anchor="start" x="131.38" y="-178.6" font-family="Arial" font-size="14.00">email </text>
<text text-anchor="start" x="168.72" y="-178.6" font-family="Arial" font-size="14.00" fill="#666666">[varchar(320)]</text>
<polygon fill="none" stroke="black" points="124.38,-135.6 124.38,-166.4 338.37,-166.4 338.37,-135.6 124.38,-135.6"/>
<text text-anchor="start" x="131.38" y="-147.8" font-family="Arial" font-size="14.00">first_name </text>
<text text-anchor="start" x="200.63" y="-147.8" font-family="Arial" font-size="14.00" fill="#666666">[varchar(255)]</text>
<polygon fill="none" stroke="black" points="124.38,-104.8 124.38,-135.6 338.37,-135.6 338.37,-104.8 124.38,-104.8"/>
<text text-anchor="start" x="131.38" y="-117" font-family="Arial" font-size="14.00">last_name </text>
<text text-anchor="start" x="199.86" y="-117" font-family="Arial" font-size="14.00" fill="#666666">[varchar(255)]</text>
<polygon fill="none" stroke="black" points="124.38,-74 124.38,-104.8 338.37,-104.8 338.37,-74 124.38,-74"/>
<text text-anchor="start" x="131.38" y="-86.2" font-family="Arial" font-size="14.00">password_hash </text>
<text text-anchor="start" x="233.33" y="-86.2" font-family="Arial" font-size="14.00" fill="#666666">[varbinary(255)]</text>
<polygon fill="none" stroke="black" points="124.38,-43.2 124.38,-74 338.37,-74 338.37,-43.2 124.38,-43.2"/>
<text text-anchor="start" x="131.38" y="-55.4" font-family="Arial" font-size="14.00">middle_name </text>
<text text-anchor="start" x="219.32" y="-55.4" font-family="Arial" font-size="14.00" fill="#666666">[varchar(255)]</text>
</g>
<!-- users_calendars_bans&#45;&gt;users -->
<g id="edge1" class="edge">
<title>users_calendars_bans:user_id&#45;&gt;users:id</title>
<path fill="none" stroke="black" d="M229.8,-495.94C175.04,-486.21 204.02,-395.78 241.16,-342.8 267.6,-305.07 311.85,-344.47 338.37,-306.8 362.47,-272.56 381.24,-212.6 339.37,-212.6"/>
<polygon fill="black" stroke="black" points="229.86,-495.95 239.45,-501.26 235.17,-496.39 239.49,-496.74 239.49,-496.74 239.49,-496.74 235.17,-496.39 240.19,-492.29 229.86,-495.95"/>
<text text-anchor="start" x="7" y="-506.8" font-family="Arial" font-size="10.00">FOREIGN KEY (user_id) REFERENCES users (id)</text>
</g>
<!-- calendars -->
<g id="node3" class="node">
<title>calendars</title>
<polygon fill="#efefef" stroke="none" points="443.15,-228 443.15,-263.6 649.6,-263.6 649.6,-228 443.15,-228"/>
<polygon fill="none" stroke="black" points="443.15,-228 443.15,-263.6 649.6,-263.6 649.6,-228 443.15,-228"/>
<text text-anchor="start" x="450.15" y="-241.4" font-family="Arial Bold" font-size="18.00">calendars</text>
<text text-anchor="start" x="518.11" y="-241.4" font-family="Arial" font-size="14.00">    </text>
<text text-anchor="start" x="549.23" y="-241.4" font-family="Arial" font-size="14.00" fill="#666666">[BASE TABLE]</text>
<polygon fill="none" stroke="black" points="443.15,-197.2 443.15,-228 649.6,-228 649.6,-197.2 443.15,-197.2"/>
<text text-anchor="start" x="450.15" y="-209.4" font-family="Arial" font-size="14.00">id </text>
<text text-anchor="start" x="464.94" y="-209.4" font-family="Arial" font-size="14.00" fill="#666666">[int(11)]</text>
<polygon fill="none" stroke="black" points="443.15,-166.4 443.15,-197.2 649.6,-197.2 649.6,-166.4 443.15,-166.4"/>
<text text-anchor="start" x="450.15" y="-178.6" font-family="Arial" font-size="14.00">owner_id </text>
<text text-anchor="start" x="510.85" y="-178.6" font-family="Arial" font-size="14.00" fill="#666666">[int(11)]</text>
<polygon fill="none" stroke="black" points="443.15,-135.6 443.15,-166.4 649.6,-166.4 649.6,-135.6 443.15,-135.6"/>
<text text-anchor="start" x="450.15" y="-147.8" font-family="Arial" font-size="14.00">name </text>
<text text-anchor="start" x="489.06" y="-147.8" font-family="Arial" font-size="14.00" fill="#666666">[varchar(255)]</text>
<polygon fill="none" stroke="black" points="443.15,-104.8 443.15,-135.6 649.6,-135.6 649.6,-104.8 443.15,-104.8"/>
<text text-anchor="start" x="450.15" y="-117" font-family="Arial" font-size="14.00">description </text>
<text text-anchor="start" x="521.74" y="-117" font-family="Arial" font-size="14.00" fill="#666666">[text]</text>
<polygon fill="none" stroke="black" points="443.15,-74 443.15,-104.8 649.6,-104.8 649.6,-74 443.15,-74"/>
<text text-anchor="start" x="450.15" y="-86.2" font-family="Arial" font-size="14.00">ical </text>
<text text-anchor="start" x="475.05" y="-86.2" font-family="Arial" font-size="14.00" fill="#666666">[longblob]</text>
<polygon fill="none" stroke="black" points="443.15,-43.2 443.15,-74 649.6,-74 649.6,-43.2 443.15,-43.2"/>
<text text-anchor="start" x="450.15" y="-55.4" font-family="Arial" font-size="14.00">members_only </text>
<text text-anchor="start" x="545.85" y="-55.4" font-family="Arial" font-size="14.00" fill="#666666">[tinyint(1)]</text>
</g>
<!-- users_calendars_bans&#45;&gt;calendars -->
<g id="edge2" class="edge">
<title>users_calendars_bans:calendar_id&#45;&gt;calendars:id</title>
<path fill="none" stroke="black" d="M546.73,-464.94C587.95,-455.47 564.55,-384.79 535.59,-342.8 510.56,-306.51 468.23,-343.06 443.15,-306.8 419.34,-272.36 400.28,-212.6 442.15,-212.6"/>
<polygon fill="black" stroke="black" points="546.87,-464.93 536.46,-461.49 541.56,-465.48 537.26,-465.93 537.26,-465.93 537.26,-465.93 541.56,-465.48 537.39,-470.44 546.87,-464.93"/>
<text text-anchor="start" x="543.59" y="-476" font-family="Arial" font-size="10.00">FOREIGN KEY (calendar_id) REFERENCES calendars (id)</text>
</g>
</g>
</svg>
