<?xml version="1.0" encoding="UTF-8" standalone="no"?>
<!DOCTYPE svg PUBLIC "-//W3C//DTD SVG 1.1//EN"
 "http://www.w3.org/Graphics/SVG/1.1/DTD/svg11.dtd">
<!-- Generated by graphviz version 12.1.2 (20240928.0832)
 -->
<!-- Title: users Pages: 1 -->
<svg width="1404pt" height="694pt"
 viewBox="0.00 0.00 1404.37 694.40" xmlns="http://www.w3.org/2000/svg" xmlns:xlink="http://www.w3.org/1999/xlink">
<g id="graph0" class="graph" transform="scale(1 1) rotate(0) translate(4 690.4)">
<title>users</title>
<polygon fill="white" stroke="none" points="-4,4 -4,-690.4 1400.37,-690.4 1400.37,4 -4,4"/>
<!-- users -->
<g id="node1" class="node">
<title>users</title>
<polygon fill="#efefef" stroke="none" points="617.42,-231 617.42,-266.6 831.42,-266.6 831.42,-231 617.42,-231"/>
<polygon fill="none" stroke="black" points="617.42,-231 617.42,-266.6 831.42,-266.6 831.42,-231 617.42,-231"/>
<text text-anchor="start" x="643.68" y="-244.4" font-family="Arial Bold" font-size="18.00">users</text>
<text text-anchor="start" x="680.67" y="-244.4" font-family="Arial" font-size="14.00">    </text>
<text text-anchor="start" x="711.79" y="-244.4" font-family="Arial" font-size="14.00" fill="#666666">[BASE TABLE]</text>
<polygon fill="none" stroke="black" points="617.42,-200.2 617.42,-231 831.42,-231 831.42,-200.2 617.42,-200.2"/>
<text text-anchor="start" x="624.42" y="-212.4" font-family="Arial" font-size="14.00">id </text>
<text text-anchor="start" x="639.21" y="-212.4" font-family="Arial" font-size="14.00" fill="#666666">[int(11)]</text>
<polygon fill="none" stroke="black" points="617.42,-169.4 617.42,-200.2 831.42,-200.2 831.42,-169.4 617.42,-169.4"/>
<text text-anchor="start" x="624.42" y="-181.6" font-family="Arial" font-size="14.00">email </text>
<text text-anchor="start" x="661.77" y="-181.6" font-family="Arial" font-size="14.00" fill="#666666">[varchar(320)]</text>
<polygon fill="none" stroke="black" points="617.42,-138.6 617.42,-169.4 831.42,-169.4 831.42,-138.6 617.42,-138.6"/>
<text text-anchor="start" x="624.42" y="-150.8" font-family="Arial" font-size="14.00">first_name </text>
<text text-anchor="start" x="693.67" y="-150.8" font-family="Arial" font-size="14.00" fill="#666666">[varchar(255)]</text>
<polygon fill="none" stroke="black" points="617.42,-107.8 617.42,-138.6 831.42,-138.6 831.42,-107.8 617.42,-107.8"/>
<text text-anchor="start" x="624.42" y="-120" font-family="Arial" font-size="14.00">last_name </text>
<text text-anchor="start" x="692.91" y="-120" font-family="Arial" font-size="14.00" fill="#666666">[varchar(255)]</text>
<polygon fill="none" stroke="black" points="617.42,-77 617.42,-107.8 831.42,-107.8 831.42,-77 617.42,-77"/>
<text text-anchor="start" x="624.42" y="-89.2" font-family="Arial" font-size="14.00">password_hash </text>
<text text-anchor="start" x="726.37" y="-89.2" font-family="Arial" font-size="14.00" fill="#666666">[varbinary(255)]</text>
<polygon fill="none" stroke="black" points="617.42,-46.2 617.42,-77 831.42,-77 831.42,-46.2 617.42,-46.2"/>
<text text-anchor="start" x="624.42" y="-58.4" font-family="Arial" font-size="14.00">middle_name </text>
<text text-anchor="start" x="712.36" y="-58.4" font-family="Arial" font-size="14.00" fill="#666666">[varchar(255)]</text>
<polygon fill="none" stroke="black" stroke-width="3" points="615.92,-44.7 615.92,-268.1 832.92,-268.1 832.92,-44.7 615.92,-44.7"/>
</g>
<!-- users_calendars -->
<g id="node2" class="node">
<title>users_calendars</title>
<polygon fill="#efefef" stroke="none" points="43.2,-546 43.2,-581.6 295.64,-581.6 295.64,-546 43.2,-546"/>
<polygon fill="none" stroke="black" points="43.2,-546 43.2,-581.6 295.64,-581.6 295.64,-546 43.2,-546"/>
<text text-anchor="start" x="50.2" y="-559.4" font-family="Arial Bold" font-size="18.00">users_calendars</text>
<text text-anchor="start" x="164.15" y="-559.4" font-family="Arial" font-size="14.00">    </text>
<text text-anchor="start" x="195.27" y="-559.4" font-family="Arial" font-size="14.00" fill="#666666">[BASE TABLE]</text>
<polygon fill="none" stroke="black" points="43.2,-515.2 43.2,-546 295.64,-546 295.64,-515.2 43.2,-515.2"/>
<text text-anchor="start" x="50.2" y="-527.4" font-family="Arial" font-size="14.00">user_id </text>
<text text-anchor="start" x="100.01" y="-527.4" font-family="Arial" font-size="14.00" fill="#666666">[int(11)]</text>
<polygon fill="none" stroke="black" points="43.2,-484.4 43.2,-515.2 295.64,-515.2 295.64,-484.4 43.2,-484.4"/>
<text text-anchor="start" x="50.2" y="-496.6" font-family="Arial" font-size="14.00">calendar_id </text>
<text text-anchor="start" x="126.48" y="-496.6" font-family="Arial" font-size="14.00" fill="#666666">[int(11)]</text>
<polygon fill="none" stroke="black" points="43.2,-453.6 43.2,-484.4 295.64,-484.4 295.64,-453.6 43.2,-453.6"/>
<text text-anchor="start" x="50.2" y="-465.8" font-family="Arial" font-size="14.00">color </text>
<text text-anchor="start" x="84.43" y="-465.8" font-family="Arial" font-size="14.00" fill="#666666">[varchar(6)]</text>
</g>
<!-- users_calendars&#45;&gt;users -->
<g id="edge1" class="edge">
<title>users_calendars:user_id&#45;&gt;users:id</title>
<path fill="none" stroke="black" d="M306.96,-529.91C373.21,-520.18 297.13,-410.5 348.42,-348.8 433.45,-246.51 483.41,-215.6 616.42,-215.6"/>
<polygon fill="black" stroke="black" points="306.95,-529.91 296.67,-526.09 301.63,-530.26 297.31,-530.56 297.31,-530.56 297.31,-530.56 301.63,-530.26 297.28,-535.07 306.95,-529.91"/>
<text text-anchor="start" x="183.56" y="-514.6" font-family="Arial" font-size="10.00">FOREIGN KEY (user_id) REFERENCES users (id)</text>
</g>
<!-- users_calendars_bans -->
<g id="node3" class="node">
<title>users_calendars_bans</title>
<polygon fill="#efefef" stroke="none" points="400.2,-561.4 400.2,-597 694.64,-597 694.64,-561.4 400.2,-561.4"/>
<polygon fill="none" stroke="black" points="400.2,-561.4 400.2,-597 694.64,-597 694.64,-561.4 400.2,-561.4"/>
<text text-anchor="start" x="407.2" y="-574.8" font-family="Arial Bold" font-size="18.00">users_calendars_bans</text>
<text text-anchor="start" x="563.15" y="-574.8" font-family="Arial" font-size="14.00">    </text>
<text text-anchor="start" x="594.26" y="-574.8" font-family="Arial" font-size="14.00" fill="#666666">[BASE TABLE]</text>
<polygon fill="none" stroke="black" points="400.2,-530.6 400.2,-561.4 694.64,-561.4 694.64,-530.6 400.2,-530.6"/>
<text text-anchor="start" x="407.2" y="-542.8" font-family="Arial" font-size="14.00">user_id </text>
<text text-anchor="start" x="457.01" y="-542.8" font-family="Arial" font-size="14.00" fill="#666666">[int(11)]</text>
<polygon fill="none" stroke="black" points="400.2,-499.8 400.2,-530.6 694.64,-530.6 694.64,-499.8 400.2,-499.8"/>
<text text-anchor="start" x="407.2" y="-512" font-family="Arial" font-size="14.00">calendar_id </text>
<text text-anchor="start" x="483.48" y="-512" font-family="Arial" font-size="14.00" fill="#666666">[int(11)]</text>
<polygon fill="none" stroke="black" points="400.2,-469 400.2,-499.8 694.64,-499.8 694.64,-469 400.2,-469"/>
<text text-anchor="start" x="407.2" y="-481.2" font-family="Arial" font-size="14.00">reason </text>
<text text-anchor="start" x="453.9" y="-481.2" font-family="Arial" font-size="14.00" fill="#666666">[varchar(255)]</text>
<polygon fill="none" stroke="black" points="400.2,-438.2 400.2,-469 694.64,-469 694.64,-438.2 400.2,-438.2"/>
<text text-anchor="start" x="407.2" y="-450.4" font-family="Arial" font-size="14.00">expires_at </text>
<text text-anchor="start" x="475.69" y="-450.4" font-family="Arial" font-size="14.00" fill="#666666">[datetime(6)]</text>
</g>
<!-- users_calendars_bans&#45;&gt;users -->
<g id="edge2" class="edge">
<title>users_calendars_bans:user_id&#45;&gt;users:id</title>
<path fill="none" stroke="black" d="M706,-545.17C757.91,-536.04 718.14,-453.79 694.64,-395 676.03,-348.46 636.12,-359.31 617.42,-312.8 601.31,-272.72 573.22,-215.6 616.42,-215.6"/>
<polygon fill="black" stroke="black" points="705.94,-545.17 695.61,-541.49 700.62,-545.6 696.3,-545.95 696.3,-545.95 696.3,-545.95 700.62,-545.6 696.33,-550.46 705.94,-545.17"/>
<text text-anchor="start" x="702.64" y="-556" font-family="Arial" font-size="10.00">FOREIGN KEY (user_id) REFERENCES users (id)</text>
</g>
<!-- calendars -->
<g id="node4" class="node">
<title>calendars</title>
<polygon fill="#efefef" stroke="none" points="799.2,-607.6 799.2,-643.2 1005.64,-643.2 1005.64,-607.6 799.2,-607.6"/>
<polygon fill="none" stroke="black" points="799.2,-607.6 799.2,-643.2 1005.64,-643.2 1005.64,-607.6 799.2,-607.6"/>
<text text-anchor="start" x="806.2" y="-621" font-family="Arial Bold" font-size="18.00">calendars</text>
<text text-anchor="start" x="874.15" y="-621" font-family="Arial" font-size="14.00">    </text>
<text text-anchor="start" x="905.27" y="-621" font-family="Arial" font-size="14.00" fill="#666666">[BASE TABLE]</text>
<polygon fill="none" stroke="black" points="799.2,-576.8 799.2,-607.6 1005.64,-607.6 1005.64,-576.8 799.2,-576.8"/>
<text text-anchor="start" x="806.2" y="-589" font-family="Arial" font-size="14.00">id </text>
<text text-anchor="start" x="820.98" y="-589" font-family="Arial" font-size="14.00" fill="#666666">[int(11)]</text>
<polygon fill="none" stroke="black" points="799.2,-546 799.2,-576.8 1005.64,-576.8 1005.64,-546 799.2,-546"/>
<text text-anchor="start" x="806.2" y="-558.2" font-family="Arial" font-size="14.00">owner_id </text>
<text text-anchor="start" x="866.9" y="-558.2" font-family="Arial" font-size="14.00" fill="#666666">[int(11)]</text>
<polygon fill="none" stroke="black" points="799.2,-515.2 799.2,-546 1005.64,-546 1005.64,-515.2 799.2,-515.2"/>
<text text-anchor="start" x="806.2" y="-527.4" font-family="Arial" font-size="14.00">name </text>
<text text-anchor="start" x="845.11" y="-527.4" font-family="Arial" font-size="14.00" fill="#666666">[varchar(255)]</text>
<polygon fill="none" stroke="black" points="799.2,-484.4 799.2,-515.2 1005.64,-515.2 1005.64,-484.4 799.2,-484.4"/>
<text text-anchor="start" x="806.2" y="-496.6" font-family="Arial" font-size="14.00">description </text>
<text text-anchor="start" x="877.79" y="-496.6" font-family="Arial" font-size="14.00" fill="#666666">[text]</text>
<polygon fill="none" stroke="black" points="799.2,-453.6 799.2,-484.4 1005.64,-484.4 1005.64,-453.6 799.2,-453.6"/>
<text text-anchor="start" x="806.2" y="-465.8" font-family="Arial" font-size="14.00">ical </text>
<text text-anchor="start" x="831.09" y="-465.8" font-family="Arial" font-size="14.00" fill="#666666">[longblob]</text>
<polygon fill="none" stroke="black" points="799.2,-422.8 799.2,-453.6 1005.64,-453.6 1005.64,-422.8 799.2,-422.8"/>
<text text-anchor="start" x="806.2" y="-435" font-family="Arial" font-size="14.00">members_only </text>
<text text-anchor="start" x="901.9" y="-435" font-family="Arial" font-size="14.00" fill="#666666">[tinyint(1)]</text>
<polygon fill="none" stroke="black" points="799.2,-392 799.2,-422.8 1005.64,-422.8 1005.64,-392 799.2,-392"/>
<text text-anchor="start" x="806.2" y="-404.2" font-family="Arial" font-size="14.00">color </text>
<text text-anchor="start" x="840.43" y="-404.2" font-family="Arial" font-size="14.00" fill="#666666">[varchar(6)]</text>
</g>
<!-- calendars&#45;&gt;users -->
<g id="edge3" class="edge">
<title>calendars:owner_id&#45;&gt;users:id</title>
<path fill="none" stroke="black" d="M787.83,-560.84C708.47,-551.74 766.59,-433.54 799.2,-348.8 806.91,-328.76 823.65,-332.82 831.42,-312.8 847.04,-272.52 875.62,-215.6 832.42,-215.6"/>
<polygon fill="black" stroke="black" points="787.88,-560.84 797.62,-565.88 793.2,-561.13 797.53,-561.36 797.53,-561.36 797.53,-561.36 793.2,-561.13 798.11,-556.89 787.88,-560.84"/>
<text text-anchor="start" x="805.2" y="-571.4" font-family="Arial" font-size="10.00">FOREIGN KEY (owner_id) REFERENCES users (id)</text>
</g>
<!-- users_sessions -->
<g id="node5" class="node">
<title>users_sessions</title>
<polygon fill="#efefef" stroke="none" points="1109.67,-561.4 1109.67,-597 1353.17,-597 1353.17,-561.4 1109.67,-561.4"/>
<polygon fill="none" stroke="black" points="1109.67,-561.4 1109.67,-597 1353.17,-597 1353.17,-561.4 1109.67,-561.4"/>
<text text-anchor="start" x="1116.67" y="-574.8" font-family="Arial Bold" font-size="18.00">users_sessions</text>
<text text-anchor="start" x="1221.68" y="-574.8" font-family="Arial" font-size="14.00">    </text>
<text text-anchor="start" x="1252.79" y="-574.8" font-family="Arial" font-size="14.00" fill="#666666">[BASE TABLE]</text>
<polygon fill="none" stroke="black" points="1109.67,-530.6 1109.67,-561.4 1353.17,-561.4 1353.17,-530.6 1109.67,-530.6"/>
<text text-anchor="start" x="1116.67" y="-542.8" font-family="Arial" font-size="14.00">id </text>
<text text-anchor="start" x="1131.46" y="-542.8" font-family="Arial" font-size="14.00" fill="#666666">[binary(16)]</text>
<polygon fill="none" stroke="black" points="1109.67,-499.8 1109.67,-530.6 1353.17,-530.6 1353.17,-499.8 1109.67,-499.8"/>
<text text-anchor="start" x="1116.67" y="-512" font-family="Arial" font-size="14.00">user_id </text>
<text text-anchor="start" x="1166.48" y="-512" font-family="Arial" font-size="14.00" fill="#666666">[int(11)]</text>
<polygon fill="none" stroke="black" points="1109.67,-469 1109.67,-499.8 1353.17,-499.8 1353.17,-469 1109.67,-469"/>
<text text-anchor="start" x="1116.67" y="-481.2" font-family="Arial" font-size="14.00">email </text>
<text text-anchor="start" x="1154.02" y="-481.2" font-family="Arial" font-size="14.00" fill="#666666">[varchar(320)]</text>
<polygon fill="none" stroke="black" points="1109.67,-438.2 1109.67,-469 1353.17,-469 1353.17,-438.2 1109.67,-438.2"/>
<text text-anchor="start" x="1116.67" y="-450.4" font-family="Arial" font-size="14.00">expires_at </text>
<text text-anchor="start" x="1185.16" y="-450.4" font-family="Arial" font-size="14.00" fill="#666666">[datetime(6)]</text>
</g>
<!-- users_sessions&#45;&gt;users -->
<g id="edge4" class="edge">
<title>users_sessions:user_id&#45;&gt;users:id</title>
<path fill="none" stroke="black" d="M1098.39,-514.46C1038.23,-504.99 1102.99,-406.61 1057.42,-348.8 985.48,-257.53 948.63,-215.6 832.42,-215.6"/>
<polygon fill="black" stroke="black" points="1098.37,-514.46 1108.02,-519.66 1103.69,-514.84 1108.01,-515.15 1108.01,-515.15 1108.01,-515.15 1103.69,-514.84 1108.66,-510.69 1098.37,-514.46"/>
<text text-anchor="start" x="875.52" y="-525.2" font-family="Arial" font-size="10.00">FOREIGN KEY (user_id) REFERENCES users (id)</text>
</g>
</g>
</svg>
