<?xml version="1.0" encoding="UTF-8" standalone="no"?>
<!DOCTYPE svg PUBLIC "-//W3C//DTD SVG 1.1//EN"
 "http://www.w3.org/Graphics/SVG/1.1/DTD/svg11.dtd">
<!-- Generated by graphviz version 12.1.2 (20240928.0832)
 -->
<!-- Title: users Pages: 1 -->
<svg width="4099pt" height="725pt"
 viewBox="0.00 0.00 4099.34 725.20" xmlns="http://www.w3.org/2000/svg" xmlns:xlink="http://www.w3.org/1999/xlink">
<g id="graph0" class="graph" transform="scale(1 1) rotate(0) translate(4 721.2)">
<title>users</title>
<polygon fill="white" stroke="none" points="-4,4 -4,-721.2 4095.34,-721.2 4095.34,4 -4,4"/>
<!-- users -->
<g id="node1" class="node">
<title>users</title>
<polygon fill="#efefef" stroke="none" points="1935.43,-231 1935.43,-266.6 2149.42,-266.6 2149.42,-231 1935.43,-231"/>
<polygon fill="none" stroke="black" points="1935.43,-231 1935.43,-266.6 2149.42,-266.6 2149.42,-231 1935.43,-231"/>
<text text-anchor="start" x="1961.68" y="-244.4" font-family="Arial Bold" font-size="18.00">users</text>
<text text-anchor="start" x="1998.67" y="-244.4" font-family="Arial" font-size="14.00">    </text>
<text text-anchor="start" x="2029.79" y="-244.4" font-family="Arial" font-size="14.00" fill="#666666">[BASE TABLE]</text>
<polygon fill="none" stroke="black" points="1935.43,-200.2 1935.43,-231 2149.42,-231 2149.42,-200.2 1935.43,-200.2"/>
<text text-anchor="start" x="1942.43" y="-212.4" font-family="Arial" font-size="14.00">user_id </text>
<text text-anchor="start" x="1992.23" y="-212.4" font-family="Arial" font-size="14.00" fill="#666666">[bigint(20)]</text>
<polygon fill="none" stroke="black" points="1935.43,-169.4 1935.43,-200.2 2149.42,-200.2 2149.42,-169.4 1935.43,-169.4"/>
<text text-anchor="start" x="1942.43" y="-181.6" font-family="Arial" font-size="14.00">email </text>
<text text-anchor="start" x="1979.77" y="-181.6" font-family="Arial" font-size="14.00" fill="#666666">[varchar(320)]</text>
<polygon fill="none" stroke="black" points="1935.43,-138.6 1935.43,-169.4 2149.42,-169.4 2149.42,-138.6 1935.43,-138.6"/>
<text text-anchor="start" x="1942.43" y="-150.8" font-family="Arial" font-size="14.00">first_name </text>
<text text-anchor="start" x="2011.67" y="-150.8" font-family="Arial" font-size="14.00" fill="#666666">[varchar(255)]</text>
<polygon fill="none" stroke="black" points="1935.43,-107.8 1935.43,-138.6 2149.42,-138.6 2149.42,-107.8 1935.43,-107.8"/>
<text text-anchor="start" x="1942.43" y="-120" font-family="Arial" font-size="14.00">last_name </text>
<text text-anchor="start" x="2010.91" y="-120" font-family="Arial" font-size="14.00" fill="#666666">[varchar(255)]</text>
<polygon fill="none" stroke="black" points="1935.43,-77 1935.43,-107.8 2149.42,-107.8 2149.42,-77 1935.43,-77"/>
<text text-anchor="start" x="1942.43" y="-89.2" font-family="Arial" font-size="14.00">password_hash </text>
<text text-anchor="start" x="2044.38" y="-89.2" font-family="Arial" font-size="14.00" fill="#666666">[varbinary(255)]</text>
<polygon fill="none" stroke="black" points="1935.43,-46.2 1935.43,-77 2149.42,-77 2149.42,-46.2 1935.43,-46.2"/>
<text text-anchor="start" x="1942.43" y="-58.4" font-family="Arial" font-size="14.00">middle_name </text>
<text text-anchor="start" x="2030.36" y="-58.4" font-family="Arial" font-size="14.00" fill="#666666">[varchar(255)]</text>
<polygon fill="none" stroke="black" stroke-width="3" points="1933.93,-44.7 1933.93,-268.1 2150.92,-268.1 2150.92,-44.7 1933.93,-44.7"/>
</g>
<!-- member_moderations_history -->
<g id="node2" class="node">
<title>member_moderations_history</title>
<polygon fill="#efefef" stroke="none" points="43.2,-638.4 43.2,-674 397.65,-674 397.65,-638.4 43.2,-638.4"/>
<polygon fill="none" stroke="black" points="43.2,-638.4 43.2,-674 397.65,-674 397.65,-638.4 43.2,-638.4"/>
<text text-anchor="start" x="50.2" y="-651.8" font-family="Arial Bold" font-size="18.00">member_moderations_history</text>
<text text-anchor="start" x="266.16" y="-651.8" font-family="Arial" font-size="14.00">    </text>
<text text-anchor="start" x="297.27" y="-651.8" font-family="Arial" font-size="14.00" fill="#666666">[BASE TABLE]</text>
<polygon fill="none" stroke="black" points="43.2,-607.6 43.2,-638.4 397.65,-638.4 397.65,-607.6 43.2,-607.6"/>
<text text-anchor="start" x="50.2" y="-619.8" font-family="Arial" font-size="14.00">member_moderation_event_id </text>
<text text-anchor="start" x="243.98" y="-619.8" font-family="Arial" font-size="14.00" fill="#666666">[bigint(20)]</text>
<polygon fill="none" stroke="black" points="43.2,-576.8 43.2,-607.6 397.65,-607.6 397.65,-576.8 43.2,-576.8"/>
<text text-anchor="start" x="50.2" y="-589" font-family="Arial" font-size="14.00">organization_id </text>
<text text-anchor="start" x="149.05" y="-589" font-family="Arial" font-size="14.00" fill="#666666">[bigint(20)]</text>
<polygon fill="none" stroke="black" points="43.2,-546 43.2,-576.8 397.65,-576.8 397.65,-546 43.2,-546"/>
<text text-anchor="start" x="50.2" y="-558.2" font-family="Arial" font-size="14.00">member_user_id </text>
<text text-anchor="start" x="159.14" y="-558.2" font-family="Arial" font-size="14.00" fill="#666666">[bigint(20)]</text>
<polygon fill="none" stroke="black" points="43.2,-515.2 43.2,-546 397.65,-546 397.65,-515.2 43.2,-515.2"/>
<text text-anchor="start" x="50.2" y="-527.4" font-family="Arial" font-size="14.00">admin_user_id </text>
<text text-anchor="start" x="145.92" y="-527.4" font-family="Arial" font-size="14.00" fill="#666666">[bigint(20)]</text>
<polygon fill="none" stroke="black" points="43.2,-484.4 43.2,-515.2 397.65,-515.2 397.65,-484.4 43.2,-484.4"/>
<text text-anchor="start" x="50.2" y="-496.6" font-family="Arial" font-size="14.00">created_at </text>
<text text-anchor="start" x="120.25" y="-496.6" font-family="Arial" font-size="14.00" fill="#666666">[datetime(6)]</text>
<polygon fill="none" stroke="black" points="43.2,-453.6 43.2,-484.4 397.65,-484.4 397.65,-453.6 43.2,-453.6"/>
<text text-anchor="start" x="50.2" y="-465.8" font-family="Arial" font-size="14.00">reason </text>
<text text-anchor="start" x="96.9" y="-465.8" font-family="Arial" font-size="14.00" fill="#666666">[varchar(255)]</text>
<polygon fill="none" stroke="black" points="43.2,-422.8 43.2,-453.6 397.65,-453.6 397.65,-422.8 43.2,-422.8"/>
<text text-anchor="start" x="50.2" y="-435" font-family="Arial" font-size="14.00">expires_at </text>
<text text-anchor="start" x="118.68" y="-435" font-family="Arial" font-size="14.00" fill="#666666">[datetime(6)]</text>
<polygon fill="none" stroke="black" points="43.2,-392 43.2,-422.8 397.65,-422.8 397.65,-392 43.2,-392"/>
<text text-anchor="start" x="50.2" y="-404.2" font-family="Arial" font-size="14.00">action </text>
<text text-anchor="start" x="91.45" y="-404.2" font-family="Arial" font-size="14.00" fill="#666666">[enum(&#39;ban&#39;,&#39;unban&#39;)]</text>
</g>
<!-- member_moderations_history&#45;&gt;users -->
<g id="edge1" class="edge">
<title>member_moderations_history:admin_user_id&#45;&gt;users:user_id</title>
<path fill="none" stroke="black" d="M408.9,-529.84C474.27,-519.23 388.61,-399.96 450.42,-348.8 577.95,-243.24 1768.87,-215.6 1934.43,-215.6"/>
<polygon fill="black" stroke="black" points="408.95,-529.84 398.65,-526.09 403.63,-530.23 399.31,-530.55 399.31,-530.55 399.31,-530.55 403.63,-530.23 399.31,-535.06 408.95,-529.84"/>
<text text-anchor="start" x="405.65" y="-540.6" font-family="Arial" font-size="10.00">FOREIGN KEY (admin_user_id) REFERENCES users (user_id)</text>
</g>
<!-- member_moderations_history&#45;&gt;users -->
<g id="edge2" class="edge">
<title>member_moderations_history:member_user_id&#45;&gt;users:user_id</title>
<path fill="none" stroke="black" d="M408.6,-560.8C487.32,-550.45 379.45,-409.89 450.42,-348.8 575.89,-240.8 1768.87,-215.6 1934.43,-215.6"/>
<polygon fill="black" stroke="black" points="408.96,-560.77 398.71,-556.89 403.64,-561.1 399.31,-561.36 399.31,-561.36 399.31,-561.36 403.64,-561.1 399.25,-565.87 408.96,-560.77"/>
<text text-anchor="start" x="405.65" y="-571.4" font-family="Arial" font-size="10.00">FOREIGN KEY (member_user_id) REFERENCES users (user_id)</text>
</g>
<!-- organization_members_history -->
<g id="node3" class="node">
<title>organization_members_history</title>
<polygon fill="#efefef" stroke="none" points="502.21,-592.2 502.21,-627.8 864.64,-627.8 864.64,-592.2 502.21,-592.2"/>
<polygon fill="none" stroke="black" points="502.21,-592.2 502.21,-627.8 864.64,-627.8 864.64,-592.2 502.21,-592.2"/>
<text text-anchor="start" x="509.21" y="-605.6" font-family="Arial Bold" font-size="18.00">organization_members_history</text>
<text text-anchor="start" x="733.15" y="-605.6" font-family="Arial" font-size="14.00">    </text>
<text text-anchor="start" x="764.27" y="-605.6" font-family="Arial" font-size="14.00" fill="#666666">[BASE TABLE]</text>
<polygon fill="none" stroke="black" points="502.21,-561.4 502.21,-592.2 864.64,-592.2 864.64,-561.4 502.21,-561.4"/>
<text text-anchor="start" x="509.21" y="-573.6" font-family="Arial" font-size="14.00">organization_member_event_id </text>
<text text-anchor="start" x="709.22" y="-573.6" font-family="Arial" font-size="14.00" fill="#666666">[bigint(20)]</text>
<polygon fill="none" stroke="black" points="502.21,-530.6 502.21,-561.4 864.64,-561.4 864.64,-530.6 502.21,-530.6"/>
<text text-anchor="start" x="509.21" y="-542.8" font-family="Arial" font-size="14.00">organization_id </text>
<text text-anchor="start" x="608.05" y="-542.8" font-family="Arial" font-size="14.00" fill="#666666">[bigint(20)]</text>
<polygon fill="none" stroke="black" points="502.21,-499.8 502.21,-530.6 864.64,-530.6 864.64,-499.8 502.21,-499.8"/>
<text text-anchor="start" x="509.21" y="-512" font-family="Arial" font-size="14.00">member_user_id </text>
<text text-anchor="start" x="618.14" y="-512" font-family="Arial" font-size="14.00" fill="#666666">[bigint(20)]</text>
<polygon fill="none" stroke="black" points="502.21,-469 502.21,-499.8 864.64,-499.8 864.64,-469 502.21,-469"/>
<text text-anchor="start" x="509.21" y="-481.2" font-family="Arial" font-size="14.00">added </text>
<text text-anchor="start" x="552.03" y="-481.2" font-family="Arial" font-size="14.00" fill="#666666">[tinyint(1)]</text>
<polygon fill="none" stroke="black" points="502.21,-438.2 502.21,-469 864.64,-469 864.64,-438.2 502.21,-438.2"/>
<text text-anchor="start" x="509.21" y="-450.4" font-family="Arial" font-size="14.00">created_at </text>
<text text-anchor="start" x="579.25" y="-450.4" font-family="Arial" font-size="14.00" fill="#666666">[datetime(6)]</text>
</g>
<!-- organization_members_history&#45;&gt;users -->
<g id="edge3" class="edge">
<title>organization_members_history:member_user_id&#45;&gt;users:user_id</title>
<path fill="none" stroke="black" d="M875.86,-514.39C935.14,-503.98 861.06,-396.24 917.42,-348.8 1004.61,-275.41 1820.46,-215.6 1934.43,-215.6"/>
<polygon fill="black" stroke="black" points="875.94,-514.38 865.62,-510.69 870.62,-514.8 866.31,-515.15 866.31,-515.15 866.31,-515.15 870.62,-514.8 866.33,-519.66 875.94,-514.38"/>
<text text-anchor="start" x="718.94" y="-499.2" font-family="Arial" font-size="10.00">FOREIGN KEY (member_user_id) REFERENCES users (user_id)</text>
</g>
<!-- join_responses_history -->
<g id="node4" class="node">
<title>join_responses_history</title>
<polygon fill="#efefef" stroke="none" points="969.18,-592.2 969.18,-627.8 1273.66,-627.8 1273.66,-592.2 969.18,-592.2"/>
<polygon fill="none" stroke="black" points="969.18,-592.2 969.18,-627.8 1273.66,-627.8 1273.66,-592.2 969.18,-592.2"/>
<text text-anchor="start" x="976.18" y="-605.6" font-family="Arial Bold" font-size="18.00">join_responses_history</text>
<text text-anchor="start" x="1142.17" y="-605.6" font-family="Arial" font-size="14.00">    </text>
<text text-anchor="start" x="1173.29" y="-605.6" font-family="Arial" font-size="14.00" fill="#666666">[BASE TABLE]</text>
<polygon fill="none" stroke="black" points="969.18,-561.4 969.18,-592.2 1273.66,-592.2 1273.66,-561.4 969.18,-561.4"/>
<text text-anchor="start" x="976.18" y="-573.6" font-family="Arial" font-size="14.00">join_response_event_id </text>
<text text-anchor="start" x="1127.96" y="-573.6" font-family="Arial" font-size="14.00" fill="#666666">[bigint(20)]</text>
<polygon fill="none" stroke="black" points="969.18,-530.6 969.18,-561.4 1273.66,-561.4 1273.66,-530.6 969.18,-530.6"/>
<text text-anchor="start" x="976.18" y="-542.8" font-family="Arial" font-size="14.00">join_prompt_event_id </text>
<text text-anchor="start" x="1113.94" y="-542.8" font-family="Arial" font-size="14.00" fill="#666666">[bigint(20)]</text>
<polygon fill="none" stroke="black" points="969.18,-499.8 969.18,-530.6 1273.66,-530.6 1273.66,-499.8 969.18,-499.8"/>
<text text-anchor="start" x="976.18" y="-512" font-family="Arial" font-size="14.00">user_id </text>
<text text-anchor="start" x="1025.99" y="-512" font-family="Arial" font-size="14.00" fill="#666666">[bigint(20)]</text>
<polygon fill="none" stroke="black" points="969.18,-469 969.18,-499.8 1273.66,-499.8 1273.66,-469 969.18,-469"/>
<text text-anchor="start" x="976.18" y="-481.2" font-family="Arial" font-size="14.00">response </text>
<text text-anchor="start" x="1037.67" y="-481.2" font-family="Arial" font-size="14.00" fill="#666666">[text]</text>
<polygon fill="none" stroke="black" points="969.18,-438.2 969.18,-469 1273.66,-469 1273.66,-438.2 969.18,-438.2"/>
<text text-anchor="start" x="976.18" y="-450.4" font-family="Arial" font-size="14.00">created_at </text>
<text text-anchor="start" x="1046.23" y="-450.4" font-family="Arial" font-size="14.00" fill="#666666">[datetime(6)]</text>
</g>
<!-- join_responses_history&#45;&gt;users -->
<g id="edge4" class="edge">
<title>join_responses_history:user_id&#45;&gt;users:user_id</title>
<path fill="none" stroke="black" d="M1284.9,-514.4C1344.36,-504.21 1272.14,-398.61 1326.42,-348.8 1428.34,-255.29 1796.11,-215.6 1934.43,-215.6"/>
<polygon fill="black" stroke="black" points="1284.97,-514.4 1274.65,-510.69 1279.65,-514.81 1275.33,-515.15 1275.33,-515.15 1275.33,-515.15 1279.65,-514.81 1275.34,-519.66 1284.97,-514.4"/>
<text text-anchor="start" x="1149.08" y="-499.2" font-family="Arial" font-size="10.00">FOREIGN KEY (user_id) REFERENCES users (user_id)</text>
</g>
<!-- calendars -->
<g id="node5" class="node">
<title>calendars</title>
<polygon fill="#efefef" stroke="none" points="1378.2,-592.2 1378.2,-627.8 1584.65,-627.8 1584.65,-592.2 1378.2,-592.2"/>
<polygon fill="none" stroke="black" points="1378.2,-592.2 1378.2,-627.8 1584.65,-627.8 1584.65,-592.2 1378.2,-592.2"/>
<text text-anchor="start" x="1385.2" y="-605.6" font-family="Arial Bold" font-size="18.00">calendars</text>
<text text-anchor="start" x="1453.16" y="-605.6" font-family="Arial" font-size="14.00">    </text>
<text text-anchor="start" x="1484.27" y="-605.6" font-family="Arial" font-size="14.00" fill="#666666">[BASE TABLE]</text>
<polygon fill="none" stroke="black" points="1378.2,-561.4 1378.2,-592.2 1584.65,-592.2 1584.65,-561.4 1378.2,-561.4"/>
<text text-anchor="start" x="1385.2" y="-573.6" font-family="Arial" font-size="14.00">calendar_id </text>
<text text-anchor="start" x="1461.47" y="-573.6" font-family="Arial" font-size="14.00" fill="#666666">[bigint(20)]</text>
<polygon fill="none" stroke="black" points="1378.2,-530.6 1378.2,-561.4 1584.65,-561.4 1584.65,-530.6 1378.2,-530.6"/>
<text text-anchor="start" x="1385.2" y="-542.8" font-family="Arial" font-size="14.00">owner_user_id </text>
<text text-anchor="start" x="1480.92" y="-542.8" font-family="Arial" font-size="14.00" fill="#666666">[bigint(20)]</text>
<polygon fill="none" stroke="black" points="1378.2,-499.8 1378.2,-530.6 1584.65,-530.6 1584.65,-499.8 1378.2,-499.8"/>
<text text-anchor="start" x="1385.2" y="-512" font-family="Arial" font-size="14.00">name </text>
<text text-anchor="start" x="1424.11" y="-512" font-family="Arial" font-size="14.00" fill="#666666">[varchar(255)]</text>
<polygon fill="none" stroke="black" points="1378.2,-469 1378.2,-499.8 1584.65,-499.8 1584.65,-469 1378.2,-469"/>
<text text-anchor="start" x="1385.2" y="-481.2" font-family="Arial" font-size="14.00">color </text>
<text text-anchor="start" x="1419.43" y="-481.2" font-family="Arial" font-size="14.00" fill="#666666">[varchar(6)]</text>
<polygon fill="none" stroke="black" points="1378.2,-438.2 1378.2,-469 1584.65,-469 1584.65,-438.2 1378.2,-438.2"/>
<text text-anchor="start" x="1385.2" y="-450.4" font-family="Arial" font-size="14.00">description </text>
<text text-anchor="start" x="1456.79" y="-450.4" font-family="Arial" font-size="14.00" fill="#666666">[text]</text>
</g>
<!-- calendars&#45;&gt;users -->
<g id="edge5" class="edge">
<title>calendars:owner_user_id&#45;&gt;users:user_id</title>
<path fill="none" stroke="black" d="M1595.85,-545.37C1668.36,-535.59 1580.43,-415.11 1636.42,-348.8 1730.02,-237.96 1789.35,-215.6 1934.43,-215.6"/>
<polygon fill="black" stroke="black" points="1595.96,-545.36 1585.7,-541.49 1590.64,-545.69 1586.31,-545.96 1586.31,-545.96 1586.31,-545.96 1590.64,-545.69 1586.26,-550.47 1595.96,-545.36"/>
<text text-anchor="start" x="1443.66" y="-530" font-family="Arial" font-size="10.00">FOREIGN KEY (owner_user_id) REFERENCES users (user_id)</text>
</g>
<!-- join_prompts_history -->
<g id="node6" class="node">
<title>join_prompts_history</title>
<polygon fill="#efefef" stroke="none" points="1688.68,-592.2 1688.68,-627.8 1982.17,-627.8 1982.17,-592.2 1688.68,-592.2"/>
<polygon fill="none" stroke="black" points="1688.68,-592.2 1688.68,-627.8 1982.17,-627.8 1982.17,-592.2 1688.68,-592.2"/>
<text text-anchor="start" x="1695.68" y="-605.6" font-family="Arial Bold" font-size="18.00">join_prompts_history</text>
<text text-anchor="start" x="1850.68" y="-605.6" font-family="Arial" font-size="14.00">    </text>
<text text-anchor="start" x="1881.8" y="-605.6" font-family="Arial" font-size="14.00" fill="#666666">[BASE TABLE]</text>
<polygon fill="none" stroke="black" points="1688.68,-561.4 1688.68,-592.2 1982.17,-592.2 1982.17,-561.4 1688.68,-561.4"/>
<text text-anchor="start" x="1695.68" y="-573.6" font-family="Arial" font-size="14.00">join_prompt_event_id </text>
<text text-anchor="start" x="1833.43" y="-573.6" font-family="Arial" font-size="14.00" fill="#666666">[bigint(20)]</text>
<polygon fill="none" stroke="black" points="1688.68,-530.6 1688.68,-561.4 1982.17,-561.4 1982.17,-530.6 1688.68,-530.6"/>
<text text-anchor="start" x="1695.68" y="-542.8" font-family="Arial" font-size="14.00">organization_id </text>
<text text-anchor="start" x="1794.52" y="-542.8" font-family="Arial" font-size="14.00" fill="#666666">[bigint(20)]</text>
<polygon fill="none" stroke="black" points="1688.68,-499.8 1688.68,-530.6 1982.17,-530.6 1982.17,-499.8 1688.68,-499.8"/>
<text text-anchor="start" x="1695.68" y="-512" font-family="Arial" font-size="14.00">owner_user_id </text>
<text text-anchor="start" x="1791.4" y="-512" font-family="Arial" font-size="14.00" fill="#666666">[bigint(20)]</text>
<polygon fill="none" stroke="black" points="1688.68,-469 1688.68,-499.8 1982.17,-499.8 1982.17,-469 1688.68,-469"/>
<text text-anchor="start" x="1695.68" y="-481.2" font-family="Arial" font-size="14.00">prompt </text>
<text text-anchor="start" x="1743.14" y="-481.2" font-family="Arial" font-size="14.00" fill="#666666">[text]</text>
<polygon fill="none" stroke="black" points="1688.68,-438.2 1688.68,-469 1982.17,-469 1982.17,-438.2 1688.68,-438.2"/>
<text text-anchor="start" x="1695.68" y="-450.4" font-family="Arial" font-size="14.00">created_at </text>
<text text-anchor="start" x="1765.72" y="-450.4" font-family="Arial" font-size="14.00" fill="#666666">[datetime(6)]</text>
</g>
<!-- join_prompts_history&#45;&gt;users -->
<g id="edge6" class="edge">
<title>join_prompts_history:owner_user_id&#45;&gt;users:user_id</title>
<path fill="none" stroke="black" d="M1993.46,-514.56C2084.95,-502.18 1936.23,-315.79 1935.43,-312.8 1924.17,-271.09 1891.22,-215.6 1934.43,-215.6"/>
<polygon fill="black" stroke="black" points="1993.48,-514.55 1983.22,-510.69 1988.16,-514.89 1983.84,-515.16 1983.84,-515.16 1983.84,-515.16 1988.16,-514.89 1983.78,-519.67 1993.48,-514.55"/>
<text text-anchor="start" x="1990.17" y="-525.2" font-family="Arial" font-size="10.00">FOREIGN KEY (owner_user_id) REFERENCES users (user_id)</text>
</g>
<!-- join_requests_history -->
<g id="node7" class="node">
<title>join_requests_history</title>
<polygon fill="#efefef" stroke="none" points="2086.59,-592.2 2086.59,-627.8 2412.26,-627.8 2412.26,-592.2 2086.59,-592.2"/>
<polygon fill="none" stroke="black" points="2086.59,-592.2 2086.59,-627.8 2412.26,-627.8 2412.26,-592.2 2086.59,-592.2"/>
<text text-anchor="start" x="2109.68" y="-605.6" font-family="Arial Bold" font-size="18.00">join_requests_history</text>
<text text-anchor="start" x="2264.67" y="-605.6" font-family="Arial" font-size="14.00">    </text>
<text text-anchor="start" x="2295.79" y="-605.6" font-family="Arial" font-size="14.00" fill="#666666">[BASE TABLE]</text>
<polygon fill="none" stroke="black" points="2086.59,-561.4 2086.59,-592.2 2412.26,-592.2 2412.26,-561.4 2086.59,-561.4"/>
<text text-anchor="start" x="2093.59" y="-573.6" font-family="Arial" font-size="14.00">join_request_event_id </text>
<text text-anchor="start" x="2234.47" y="-573.6" font-family="Arial" font-size="14.00" fill="#666666">[bigint(20)]</text>
<polygon fill="none" stroke="black" points="2086.59,-530.6 2086.59,-561.4 2412.26,-561.4 2412.26,-530.6 2086.59,-530.6"/>
<text text-anchor="start" x="2093.59" y="-542.8" font-family="Arial" font-size="14.00">join_response_event_id </text>
<text text-anchor="start" x="2245.37" y="-542.8" font-family="Arial" font-size="14.00" fill="#666666">[bigint(20)]</text>
<polygon fill="none" stroke="black" points="2086.59,-499.8 2086.59,-530.6 2412.26,-530.6 2412.26,-499.8 2086.59,-499.8"/>
<text text-anchor="start" x="2093.59" y="-512" font-family="Arial" font-size="14.00">admin_user_id </text>
<text text-anchor="start" x="2189.31" y="-512" font-family="Arial" font-size="14.00" fill="#666666">[bigint(20)]</text>
<polygon fill="none" stroke="black" points="2086.59,-469 2086.59,-499.8 2412.26,-499.8 2412.26,-469 2086.59,-469"/>
<text text-anchor="start" x="2093.59" y="-481.2" font-family="Arial" font-size="14.00">created_at </text>
<text text-anchor="start" x="2163.64" y="-481.2" font-family="Arial" font-size="14.00" fill="#666666">[datetime(6)]</text>
<polygon fill="none" stroke="black" points="2086.59,-438.2 2086.59,-469 2412.26,-469 2412.26,-438.2 2086.59,-438.2"/>
<text text-anchor="start" x="2093.59" y="-450.4" font-family="Arial" font-size="14.00">status </text>
<text text-anchor="start" x="2134.83" y="-450.4" font-family="Arial" font-size="14.00" fill="#666666">[enum(&#39;open&#39;,&#39;retracted&#39;,&#39;denied&#39;,&#39;accepted&#39;)]</text>
</g>
<!-- join_requests_history&#45;&gt;users -->
<g id="edge7" class="edge">
<title>join_requests_history:admin_user_id&#45;&gt;users:user_id</title>
<path fill="none" stroke="black" d="M2075.62,-514.2C2037.28,-505.5 2070.47,-441.98 2086.59,-395 2101.51,-351.5 2134.45,-356.28 2149.42,-312.8 2163.48,-271.95 2193.62,-215.6 2150.42,-215.6"/>
<polygon fill="black" stroke="black" points="2075.3,-514.17 2084.8,-519.64 2080.61,-514.7 2084.92,-515.13 2084.92,-515.13 2084.92,-515.13 2080.61,-514.7 2085.7,-510.69 2075.3,-514.17"/>
<text text-anchor="start" x="2092.59" y="-499.2" font-family="Arial" font-size="10.00">FOREIGN KEY (admin_user_id) REFERENCES users (user_id)</text>
</g>
<!-- organization_calendars_history -->
<g id="node8" class="node">
<title>organization_calendars_history</title>
<polygon fill="#efefef" stroke="none" points="2516.22,-607.6 2516.22,-643.2 2880.63,-643.2 2880.63,-607.6 2516.22,-607.6"/>
<polygon fill="none" stroke="black" points="2516.22,-607.6 2516.22,-643.2 2880.63,-643.2 2880.63,-607.6 2516.22,-607.6"/>
<text text-anchor="start" x="2523.22" y="-621" font-family="Arial Bold" font-size="18.00">organization_calendars_history</text>
<text text-anchor="start" x="2749.14" y="-621" font-family="Arial" font-size="14.00">    </text>
<text text-anchor="start" x="2780.26" y="-621" font-family="Arial" font-size="14.00" fill="#666666">[BASE TABLE]</text>
<polygon fill="none" stroke="black" points="2516.22,-576.8 2516.22,-607.6 2880.63,-607.6 2880.63,-576.8 2516.22,-576.8"/>
<text text-anchor="start" x="2523.22" y="-589" font-family="Arial" font-size="14.00">organization_calendar_event_id </text>
<text text-anchor="start" x="2725.59" y="-589" font-family="Arial" font-size="14.00" fill="#666666">[bigint(20)]</text>
<polygon fill="none" stroke="black" points="2516.22,-546 2516.22,-576.8 2880.63,-576.8 2880.63,-546 2516.22,-546"/>
<text text-anchor="start" x="2523.22" y="-558.2" font-family="Arial" font-size="14.00">organization_id </text>
<text text-anchor="start" x="2622.06" y="-558.2" font-family="Arial" font-size="14.00" fill="#666666">[bigint(20)]</text>
<polygon fill="none" stroke="black" points="2516.22,-515.2 2516.22,-546 2880.63,-546 2880.63,-515.2 2516.22,-515.2"/>
<text text-anchor="start" x="2523.22" y="-527.4" font-family="Arial" font-size="14.00">calendar_id </text>
<text text-anchor="start" x="2599.49" y="-527.4" font-family="Arial" font-size="14.00" fill="#666666">[bigint(20)]</text>
<polygon fill="none" stroke="black" points="2516.22,-484.4 2516.22,-515.2 2880.63,-515.2 2880.63,-484.4 2516.22,-484.4"/>
<text text-anchor="start" x="2523.22" y="-496.6" font-family="Arial" font-size="14.00">admin_user_id </text>
<text text-anchor="start" x="2618.94" y="-496.6" font-family="Arial" font-size="14.00" fill="#666666">[bigint(20)]</text>
<polygon fill="none" stroke="black" points="2516.22,-453.6 2516.22,-484.4 2880.63,-484.4 2880.63,-453.6 2516.22,-453.6"/>
<text text-anchor="start" x="2523.22" y="-465.8" font-family="Arial" font-size="14.00">added </text>
<text text-anchor="start" x="2566.04" y="-465.8" font-family="Arial" font-size="14.00" fill="#666666">[tinyint(1)]</text>
<polygon fill="none" stroke="black" points="2516.22,-422.8 2516.22,-453.6 2880.63,-453.6 2880.63,-422.8 2516.22,-422.8"/>
<text text-anchor="start" x="2523.22" y="-435" font-family="Arial" font-size="14.00">created_at </text>
<text text-anchor="start" x="2593.26" y="-435" font-family="Arial" font-size="14.00" fill="#666666">[datetime(6)]</text>
</g>
<!-- organization_calendars_history&#45;&gt;users -->
<g id="edge8" class="edge">
<title>organization_calendars_history:admin_user_id&#45;&gt;users:user_id</title>
<path fill="none" stroke="black" d="M2505.14,-499C2451.27,-489.48 2510,-398.01 2464.42,-348.8 2361.42,-237.58 2302.01,-215.6 2150.42,-215.6"/>
<polygon fill="black" stroke="black" points="2504.91,-498.98 2514.52,-504.26 2510.23,-499.4 2514.55,-499.75 2514.55,-499.75 2514.55,-499.75 2510.23,-499.4 2515.24,-495.29 2504.91,-498.98"/>
<text text-anchor="start" x="2522.22" y="-509.8" font-family="Arial" font-size="10.00">FOREIGN KEY (admin_user_id) REFERENCES users (user_id)</text>
</g>
<!-- users_sessions -->
<g id="node9" class="node">
<title>users_sessions</title>
<polygon fill="#efefef" stroke="none" points="2984.68,-561.4 2984.68,-597 3228.17,-597 3228.17,-561.4 2984.68,-561.4"/>
<polygon fill="none" stroke="black" points="2984.68,-561.4 2984.68,-597 3228.17,-597 3228.17,-561.4 2984.68,-561.4"/>
<text text-anchor="start" x="2991.68" y="-574.8" font-family="Arial Bold" font-size="18.00">users_sessions</text>
<text text-anchor="start" x="3096.68" y="-574.8" font-family="Arial" font-size="14.00">    </text>
<text text-anchor="start" x="3127.8" y="-574.8" font-family="Arial" font-size="14.00" fill="#666666">[BASE TABLE]</text>
<polygon fill="none" stroke="black" points="2984.68,-530.6 2984.68,-561.4 3228.17,-561.4 3228.17,-530.6 2984.68,-530.6"/>
<text text-anchor="start" x="2991.68" y="-542.8" font-family="Arial" font-size="14.00">session_hash </text>
<text text-anchor="start" x="3081.18" y="-542.8" font-family="Arial" font-size="14.00" fill="#666666">[binary(32)]</text>
<polygon fill="none" stroke="black" points="2984.68,-499.8 2984.68,-530.6 3228.17,-530.6 3228.17,-499.8 2984.68,-499.8"/>
<text text-anchor="start" x="2991.68" y="-512" font-family="Arial" font-size="14.00">user_id </text>
<text text-anchor="start" x="3041.48" y="-512" font-family="Arial" font-size="14.00" fill="#666666">[bigint(20)]</text>
<polygon fill="none" stroke="black" points="2984.68,-469 2984.68,-499.8 3228.17,-499.8 3228.17,-469 2984.68,-469"/>
<text text-anchor="start" x="2991.68" y="-481.2" font-family="Arial" font-size="14.00">expires_at </text>
<text text-anchor="start" x="3060.16" y="-481.2" font-family="Arial" font-size="14.00" fill="#666666">[datetime(6)]</text>
</g>
<!-- users_sessions&#45;&gt;users -->
<g id="edge9" class="edge">
<title>users_sessions:user_id&#45;&gt;users:user_id</title>
<path fill="none" stroke="black" d="M2973.46,-514.4C2914.18,-504.09 2987.74,-397.35 2932.42,-348.8 2799.93,-232.52 2326.7,-215.6 2150.42,-215.6"/>
<polygon fill="black" stroke="black" points="2973.37,-514.39 2982.99,-519.66 2978.69,-514.81 2983.01,-515.15 2983.01,-515.15 2983.01,-515.15 2978.69,-514.81 2983.7,-510.69 2973.37,-514.39"/>
<text text-anchor="start" x="2990.68" y="-525.2" font-family="Arial" font-size="10.00">FOREIGN KEY (user_id) REFERENCES users (user_id)</text>
</g>
<!-- member_roles_history -->
<g id="node10" class="node">
<title>member_roles_history</title>
<polygon fill="#efefef" stroke="none" points="3332.2,-607.6 3332.2,-643.2 3632.65,-643.2 3632.65,-607.6 3332.2,-607.6"/>
<polygon fill="none" stroke="black" points="3332.2,-607.6 3332.2,-643.2 3632.65,-643.2 3632.65,-607.6 3332.2,-607.6"/>
<text text-anchor="start" x="3339.2" y="-621" font-family="Arial Bold" font-size="18.00">member_roles_history</text>
<text text-anchor="start" x="3501.16" y="-621" font-family="Arial" font-size="14.00">    </text>
<text text-anchor="start" x="3532.28" y="-621" font-family="Arial" font-size="14.00" fill="#666666">[BASE TABLE]</text>
<polygon fill="none" stroke="black" points="3332.2,-576.8 3332.2,-607.6 3632.65,-607.6 3632.65,-576.8 3332.2,-576.8"/>
<text text-anchor="start" x="3339.2" y="-589" font-family="Arial" font-size="14.00">member_role_event_id </text>
<text text-anchor="start" x="3486.28" y="-589" font-family="Arial" font-size="14.00" fill="#666666">[bigint(20)]</text>
<polygon fill="none" stroke="black" points="3332.2,-546 3332.2,-576.8 3632.65,-576.8 3632.65,-546 3332.2,-546"/>
<text text-anchor="start" x="3339.2" y="-558.2" font-family="Arial" font-size="14.00">organization_id </text>
<text text-anchor="start" x="3438.04" y="-558.2" font-family="Arial" font-size="14.00" fill="#666666">[bigint(20)]</text>
<polygon fill="none" stroke="black" points="3332.2,-515.2 3332.2,-546 3632.65,-546 3632.65,-515.2 3332.2,-515.2"/>
<text text-anchor="start" x="3339.2" y="-527.4" font-family="Arial" font-size="14.00">member_user_id </text>
<text text-anchor="start" x="3448.13" y="-527.4" font-family="Arial" font-size="14.00" fill="#666666">[bigint(20)]</text>
<polygon fill="none" stroke="black" points="3332.2,-484.4 3332.2,-515.2 3632.65,-515.2 3632.65,-484.4 3332.2,-484.4"/>
<text text-anchor="start" x="3339.2" y="-496.6" font-family="Arial" font-size="14.00">owner_user_id </text>
<text text-anchor="start" x="3434.92" y="-496.6" font-family="Arial" font-size="14.00" fill="#666666">[bigint(20)]</text>
<polygon fill="none" stroke="black" points="3332.2,-453.6 3332.2,-484.4 3632.65,-484.4 3632.65,-453.6 3332.2,-453.6"/>
<text text-anchor="start" x="3339.2" y="-465.8" font-family="Arial" font-size="14.00">created_at </text>
<text text-anchor="start" x="3409.24" y="-465.8" font-family="Arial" font-size="14.00" fill="#666666">[datetime(6)]</text>
<polygon fill="none" stroke="black" points="3332.2,-422.8 3332.2,-453.6 3632.65,-453.6 3632.65,-422.8 3332.2,-422.8"/>
<text text-anchor="start" x="3339.2" y="-435" font-family="Arial" font-size="14.00">role </text>
<text text-anchor="start" x="3366.43" y="-435" font-family="Arial" font-size="14.00" fill="#666666">[enum(&#39;owner&#39;,&#39;admin&#39;,&#39;user&#39;)]</text>
</g>
<!-- member_roles_history&#45;&gt;users -->
<g id="edge10" class="edge">
<title>member_roles_history:member_user_id&#45;&gt;users:user_id</title>
<path fill="none" stroke="black" d="M3320.95,-529.85C3255.68,-519.31 3341.29,-400.9 3280.42,-348.8 3184.37,-266.59 2276.84,-215.6 2150.42,-215.6"/>
<polygon fill="black" stroke="black" points="3320.89,-529.84 3330.53,-535.06 3326.21,-530.23 3330.53,-530.55 3330.53,-530.55 3330.53,-530.55 3326.21,-530.23 3331.19,-526.09 3320.89,-529.84"/>
<text text-anchor="start" x="3338.2" y="-540.6" font-family="Arial" font-size="10.00">FOREIGN KEY (member_user_id) REFERENCES users (user_id)</text>
</g>
<!-- member_roles_history&#45;&gt;users -->
<g id="edge11" class="edge">
<title>member_roles_history:owner_user_id&#45;&gt;users:user_id</title>
<path fill="none" stroke="black" d="M3320.84,-498.87C3268.21,-488.35 3332.39,-390.98 3280.42,-348.8 3182.27,-269.12 2276.84,-215.6 2150.42,-215.6"/>
<polygon fill="black" stroke="black" points="3320.9,-498.88 3330.46,-504.25 3326.22,-499.35 3330.53,-499.74 3330.53,-499.74 3330.53,-499.74 3326.22,-499.35 3331.26,-495.29 3320.9,-498.88"/>
<text text-anchor="start" x="3338.2" y="-509.8" font-family="Arial" font-size="10.00">FOREIGN KEY (owner_user_id) REFERENCES users (user_id)</text>
</g>
<!-- calendar_writes_history -->
<g id="node11" class="node">
<title>calendar_writes_history</title>
<polygon fill="#efefef" stroke="none" points="3736.71,-592.2 3736.71,-627.8 4048.14,-627.8 4048.14,-592.2 3736.71,-592.2"/>
<polygon fill="none" stroke="black" points="3736.71,-592.2 3736.71,-627.8 4048.14,-627.8 4048.14,-592.2 3736.71,-592.2"/>
<text text-anchor="start" x="3743.71" y="-605.6" font-family="Arial Bold" font-size="18.00">calendar_writes_history</text>
<text text-anchor="start" x="3916.65" y="-605.6" font-family="Arial" font-size="14.00">    </text>
<text text-anchor="start" x="3947.77" y="-605.6" font-family="Arial" font-size="14.00" fill="#666666">[BASE TABLE]</text>
<polygon fill="none" stroke="black" points="3736.71,-561.4 3736.71,-592.2 4048.14,-592.2 4048.14,-561.4 3736.71,-561.4"/>
<text text-anchor="start" x="3743.71" y="-573.6" font-family="Arial" font-size="14.00">calendar_write_event_id </text>
<text text-anchor="start" x="3899.36" y="-573.6" font-family="Arial" font-size="14.00" fill="#666666">[bigint(20)]</text>
<polygon fill="none" stroke="black" points="3736.71,-530.6 3736.71,-561.4 4048.14,-561.4 4048.14,-530.6 3736.71,-530.6"/>
<text text-anchor="start" x="3743.71" y="-542.8" font-family="Arial" font-size="14.00">calendar_id </text>
<text text-anchor="start" x="3819.98" y="-542.8" font-family="Arial" font-size="14.00" fill="#666666">[bigint(20)]</text>
<polygon fill="none" stroke="black" points="3736.71,-499.8 3736.71,-530.6 4048.14,-530.6 4048.14,-499.8 3736.71,-499.8"/>
<text text-anchor="start" x="3743.71" y="-512" font-family="Arial" font-size="14.00">writer_user_id </text>
<text text-anchor="start" x="3835.52" y="-512" font-family="Arial" font-size="14.00" fill="#666666">[bigint(20)]</text>
<polygon fill="none" stroke="black" points="3736.71,-469 3736.71,-499.8 4048.14,-499.8 4048.14,-469 3736.71,-469"/>
<text text-anchor="start" x="3743.71" y="-481.2" font-family="Arial" font-size="14.00">ical_encrypted </text>
<text text-anchor="start" x="3837.87" y="-481.2" font-family="Arial" font-size="14.00" fill="#666666">[longblob]</text>
<polygon fill="none" stroke="black" points="3736.71,-438.2 3736.71,-469 4048.14,-469 4048.14,-438.2 3736.71,-438.2"/>
<text text-anchor="start" x="3743.71" y="-450.4" font-family="Arial" font-size="14.00">created_at </text>
<text text-anchor="start" x="3813.75" y="-450.4" font-family="Arial" font-size="14.00" fill="#666666">[datetime(6)]</text>
</g>
<!-- calendar_writes_history&#45;&gt;users -->
<g id="edge12" class="edge">
<title>calendar_writes_history:writer_user_id&#45;&gt;users:user_id</title>
<path fill="none" stroke="black" d="M3725.51,-514.38C3666.4,-503.86 3741.7,-395.04 3684.42,-348.8 3551.31,-241.33 2321.5,-215.6 2150.42,-215.6"/>
<polygon fill="black" stroke="black" points="3725.41,-514.37 3735.01,-519.66 3730.72,-514.8 3735.04,-515.15 3735.04,-515.15 3735.04,-515.15 3730.72,-514.8 3735.73,-510.69 3725.41,-514.37"/>
<text text-anchor="start" x="3742.71" y="-525.2" font-family="Arial" font-size="10.00">FOREIGN KEY (writer_user_id) REFERENCES users (user_id)</text>
</g>
</g>
</svg>
