<?xml version="1.0" encoding="UTF-8" standalone="no"?>
<!DOCTYPE svg PUBLIC "-//W3C//DTD SVG 1.1//EN"
 "http://www.w3.org/Graphics/SVG/1.1/DTD/svg11.dtd">
<!-- Generated by graphviz version 12.1.2 (20240928.0832)
 -->
<!-- Title: users Pages: 1 -->
<svg width="1005pt" height="664pt"
 viewBox="0.00 0.00 1005.37 663.60" xmlns="http://www.w3.org/2000/svg" xmlns:xlink="http://www.w3.org/1999/xlink">
<g id="graph0" class="graph" transform="scale(1 1) rotate(0) translate(4 659.6)">
<title>users</title>
<polygon fill="white" stroke="none" points="-4,4 -4,-659.6 1001.37,-659.6 1001.37,4 -4,4"/>
<!-- users -->
<g id="node1" class="node">
<title>users</title>
<polygon fill="#efefef" stroke="none" points="396.42,-231 396.42,-266.6 610.42,-266.6 610.42,-231 396.42,-231"/>
<polygon fill="none" stroke="black" points="396.42,-231 396.42,-266.6 610.42,-266.6 610.42,-231 396.42,-231"/>
<text text-anchor="start" x="422.68" y="-244.4" font-family="Arial Bold" font-size="18.00">users</text>
<text text-anchor="start" x="459.67" y="-244.4" font-family="Arial" font-size="14.00">    </text>
<text text-anchor="start" x="490.79" y="-244.4" font-family="Arial" font-size="14.00" fill="#666666">[BASE TABLE]</text>
<polygon fill="none" stroke="black" points="396.42,-200.2 396.42,-231 610.42,-231 610.42,-200.2 396.42,-200.2"/>
<text text-anchor="start" x="403.42" y="-212.4" font-family="Arial" font-size="14.00">id </text>
<text text-anchor="start" x="418.21" y="-212.4" font-family="Arial" font-size="14.00" fill="#666666">[int(11)]</text>
<polygon fill="none" stroke="black" points="396.42,-169.4 396.42,-200.2 610.42,-200.2 610.42,-169.4 396.42,-169.4"/>
<text text-anchor="start" x="403.42" y="-181.6" font-family="Arial" font-size="14.00">email </text>
<text text-anchor="start" x="440.77" y="-181.6" font-family="Arial" font-size="14.00" fill="#666666">[varchar(320)]</text>
<polygon fill="none" stroke="black" points="396.42,-138.6 396.42,-169.4 610.42,-169.4 610.42,-138.6 396.42,-138.6"/>
<text text-anchor="start" x="403.42" y="-150.8" font-family="Arial" font-size="14.00">first_name </text>
<text text-anchor="start" x="472.67" y="-150.8" font-family="Arial" font-size="14.00" fill="#666666">[varchar(255)]</text>
<polygon fill="none" stroke="black" points="396.42,-107.8 396.42,-138.6 610.42,-138.6 610.42,-107.8 396.42,-107.8"/>
<text text-anchor="start" x="403.42" y="-120" font-family="Arial" font-size="14.00">last_name </text>
<text text-anchor="start" x="471.91" y="-120" font-family="Arial" font-size="14.00" fill="#666666">[varchar(255)]</text>
<polygon fill="none" stroke="black" points="396.42,-77 396.42,-107.8 610.42,-107.8 610.42,-77 396.42,-77"/>
<text text-anchor="start" x="403.42" y="-89.2" font-family="Arial" font-size="14.00">password_hash </text>
<text text-anchor="start" x="505.37" y="-89.2" font-family="Arial" font-size="14.00" fill="#666666">[varbinary(255)]</text>
<polygon fill="none" stroke="black" points="396.42,-46.2 396.42,-77 610.42,-77 610.42,-46.2 396.42,-46.2"/>
<text text-anchor="start" x="403.42" y="-58.4" font-family="Arial" font-size="14.00">middle_name </text>
<text text-anchor="start" x="491.36" y="-58.4" font-family="Arial" font-size="14.00" fill="#666666">[varchar(255)]</text>
<polygon fill="none" stroke="black" stroke-width="3" points="394.92,-44.7 394.92,-268.1 611.92,-268.1 611.92,-44.7 394.92,-44.7"/>
</g>
<!-- users_calendars -->
<g id="node2" class="node">
<title>users_calendars</title>
<polygon fill="#efefef" stroke="none" points="43.2,-515.2 43.2,-550.8 295.64,-550.8 295.64,-515.2 43.2,-515.2"/>
<polygon fill="none" stroke="black" points="43.2,-515.2 43.2,-550.8 295.64,-550.8 295.64,-515.2 43.2,-515.2"/>
<text text-anchor="start" x="50.2" y="-528.6" font-family="Arial Bold" font-size="18.00">users_calendars</text>
<text text-anchor="start" x="164.15" y="-528.6" font-family="Arial" font-size="14.00">    </text>
<text text-anchor="start" x="195.27" y="-528.6" font-family="Arial" font-size="14.00" fill="#666666">[BASE TABLE]</text>
<polygon fill="none" stroke="black" points="43.2,-484.4 43.2,-515.2 295.64,-515.2 295.64,-484.4 43.2,-484.4"/>
<text text-anchor="start" x="50.2" y="-496.6" font-family="Arial" font-size="14.00">user_id </text>
<text text-anchor="start" x="100.01" y="-496.6" font-family="Arial" font-size="14.00" fill="#666666">[int(11)]</text>
<polygon fill="none" stroke="black" points="43.2,-453.6 43.2,-484.4 295.64,-484.4 295.64,-453.6 43.2,-453.6"/>
<text text-anchor="start" x="50.2" y="-465.8" font-family="Arial" font-size="14.00">calendar_id </text>
<text text-anchor="start" x="126.48" y="-465.8" font-family="Arial" font-size="14.00" fill="#666666">[int(11)]</text>
</g>
<!-- users_calendars&#45;&gt;users -->
<g id="edge1" class="edge">
<title>users_calendars:user_id&#45;&gt;users:id</title>
<path fill="none" stroke="black" d="M306.73,-497.34C359.98,-469.57 332.22,-215.6 395.42,-215.6"/>
<polygon fill="black" stroke="black" points="306.68,-497.35 295.9,-495.35 301.5,-498.62 297.29,-499.64 297.29,-499.64 297.29,-499.64 301.5,-498.62 298.03,-504.09 306.68,-497.35"/>
<text text-anchor="start" x="303.64" y="-509.8" font-family="Arial" font-size="10.00">FOREIGN KEY (user_id) REFERENCES users (id)</text>
</g>
<!-- calendars -->
<g id="node3" class="node">
<title>calendars</title>
<polygon fill="#efefef" stroke="none" points="400.2,-576.8 400.2,-612.4 606.64,-612.4 606.64,-576.8 400.2,-576.8"/>
<polygon fill="none" stroke="black" points="400.2,-576.8 400.2,-612.4 606.64,-612.4 606.64,-576.8 400.2,-576.8"/>
<text text-anchor="start" x="407.2" y="-590.2" font-family="Arial Bold" font-size="18.00">calendars</text>
<text text-anchor="start" x="475.15" y="-590.2" font-family="Arial" font-size="14.00">    </text>
<text text-anchor="start" x="506.27" y="-590.2" font-family="Arial" font-size="14.00" fill="#666666">[BASE TABLE]</text>
<polygon fill="none" stroke="black" points="400.2,-546 400.2,-576.8 606.64,-576.8 606.64,-546 400.2,-546"/>
<text text-anchor="start" x="407.2" y="-558.2" font-family="Arial" font-size="14.00">id </text>
<text text-anchor="start" x="421.98" y="-558.2" font-family="Arial" font-size="14.00" fill="#666666">[int(11)]</text>
<polygon fill="none" stroke="black" points="400.2,-515.2 400.2,-546 606.64,-546 606.64,-515.2 400.2,-515.2"/>
<text text-anchor="start" x="407.2" y="-527.4" font-family="Arial" font-size="14.00">owner_id </text>
<text text-anchor="start" x="467.9" y="-527.4" font-family="Arial" font-size="14.00" fill="#666666">[int(11)]</text>
<polygon fill="none" stroke="black" points="400.2,-484.4 400.2,-515.2 606.64,-515.2 606.64,-484.4 400.2,-484.4"/>
<text text-anchor="start" x="407.2" y="-496.6" font-family="Arial" font-size="14.00">name </text>
<text text-anchor="start" x="446.11" y="-496.6" font-family="Arial" font-size="14.00" fill="#666666">[varchar(255)]</text>
<polygon fill="none" stroke="black" points="400.2,-453.6 400.2,-484.4 606.64,-484.4 606.64,-453.6 400.2,-453.6"/>
<text text-anchor="start" x="407.2" y="-465.8" font-family="Arial" font-size="14.00">description </text>
<text text-anchor="start" x="478.79" y="-465.8" font-family="Arial" font-size="14.00" fill="#666666">[text]</text>
<polygon fill="none" stroke="black" points="400.2,-422.8 400.2,-453.6 606.64,-453.6 606.64,-422.8 400.2,-422.8"/>
<text text-anchor="start" x="407.2" y="-435" font-family="Arial" font-size="14.00">ical </text>
<text text-anchor="start" x="432.09" y="-435" font-family="Arial" font-size="14.00" fill="#666666">[longblob]</text>
<polygon fill="none" stroke="black" points="400.2,-392 400.2,-422.8 606.64,-422.8 606.64,-392 400.2,-392"/>
<text text-anchor="start" x="407.2" y="-404.2" font-family="Arial" font-size="14.00">members_only </text>
<text text-anchor="start" x="502.9" y="-404.2" font-family="Arial" font-size="14.00" fill="#666666">[tinyint(1)]</text>
</g>
<!-- calendars&#45;&gt;users -->
<g id="edge2" class="edge">
<title>calendars:owner_id&#45;&gt;users:id</title>
<path fill="none" stroke="black" d="M615.8,-524.31C643.01,-479.91 643.48,-215.6 611.42,-215.6"/>
<polygon fill="black" stroke="black" points="615.82,-524.29 605.16,-526.83 611.6,-527.55 608.17,-530.19 608.17,-530.19 608.17,-530.19 611.6,-527.55 610.66,-533.96 615.82,-524.29"/>
<text text-anchor="start" x="614.64" y="-540.6" font-family="Arial" font-size="10.00">FOREIGN KEY (owner_id) REFERENCES users (id)</text>
</g>
<!-- users_sessions -->
<g id="node4" class="node">
<title>users_sessions</title>
<polygon fill="#efefef" stroke="none" points="710.67,-546 710.67,-581.6 954.17,-581.6 954.17,-546 710.67,-546"/>
<polygon fill="none" stroke="black" points="710.67,-546 710.67,-581.6 954.17,-581.6 954.17,-546 710.67,-546"/>
<text text-anchor="start" x="717.67" y="-559.4" font-family="Arial Bold" font-size="18.00">users_sessions</text>
<text text-anchor="start" x="822.68" y="-559.4" font-family="Arial" font-size="14.00">    </text>
<text text-anchor="start" x="853.79" y="-559.4" font-family="Arial" font-size="14.00" fill="#666666">[BASE TABLE]</text>
<polygon fill="none" stroke="black" points="710.67,-515.2 710.67,-546 954.17,-546 954.17,-515.2 710.67,-515.2"/>
<text text-anchor="start" x="717.67" y="-527.4" font-family="Arial" font-size="14.00">id </text>
<text text-anchor="start" x="732.46" y="-527.4" font-family="Arial" font-size="14.00" fill="#666666">[binary(16)]</text>
<polygon fill="none" stroke="black" points="710.67,-484.4 710.67,-515.2 954.17,-515.2 954.17,-484.4 710.67,-484.4"/>
<text text-anchor="start" x="717.67" y="-496.6" font-family="Arial" font-size="14.00">user_id </text>
<text text-anchor="start" x="767.48" y="-496.6" font-family="Arial" font-size="14.00" fill="#666666">[int(11)]</text>
<polygon fill="none" stroke="black" points="710.67,-453.6 710.67,-484.4 954.17,-484.4 954.17,-453.6 710.67,-453.6"/>
<text text-anchor="start" x="717.67" y="-465.8" font-family="Arial" font-size="14.00">email </text>
<text text-anchor="start" x="755.02" y="-465.8" font-family="Arial" font-size="14.00" fill="#666666">[varchar(320)]</text>
<polygon fill="none" stroke="black" points="710.67,-422.8 710.67,-453.6 954.17,-453.6 954.17,-422.8 710.67,-422.8"/>
<text text-anchor="start" x="717.67" y="-435" font-family="Arial" font-size="14.00">expires_at </text>
<text text-anchor="start" x="786.16" y="-435" font-family="Arial" font-size="14.00" fill="#666666">[datetime(6)]</text>
</g>
<!-- users_sessions&#45;&gt;users -->
<g id="edge3" class="edge">
<title>users_sessions:user_id&#45;&gt;users:id</title>
<path fill="none" stroke="black" d="M699.59,-497.34C646.42,-469.57 674.59,-215.6 611.42,-215.6"/>
<polygon fill="black" stroke="black" points="699.63,-497.35 708.28,-504.09 704.82,-498.62 709.02,-499.64 709.02,-499.64 709.02,-499.64 704.82,-498.62 710.41,-495.35 699.63,-497.35"/>
<text text-anchor="start" x="656.63" y="-483.8" font-family="Arial" font-size="10.00">FOREIGN KEY (user_id) REFERENCES users (id)</text>
</g>
</g>
</svg>
