<?xml version="1.0" encoding="UTF-8" standalone="no"?>
<!DOCTYPE svg PUBLIC "-//W3C//DTD SVG 1.1//EN"
 "http://www.w3.org/Graphics/SVG/1.1/DTD/svg11.dtd">
<!-- Generated by graphviz version 12.1.2 (20240928.0832)
 -->
<!-- Title: users_calendars_bans Pages: 1 -->
<svg width="823pt" height="633pt"
 viewBox="0.00 0.00 822.56 632.80" xmlns="http://www.w3.org/2000/svg" xmlns:xlink="http://www.w3.org/1999/xlink">
<g id="graph0" class="graph" transform="scale(1 1) rotate(0) translate(4 628.8)">
<title>users_calendars_bans</title>
<polygon fill="white" stroke="none" points="-4,4 -4,-628.8 818.56,-628.8 818.56,4 -4,4"/>
<!-- users_calendars_bans -->
<g id="node1" class="node">
<title>users_calendars_bans</title>
<polygon fill="#efefef" stroke="none" points="241.16,-543 241.16,-578.6 535.59,-578.6 535.59,-543 241.16,-543"/>
<polygon fill="none" stroke="black" points="241.16,-543 241.16,-578.6 535.59,-578.6 535.59,-543 241.16,-543"/>
<text text-anchor="start" x="248.16" y="-556.4" font-family="Arial Bold" font-size="18.00">users_calendars_bans</text>
<text text-anchor="start" x="404.1" y="-556.4" font-family="Arial" font-size="14.00">    </text>
<text text-anchor="start" x="435.22" y="-556.4" font-family="Arial" font-size="14.00" fill="#666666">[BASE TABLE]</text>
<polygon fill="none" stroke="black" points="241.16,-512.2 241.16,-543 535.59,-543 535.59,-512.2 241.16,-512.2"/>
<text text-anchor="start" x="248.16" y="-524.4" font-family="Arial" font-size="14.00">user_id </text>
<text text-anchor="start" x="297.96" y="-524.4" font-family="Arial" font-size="14.00" fill="#666666">[int(11)]</text>
<polygon fill="none" stroke="black" points="241.16,-481.4 241.16,-512.2 535.59,-512.2 535.59,-481.4 241.16,-481.4"/>
<text text-anchor="start" x="248.16" y="-493.6" font-family="Arial" font-size="14.00">calendar_id </text>
<text text-anchor="start" x="324.43" y="-493.6" font-family="Arial" font-size="14.00" fill="#666666">[int(11)]</text>
<polygon fill="none" stroke="black" points="241.16,-450.6 241.16,-481.4 535.59,-481.4 535.59,-450.6 241.16,-450.6"/>
<text text-anchor="start" x="248.16" y="-462.8" font-family="Arial" font-size="14.00">reason </text>
<text text-anchor="start" x="294.85" y="-462.8" font-family="Arial" font-size="14.00" fill="#666666">[varchar(255)]</text>
<polygon fill="none" stroke="black" points="241.16,-419.8 241.16,-450.6 535.59,-450.6 535.59,-419.8 241.16,-419.8"/>
<text text-anchor="start" x="248.16" y="-432" font-family="Arial" font-size="14.00">expires_at </text>
<text text-anchor="start" x="316.64" y="-432" font-family="Arial" font-size="14.00" fill="#666666">[datetime(6)]</text>
<polygon fill="none" stroke="black" stroke-width="3" points="239.66,-418.3 239.66,-580.1 537.09,-580.1 537.09,-418.3 239.66,-418.3"/>
</g>
<!-- users -->
<g id="node2" class="node">
<title>users</title>
<polygon fill="#efefef" stroke="none" points="124.38,-243.4 124.38,-279 338.37,-279 338.37,-243.4 124.38,-243.4"/>
<polygon fill="none" stroke="black" points="124.38,-243.4 124.38,-279 338.37,-279 338.37,-243.4 124.38,-243.4"/>
<text text-anchor="start" x="150.63" y="-256.8" font-family="Arial Bold" font-size="18.00">users</text>
<text text-anchor="start" x="187.63" y="-256.8" font-family="Arial" font-size="14.00">    </text>
<text text-anchor="start" x="218.74" y="-256.8" font-family="Arial" font-size="14.00" fill="#666666">[BASE TABLE]</text>
<polygon fill="none" stroke="black" points="124.38,-212.6 124.38,-243.4 338.37,-243.4 338.37,-212.6 124.38,-212.6"/>
<text text-anchor="start" x="131.38" y="-224.8" font-family="Arial" font-size="14.00">id </text>
<text text-anchor="start" x="146.16" y="-224.8" font-family="Arial" font-size="14.00" fill="#666666">[int(11)]</text>
<polygon fill="none" stroke="black" points="124.38,-181.8 124.38,-212.6 338.37,-212.6 338.37,-181.8 124.38,-181.8"/>
<text text-anchor="start" x="131.38" y="-194" font-family="Arial" font-size="14.00">email </text>
<text text-anchor="start" x="168.72" y="-194" font-family="Arial" font-size="14.00" fill="#666666">[varchar(320)]</text>
<polygon fill="none" stroke="black" points="124.38,-151 124.38,-181.8 338.37,-181.8 338.37,-151 124.38,-151"/>
<text text-anchor="start" x="131.38" y="-163.2" font-family="Arial" font-size="14.00">first_name </text>
<text text-anchor="start" x="200.63" y="-163.2" font-family="Arial" font-size="14.00" fill="#666666">[varchar(255)]</text>
<polygon fill="none" stroke="black" points="124.38,-120.2 124.38,-151 338.37,-151 338.37,-120.2 124.38,-120.2"/>
<text text-anchor="start" x="131.38" y="-132.4" font-family="Arial" font-size="14.00">last_name </text>
<text text-anchor="start" x="199.86" y="-132.4" font-family="Arial" font-size="14.00" fill="#666666">[varchar(255)]</text>
<polygon fill="none" stroke="black" points="124.38,-89.4 124.38,-120.2 338.37,-120.2 338.37,-89.4 124.38,-89.4"/>
<text text-anchor="start" x="131.38" y="-101.6" font-family="Arial" font-size="14.00">password_hash </text>
<text text-anchor="start" x="233.33" y="-101.6" font-family="Arial" font-size="14.00" fill="#666666">[varbinary(255)]</text>
<polygon fill="none" stroke="black" points="124.38,-58.6 124.38,-89.4 338.37,-89.4 338.37,-58.6 124.38,-58.6"/>
<text text-anchor="start" x="131.38" y="-70.8" font-family="Arial" font-size="14.00">middle_name </text>
<text text-anchor="start" x="219.32" y="-70.8" font-family="Arial" font-size="14.00" fill="#666666">[varchar(255)]</text>
</g>
<!-- users_calendars_bans&#45;&gt;users -->
<g id="edge1" class="edge">
<title>users_calendars_bans:user_id&#45;&gt;users:id</title>
<path fill="none" stroke="black" d="M229.83,-526.76C175.43,-517.27 207.59,-428.91 241.16,-373.6 266.51,-331.82 312.93,-363.93 338.37,-322.2 360.17,-286.45 381.24,-228 339.37,-228"/>
<polygon fill="black" stroke="black" points="229.86,-526.77 239.46,-532.06 235.17,-527.2 239.49,-527.55 239.49,-527.55 239.49,-527.55 235.17,-527.2 240.19,-523.09 229.86,-526.77"/>
<text text-anchor="start" x="7" y="-537.6" font-family="Arial" font-size="10.00">FOREIGN KEY (user_id) REFERENCES users (id)</text>
</g>
<!-- calendars -->
<g id="node3" class="node">
<title>calendars</title>
<polygon fill="#efefef" stroke="none" points="443.15,-258.8 443.15,-294.4 649.6,-294.4 649.6,-258.8 443.15,-258.8"/>
<polygon fill="none" stroke="black" points="443.15,-258.8 443.15,-294.4 649.6,-294.4 649.6,-258.8 443.15,-258.8"/>
<text text-anchor="start" x="450.15" y="-272.2" font-family="Arial Bold" font-size="18.00">calendars</text>
<text text-anchor="start" x="518.11" y="-272.2" font-family="Arial" font-size="14.00">    </text>
<text text-anchor="start" x="549.23" y="-272.2" font-family="Arial" font-size="14.00" fill="#666666">[BASE TABLE]</text>
<polygon fill="none" stroke="black" points="443.15,-228 443.15,-258.8 649.6,-258.8 649.6,-228 443.15,-228"/>
<text text-anchor="start" x="450.15" y="-240.2" font-family="Arial" font-size="14.00">id </text>
<text text-anchor="start" x="464.94" y="-240.2" font-family="Arial" font-size="14.00" fill="#666666">[int(11)]</text>
<polygon fill="none" stroke="black" points="443.15,-197.2 443.15,-228 649.6,-228 649.6,-197.2 443.15,-197.2"/>
<text text-anchor="start" x="450.15" y="-209.4" font-family="Arial" font-size="14.00">owner_id </text>
<text text-anchor="start" x="510.85" y="-209.4" font-family="Arial" font-size="14.00" fill="#666666">[int(11)]</text>
<polygon fill="none" stroke="black" points="443.15,-166.4 443.15,-197.2 649.6,-197.2 649.6,-166.4 443.15,-166.4"/>
<text text-anchor="start" x="450.15" y="-178.6" font-family="Arial" font-size="14.00">name </text>
<text text-anchor="start" x="489.06" y="-178.6" font-family="Arial" font-size="14.00" fill="#666666">[varchar(255)]</text>
<polygon fill="none" stroke="black" points="443.15,-135.6 443.15,-166.4 649.6,-166.4 649.6,-135.6 443.15,-135.6"/>
<text text-anchor="start" x="450.15" y="-147.8" font-family="Arial" font-size="14.00">description </text>
<text text-anchor="start" x="521.74" y="-147.8" font-family="Arial" font-size="14.00" fill="#666666">[text]</text>
<polygon fill="none" stroke="black" points="443.15,-104.8 443.15,-135.6 649.6,-135.6 649.6,-104.8 443.15,-104.8"/>
<text text-anchor="start" x="450.15" y="-117" font-family="Arial" font-size="14.00">ical </text>
<text text-anchor="start" x="475.05" y="-117" font-family="Arial" font-size="14.00" fill="#666666">[longblob]</text>
<polygon fill="none" stroke="black" points="443.15,-74 443.15,-104.8 649.6,-104.8 649.6,-74 443.15,-74"/>
<text text-anchor="start" x="450.15" y="-86.2" font-family="Arial" font-size="14.00">members_only </text>
<text text-anchor="start" x="545.85" y="-86.2" font-family="Arial" font-size="14.00" fill="#666666">[tinyint(1)]</text>
<polygon fill="none" stroke="black" points="443.15,-43.2 443.15,-74 649.6,-74 649.6,-43.2 443.15,-43.2"/>
<text text-anchor="start" x="450.15" y="-55.4" font-family="Arial" font-size="14.00">color </text>
<text text-anchor="start" x="484.39" y="-55.4" font-family="Arial" font-size="14.00" fill="#666666">[varchar(6)]</text>
</g>
<!-- users_calendars_bans&#45;&gt;calendars -->
<g id="edge2" class="edge">
<title>users_calendars_bans:calendar_id&#45;&gt;calendars:id</title>
<path fill="none" stroke="black" d="M546.73,-495.74C587.95,-486.27 564.55,-415.59 535.59,-373.6 510.56,-337.31 468.23,-373.86 443.15,-337.6 419.34,-303.16 400.28,-243.4 442.15,-243.4"/>
<polygon fill="black" stroke="black" points="546.87,-495.73 536.46,-492.29 541.56,-496.28 537.26,-496.73 537.26,-496.73 537.26,-496.73 541.56,-496.28 537.39,-501.24 546.87,-495.73"/>
<text text-anchor="start" x="543.59" y="-506.8" font-family="Arial" font-size="10.00">FOREIGN KEY (calendar_id) REFERENCES calendars (id)</text>
</g>
</g>
</svg>
